<svg viewBox="0 0 48 48"><path d="m16.5 6-14.4 25 7.5 13h28.8l7.5-13-14.4-25zm7.5 13.1 6.9 11.8h-13.8z" opacity=".2"/><path d="m16.5 5-11.6 20h15.1l11.5-20z" fill="#0ca55f"/><path d="m16.5 5h15l-10.9 19z" opacity=".1"/><path d="m16.5 5h15l14.5 25-7.6 13z" fill="#fdd04b"/><path d="m46 30-7.6 13-11-19z" opacity=".1"/><path d="m9.6 43-7.6-13h44l-7.6 13z" fill="#4186fb"/><path d="m9.6 43-7.6-13h22z" opacity=".1"/><path d="m4.9 25-2.9 5 7.6 13 10.4-18z" fill="#0ca55f"/><path d="m16.5 5-14.5 25 .3.5 14.2-24.5h15l14.2 24.5.3-.5-14.5-25zm1.1 25-.5 1h13.8l-.5-1z" fill="#fff" opacity=".2"/></svg>