<svg viewBox="0 0 48 48"><rect height="42" opacity=".1" rx="3" width="42" x="3" y="3"/><rect height="40" opacity=".2" rx="2" width="40" x="4" y="5"/><rect fill="#fff" height="40" rx="2" width="40" x="4" y="4"/><path d="m32.9 30.1s-.4.4.1.4c0 0 3.2-.4 3.6.1.4.6-.8 3.5-.8 3.5s-.2.6.4.2c0 0 2.2-2 1.7-4.7-2.8-1-5 .5-5 .5zm-22.8.2s5.3 5.3 13.9 5.3c6.8 0 11.3-3.5 11.3-3.5.5-.3.1-1-.5-.7 0 0-4.3 2.1-10.5 2.1-8.3 0-13.8-3.6-13.8-3.6-.5-.3-.6.2-.4.4z" fill="#f90"/><path d="m24 12.2s-6.4-.2-7.3 5.1c0 0 0 .5.5.6l2.8.3s.9.3 1-.7c0 0 .3-1.8 2.6-1.8 0 0 2.6-.4 2.2 3.6 0 0-4.1.3-6.2 1.2 0 0-3.4 1.2-3.4 5.3 0 0-.2 5.1 4.9 5.1 0 0 3.1.3 5.4-2.4 0 0 .7 1.3 1.8 2.2 0 0 .4.3.8-.1l2.5-2.1s.5-.3 0-1c0 0-1.2-1.2-1.2-2.7v-6.8c.1-3.4-1.6-5.5-6.4-5.8zm1.8 9.8s.6 5.6-2.9 5.6c-2 0-1.9-2.4-1.9-2.4s-.6-3.2 4.8-3.2z" fill="#373737"/></svg>