<svg height="48" width="48" xmlns="http://www.w3.org/2000/svg" xmlns:xlink="http://www.w3.org/1999/xlink"><rect height="40" opacity=".2" rx="3" width="40" x="4" y="5"/><rect fill="#20c05c" height="40" rx="3" width="40" x="4" y="4"/><g fill="#fff" opacity=".2"><path d="m7 4s-3 0-3 3v1s0-3 3-3h34s3 0 3 3v-1s0-3-3-3z"/><use xlink:href="#a" y="1"/></g><g fill="#333"><path id="a" d="m28.3 24.2s0-1.7 1.5-1.7c1.6 0 1.5 2 1.5 2s-1.6-.6-3-.3zm6.4-8.5s-.2-1.4-1.4-1.8c0 0-3.1-1.1-7.5-.8 0 0-.1-1.2-1.3-1.8 0 0-1.7-.7-4.7-.3 0 0-1.8.4-1.8 2.1l.1 2.9s0 1.1-1.1 1.1h-2.6s-1.3-.1-2.1.8c0 0-.4.6-.4 1.6l.1 1.2s.8 5.8 1.7 7.6c0 0 .2.7 1 1.1 0 0 3 1.1 6 1.4 0 0 1.9.6 2.3-.6 0 0 .8-1.9.8-4.3 0 0-.2 3.1 1.5 3.6 0 0 1.9.5 3.4.6 1.1.1 2.1.7 2.1 3.7 0 1.9-.4 2.2-2.5 2.2-1.7 0-2.4 0-2.4-1.3 0-1.1 1.3-1 2.1-1 0 0-.3-1.2.2-2-3.4 0-4.6.1-4.6 3.5 0 3.1 1.2 3.7 5.1 3.7 3.1 0 4.1-.2 5.4-4.1 0 0 .9-3.2 1.2-7.1 0 0 .3-5.3-.6-12zm-17.8.6s.3 0 .3-.3l-.1-2.9c0-.6.4-1.5.4-1.5l-5.1 5.1s.7-.4 1.9-.4"/></g></svg>