<svg height="48" width="48" xmlns="http://www.w3.org/2000/svg" xmlns:xlink="http://www.w3.org/1999/xlink"><g opacity=".2"><g id="a"><circle cx="24" cy="25" r="22"/><path d="m5.1 36.2-3.1 10.8 10.8-3.1z"/></g></g><use fill="#f2f2f2" xlink:href="#a" y="-1"/><g fill="#388e3c"><g id="b"><circle cx="24" cy="25" r="18"/><path d="m9 35-2 7 7.1-2z"/></g></g><use fill="#4caf50" xlink:href="#b" y="-1"/><g opacity=".2"><path id="c" d="m31.5 33.8c1.5-.7 2.3-1.8 2.5-3.3 0-1.1 0-1.1-2.2-2.2-2.8-1.4-2.8-1.4-4 .1 0 0-.9 1.3-1.4 1.3s-2.2-.9-3.2-1.5c-1.4-1-4.1-4.1-4.1-4.8 0-.2.7-1 .7-1 1.1-1.4 1.2-1.4.1-3.9-1.1-2.7-1.1-2.7-2.3-2.7-1.5 0-1.5 0-2.5 1.2-.8 1.1-1.1 2-1.1 3.4 0 1.8.6 3.2 2.3 5.6 2.9 4.1 5.7 6.2 9.8 7.6 2.5.9 4 .8 5.4.2z"/></g><use fill="#f2f2f2" xlink:href="#c" y="-1"/></svg>