<svg viewBox="0 0 48 48"><circle cx="24" cy="25" opacity=".2" r="22"/><circle cx="24" cy="24" fill="#ff4500" r="22"/><path d="m24 2c-12.2 0-22 9.9-22 22v .6c.3-11.9 10-21.6 22-21.6 11.9 0 21.7 9.7 22 21.6v-.6c0-12.1-9.8-22-22-22z" fill="#fff" opacity=".2"/><g fill="#fff"><ellipse cx="24" cy="28.3" rx="13.4" ry="8.7"/><circle cx="11.9" cy="24.2" r="2.9"/><circle cx="36.1" cy="24.2" r="2.9"/><circle cx="34.6" cy="14.4" r="2.3"/></g><path d="m23.9 20 2.4-7.5 8.2 1.9" fill="none" stroke="#fff" stroke-linejoin="round" stroke-width="1.5"/><g fill="#ff4500"><circle cx="19.3" cy="26.6" r="2.1"/><circle cx="28.7" cy="26.6" r="2.1"/></g><path d="m19.4 32.3s.9 1.4 4.6 1.4 4.6-1.4 4.6-1.4" fill="none" stroke="#ff4500" stroke-linecap="round" stroke-width="1.2"/></svg>