<svg viewBox="0 0 48 48"><rect height="40" opacity=".2" rx="3" width="40" x="4" y="5"/><rect fill="#b71c1c" height="40" rx="3" width="40" x="4" y="4"/><g fill="#fff"><path d="m7 4s-3 0-3 3v1s0-3 3-3h34s3 0 3 3v-1s0-3-3-3z" opacity=".2"/><path d="m22.4 30.1-1.1-2.8s-1.6 1.8-4.1 1.8c-2.3 0-3.8-1.8-3.8-5 0-3.9 1.9-5.3 3.9-5.3 2.9 0 3.7 1.9 4.5 4.2l1 3.2c1 3.1 3 5.6 8.5 5.6 4 0 6.7-1.2 6.7-4.4 0-2.6-1.4-4-4.2-4.6l-2.1-.5c-2-.3-1.8-1.8-1.8-1.8s-.1-1.8 2.3-1.8c2.5 0 2.5 2 2.5 2l3.2-.4c-.3-2.9-2.2-4.1-5.5-4.1-2.9 0-5.8 1.1-5.8 4.6 0 2.2 1.1 3.6 3.8 4.2l2.1.5c1.6.4 2.2 1.1 2.2 2 0 1.2-1.1 1.7-3.3 1.7-3.2 0-4.6-1.8-5.4-4.1l-1-3.2c-1.4-4.2-3.6-5.7-7.8-5.7-4.7 0-7.2 3-7.2 8.1 0 4.8 2.5 7.5 7 7.5 3.4 0 5.4-1.7 5.4-1.7z"/></g></svg>