<svg viewBox="0 0 48 48"><rect height="40" opacity=".2" rx="2" width="40" x="4" y="5"/><rect fill="#4101af" height="40" rx="2" width="40" x="4" y="4"/><g fill="#fff"><path d="m6 4s-2 0-2 2v1s0-2 2-2h36s2 0 2 2v-1s0-2-2-2z" opacity=".1"/><path d="m11.6 12 8 13.6-.2 10.3s1.7-.3 3 0l-.1-10.3 8-13.6s-1.5.4-3 0l-6.4 10.5-6.3-10.5s-1.3.4-3 0zm21.9 1.4-1.7 17.3s.6-.1 1 .2l3.5-16.6s.7-1.6-1.1-2c-1.6-.3-1.7 1.1-1.7 1.1zm-1.9 19.6c-1.5 0-1.5 1.5-1.5 1.5s0 1.5 1.7 1.5c1.5 0 1.5-1.5 1.5-1.5s0-1.5-1.7-1.5z"/></g></svg>