<svg viewBox="0 0 48 48"><circle cx="24" cy="25" opacity=".2" r="20"/><circle cx="24" cy="24" fill="#dc4e41" r="20"/><g fill="#fff"><path d="m19.3 14.7c-5.2 0-9.3 4.1-9.3 9.3s4.1 9.3 9.3 9.3c5.5 0 9-3.8 9-9.1 0-1-.2-1.5-.2-1.5h-8.8v3.2h5.3s-.6 4-5.3 4c-3.2 0-5.8-2.7-5.8-5.9s2.6-5.9 5.8-5.9c2.6 0 3.7 1.5 3.7 1.5l2.6-2.5s-2.2-2.4-6.3-2.4zm13.4 5.3v2.7h-2.7v2.6h2.7v2.7h2.6v-2.7h2.7v-2.6h-2.7v-2.7z"/><path d="m24 4c-11.1 0-20 8.9-20 20v .5c.3-10.8 9.1-19.5 20-19.5s19.7 8.7 20 19.5v-.5c0-11.1-8.9-20-20-20z" opacity=".1"/></g></svg>