<svg height="48" width="48" xmlns="http://www.w3.org/2000/svg"><rect height="40" opacity=".2" rx="3" width="40" x="4" y="5"/><rect fill="#55acee" height="40" rx="3" width="40" x="4" y="4"/><g fill="#fff"><path d="m7 4s-3 0-3 3v1s0-3 3-3h34s3 0 3 3v-1s0-3-3-3z" opacity=".2"/><path d="m36 17s-1.4.6-2.8.8c0 0 1.8-1.2 2.1-2.8 0 0-1.3 1-3.1 1.2 0 0-1.2-1.5-3.6-1.5-2.7 0-4.9 2.2-4.9 4.9 0 0 0 .7.1 1.1 0 0-5.7.2-10.1-5.1 0 0-2.4 3.6 1.5 6.6 0 0-1.4-.1-2.2-.7 0 0-.3 3.9 3.9 4.9 0 0-.9.4-2.2.1 0 0 .9 3.3 4.6 3.4 0 0-2.9 2.6-7.3 2.1 0 0 3.1 2.2 7.5 2.2 5.3 0 14.1-3.4 14-14.7 0 0 1.3-.7 2.5-2.5z"/></g></svg>