<svg height="48" width="48" xmlns="http://www.w3.org/2000/svg"><rect height="40" opacity=".2" rx="3" width="40" x="4" y="5"/><rect fill="#f4f1ef" height="40" rx="3" width="40" x="4" y="4"/><path d="m44 29.5-40 11.5s0 3 3 3h34s3 0 3-3z" fill="#d81768"/><path d="m4 7v34s0 3 3 3h11.5l-11.5-40s-3 0-3 3z" fill="#48c39e"/><path d="m7 4s-3 0-3 3v11.5l40-11.5s0-3-3-3z" fill="#81d2e0"/><path d="m41 4h-11.5l11.5 40s3 0 3-3v-34s0-3-3-3z" fill="#ecb524"/><path d="m16.6 37.4-12.6 3.6s0 3 3 3h11.5z" fill="#390f39"/><path d="m7 4s-3 0-3 3v11.5l6.6-1.9z" fill="#20a48e"/><path d="m29.5 4 1.9 6.6 12.6-3.6s0-3-3-3z" fill="#77971f"/><path d="m44 29.5-6.6 1.9 3.6 12.6s3 0 3-3z" fill="#d5100d"/><path d="m30 27.2s.5 4.8-6 4.8c-4.8 0-6-2.9-6-2.9l2.4-1.8s.9 1.9 3.6 1.9c3 0 2.7-1.7 2.7-1.7 0-3.3-8.4-1-8.4-6.9 0 0-.4-4.6 5.7-4.6 4.4 0 5.6 2.7 5.6 2.7l-2.4 1.9s-.8-1.8-3.2-1.8c-2.8 0-2.6 1.6-2.6 1.6 0 2.8 8.6.9 8.6 6.8z" fill="#5a3856"/><path d="m7 4s-3 0-3 3v1s0-3 3-3h34s3 0 3 3v-1s0-3-3-3z" fill="#fff" opacity=".2"/></svg>