<svg height="24" width="24" xmlns="http://www.w3.org/2000/svg"><path d="m8.5 3s-.5 0-.5.5v1.7s.5-.2 1-.2h1v-1.5s0-.5-.5-.5zm3 0s-.5 0-.5.5v1.5h2v-1.5s0-.5-.5-.5zm3 0s-.5 0-.5.5v1.5h1c .5 0 1 .2 1 .2v-1.7s0-.5-.5-.5zm-5.5 3s-3 0-3 3v6s0 3 3 3h6s3 0 3-3v-6s0-3-3-3zm-5.5 2s-.5 0-.5.5v1s0 .5.5.5h1.5v-1c0-.5.2-1 .2-1zm5.5 0h6s1 0 1 1v6s0 1-1 1h-6s-1 0-1-1v-6s0-1 1-1zm9.8 0s .2.5.2 1v1h1.5s.5 0 .5-.5v-1s0-.5-.5-.5zm-9.8 1v6h6v-6zm-5.5 2s-.5 0-.5.5v1s0 .5.5.5h1.5v-2zm15.5 0v2h1.5s.5 0 .5-.5v-1s0-.5-.5-.5zm-15.5 3s-.5 0-.5.5v1s0 .5.5.5h1.7s-.2-.5-.2-1v-1zm15.5 0v1c0 .5-.2 1-.2 1h1.7s.5 0 .5-.5v-1s0-.5-.5-.5zm-11 4.8v1.7s0 .5.5.5h1s .5 0 .5-.5v-1.5h-1c-.5 0-1-.2-1-.2zm8 0s-.5.2-1 .2h-1v1.5s0 .5.5.5h1s .5 0 .5-.5zm-5 .2v1.5s0 .5.5.5h1s .5 0 .5-.5v-1.5z" fill="#dbdee0"/></svg>