<?xml version="1.0" encoding="UTF-8" standalone="no"?>
<svg
   xmlns:dc="http://purl.org/dc/elements/1.1/"
   xmlns:cc="http://creativecommons.org/ns#"
   xmlns:rdf="http://www.w3.org/1999/02/22-rdf-syntax-ns#"
   xmlns:svg="http://www.w3.org/2000/svg"
   xmlns="http://www.w3.org/2000/svg"
   xmlns:sodipodi="http://sodipodi.sourceforge.net/DTD/sodipodi-0.dtd"
   xmlns:inkscape="http://www.inkscape.org/namespaces/inkscape"
   height="24"
   width="24"
   id="svg2"
   version="1.1"
   inkscape:version="0.91 r13725"
   sodipodi:docname="indicator-keyboard-Te.svg">
  <metadata
     id="metadata10">
    <rdf:RDF>
      <cc:Work
         rdf:about="">
        <dc:format>image/svg+xml</dc:format>
        <dc:type
           rdf:resource="http://purl.org/dc/dcmitype/StillImage" />
        <dc:title></dc:title>
      </cc:Work>
    </rdf:RDF>
  </metadata>
  <defs
     id="defs8" />
  <sodipodi:namedview
     pagecolor="#ffffff"
     bordercolor="#666666"
     borderopacity="1"
     objecttolerance="10"
     gridtolerance="10"
     guidetolerance="10"
     inkscape:pageopacity="0"
     inkscape:pageshadow="2"
     inkscape:window-width="640"
     inkscape:window-height="480"
     id="namedview6"
     showgrid="false"
     inkscape:zoom="12"
     inkscape:cx="-3.0416667"
     inkscape:cy="12"
     inkscape:current-layer="svg2" />
  <path
     d="M 6,4 C 6,4 4,4 4,6 l 0,12 c 0,0 0,2 2,2 l 12,0 c 0,0 2,0 2,-2 L 20,6 c 0,0 0,-2 -2,-2 z m 0.6,4.1 5.8,0 0,0.9 -2.4,0 0,7 -1,0 0,-7 -2.4,0 z m 8,2 c 2.4,0 2.4,2.6 2.4,2.6 l 0,0.6 -4.1,0 c 0,0 -0.2,2 1.9,2 1.3,0 2,-0.5 2,-0.5 l 0,0.9 c 0,0 -0.7,0.4 -2,0.4 -3.1,0 -2.9,-3 -2.9,-3 0,0 0,-3 2.7,-3 z m 0,0.8 c -1.6,0 -1.7,1.7 -1.7,1.7 l 3.2,0 c 0,0 0,-1.7 -1.5,-1.7 z"
     id="path4"
     inkscape:connector-curvature="0"
     style="fill:#dbdee0"
     sodipodi:nodetypes="cscscscsccccccccccscccsccscssccs" />
</svg>
