<svg height="24" width="24" xmlns="http://www.w3.org/2000/svg"><path d="m6 4s-2 0-2 2v12s0 2 2 2h12s2 0 2-2v-12s0-2-2-2zm0 4.3h2.6s2.1 0 2.1 2c0 1.5-1.3 1.6-1.3 1.6s1.6.1 1.6 2c0 2.1-2.3 2.1-2.3 2.1h-2.7zm1 .9v2.3h1.4s1.3 0 1.3-1.2c0-1.1-1.1-1.1-1.1-1.1zm7.3.9c1.2 0 1.6.9 1.6.9v-.7h.9v5.8s0 2.2-2.4 2.2c-.8 0-1.6-.3-1.6-.3v-1s .8.5 1.6.5c1.5 0 1.5-1.4 1.5-1.4v-1s-.3.9-1.6.9c-2.2 0-2.2-2.9-2.2-2.9s0-3 2.2-3zm .2.8c-1.4 0-1.4 2.2-1.4 2.2s0 2.2 1.4 2.2 1.4-2.2 1.4-2.2 0-2.2-1.4-2.2zm-7.5 1.4v2.8h1.8s1.1 0 1.1-1.3c0-1.5-1.5-1.5-1.5-1.5z" fill="#dbdee0"/></svg>