<svg height="24" width="24" xmlns="http://www.w3.org/2000/svg"><path d="m6 4s-2 0-2 2v12s0 2 2 2h12s2 0 2-2v-12s0-2-2-2zm4 4.2c1 0 1.8.5 1.8.5v1.1s-.8-.8-1.8-.8c-1.8 0-2 1.8-2 3.2 0 1.8.4 3.1 2 3.1.7 0 1-.3 1-.3v-2.1h-1.1v-.8h2.1v3.3s-.6.7-2 .7c-2.5 0-3.1-2-3.1-3.9 0-2.3.9-4 3.1-4zm5.5 1.9c2.1 0 2.4 1.3 2.4 2.2v3.7h-.9v-.9s-.4 1-1.9 1c-1.3 0-1.9-.7-1.9-1.8 0-1.9 2-1.9 2-1.9h1.8c0-1-.4-1.5-1.5-1.5-.9 0-1.9.5-1.9.5v-.9s1-.4 1.9-.4zm0 3s-1.4 0-1.4 1.2c0 1.1 1.2 1.1 1.2 1.1 1.8 0 1.7-2.3 1.7-2.3z" fill="#dbdee0"/></svg>