<svg height="24" width="24" xmlns="http://www.w3.org/2000/svg"><path d="m11 2v2.2c-3.1.4-5.8 2.8-6.5 5.8h2c .8-2.2 3-3.9 5.5-3.9s4.7 1.7 5.5 3.9h2c-.7-3-3.4-5.4-6.5-5.8v-2.2zm1 5.7c-2.4 0-4.3 1.9-4.3 4.3 0 .5.1.9.1.9h6.6s-.6 1.7-2.4 1.7c-1.1 0-1.9-.9-1.9-.9h-2c .7 1.5 2.1 2.6 3.9 2.6 2.4 0 4.3-1.9 4.3-4.3 0-.4-.1-.9-.1-.9h-6.6s.6-1.7 2.4-1.7c1.1 0 1.9.9 1.9.9h2c-.7-1.5-2.1-2.6-3.9-2.6zm-7.5 6.3c.7 3 3.4 5.4 6.5 5.8v2.2h2v-2.2c3.1-.4 5.8-2.8 6.5-5.8h-2c-.8 2.2-3 3.9-5.5 3.9s-4.7-1.7-5.5-3.9z" fill="#dbdee0"/></svg>