<svg height="22" width="22" xmlns="http://www.w3.org/2000/svg" xmlns:xlink="http://www.w3.org/1999/xlink"><linearGradient id="a"><stop offset="0" stop-color="#dbdee0"/><stop offset="1" stop-color="#dbdee0" stop-opacity="0"/></linearGradient><linearGradient id="b" gradientUnits="userSpaceOnUse" x1="16" x2="19" xlink:href="#a" y1="30" y2="3"/><linearGradient id="c" gradientUnits="userSpaceOnUse" x1="11" x2="22" xlink:href="#a" y1="5" y2="9"/><path d="m11 3c-4.4 0-8 3.6-8 8s3.6 8 8 8v-2c-3.3 0-6-2.7-6-6s2.7-6 6-6c0 0 1 0 1-1s-1-1-1-1z" fill="url(#c)"/><path d="m11 3c4.4 0 8 3.6 8 8s-3.6 8-8 8v-2c3.3 0 6-2.7 6-6s-2.7-6-6-6z" fill="url(#b)"/></svg>