<svg viewBox="0 0 48 48"><rect height="5" opacity=".2" rx="2" width="40" x="4" y="40"/><path d="m24 4v20h20v-18s0-2-2-2z" fill="#4d4d4d"/><path d="m6 44c-2 0-2-2-2-2v-18h20v20z" fill="#808080"/><path d="m4 24v-18c0-2 2-2 2-2h18v20z" fill="#b3b3b3"/><path d="m13 10v3h-3v2h3v3h2v-3h3v-2h-3v-3zm17 3v2h8v-2zm-19 16.6-1.4 1.4 3 3-3 3 1.4 1.4 3-3 3 3 1.4-1.4-3-3 3-3-1.4-1.4-3 3z" fill="#ebebeb"/><path d="m6 4s-2 0-2 2v1s0-2 2-2h36s2 0 2 2v-1s0-2-2-2c0 0-24 0-36 0z" fill="#fff" opacity=".1"/><path d="m42 44s2 0 2-2v-18h-20v20z" fill="#666"/><circle cx="34" cy="35" opacity=".2" r="12"/><circle cx="34" cy="34" fill="#00bfa5" r="12"/><path d="m30 31v2h8v-2zm0 4v2h8v-2z" fill="#fff"/></svg>