<svg viewBox="0 0 48 48"><g opacity=".2"><rect height="28" rx="2" width="28" x="16" y="5"/><rect height="28" rx="2" width="28" x="4" y="17"/></g><rect fill="#6a1b9a" height="28" rx="2" width="28" x="16" y="4"/><path d="m24.5 25.5v-14l12.9 7z" fill="#d1c4e9" fill-rule="evenodd" stroke="#d1c4e9" stroke-linejoin="round"/><rect fill="#fb8c00" height="28" rx="2" width="28" x="4" y="16"/><path d="m18 4s-2 0-2 2v1s0-2 2-2h24s2 0 2 2v-1s0-2-2-2zm-12 12s-2 0-2 2v1s0-2 2-2h24s2 0 2 2v-1s0-2-2-2z" fill="#fff" opacity=".2"/><g fill="#fff3e0"><path d="m15 23v11h2v-7h6v7h2v-11z"/><circle cx="14" cy="34" r="3"/><circle cx="22" cy="34" r="3"/></g></svg>