<svg height="48" width="48" xmlns="http://www.w3.org/2000/svg" xmlns:xlink="http://www.w3.org/1999/xlink"><use height="100%" opacity=".2" width="100%" xlink:href="#a" y="1"/><g fill="#757575"><path id="a" d="m19.1 4.4-.9 4.6-4.2 2.5-4.5-1.5-.8.3-4.1 7.3v.9l3.4 3v5l-3.4 3 .1.9 4 7.3.8.3 4.5-1.5 4.2 2.5.9 4.6.6.4h8.6l.6-.4.9-4.6 4.2-2.5 4.5 1.5.8-.3 4.1-7.3v-1.1l-3.4-2.8v-5l3.4-3 .1-.9-4.2-7.3-.8-.3-4.5 1.5-4.2-2.5-.9-4.6-.6-.4h-8.6z"/></g><circle cx="24" cy="25" opacity=".3" r="8"/><g fill="#fff"><circle cx="24" cy="24" r="8"/><path d="m19.7 4-.6.4-.9 4.6-4.2 2.5-4.5-1.5-.8.3-4.1 7.3v.9l4.1-7.2.8-.3 4.5 1.5 4.2-2.5.9-4.6.6-.4h8.6l.6.4.9 4.6 4.2 2.5 4.5-1.5.8.3 4.1 7.1.1-.8-4.2-7.3-.8-.3-4.5 1.5-4.2-2.5-.9-4.6-.6-.4zm-11.7 22.5-3.4 3 .1.9 3.3-2.9zm32 0v1l3.4 2.8v-1z" opacity=".1"/></g></svg>