<svg height="48" width="48" xmlns="http://www.w3.org/2000/svg"><rect height="36" opacity=".2" rx="3" width="40" x="4" y="7"/><rect fill="#546e7a" height="36" rx="3" width="40" x="4" y="6"/><path d="m7 6s-3 0-3 3v1s0-3 3-3h34s3 0 3 3v-1s0-3-3-3z" fill="#fff" opacity=".2"/><path d="m20.8 11-.3 3.5-3 1.6-3.1-1.5-3.3 5.6 2.9 2v3.6l-2.9 2 3.3 5.6 3.1-1.5 3 1.6.3 3.5h6.4l.3-3.5 3-1.6 3.1 1.5 3.3-5.6-2.9-2v-3.6l2.9-2-3.3-5.6-3.1 1.5-3-1.6-.3-3.5z" fill="#cfd8dc"/><circle cx="24" cy="24" fill="#546e7a" r="4.3"/></svg>