<svg viewBox="0 0 48 48"><use opacity=".2" xlink:href="#a" y="1"/><g fill="#ebebeb"><path id="a" d="m24 4c-11 0-20 9-20 20s9 20 20 20c2 0 3.3-1.5 3.3-3.3 0-2.2-1.7-2.2-1.7-4.4 0-1.8 1.4-3.3 3.4-3.3h4c6 0 11-5 11-11 0-10-9-18-20-18z"/></g><circle cx="12.5" cy="23.5" fill="#f34235" r="3.5"/><circle cx="18.5" cy="13.5" fill="#fec006" r="3.5"/><circle cx="29.5" cy="12.5" fill="#4bae4f" r="3.5"/><circle cx="36.5" cy="21.5" fill="#2095f2" r="3.5"/><path d="m24 4c-11 0-20 9-20 20v .5c0-10.5 9-19.5 20-19.5s20 8 20 17v-.5c0-9.5-9-17.5-20-17.6zm1.6 32.8c0 2.2 1.7 2.2 1.7 4.4v-.5c0-2.2-1.7-2.2-1.7-4.4z" fill="#fff" opacity=".2"/></svg>