<svg height="48" width="48" xmlns="http://www.w3.org/2000/svg" xmlns:xlink="http://www.w3.org/1999/xlink"><g stroke-linejoin="round" stroke-width="6"><path d="m14 30h20m6-10 1 20-8-12m-25-8-1 20 8-12" opacity=".2" stroke="#000"/><path d="m15 29h25m0-10 1 20-8-12" fill="none" stroke="#388e3c"/><path d="m8 19-1 20 8-12z" fill="#4caf50" stroke="#4caf50"/></g><rect fill="#4caf50" height="18" rx="9" width="38" x="5" y="10"/><path d="m14 10c-5 0-9 4-9 9v1c0-5 4-9 9-9h20c5 0 9 4 9 9v-1c0-5-4-9-9-9z" fill="#fff" opacity=".1"/><g opacity=".2"><g id="a"><path d="m13 16v3h-3v3h3v3h3v-3h3v-3h-3v-3z"/><circle cx="30.5" cy="20.5" r="1.5"/><circle cx="36.5" cy="20.5" r="1.5"/><circle cx="33.5" cy="17.5" r="1.5"/><circle cx="33.5" cy="23.5" r="1.5"/></g></g><use fill="#e8f5e9" xlink:href="#a" y="-1"/></svg>