<svg height="48" width="48" xmlns="http://www.w3.org/2000/svg" xmlns:xlink="http://www.w3.org/1999/xlink"><g opacity=".2"><rect height="8" rx="2" width="16" x="16" y="5"/><use xlink:href="#a" y="1"/></g><g fill="#07ce8e"><path id="a" d="m18 12v3.6l-11 19.1c-.6.9-1 2.1-1 3.3 0 3.3 2.7 6 6 6h24c3.3 0 6-2.7 6-6 0-1.2-.4-2.3-1-3.3l-11-19.1v-3.6z"/></g><path d="m18 12h12v1h-12z" opacity=".1"/><path d="m18 13h12v1h-12z" opacity=".05"/><g fill="#fff"><circle cx="22" cy="22" r="2"/><path d="m10 38c0 1.1.9 2 2 2h24c1.1 0 2-.9 2-2 0-.5-.4-1.1-.4-1.1l-4.6-7.9s-1-3-5-3-4 4-8 4-4-3-4-3l-5.6 9.9s-.4.6-.4 1.1z"/><rect height="8" rx="2" width="16" x="16" y="4"/></g><path d="m18 4s-2 0-2 2v1s0-2 2-2h12s2 0 2 2v-1s0-2-2-2z" fill="#fff" opacity=".4"/></svg>
