<svg height="48" width="48" xmlns="http://www.w3.org/2000/svg"><path d="m17 10v-4c0-1 1-1 1-1h12c1 0 1 1 1 1v4h-2v-3h-10v3z" fill="#333"/><rect height="32" opacity=".2" rx="3" width="40" x="4" y="11"/><rect fill="#8d6e63" height="32" rx="3" width="40" x="4" y="10"/><path d="m11 33v9h2v-9zm24 0v9h2v-9z" opacity=".1"/><rect height="16" opacity=".1" rx="3" width="40" x="4" y="11"/><rect fill="#a1887f" height="16" rx="3" width="40" x="4" y="10"/><path d="m11 10v12h2v-12zm24 0v12h2v-12z" fill="#8d6e63"/><path d="m7 10s-3 0-3 3v1s0-3 3-3h34s3 0 3 3v-1s0-3-3-3z" fill="#fff" opacity=".2"/><path d="m9 26v2h6v-2zm24 0v2h6v-2z" fill="#ccc"/><path d="m9 22v4h6v-4zm24 0v4h6v-4z" fill="#ebebeb"/><path d="m11 24v9s0 1 1 1 1-1 1-1v-9zm24 0v9s0 1 1 1 1-1 1-1v-9z" fill="#755c53"/></svg>