<svg viewBox="0 0 48 48"><path d="m4 9v30s0 2 2 2h37v-30s0-2-2-2zm22.2 8h8.8v7.2zm-14.2 8.8 8.8 7.2h-8.8z" opacity=".2"/><path d="m4 8v30s0 2 2 2h37zm8 16.8 8.8 7.2h-8.8z" fill="#03a9f4"/><path d="m43 40v-30s0-2-2-2h-37zm-8-16.8-8.8-7.2h8.8z" fill="#3f51b5"/><path d="m4 8v1l37.8 31h1.2l-37.8-31h35.8s2 0 2 2v-1s0-2-2-2zm22.2 9 8.8 7.2v-1l-7.6-6.2zm-14.2 15v1h8.8l-1.2-1z" fill="#fff" opacity=".2"/><path d="m4 8 37.8 31h-35.8s-2 0-2-2v1s0 2 2 2h37v-1l-37.8-31zm22.2 7 1.2 1h7.6v-1zm-14.2 8.8v1l7.6 6.2h1.2z" opacity=".1"/></svg>
