<svg height="48" width="48" xmlns="http://www.w3.org/2000/svg"><rect height="5" opacity=".2" rx="2" width="39" x="4" y="36"/><path d="m17 12v-5h14v5h-2v-3h-10v3z" fill="#333"/><path d="m4 16v22s0 2 2 2h35s2 0 2-2v-22l-4-4h-30z" fill="#e53935"/><path d="m9 12h30v8h-30z" fill="#fff" opacity=".1"/><path d="m4 20v18s0 2 2 2h3v-20zm35 0v20h2s2 0 2-2v-18z" opacity=".05"/><path d="m9 12-5 4v1l5-4h30l4 4v-1l-4-4z" fill="#fff" opacity=".2"/><path d="m11 19v6h8v-6h-2v4h-4v-4zm18 0v6h8v-6h-2v4h-4v-4z" fill="#ebebeb"/></svg>