<svg height="48" width="48" xmlns="http://www.w3.org/2000/svg"><path d="m22 44v1h-20v-1z" opacity=".2"/><path d="m28.1 7.9-4.2 4.2 10 10 4.2-4.2zm-4.9-.7-14 14 5.7 5.7 14-14zm-5.2 16.8h-12v17h12z" fill="#636e73"/><g opacity=".2"><circle cx="12" cy="25" r="8"/><circle cx="26" cy="11" r="6"/></g><rect fill="#828b8f" height="4" rx="2" width="16" x="4" y="38"/><path d="m18 38c2 0 2 2 2 2v1c0-2-2-2-2-2h-12c-2 0-2 2-2 2v-1c0-2 2-2 2-2z" fill="#fff" opacity=".1"/><path d="m20 40c2 0 2 2 2 2v2h-20v-2c0-2 2-2 2-2z" fill="#3b4245"/><g fill="#828b8f"><circle cx="12" cy="24" r="8"/><circle cx="26" cy="10" r="6"/></g><path d="m38 28-4-2v-4l4-4h4l2 4" fill="none" stroke="#3f3f3f" stroke-linecap="round" stroke-linejoin="round" stroke-width="2"/><g fill="#3b4245"><circle cx="12" cy="24" r="6"/><circle cx="26" cy="10" r="4"/></g><g fill="#fff" opacity=".1"><circle cx="12" cy="24" r="4"/><circle cx="26" cy="10" r="2"/><path d="m12 16c4.4 0 8 3.6 8 8v .5c-.3-4.2-3.7-7.5-8-7.5s-7.7 3.3-8 7.5c0-.2 0-.3 0-.5 0-4.4 3.6-8 8-8z"/><path d="m26 4c3.3 0 6 2.7 6 6v .5c-.3-3.1-2.8-5.5-6-5.5s-5.7 2.4-6 5.5c0-.2 0-.3 0-.5 0-3.3 2.7-6 6-6z"/><path d="m20 40c2 0 2 2 2 2v1s0-2-2-2h-16s-2 0-2 2v-1c0-2 2-2 2-2z"/></g></svg>