<svg height="48" width="48" xmlns="http://www.w3.org/2000/svg"><path d="m4 9v30c0 2 0 2 2 2h37zm7 13.9 12.8 11.1h-12.8z" opacity=".2"/><path d="m4 8v30s0 2 2 2h37zm7 13.9 12.8 11.1h-12.8z" fill="#009688" opacity=".8"/><path d="m4 8v1l37.8 31h1.2zm7 25v1h12.8l-1.1-1z" fill="#fff" opacity=".2"/><g opacity=".2"><path d="m23.5 21 12 22 .2 4-3.7-2-12-22z"/><path d="m20.2 21-12 22-.2 4 3.8-2 1.6-3.1a19 19 0 0 0 8.6 2.1 19 19 0 0 0 19-19h-4a15 15 0 0 1-15 15 15 15 0 0 1-6.7-1.6l8.4-15.5z"/></g><path d="m23.5 20 12 22 .2 4-3.7-2-12-22z" fill="#c6c6c6"/><path d="m20.2 20-12 22-.2 4 3.8-2 1.6-3.1a19 19 0 0 0 8.6 2.1 19 19 0 0 0 19-19h-4a15 15 0 0 1-15 15 15 15 0 0 1-6.7-1.6l8.4-15.5z" fill="#e6e6e6"/><path d="m16 26v1l4 4c1.3 1.1 2.8 1.2 4 0l4-4v-1z" opacity=".2"/><path d="m20.2 20-12 22-.2 4h .1l.2-2.9 12-22zm16.8 4c0 8.3-6.7 15-15 15-2.1 0-4.3-.5-6.2-1.4l-.4.8c2 1 4.3 1.6 6.6 1.6 8.3 0 15-6.7 15-15h4c0-.3 0-.7 0-1z" fill="#fff" opacity=".5"/><path d="m20 12v4h-2c-2 0-2 2-2 2v8l4 4c1.3 1.1 2.8 1.2 4 0l4-4v-8c0-2-2-2-2-2h-2v-4z" fill="#6a6a6a"/><circle cx="22" cy="23" opacity=".2" r="2"/><circle cx="22" cy="22" fill="#fff" r="2"/><path d="m20 12v1h4v-1zm-2 4c-2 0-2 2-2 2v1s0-2 2-2h2v-1zm6 0v1h2s2 0 2 2v-1c0-2-2-2-2-2z" fill="#fff" opacity=".2"/></svg>