<svg viewBox="0 0 48 48"><circle cx="24" cy="25" opacity=".2" r="20"/><circle cx="24" cy="24" fill="#2196f3" r="20"/><path d="m24 4c-11 0-20 9-20 20v .5c0-10.5 9-19.5 20-19.5s20 9 20 19.5v-.5c0-11-9-20-20-20z" fill="#fff" opacity=".2"/><path d="m24 44c-11 0-20-9-20-20v-.5c0 10.5 9 19.5 20 19.5s20-9 20-19.5v.5c0 11-9 20-20 20z" opacity=".1"/><path d="m31.5 34.5h-7.5c-5.8 0-10.5-4.7-10.5-10.5s4.7-10.5 10.5-10.5 10.5 4.7 10.5 10.5v1.5c0 1.6-1.4 3-3 3s-3-1.4-3-3v-1.5c0-2.5-2-4.5-4.5-4.5s-4.5 2-4.5 4.5 2 4.5 4.5 4.5 4.5-2 4.5-4.5" fill="none" stroke="#fff" stroke-linecap="round" stroke-width="3"/></svg>