<svg viewBox="0 0 48 48"><circle cx="24" cy="25" opacity=".2" r="20"/><circle cx="24" cy="24" fill="#e91e63" r="20"/><path d="m24 4c-11 0-20 9-20 20v .5c0-10.5 9-19.5 20-19.5s20 9 20 19.5v-.5c0-11-9-20-20-20z" fill="#fff" opacity=".2"/><path d="m4 23.5v.5c0 11 9 20 20 20s20-9 20-20v-.5c0 10.5-9 19.5-20 19.5s-20-9-20-19.5z" opacity=".1"/><g fill="#fff"><circle cx="21.5" cy="16.5" r="2.5"/><circle cx="29.5" cy="24.6" r="1.8"/><path d="m19 21h5v6h-5z"/><path d="m28 27.5h3v3h-3z"/></g><g fill="none" stroke="#fff" stroke-linecap="round" stroke-linejoin="round"><path d="m20 33v-6h3v6m-6-7 2.5-5h4.2l2.3 5" stroke-width="2"/><path d="m28.5 33.5v-3h2v3m-4.5-7.5 2.5 1.5h2l2 2"/></g></svg>