<svg height="48" width="48" xmlns="http://www.w3.org/2000/svg"><rect height="28" opacity=".2" rx="3" width="28" x="4" y="17"/><rect fill="#e6e6e6" height="28" rx="3" width="28" x="4" y="16"/><path d="m7 16s-3 0-3 3v1s0-3 3-3h9v-1z" fill="#fff" opacity=".3"/><path d="m20.9 32.3 1.4 1.2m2-2.5-.4 5c-.1 1.1-.9 1.3-.9 1.3l-1.6-.1m-2.3-6.2-.5 3.9h7.2m-11.9 2.6c1.3-1.9 2.5-5.4 2.5-5.4m-1.4-4.8 1.7 1.6m-1.7-6 1.7 1.6m-5.8 8.3h2.4m-2.4 2.4v-10.9h2.4v10.3" fill="none" stroke="#b3b3b3" stroke-width="1.2"/><rect height="28" opacity=".2" rx="3" width="28" x="16" y="5"/><rect fill="#1e88e5" height="28" rx="3" width="28" x="16" y="4"/><path d="m28.3 19.3 1.7-6.6 1.7 6.6zm5.1 6.7h3.6l-5-16h-4l-5 16h3.6l1-4h4.8z" fill="#fff"/><path d="m19 4s-3 0-3 3v1s0-3 3-3h22s3 0 3 3v-1s0-3-3-3z" fill="#fff" opacity=".2"/></svg>