<svg viewBox="0 0 48 48"><circle cx="24" cy="25" opacity=".2" r="20"/><circle cx="24" cy="24" fill="#3f51b5" r="20"/><g fill="none" stroke="#fff" stroke-width="2"><circle cx="24" cy="24" r="13"/><path d="m11 24h26"/><path d="m34 32s-4-2-10-2-10 2-10 2" stroke-linecap="round" stroke-linejoin="round"/><path d="m14 16s4 2 10 2 10-2 10-2" stroke-linecap="round" stroke-linejoin="round"/><path d="m24 11v26"/><ellipse cx="24" cy="24" rx="7.2" ry="13" stroke-linecap="round" stroke-linejoin="round"/></g><path d="m24 4c-11 0-20 9-20 20v .5c0-10.5 9-19.5 20-19.5s20 9 20 19.5v-.5c0-11-9-20-20-20z" fill="#fff" opacity=".2"/><path d="m24 44c-11 0-20-9-20-20v-.5c0 10.5 9 19.5 20 19.5s20-9 20-19.5v.5c0 11-9 20-20 20z" opacity=".1"/><circle cx="36" cy="36" opacity=".2" r="12"/><circle cx="36" cy="35" fill="#5f7c8a" r="12"/><path d="m34.3 28-.2 1.8-1.6.9-1.7-.8-1.8 3 1.5 1.1v2l-1.5 1.1 1.8 3 1.7-.8 1.6.9.2 1.8h3.4l.2-1.8 1.6-.9 1.7.8 1.8-3-1.5-1.1v-2l1.5-1.1-1.8-3-1.7.8-1.6-.9-.2-1.8z" fill="#fff"/><circle cx="36.1" cy="35" fill="#5f7c8a" r="2.3"/></svg>