<svg viewBox="0 0 16 16"><rect fill="#d7ccc8" height="16" rx="1" width="16"/><path d="m1 16 7-7 7 7z" fill="#2196f3"/><path d="m16 15-7-7 7-7z" fill="#4caf50"/><g fill="none" stroke-linecap="round" stroke-width="2"><path d="m8 8 7 7" stroke="#feea3a"/><path d="m1 15 14-14" stroke="#fff"/></g><path d="m12 0c-2.2 0-4 1.8-4 4 0 3.6 4 7.2 4 7.2s4-3.6 4-7.2c0-2.2-1.8-4-4-4z" fill="#f44336" stroke-width="1.6"/><g fill="#fff"><circle cx="12" cy="4" r="2"/><path d="m1 0s-1 0-1 1v1s0-1 1-1h14s1 0 1 1v-1s0-1-1-1z" opacity=".1"/></g><path d="m1 16c-1 0-1-1-1-1v-1c0 1 1 1 1 1h14c1 0 1-1 1-1v1c0 1-1 1-1 1z" opacity=".2"/></svg>