<svg viewBox="0 0 16 16"><path d="m1 0s-1 0-1 1v14s0 1 1 1h9l6-6v-9s0-1-1-1z" fill="#f9ce1d"/><path d="m9 16v-5c0-2 2-2 2-2h5v1l-6 6z" opacity=".05"/><path d="m16 10-6 6v-5c0-1 1-1 1-1z" fill="#fff59d"/><path d="m1 0s-1 0-1 1v1s0-1 1-1h14s1 0 1 1v-1s0-1-1-1zm10 10s-1 0-1 1v1s0-1 1-1h4l1-1z" fill="#fff" opacity=".1"/><g opacity=".2" stroke="#fff"><path id="a" d="m3.5 9.5h.8c1.5 0 2.9.4 3.4 1.2 1.2 1.9-1.2 2.5-2.2 1.2-.9-1.5-.6-4.5.7-4.9 2.4-.5 2.8 3.2 4.2 2.5 1.1-.6-1.4-2.4.4-3.7.4-.3 1.5.7 1.5.7" fill="none" stroke-linecap="square"/></g><use stroke="#cb9a05" xlink:href="#a" y="-1"/></svg>