<svg viewBox="0 0 16 16"><circle cx="8" cy="8" fill="#3949ab" r="8"/><path d="m14.2 2.9-3.6 1-2.7-.2v.4l-1.8.8-1.3-.1-3.4 1.4 1.8 3-2.8 1.3c1 3.2 4.1 5.5 7.6 5.5.7 0 1.4-.1 2.1-.3l.2-1.7.4-.2-.3-1.6.1-.9.4-.1.1-.9 1.6-1.6 2.4-.8.3-.6-.1-.4-1.5-.3 1.7-2.8-.2-.9z" fill="#2196f3"/><path d="m7.4 6.5c1.1-.1 2.6-.8 2.8-1.7-1.1-.4-2.6 0-2.8 1.7z" fill="#34495e"/><path d="m7.8 6c1.2-.1 2.1-.8 2-1.1-.7-.5-1.9.2-2 1.1z" fill="#fff"/><path d="m15 2.5-.9.4.4.2h.8zm-13.1 3.8 1.4 2.1 1.4.3 1.6-.2-.1-.7-.5-.5-1-.1-.9.3-.6-1.6z" fill="#1565c0"/><path d="m15.1 4.3-1 .7-.9 1.7.8.3h.9l.1-.1-.6-.4.5-1.5.5-.7z" fill="#0d47a1"/><path d="m14 7h .6l-.3-.4z" fill="#fcfcfc"/></svg>