<svg viewBox="0 0 16 16"><circle cx="8" cy="8" fill="#81c784" r="8"/><path d="m8 0c-4.4 0-8 3.6-8 8v .5c.3-4.2 3.7-7.5 8-7.5s7.7 3.3 8 7.5c0-.2 0-.3 0-.5 0-4.4-3.6-8-8-8z" fill="#fff" opacity=".2"/><g fill="none" stroke="#fff" stroke-linecap="round" stroke-width=".5"><path d="m9.6 6.9c1.4 2.4 2 4.7 1.4 5.5-.5.7-1.9-.1-3.4-2-1.5-2-2.6-4.5-2.7-6.1-.1-1.7 1.1-1.7 2.6-.2"/><path d="m7.5 11.7c-1.4 1.4-2.4 1.5-2.6.4-.2-1 .3-3 1.5-5 1.2-2.1 2.7-3.6 3.7-3.9s1.4.6.9 2.4"/><path d="m4.3 9.2c-1.7-.5-2.3-1.2-1.4-1.9.8-.7 2.8-1.1 5.1-1.1s4.3.4 5.1 1.1c.9.7.3 1.4-1.4 1.9"/></g><circle cx="8" cy="8" fill="#fff" r="1"/></svg>