<svg viewBox="0 0 16 16"><g fill="none"><path d="m15 12c0 3-3 3-3 3v-6s3 0 3 3zm-14 0c0 3 3 3 3 3v-6s-3 0-3 3zm1 2v-6s0-6 6-6 6 6 6 6v6" opacity=".2" stroke="#000" stroke-width="2"/><path d="m4 11.5h1.6l1.5 3.2 2.4-7.8 1.6 4.6h.9" stroke="#fec006"/><path d="m4 11.5h.9l1.6-4.6 2.4 7.8 1.5-3.2h1.6" stroke="#feea3a"/><path d="m15 11c0 3-3 3-3 3v-6s3 0 3 3zm-14 0c0 3 3 3 3 3v-6s-3 0-3 3zm1 2v-6s0-6 6-6 6 6 6 6v6" stroke="#3e50b4" stroke-width="2"/></g><path d="m8 0c-4.3 0-7 3.1-7 7v1c0-3.9 3.1-7 7-7s7 3.1 7 7v-1c0-3.9-2.7-7-7-7zm-4 7c-2.4 0-4 1.8-4 4v .5c.3-2 2-3.5 4-3.5h1v-1zm7 0v1h1c2 0 3.7 1.5 4 3.5v-.5c0-2.2-1.6-4-4-4z" fill="#fff" opacity=".2"/></svg>