<svg height="16" width="16" xmlns="http://www.w3.org/2000/svg"><path d="m8 .3-.8.8-.7-.4-.7 1c-1.8.3-3 1.2-4 2.5-1.8 2.4-1.8 6.4-1.8 8.7s4.2 3.1 8 3.1 8-.8 8-3.1 0-6.3-1.8-8.7c-1-1.3-2.2-2.1-4-2.5l-.7-1-.7.4z" fill="#52c1ea"/><path d="m6.2 12.6s.5 1 1.8 1 1.8-1 1.8-1z" fill="#95551c"/><path d="m8 9.9v3.1l-2.3-.4-.1-.3v-.4l2.3-2z" fill="#fbba1e"/><path d="m8 9.9v3.1l2.3-.4.1-.3v-.4l-2.3-2z" fill="#ea8616"/><path d="m2.9 8.9c0 .9.7 1.4 1.3 1.4.8 0 1.5-.7 1.5-1.6s-.5-1.4-1.2-1.4c-.9 0-1.6.7-1.6 1.6zm10.3 0c0 .9-.7 1.4-1.3 1.4-.8 0-1.5-.7-1.5-1.6s.5-1.4 1.2-1.4c.9 0 1.6.7 1.6 1.6z" opacity=".7"/><path d="m4.3 7.6c.2 0 .3.1.3.3 0 .3-.4.6-.7.6-.2 0-.3-.1-.3-.3 0-.3.4-.6.7-.6zm7.3 0c .2 0 .3.1.3.3 0 .3-.4.6-.7.6-.2 0-.3-.1-.3-.3 0-.3.4-.6.7-.6z" fill="#fff" opacity=".8"/><path d="m8 8.4v7.6c3.8 0 8-.8 8-3 0-2.3 0-6.4-1.8-8.7-.1-.5-6.2-.5-6.2 4.1z" opacity=".05"/></svg>