<svg height="16" width="16" xmlns="http://www.w3.org/2000/svg"><g stroke-linecap="round" stroke-width="2"><g opacity=".2" stroke="#000"><path d="m1.5 13.8 5.8-5.8m-.1-5.5 5.4 5.5m-10.6-1h8"/><circle cx="10" cy="11" r="4"/></g><g stroke="#f5792a"><path d="m1.5 12.8 5.8-5.8m-.1-5.5 5.4 5.5m-10.6-1h8" fill="none"/><circle cx="10" cy="10" fill="#fff" r="4"/></g><path d="m6.5.8c-.5.4-.2 1.2-.2 1.2l.2-.2c.7-.6 1.4 0 1.4 0l5.7 5.7c1.5 1.6 1.4 3 1.4 3v-.5s.1-1.9-1.4-3.5l-5.7-5.7c-.7-.7-1.4 0-1.4 0zm-4.5 4.2c-1 0-1 1-1 1 0 .2.1.5.1.5.2-.5.9-.5.9-.5h7.2l-1-1zm2.9 3-4.1 4.1c-.5.5-.2 1.2-.2 1.2l5.3-5.3z" fill="#fff" opacity=".1"/></g><circle cx="10" cy="10" fill="#0d528a" r="2"/></svg>