<svg viewBox="0 0 16 16"><path d="m5.5 0-1.3 1.6-.9-.1-1 1 .1.7-1.1 1.9v.4l1.7 6.6c.1.9 1 1.4 1 1.4l3.8 2.5h.4l3.8-2.5s.9-.5 1-1.4l1.7-6.6v-.4l-1.1-1.9.1-.7-1-1-.9.1-1.3-1.6z" fill="#ff5722"/><path d="m10.5 10.3-2.3-1-2.4 1 2.4 1.8zm-4.2-.6.7-.4.9-.8v-.2l-1.4-1.3.4-1.5-.1-.4-2.2-.9 1.4-.1 1.3.5-.4 2.2 1.1.3 1.1-.3-.4-2.2 1.3-.5 1.4.1-2.2.9-.2.4.5 1.5-1.5 1.3v.2l.8.8 1.3.7h.3l.7-.7.2-.6-.4-1.1 2.1-2.1v-.6l-1.7-2.3-1.7.2-1.7-.4-1.9.4-1.7-.3-1.8 2.4v.5l2.1 2-.3 1.3.7.9.4.1.6-.3z" fill="#fff"/><path d="m10.5 0 1.3 1.6.9-.1 1 1-.1.7 1.1 1.9v.4l-1.7 6.6c-.1.9-1 1.4-1 1.4l-3.8 2.5h-.2v-16z" opacity=".05"/></svg>