<svg height="16" width="16" xmlns="http://www.w3.org/2000/svg"><g fill="none" stroke="#cbbb2e"><path d="m4 14v-7" stroke-width="4"/><path d="m9 2-5 5" stroke-width="3"/><path d="m9 2 2.5 2.5" stroke-width="2"/></g><g opacity=".2"><circle cx="9" cy="3" r="2"/><circle cx="4" cy="8" r="3"/></g><g fill="#d6c84a"><rect height="2" rx="1" width="6" x="1" y="13"/><circle cx="4" cy="7" r="3"/><circle cx="9" cy="2" r="2"/></g><g fill="#3f3f3f"><path d="m7 14c1 0 1 1 1 1v1h-8v-1c0-1 1-1 1-1z"/><circle cx="4" cy="7" r="2"/><circle cx="9" cy="2" r="1"/></g><circle cx="4" cy="7" fill="#fff" opacity=".1" r="1"/><path d="m12.5 7.5h-2v-2l2-2h2v2" fill="none" stroke="#3f3f3f" stroke-linecap="round" stroke-linejoin="round"/></svg>