<svg height="16" width="16" xmlns="http://www.w3.org/2000/svg"><path d="m4 4h-1v-1h1z" fill="#0a254e"/><path d="m4 2v2h2v-2zm0 2h-2v2h2z" fill="#07285b"/><path d="m6 2v2h2v-2zm0 2h-2v2h2zm-2 2h-2v2h2z" fill="#0b3b87"/><path d="m8 2v2h2v-2zm0 2h-2v2h2zm-2 2h-2v2h2zm-2 2h-2v2h2z" fill="#0d47a1"/><path d="m10 2v2h2v-2zm0 2h-2v2h2zm-2 2h-2v2h2zm-2 2h-2v2h2zm-2 2h-2v2h2z" fill="#1565c0"/><path d="m12 3v1h1v-1zm0 1h-2v2h2zm-2 2h-2v2h2zm-2 2h-2v2h2zm-2 2h-2v2h2zm-2 2h-1v1h1z" fill="#1976d2"/><path d="m12 4v2h2v-2zm0 2h-2v2h2zm-2 2h-2v2h2zm-2 2h-2v2h2zm-2 2h-2v2h2z" fill="#1e88e5"/><path d="m12 6v2h2v-2zm0 2h-2v2h2zm-2 2h-2v2h2zm-2 2h-2v2h2z" fill="#2196f3"/><path d="m14 8h-2v2h2zm-2 2h-2v2h2zm-2 2h-2v2h2z" fill="#42a5f5"/><path d="m12 10v2h2v-2zm0 2h-2v2h2z" fill="#64b5f6"/><path d="m12 12h1v1h-1z" fill="#90caf9"/><path d="m0 1v7c0 4.4 3.6 8 8 8s8-3.6 8-8-3.6-8-8-8h-7s-1 0-1 1zm1 0h1v1h-1zm7 1c3.3 0 6 2.7 6 6s-2.7 6-6 6-6-2.7-6-6 2.7-6 6-6z" fill="#ececec"/><path d="m0 1v1s0-1 1-1h1 6c4.3 0 7.7 3.3 8 7.5v-.5c0-4.4-3.6-8-8-8h-7s-1 0-1 1zm1 1v1h1v-1zm1 6.5v.5c0 3.3 2.7 6 6 6s6-2.7 6-6v-.5c-.3 3.1-2.9 5.5-6 5.5s-5.7-2.4-6-5.5z" fill="#fff" opacity=".4"/><path d="m2 8.5c0-.2 0-.3 0-.5 0-3.3 2.7-6 6-6s6 2.7 6 6v .5c-.3-3.1-2.9-5.5-6-5.5s-5.7 2.4-6 5.5z" opacity=".2"/></svg>