<svg height="16" width="16" xmlns="http://www.w3.org/2000/svg"><circle cx="8" cy="8" fill="#e9659e" r="7"/><path d="m8 1c-3.9 0-7 3.1-7 7h7z" fill="#fff" opacity=".2"/><path d="m1.1 4s-1.1 1.7-1.1 4c0 4.4 3.6 8 8 8s8-3.6 8-8c0-2.3-1.1-4-1.1-4z" fill="#608bbd"/><g fill="#fff"><circle cx="5.9" cy="8.7" r="2.9"/><circle cx="10.1" cy="8.7" r="2.9"/></g><path d="m8 9.3-.4.1-2.5 1.9v.6l2.5 2.5.4.1z" fill="#f4de25"/><path d="m10.1 5.8c1.6 0 2.9 1.3 2.9 2.9s-1.3 2.9-2.9 2.9l-2.1-.9v-4s .7-.9 2.1-.9z" opacity=".05"/><path d="m8 9.3.4.1 2.5 1.9v.6l-2.5 2.5-.4.1z" fill="#ecc200"/><g opacity=".6"><circle cx="5.5" cy="9.4" r=".7"/><circle cx="10.5" cy="9.4" r=".7"/></g></svg>