<svg viewBox="0 0 16 16"><path d="m2 1h5v1h-5z" fill="#fff"/><rect fill="#333" height="12" rx="1" width="16" y="2"/><circle cx="14" cy="4" fill="#fff" r="1"/><circle cx="8" cy="9" opacity=".2" r="5"/><path d="m9.2 8.6-5.2 1.6 3 2.3z" fill="#3f51b5"/><path d="m8.9 3.6-2.1 3.8 5.2-1.7z" fill="#ff5722"/><path d="m4 5.4v5l4-1.2z" fill="#9c27b0"/><path d="m8 6.8 4 3.6v-4.8z" fill="#f9ce1d"/><path d="m9 7.4v1.2l-1.9 3.4h3.3l1.3-2.1z" fill="#4caf50"/><path d="m6.9 8.6v-1.2l1.9-3.4h-3.3l-1.3 2.1z" fill="#f44336"/><circle cx="8" cy="8.7" opacity=".2" r="1.3"/><circle cx="8" cy="8" fill="#fff" r="1.3"/><path d="m6 4-2 2v2.5c.2-2 2-3.5 4-3.5s3.8 1.5 4 3.5v-2.5l-2-2z" opacity=".2"/><circle cx="8" cy="8" fill="none" r="4.5" stroke="#fff"/></svg>