<svg viewBox="0 0 16 16"><circle cx="8" cy="8" fill="#ccc" r="8"/><g fill="#6d4c41"><circle cx="4.8" cy="8.2" r="2.3"/><circle cx="11.3" cy="8.2" r="2.3"/></g><path d="m8 6c-3 0-5 2.4-5 5.5v2.7s1.8 1.8 5 1.8 5-1.8 5-1.8v-2.8c0-3-2-5.4-5-5.4z" fill="#a1887f"/><path d="m6.5 13.9h1.5v2.1h-1.5z" fill="#fff"/><path d="m8 13.9h1.5v2.1h-1.5z" fill="#f2f2f2"/><path d="m6.6 11.4c-.7 0-1.1 1.1-1.1 1.8s.6 1.3 1.3 1.3c.6 0 1.2-.6 1.2-.6s.6.6 1.2.6c.7 0 1.3-.6 1.3-1.3s-.4-1.8-1.1-1.8z" fill="#6d4c41"/><path d="m9.5 11.3c.1.7-.9 1.4-1.5 1.4s-1.6-.7-1.5-1.4c.1-.5.8-.5 1.5-.5s1.4 0 1.5.5z" fill="#3e2723"/><g fill="#fefefe"><circle cx="5.2" cy="9.7" r="1.2"/><circle cx="10.8" cy="9.7" r="1.2"/></g><g fill="#333"><circle cx="4.9" cy="9.5" r=".5"/><circle cx="10.5" cy="9.5" r=".5"/></g></svg>