<svg viewBox="0 0 16 16"><rect height="3" opacity=".2" rx=".5" width="2" x="14" y="12"/><rect fill="#4caf50" height="5" rx=".5" width="2" x="14" y="2"/><rect fill="#2196f3" height="5" rx=".5" width="2" x="14" y="6"/><rect fill="#f9ce1d" height="4" rx=".5" width="2" x="14" y="10"/><rect fill="#f44336" height="16" rx="1" width="14" x="1"/><path d="m2 0s-1 0-1 1v14s0 1 1 1h1v-16z" fill="#333"/><path d="m2 0s-1 0-1 1v1s0-1 1-1h12s1 0 1 1v-1s0-1-1-1zm13 2v1h .5s.5 0 .5.5v-1s0-.5-.5-.5zm0 4v1h .5s.5 0 .5.5v-1s0-.5-.5-.5zm0 4v1h .5s.5 0 .5.5v-1s0-.5-.5-.5z" fill="#fff" opacity=".2"/><g fill="none" stroke-width="2"><path d="m6 4h2c3 0 3.5 1.8 3.5 3.5s-.5 3.5-3.5 3.5h-2z" opacity=".2" stroke="#000"/><path d="m6 5h2c3 0 3.5 1.8 3.5 3.5s-.5 3.5-3.5 3.5h-2z" stroke="#f9f9f9"/></g></svg>