<svg viewBox="0 0 16 16"><g fill="#8c9eff"><rect height="14" rx="2" width="14" x="1"/><path d="m15 16-4-4h4z"/></g><path d="m11.5 14-.5-2 2 2z" opacity=".2"/><path d="m7 3.8c-1.5.4-2.2 1.1-2.2 1.1 1.9-1.1 4.5-1.1 6.4 0 0 0-.7-.7-2.2-1.1.3-.2 1.7.1 2.6.8 0 0 1 2 1 4.6 0 0-.7 1.2-2.4 1.2l-.6-.7c.9-.1 1.4-.9 1.4-.9-1.8 1.2-4.2 1.2-6 0 0 0 .5.8 1.4.9l-.6.7c-1.7 0-2.4-1.2-2.4-1.2 0-2.6 1.2-4.6 1.2-4.6.7-.7 2.1-1 2.4-.8zm-.5 2.9s-.8 0-.8.9.8.9.8.9.8 0 .8-.9-.8-.9-.8-.9zm3 0s-.8 0-.8.9.8.9.8.9.8 0 .8-.9-.8-.9-.8-.9z" fill="#fff"/></svg>