<svg height="16" width="16" xmlns="http://www.w3.org/2000/svg"><circle cx="8" cy="8" fill="none" opacity=".5" r="2.6" stroke="#e0e2e3" stroke-width="1.7"/><circle cx="8" cy="8" fill="none" r="5.7" stroke="#e0e2e3" stroke-width="4.6"/><g fill="#fff"><path d="m .7 4.9 5.6 2.4 1-1-2.5-5.6c-1.6.6-3.5 2.3-4.1 4.2z" opacity=".2"/><path d="m3.3 1.5c-1.7 1.2-2.8 3.2-3.1 5l5.9 1.1.7-1.2z" opacity=".2"/><path d="m8 0c-4.4 0-8 3.6-8 8v .5c0-4.2 3.6-7.5 8-7.5s8 3.3 8 7.5v-.5c0-4.4-3.6-8-8-8z" opacity=".1"/></g><circle cx="11" cy="11" fill="#ff5722" r="5"/><path d="m10.9 13.2c-.5 0-.9-.5-.9-.9 0-1.2 1.5-.7 2.1-1.6 0 0 .8 2.4-1.2 2.5zm.5-5.2s.8 2.2-.7 2.4c-1.2-.1-1-1.2-1-1.2s-.9.7-.9 2.6c0 1.3 1 2.2 2.2 2.2 1.3 0 2.2-1 2.2-2.2 0-2.6-1.8-3.8-1.8-3.8z" fill="#fff"/></svg>