<svg viewBox="0 0 16 16"><rect fill="#78909c" height="16" rx="1" width="14" x="1"/><path d="m2 0s-1 0-1 1v1s0-1 1-1h12s1 0 1 1v-1s0-1-1-1z" fill="#fff" opacity=".1"/><g fill="none" stroke-width="2"><g opacity=".1" stroke="#fff"><circle cx="8" cy="8" r="3"/><path d="m5 8v3h3"/></g><g stroke="#455a64"><circle cx="8" cy="7" r="3"/><path d="m5 7v3h3"/></g></g><circle cx="11.5" cy="11.5" fill="#ff766a" r="4.5"/><path d="m11.5 11.5-3.2-3.2c2.9-2.8 7.7-.8 7.7 3.2z" fill="#00bbd3"/><path d="m11.5 11.5-3.2 3.2c2.9 2.8 7.7.8 7.7-3.2z" fill="#8ac249"/><circle cx="11.5" cy="11.5" fill="#fff" r="2.5"/></svg>