<svg height="16" width="16" xmlns="http://www.w3.org/2000/svg"><rect fill="#29b6f6" height="16" rx="2" width="16"/><path d="m13.7 11c-.7-1.4-2.1-2.9-2.1-2.9-1.7-1.7-3.6-1.9-3.6-1.9-2.8-.4-3.6.6-3.6.6-.2.2 1.2.2 1.2.2 2.9-.1 4.6 1.5 4.6 1.5 1 .8 1.2 1.3.2.7-3.1-1.6-3.2-1.1-3.2-1.1.2.4.9.8.9.8.4.2.3.4-.2.4-1.3-.1-2-.9-2-.9-.3-.5-.8-.5-.8-.5-1.2 0-2.3.5-2.3.5-.5.3-.7.1-.7.1-.3-.3.2-.8.2-.8l.2-.3.1-.4c.6-1.4 1.8-1.7 1.8-1.7 1.8-.6 3.5-.2 3.5-.2.8.2.8.2 1.3-.1.6-.3 2.1-.3 2.1 0 0 .1-.3.3-.3.3s-.7.2-.7.5c0 .1.9 1 .9 1 1.8 1.8 2.3 3.3 2.3 3.3.4 1.1.5 1.3.4 1.3 0 0-.2-.1-.2-.2z" fill="#fff"/></svg>