<svg height="16" width="16" xmlns="http://www.w3.org/2000/svg"><circle cx="8" cy="8" fill="#0288d1" r="7"/><g fill="#f29312"><path d="m2 6s-2 0-2 2h2zm1-2-3-3v5zm-1 1 4-4v4zm3 2s2 0 2-2h-2zm-1-1c2 0 2 2 2 2h-2z"/><circle cx="3" cy="6" r="3"/><path d="m11.1 3.8c1.2 1.4 1.5 3.3 1.2 4.4-.2-1.1-.9-1.9-1.7-2.1.9 1.5.5 2.9-.2 3.8-.8 1-2.2 1.3-3.4.9s-2-1.6-2-2.8h-4c0 2.9 1.8 5.6 4.6 6.6s5.9.2 7.8-2.1 2.2-5.5.7-8c-.3-.5-1.2-1.2-1.2-1.2 1.1 1.5 1.2 3 1.1 3.9-.2-1.2-.9-2.7-2.9-3.4z"/><path d="m3 8c0 4.1 6.1 4.1 6.1 0 0-1.3-2.2-1.3-2.2 0 0 1.2-1.6 1.2-1.6 0z"/></g></svg>