<svg height="16" width="16" xmlns="http://www.w3.org/2000/svg"><path d="m2 1s-1 0-1 1c0 0 0 4.9 1 7 .7 1.3 4 4 4 4h4s3.3-2.7 4-4c1-2.1 1-7 1-7 0-1-1-1-1-1 0 2-2 2-2 2h-8s-2 0-2-2z" fill="#514b3d"/><path d="m6 13s .6 1 2 1 2-1 2-1-.5-1-2-1-2 1-2 1z" fill="#252525"/><path d="m14 1c0 2-2 2-2 2h-4v10h2s3.3-2.7 4-4c1-2.1 1-7 1-7 0-1-1-1-1-1z" opacity=".05"/><g fill="#ebebeb"><circle cx="5" cy="7.5" r="1.5"/><circle cx="11" cy="7.5" r="1.5"/></g><g opacity=".8"><circle cx="5" cy="8" r="1"/><circle cx="11" cy="8" r="1"/></g><g fill="#ebebeb"><circle cx="5" cy="7.5" r=".5"/><circle cx="11" cy="7.5" r=".5"/></g></svg>