<svg height="16" width="16" xmlns="http://www.w3.org/2000/svg"><circle cx="8" cy="8" fill="#4d4d4d" r="8"/><path d="m6.3 9.4v1.3s.1.9 1.7.9 1.7-.9 1.7-.9v-1.3c0-2.2 1.3-1.7.6-3.2-.7-1.4-1.1-3.5-2.3-3.5s-1.6 2.1-2.3 3.5c-.7 1.5.6 1 .6 3.2z" fill="#26a69a"/><g stroke="#26a69a"><path d="m4.8 3.9s-1.9 1.1-1.9 4.1c0 1.9 1.8 4.1 3.6 4.5v-2.5m-4.1-4.4s-.4.6-.4 2.4c0 2.4 2.1 5.2 5.5 5.6v-3.6m3.7-6.1s1.9 1.1 1.9 4.1c0 1.9-1.8 4.1-3.6 4.5v-2.5m4.1-4.4s.4.6.4 2.4c0 2.4-2.1 5.2-5.5 5.6v-3.6" fill="none" stroke-linecap="round" stroke-linejoin="round" stroke-width=".5"/><g fill="#4d4d4d" stroke-width=".25"><circle cx="6.7" cy="9.5" r=".6"/><circle cx="9.3" cy="9.5" r=".6"/></g></g></svg>