<svg height="16" width="16" xmlns="http://www.w3.org/2000/svg"><circle cx="8" cy="8" fill="#ebebeb" r="8"/><path d="m0 8c0 4.4 3.6 8 8 8s8-3.6 8-8z" fill="#fff" opacity=".5"/><path d="m6.6 3c-1.3 0-1.3 1.3-1.3 1.3h.7s0-.6.6-.6c.5 0 .5.5.5.5 0 .4-.5.9-.5.9l-1.3 1.4v.5h2.7v-.6h-1.7l1-1s .6-.6.6-1.2c0 0 0-1.2-1.3-1.2zm2.2 0-.2 2 .6.1s.2-.2.6-.2c.6 0 .6.7.6.7s0 .7-.6.7c-.5 0-.5-.5-.5-.5h-.8s0 1.2 1.3 1.2 1.3-1.3 1.3-1.3.1-1.4-1.1-1.4c-.4 0-.6.2-.6.2l.1-.8h1.5v-.7zm-7.8 5v1h1v-1zm3 0v1h1v-1zm3 0v1h1v-1zm1 1-1.3 3h2.6z" opacity=".4"/></svg>