<svg height="16" width="16" xmlns="http://www.w3.org/2000/svg"><g opacity=".2"><circle cx="8" cy="9" r="7"/><rect height="12" rx="1" width="12" x="2" y="3"/></g><g fill="#5e5e5e"><circle cx="8" cy="8" r="7"/><rect height="12" rx="1" width="12" x="2" y="2"/></g><g opacity=".2"><path d="m8 1c-2.1 0-3.6 1-3.6 1h-1.4s-1 0-1 1v1s0-1 1-1h1.4s1.6-1 3.6-1 3.6 1 3.6 1h1.4s1 0 1 1v-1s0-1-1-1h-1.4s-1.5-1-3.6-1zm-6 3.4s-1 1.5-1 3.6v.5c0-1.5 1-3.1 1-3.1zm12 0v1s1 1.6 1 3.1v-.5c0-2.1-1-3.6-1-3.6z" fill="#fff"/><path d="m3 4v1h1v-1zm9 0v1h1v-1zm-9 9v1h1v-1zm9 0v1h1v-1z"/><circle cx="8" cy="9" r="5"/></g><path d="m3 3v1h1v-1zm9 0v1h1v-1zm-9 9v1h1v-1zm9 0v1h1v-1z" fill="#fff"/><circle cx="8" cy="8" fill="#fec006" r="4.5" stroke="#3f3f3f"/><circle cx="8" cy="9" opacity=".2" r="2"/><circle cx="8" cy="8" fill="#3f3f3f" r="2"/><circle cx="8" cy="7" fill="#fff" opacity=".2" r="1"/></svg>