<svg height="16" width="16" xmlns="http://www.w3.org/2000/svg"><rect fill="#42a5f5" height="13" rx="2" width="16" y="3"/><path d="m4 3.3-1.7 1.7 1.7 1.7v2.3h2.3l1.7 1.7 1.7-1.7z" fill="#f9ce1d"/><path d="m9.6 1 2.4 5.7 1.7-1.7-1.7-1.7v-2.3z" fill="#f6be1a"/><path d="m8-.7-1.7 1.7h-2.3v4l7-2.7z" fill="#fadd60"/><circle cx="8" cy="5" fill="#fce68d" r="4"/><g fill="#e6e6e6"><circle cx="8.2" cy="7.8" r="2.2"/><circle cx="10.4" cy="6.8" r="2.8"/><circle cx="12.9" cy="8.1" r="1.9"/><path d="m8.2 9h4.7v1h-4.7z"/></g><path d="m16 11v3c0 2-2 2-2 2h-12c-2 0-2-2-2-2v-1s8-2 16-2z" fill="#689f38"/><path d="m0 11v3s0 2 2 2h12s2 0 2-2v-1s-8-2-16-2z" fill="#66bb6a"/></svg>