<svg viewBox="0 0 16 16"><rect fill="#d8d8d8" height="14" rx="1" width="12" x="3"/><rect fill="#ebebeb" height="14" rx="1" width="12" x="1" y="2"/><path d="m4 0s-1 0-1 1v1s0-1 1-1h10s1 0 1 1v-1s0-1-1-1zm-2 2s-1 0-1 1v1s0-1 1-1h10s1 0 1 1v-1s0-1-1-1z" fill="#fff" opacity=".2"/><path d="m5.9 4.4s-.1.3.1.8v1.3s-1.2 0-1.3.2c.3.2.1 2.2 1 2.5v-.5l.5.1.4 5.5h.2l.2-5.5h.8l-.2.5c.9-.7 1.7-1.8 1.5-2.4-.1-.5-.7-.6-.7-.6l-1.3.1v-1l .3-.5c-.6-.6-1.4-.8-1.5-.5zm.2 2.6v1.3h-.5l-.2-1.3zm.9 0h1.1l-.3 1.4h-.8z" fill="#ba0000"/></svg>