<svg height="16" width="16" xmlns="http://www.w3.org/2000/svg"><path d="m2 1h5v1h-5z" fill="#fff"/><rect fill="#d6d6d6" height="12" rx="1" width="16" y="2"/><path d="m0 3h16v10h-16z" fill="#343434"/><circle cx="3" cy="5" fill="#f34235" r="1"/><circle cx="10" cy="8" fill="#6b6b6b" r="3.5" stroke="#d6d6d6"/><g fill="#fff"><path d="m11.4 6.6c-.8-.8-2-.8-2.8 0l1.4 1.4z" opacity=".2"/><path d="m8.6 6.6c-.8.8-.8 2 0 2.8l1.4-1.4zm1.4 1.4 1.4 1.4c.8-.8.8-2 0-2.8z" opacity=".4"/><path d="m8.6 9.4c.8.8 2 .8 2.8 0l-1.4-1.4z" opacity=".6"/></g></svg>