<svg height="16" width="16" xmlns="http://www.w3.org/2000/svg"><path d="m8 0c-2.6 0-5.1 1.3-6.6 3.5l3.6 6.2 3-5.3h7.1c-1.3-2.7-4.1-4.4-7.1-4.4z" fill="#dd4d3e"/><path d="m1.4 3.5c-.9 1.3-1.4 2.9-1.4 4.5 0 4.3 3.4 7.8 7.6 8l3.6-6.3h-6.2z" fill="#109f5b"/><path d="m8 4.4 3.2 5.3-3.6 6.3h.4c4.4 0 8-3.6 8-8 0-1.3-.3-2.5-.9-3.6z" fill="#ffce41"/><path d="m8 4.4v3.6l7.1-3.6z" opacity=".1"/><path d="m11.2 9.7-3.2-1.7-.4 8z" opacity=".2"/><circle cx="8" cy="8" fill="#4587f3" r="3.5" stroke="#fff"/><path d="m16 7.4c-.2 4.3-3.8 7.6-8 7.6s-7.7-3.2-8-7.4v.4c0 4.4 3.6 8 8 8s8-3.6 8-8z" opacity=".1"/></svg>