<svg height="16" width="16" xmlns="http://www.w3.org/2000/svg"><rect fill="#558b2f" height="14" rx="1" width="16" y="1"/><path d="m1 1s-1 0-1 1v2h16v-2s0-1-1-1z" fill="#4d4d4d"/><path d="m1 4h14v10h-14z" fill="#aed581"/><path d="m3.9 6.5v.4s-1.1.2-1.1 1.1c0 1 1.1 1.2 1.1 1.2v1.3c-.4-.1-.8-.6-.8-.6l-.4.6s.6.6 1.2.6v.4h.6v-.4s1.2-.2 1.2-1.2c0-1.1-1.2-1.3-1.2-1.3v-1c .4 0 .6.5.6.5l.5-.5s-.5-.7-1.1-.7v-.4zm0 1.1v.8s-.4 0-.4-.4.4-.4.4-.4zm.6 1.8s.4 0 .4.5-.4.5-.4.5zm2.5 1.6v1h3v-1z" fill="#f1f8e9"/></svg>