<svg viewBox="0 0 16 16"><rect fill="#558b2f" height="14" rx="1" width="16" y="1"/><path d="m1 1s-1 0-1 1v2h16v-2s0-1-1-1z" fill="#4d4d4d"/><path d="m1 4h14v10h-14z" fill="#aed581"/><path d="m3.9 6.5v.4s-1.1.2-1.1 1.1c0 1 1.1 1.2 1.1 1.2v1.3c-.4-.1-.8-.6-.8-.6l-.4.6s.6.6 1.2.6v.4h.6v-.4s1.2-.2 1.2-1.2c0-1.1-1.2-1.3-1.2-1.3v-1c .4 0 .6.5.6.5l.5-.5s-.5-.7-1.1-.7v-.4zm0 1.1v.8s-.4 0-.4-.4.4-.4.4-.4zm.6 1.8s.4 0 .4.5-.4.5-.4.5z" fill="#f1f8e9"/><circle cx="11.5" cy="11.5" fill="#8561c5" r="4.5"/><g fill="none" stroke="#fff" stroke-width="1.2"><circle cx="11.5" cy="11.5" r="1.4"/><path d="m13.7 12.8-.7-.4m-3-1.8-.7-.4m4.4 0-.7.4m-3 1.8-.7.4m2.2-3.8v1m0 3v1"/></g></svg>