<svg height="16" width="16" xmlns="http://www.w3.org/2000/svg"><rect fill="#2095f2" height="16" rx="1" width="16"/><g fill="#fff"><path d="m1 0s-1 0-1 1v1s0-1 1-1h14s1 0 1 1v-1s0-1-1-1z" opacity=".1"/><path d="m6.9 7.4-1.2.7v3.3c.1 1.3-1 1.1-1 1.1l-1-.1-.2-.9 1.2.2.2-.3v-2.9l-1.5.6-.3-.9 1.8-.7v-2.1h-1.4v-.8h1.4v-1.8h.8v1.8h1.2v.8h-1.2v1.8l1.1-.6zm4.1-4.6 1 .3-1 1.6h1.8v.8h-1.2v2.3h1.5v.8h-1.5v3.9h-.8v-3.9h-1.9c-.1 2.7-2 4-2 4l-.6-.7s1.6-1 1.7-3.3h-1.3v-.8h1.4v-2.3h-1v-.8h3.1zm-.2 5v-2.3h-1.8v2.3zm-2.3-4.9.8 1.3-.9.3-.7-1.3z"/></g></svg>