<svg height="16" width="16" xmlns="http://www.w3.org/2000/svg"><path d="m8 1.5v13.5c-1.5 0-2.1-1.1-2.9-1.5-1.6-.7-2.6-2.5-2.6-2.5-.5-.9-.7-2.5-.7-2.5s-1.8-1.9-1.8-3.7c0-2.5 2.5-2.5 2.5-2.5 1.2 0 1.7.5 1.7.5s1.3-1.3 3.8-1.3z" fill="#fff"/><path d="m8 1.5v13.5c1.5 0 2.1-1.1 2.9-1.5 1.6-.7 2.6-2.5 2.6-2.5.5-.9.7-2.5.7-2.5s1.8-1.9 1.8-3.7c0-2.5-2.5-2.5-2.5-2.5-1.2 0-1.7.5-1.7.5s-1.3-1.3-3.8-1.3z" fill="#f3f9ff"/><path d="m8 14.3c-.4 0-1.6-.6-1.5-1.1.1-.6.9-.7 1.5-.7s1.4.1 1.5.7c.1.5-1.1 1.1-1.5 1.1z" fill="#4d4d4d"/><g opacity=".5"><path d="m2.5 3c-1 0-1.8.8-1.8 1.8 0 1.2 1.1 1.7 1.1 1.7v-.9s-.3-.2-.3-.8.4-1.1 1-1.1c.2 0 .4.1.4.1l.7-.4s-.3-.4-1.1-.4zm11 0c-.8 0-1.1.4-1.1.4l.7.4s.2-.1.4-.1c.6 0 1 .5 1 1.1 0 .8-.7 1-.7 1v .8s1.5-.3 1.5-1.8c0-1-.8-1.8-1.8-1.8z" fill="#73a0d0"/><path d="m4.4 6.6v2.2h2.1c0-1.2-.9-2.2-2.1-2.2zm7.2 0c-1.2 0-2.1 1-2.1 2.2h2.1z" fill="#729fcf"/></g><circle cx="4.7" cy="8.1" r="1.1"/><circle cx="11.3" cy="8.1" r="1.1"/><g fill="#fff"><circle cx="4.8" cy="7.7" r=".4"/><circle cx="11.3" cy="7.7" r=".4"/></g><path d="m8 12.5c-.6 0-1.4.1-1.5.7 0 0 0 .3.1.3.3-.4.9-.5 1.4-.5s1.1.1 1.4.5c.1 0 .1-.3.1-.3-.1-.6-.9-.7-1.5-.7z" fill="#fff" opacity=".1"/><path d="m13.5 9.6c-.5 2.3-2.6 3.5-2.6 3.5v-.9s1.6-1.1 1.8-2.7zm-10.2-.1c.2 1.6 1.8 2.7 1.8 2.7v.9s-2.1-1.2-2.6-3.5z" fill="#73a0d0" opacity=".3"/></svg>