<svg height="16" width="16" xmlns="http://www.w3.org/2000/svg"><path d="m8 0c-.5 0-.9.2-1.2.5l-6.2 6.4c-.3.4-.5.8-.5 1.3 0 1.4 3.7 0 4 1.7.2.9-2 .5-2 1.4 0 1.1 3.1.3 4 1.2.4.9-1.2.7-.9 1.6.5.5 1.7.2 1.9 1.1.3 1 1.9.8 2.9.1.5-.5-.8-.8-.3-1.3s3.1-.4 3.1-1.6c-.2-.7-1.2-.9-1.2-1.7-.1-.7.8-.5 3.4-1.3 1.1-.5 1.1-.8 1.1-1.2 0-.5-.2-.9-.6-1.3l-6.2-6.4c-.3-.4-.9-.5-1.3-.5zm7.2 11h-.3c-.2 0-1 .1-.9.7.7.3 1.8.5 2-.1.1-.5-.3-.6-.7-.7zm-12.6 2.1c-.6.2-.9.7-.4.8.5.2.9 0 1.3-.3.5-.2.4-.3.4-.4-.1 0-.5-.2-.9-.3z" fill="#666"/><path d="m8 1.7c.5 0 3 2.8 3 2.8.3.4-.1.9-.1.9l-2.4-1.3-1.1 1.4-.9-1.4-.6 2.2-1.7-1 .4-.6 2.6-2.7c.2-.2.4-.3.8-.3z" fill="#fff"/></svg>