<svg height="16" width="16" xmlns="http://www.w3.org/2000/svg"><path d="m8 0-7.7 4.9s-.3.2-.3.6v1.5h16v-1.5c0-.4-.3-.6-.3-.6z" fill="#f5a816"/><path d="m8 0-7.7 4.9s-.3.2-.3.6v.4c0-.4.3-.6.3-.6l7.7-4.9 7.7 4.9s.3.2.3.6v-.4c0-.4-.3-.6-.3-.6z" fill="#fff" opacity=".1"/><path d="m2 2h12v10h-12z" fill="#ececec"/><path d="m0 5.6 15.2 10.4h-14.2c-1 0-1-1-1-1z" fill="#f6be1a"/><path d="m15 16s1 0 1-1v-9.4l-15.2 10.4z" fill="#f9ce1d"/><g fill="#fff"><path d="m0 5.6v.4l7.7 5.3-6.9 4.7h.6l14.6-10v-.4l-8 5.5z" opacity=".1"/><path d="m2 2v1h12v-1z" opacity=".2"/></g></svg>