<svg height="16" width="16" xmlns="http://www.w3.org/2000/svg"><rect fill="#dd4f37" height="16" rx="2" width="16"/><g fill="none" stroke="#fff"><path d="m8.5 1.8s.4.7 0 1.5c-.5 1.3-2.2 1.6-2.4 2.8-.1.9 1.2 2.3 1.2 2.3"/><path d="m10.7 4.7s-1.9.6-2.3 1.7c-.2.8.7 1.1.7 1.7s-.7 1.1-.7 1.1"/><path d="m6.4 8.5s-1.7.3-1.7.7c0 .2 1.3.3 2.3.3s3-.3 3-.3"/><path d="m5.9 10s-.3.2-.3.5 1.3.3 1.8.3c.9 0 2.2-.3 2.2-.3"/><path d="m6.2 11.3s-.3.2-.3.4 1.1.3 1.6.3c.9 0 1.9-.2 1.9-.2"/><path d="m5 12.2s-1.3.3-1.3.7c0 .2 2.4.4 3.8.4 1.2 0 2.9-.1 3.7-.5.3-.1.2-.5.2-.5"/><path d="m4.9 13.7s2.8.5 5.6 0c1.6-.2 1.7-.8 1.7-.8"/><path d="m10.3 10.8s1.6-.6 1.6-1.5c0-1.2-1.3-.7-1.3-.7"/></g></svg>