<svg viewBox="0 0 16 16"><circle cx="8" cy="8" fill="#dd4178" r="8"/><path d="m6.5.2s-2 .1-4.1 2.1c0 0-.2 1.2 2 3.8 0 0-.8 1.3-.4 2.5 0 0-2.4-1-3.6-3.2 0 0-.8 2.5-.1 4.7 0 0 1.9.6 4.2 0 0 0 .6 1.2 2 1.7 0 0-2.5 1.7-4.5 1.4 0 0 1.3 1.9 3.9 2.5 0 0 1.3-.8 2.2-3.6 0 0 1.5 0 2.4-.9 0 0 .4 2.6-1 4.6 0 0 2-.1 4.1-2.1 0 0 .1-1.3-2-3.8 0 0 .8-1.2.4-2.5 0 0 2.6 1.2 3.6 3.2 0 0 .8-2.7.1-4.7 0 0-1.9-.6-4.2 0 0 0-.6-1.2-2-1.7 0 0 2.5-1.7 4.5-1.4 0 0-1-1.7-3.9-2.5 0 0-1.3.8-2.2 3.6 0 0-1.4 0-2.4.9 0 0-.3-2.8 1-4.6z" fill="#fff"/><path d="m7 7v2l2-1z" fill="#dd4178" stroke="#dd4178" stroke-linejoin="round" stroke-width="2"/></svg>