<svg height="16" width="16" xmlns="http://www.w3.org/2000/svg"><rect fill="#fdd835" height="12" rx="1.5" width="12" x="4"/><rect fill="#ef5350" height="12" rx="1.5" width="12" x="2" y="2"/><rect fill="#f06292" height="12" rx="1.5" width="12" y="4"/><path d="m14 8.3v1.2h2v-.5l-1.6-.7zm-2 2v1.2h2v-.5l-1.6-.7zm-10.9 1.3-1.1.9v.5h12v-.5l-1.6-.7-1.6.5h-.8l-1.6-.3-3.6-.1z" opacity=".5"/><path d="m14 9.5v1.2h.4l1.6-.7v-.5zm-2 2v1.2h.4l1.6-.7v-.5zm-12 1.5v.5l1.1.9 1.7-.3 3.6-.1 1.6-.3h.8l1.6.5 1.6-.7v-.5z" opacity=".1"/><circle cx="8.5" cy="7.5" fill="#fff" opacity=".8" r="1.5"/></svg>