<svg viewBox="0 0 16 16"><path d="m8 0s-1.1 2.8-3.1 3.9c-1.6 1.5-4.5 1.7-4.5 1.7s2.1 1.8 2.7 4.1c.9 2.3.2 4.9.2 4.9s1.9-1.4 4.7-1.4 4.7 1.4 4.7 1.4-.7-2.6.2-4.9c.6-2.3 2.7-4.1 2.7-4.1s-2.9-.2-4.5-1.7c-2-1.1-3.1-3.9-3.1-3.9z" fill="#ba121f"/><path d="m12.7 1.4s-1.9 1.4-4.7 1.4-4.7-1.4-4.7-1.4.7 2.4-.2 4.9c-.6 2.4-2.7 4.1-2.7 4.1s2.9.2 4.6 1.7c2 1.3 3 3.9 3 3.9s1-2.6 3-3.9c1.7-1.5 4.6-1.7 4.6-1.7s-2.1-1.7-2.7-4.1c-.9-2.5-.2-4.9-.2-4.9z" fill="#e91627"/><path d="m9.8 2.1s-1.3 1.6-3.2 2.2c-1.6.6-3.7.1-3.7.1s1.1 1.7 1.1 3.6-1.1 3.6-1.1 3.6 2.1-.5 3.7.1c1.9.6 3.2 2.1 3.2 2.1s0-1.8 1.2-3.5c1.1-1.6 3-2.3 3-2.3s-1.9-.7-3-2.3c-1.2-1.7-1.2-3.6-1.2-3.6z" fill="#ff9d93"/></svg>