<svg viewBox="0 0 16 16"><rect fill="#c62828" height="16" rx="2" width="16"/><path d="m5.5 4.7s-1.6 0-1.7 1.7c-.1.9.9 2.5-.8 2.6 0 0-1 0-1 1.2.1 1.1 1.1 1.1 1.1 1.1s1.1.1 1.2-1.1c0-.5-1-1.8 1.2-2 2.4.3 1.1 1.4 1.2 2 .2 1.2 1.3 1.1 1.3 1.1s1.1.1 1.3-1.1c.1-.6-1.2-1.7 1.2-2 2.2.2 1.2 1.5 1.2 2 .1 1.2 1.2 1.1 1.2 1.1s1 0 1.1-1.1c0-1.2-1-1.2-1-1.2-1.7-.1-.7-1.7-.8-2.6-.1-1.7-1.7-1.7-1.7-1.7-1.5-.1-1.6 1.5-2.5 1.5s-1-1.6-2.5-1.5zm2.5 1.9s1.1 0 1.2 1.2c-.1 1.1-1.2 1.1-1.2 1.1s-1.1 0-1.2-1.1c.1-1.2 1.2-1.2 1.2-1.2z" fill="#fff"/></svg>