<svg viewBox="0 0 16 16"><path d="m2 0s-2 0-2 2h2zm8 0v2h2v-2zm2 2v2h2v-2zm-8 0v2h-2v2h4v-4z" fill="#60a036"/><path d="m2 0v4h2v-4zm4 0v2h2v-2zm2 2v2h2v-2zm4-2v2h2v-2zm2 2v2h2v-2zm0 2h-2v2h2z" fill="#72b248"/><path d="m4 0v2h2v-2zm2 2v2h2v-2zm2 0h2v-2h-2zm2 0v2h2v-2z" fill="#56962c"/><path d="m14 0v2h2s0-2-2-2zm-14 2v2h2v-2zm8 2v2h2v-2zm6 0v2h2v-2zm0 2h-2v2h2z" fill="#9bca6b"/><path d="m0 4v2h2v-2zm8 4v2h2v2h2v-4zm0 2h-2v2h2zm6-2v2h2v-2zm-14 4v2h2v-2zm2 2v2h2v-2z" fill="#b8845b"/><path d="m6 4v2h2v-2zm0 2h-2v2h2zm-2 2h-2v2h2zm-2 0v-2h-2v2zm10 2v4h4v-2h-2v-2zm-8 2v2h2v-2zm4 0v2h2v-2z" fill="#583c28"/><path d="m10 4v2h2v-2zm0 2h-2v2h2zm4 0v2h2v-2zm0 2h-2v2h2zm-14 0v2h2v-2zm4 6v2h2v-2zm4 0v2h2v-2zm6 0v2s2 0 2-2z" fill="#956b49"/><path d="m2 6v2h2v-2zm2 2v2h-4v2h6v-2h2v-4h-2v2zm4 2v2h2v-2zm2 2v4h4v-2h-2v-2zm4-2v2h2v-2zm-14 4s0 2 2 2v-2zm6 0v2h2v-2z" fill="#785439"/><path d="m10 6v2h2v-2zm-8 6v2h2v-2zm4 0v2h2v-2z" fill="#6b6b6b"/></svg>