<svg viewBox="0 0 16 16"><path d="m12 4-4 4v-8z" fill="#f34235"/><path d="m8 8 4-4v4z" fill="#9c27b0"/><path d="m12 12-4-4h8z" fill="#2095f2"/><path d="m12 12-4-4v4z" fill="#3e50b4"/><path d="m4 12 4 4v-8z" fill="#4bae4f"/><path d="m8 8-4 4v-4z" fill="#1ea362"/><path d="m4 4 4 4h-8z" fill="#fec006"/><path d="m4 4 4 4v-4z" fill="#fe9700"/><path d="m7.2 8.3-1.2.7 1.3.7.7 1.3.7-1.3 1.3-.7-1.2-.7z" opacity=".2"/><path d="m8 6-.7 1.3-1.3.7 2 .1 2-.1-1.3-.7z" fill="#fff"/><path d="m6 8 1.3.7.7 1.3v-1.9z" fill="#ebebeb"/><path d="m10 8-1.3.7-.7 1.3v-1.9z" fill="#dfdfdf"/></svg>