<svg height="16" width="16" xmlns="http://www.w3.org/2000/svg"><rect fill="#3f3f3f" height="16" rx="1" width="16"/><path d="m7 0v5c2.8-.1 4.7 2.4 4.7 2.4s-2.2 2.9-4.7 2.7v.7c2.7.2 5.3-2.4 5.3-2.4l1.4.9s-2.9 2.2-6.7 2.1v4.6h8s1 0 1-1v-14s0-1-1-1zm0 10.8c-2.9-.4-3.6-3.3-3.6-3.3s1.2-1.7 3.6-1.9v-.6c-2.6.1-4.9 2.4-4.9 2.4s1.3 3.9 4.9 4zm0-4.4c1.4-.1 2.3 1 2.3 1l-1.1 1s-.4-1.2-1.2-1.3v2.4c1.9.3 3.4-2.1 3.4-2.1s-1.3-1.8-3.4-1.8zm0 3.1c-1.2-.3-1.6-1.7-1.6-1.7s.4-.8 1.6-.7v-.7c-1.4 0-2.7 1.2-2.7 1.2s.6 2.2 2.7 2.5z" fill="#76b900"/><path d="m1 0s-1 0-1 1v1s0-1 1-1h14s1 0 1 1v-1s0-1-1-1z" fill="#fff" opacity=".2"/></svg>