<svg viewBox="0 0 16 16"><rect height="2" opacity=".2" rx=".5" width="2" x="14" y="13"/><rect fill="#4bae4f" height="5" rx=".5" width="2" x="14" y="2"/><rect fill="#f34235" height="5" rx=".5" width="2" x="14" y="6"/><rect fill="#fec006" height="4" rx=".5" width="2" x="14" y="10"/><path d="m15 6v1h .5s.5 0 .5.5v-1s0-.5-.5-.5zm0 4v1h .5s.5 0 .5.5v-1s0-.5-.5-.5zm0-8v1h .5s.5 0 .5.5v-1s0-.5-.5-.5z" fill="#fff" opacity=".2"/><rect fill="#435ece" height="16" rx="1" width="14" x="1"/><g fill="#fff"><path d="m2 0s-1 0-1 1v1s0-1 1-1h12s1 0 1 1v-1s0-1-1-1z" opacity=".2"/><circle cx="8" cy="5.8" r="2.4"/><path d="m8 9.8c-4 0-4 2.5-4 2.5v.7h8v-.7s0-2.5-4-2.5z"/></g></svg>