<svg viewBox="0 0 16 16"><path d="m3 2s0 2-2 2v4h14v-4s-2 0-2-2z" fill="#1976d2"/><path d="m1 8v4s2 0 2 2h10s0-2 2-2v-4z" fill="#2196f3"/><g fill="#ffedd3"><circle cx="3.9" cy="4.8" r="1.7"/><circle cx="3.7" cy="7.3" r="1.7"/><circle cx="9.5" cy="5.1" r="4.2"/><circle cx="12.6" cy="7.6" r="1.4"/><path d="m3.5 5h9.3v5h-9.3z"/></g><g fill="#333"><circle cx="5.5" cy="6.1" r=".8"/><circle cx="10.5" cy="6.1" r=".8"/></g><g fill="#fff"><circle cx="5.8" cy="5.9" r=".3"/><circle cx="10.8" cy="5.9" r=".3"/></g><path d="m6.8 6.9s0 1.1 1.2 1.1 1.2-1.1 1.2-1.1z" fill="#bd1b1b"/><path d="m4 9c-1 0-1 1-1 1v4s0 1 1 1h1v-5s0-1-1-1zm4 0c-1 0-1 1-1 1v5h2v-5s0-1-1-1zm4 0c-1 0-1 1-1 1v5h1s1 0 1-1v-4s0-1-1-1z" fill="#f9f9f9"/><path d="m6 9c-1 0-1 1-1 1v5h2v-5s0-1-1-1zm4 0c-1 0-1 1-1 1v5h2v-5s0-1-1-1z" fill="#f44336"/></svg>