<svg viewBox="0 0 16 16"><path d="m3 14.5-1.5 1.5h1.5z" fill="#03a9f4"/><path d="m6 13v3h-3v-3z" fill="#29b6f6"/><path d="m9 13v3h-3v-3z" fill="#4fc3f7"/><path d="m12 13v3h-3v-3z" fill="#81d4fa"/><path d="m15 13v3h-3v-3z" fill="#b3e5fc"/><path d="m3.1 14-.9 1.8 1.4-.8z" fill="#9c27b0"/><path d="m4.8 10.8 1.3 2.7-2.5 1.5-1.5-2.6z" fill="#ab47bc"/><path d="m7.4 9.3 1.3 2.7-2.6 1.5-1.5-2.6z" fill="#ba68c8"/><path d="m10 7.8 1.3 2.7-2.6 1.5-1.5-2.6z" fill="#ce93d8"/><path d="m12.4 6.4 1.5 2.6-2.6 1.5-1.5-2.6z" fill="#e1bee7"/><path d="m3 13.5-.2 1.7.9-1.5z" fill="#d50000"/><path d="m2.6 9.7 2.6 1.5-1.6 2.7-2.6-1.5z" fill="#ff1744"/><path d="m4.1 7.1 2.6 1.5-1.6 2.8-2.6-1.5z" fill="#ff5252"/><path d="m5.6 4.5 2.6 1.5-1.6 2.8-2.6-1.5z" fill="#ff8a80"/><path d="m7 2.1 2.6 1.5-1.5 2.6-2.6-1.5z" fill="#ffc9c4"/><path d="m0 13v1.5s0 1.5 1.5 1.5 1.5-1.5 1.5-1.5v-1.5z" fill="#ff9800"/><path d="m0 10h3v3h-3z" fill="#ffa726"/><path d="m0 7h3v3h-3z" fill="#ffb74d"/><path d="m0 4h3v3h-3z" fill="#ffcc80"/><path d="m0 1h3v3h-3z" fill="#ffe0b2"/><circle cx="1.5" cy="15" opacity=".1" r=".8"/><circle cx="1.5" cy="14.5" fill="#fff" r=".8"/></svg>