<svg viewBox="0 0 16 16"><g fill="#5c6bc0"><path d="m6.1 0-.7 3.5-3.4-1.2-1.9 3.4 2.7 2.3-2.7 2.3 1.9 3.4 3.4-1.2.7 3.5h3.8l.7-3.5 3.4 1.2 1.9-3.4-2.7-2.3 2.7-2.3-1.9-3.4-3.4 1.2-.7-3.5z"/><circle cx="8" cy="8" r="6.4"/></g><path d="m2.8 11 5.6-2.4-.8-1.2z" fill="#f2f2f2"/><path d="m13.2 5-4.8 3.6-.8-1.2z" fill="#f44336"/><circle cx="11.5" cy="12.5" opacity=".2" r="4.5"/><circle cx="11.5" cy="11.5" fill="#fbc02d" r="4.5"/><path d="m12 8.8 3.2 2.3-3.2 2.3v-1.3h-1s-1.1 0-1.5 1c-.2.7.7 2 .7 2s-2-.7-2-2.4c0-2.7 2.5-2.7 2.5-2.7h1.3z" fill="#fff"/></svg>