<svg viewBox="0 0 16 16"><rect fill="#78909c" height="12" rx="1" width="15" y="2"/><path d="m2 6v1h2v-1zm3 0v1h2v-1zm3 0v1h2v-1zm3 0v1h2v-1zm-9 3v1h2v-1zm3 0v1h2v-1zm-1 3v1h4v-1z" opacity=".2"/><g fill="#fff"><path d="m2 4v2h2v-2zm3 0v2h2v-2zm3 0v2h2v-2zm3 0v2h2v-2zm-9 3v2h2v-2zm3 0v2h2v-2zm3 0v2h2v-2zm3 0v1h2v-1zm-7 3v2h4v-2z"/><path d="m1 2s-1 0-1 1v1s0-1 1-1h13s1 0 1 1v-1s0-1-1-1z" opacity=".1"/></g><circle cx="11.5" cy="11.5" fill="#5f7c8a" r="4.5"/><g fill="none" stroke="#fff" stroke-width="1.2"><circle cx="11.5" cy="11.5" r="1.4"/><path d="m13.7 12.8-.7-.4m-3-1.8-.7-.4m4.4 0-.7.4m-3 1.8-.7.4m2.2-3.8v1m0 3v1"/></g></svg>