<svg height="16" width="16" xmlns="http://www.w3.org/2000/svg"><rect fill="#d8d8d8" height="14" rx="1" width="12" x="3"/><rect fill="#ebebeb" height="14" rx="1" width="12" x="1" y="2"/><path d="m4.7 6-2.4 6h .7l.8-2h2.4l.8 2h .7l-2.4-6zm .3.7 1 2.7h-2zm5.2.5s-.9 0-1.5.4l.2.5s.7-.3 1.3-.3c0 0 1 0 1 1.1v.3h-.8s-2.2 0-2.2 1.4c0 0 0 1.4 1.3 1.4 0 0 1.4 0 1.7-.7v.7h.6v-3.3s.1-1.5-1.6-1.5zm.1 2.5h.9v.4s0 .6-.5 1c0 0-.2.3-1 .3 0 0-.9 0-.9-.7 0 0-.1-1 1.5-1z" opacity=".5"/><path d="m4 0s-1 0-1 1v1s0-1 1-1h10s1 0 1 1v-1s0-1-1-1zm-2 2s-1 0-1 1v1s0-1 1-1h10s1 0 1 1v-1s0-1-1-1z" fill="#fff" opacity=".6"/></svg>