<svg viewBox="0 0 16 16"><path d="m13.5 2.4 2.5 5.6-2.5 5.6-5.5-5.5v-.2z" fill="#4caf50"/><path d="m2.5 13.6-2.5-5.6 2.5-5.6 5.5 5.5v.2z" fill="#f44336"/><path d="m13.6 2.4-5.6-2.4-5.6 2.4 5.6 5.6z" fill="#ffeb3b"/><path d="m2.4 13.6 5.6 2.4s5.6-2.4 5.6-2.4l-5.6-5.6z" fill="#673ab7"/><path d="m8 0c0 2 .7 4.2 2.3 5.7l3.3-3.3c-1.5-1.5-3.5-2.4-5.6-2.4z" fill="#cddc39"/><path d="m13.6 2.4-3.3 3.3c1.5 1.6 3.7 2.3 5.7 2.3 0-2.1-.9-4.1-2.4-5.6z" fill="#8bc34a"/><path d="m16 8c-2 0-4.2.7-5.7 2.3l3.3 3.3c1.5-1.5 2.4-3.5 2.4-5.6z" fill="#009688"/><path d="m10.3 10.3c-1.6 1.5-2.3 3.7-2.3 5.7 2.1 0 4.1-.9 5.6-2.4z" fill="#3f51b5"/><path d="m5.7 10.3-3.3 3.3c1.5 1.5 3.5 2.4 5.6 2.4 0-2-.7-4.2-2.3-5.7z" fill="#9c27b0"/><path d="m0 8c0 2.1.9 4.1 2.4 5.6l3.3-3.3c-1.5-1.6-3.7-2.3-5.7-2.3z" fill="#e91e63"/><path d="m2.4 2.4c-1.5 1.5-2.4 3.5-2.4 5.6 2 0 4.2-.7 5.7-2.3z" fill="#ff5722"/><path d="m2.4 2.4 3.3 3.3c1.6-1.5 2.3-3.7 2.3-5.7-2.1 0-4.1.9-5.6 2.4z" fill="#f9ce1d"/><circle cx="8" cy="8" fill="#fff" opacity=".2" r="5.6"/><circle cx="8" cy="8" fill="#fff" opacity=".2" r="3.2"/></svg>