<svg height="16" width="16" xmlns="http://www.w3.org/2000/svg"><path d="m6.3 1c-1.3 0-2.3.9-2.3 2v1h-1c-1.1 0-2 1-2 2.3v3.4c0 1.3.9 2.3 2 2.3h9v-9c0-1.1-1-2-2.3-2z" fill="#3776ab"/><path d="m9.7 15c1.3 0 2.3-.9 2.3-2v-1h1c1.1 0 2-1 2-2.3v-3.4c0-1.3-.9-2.3-2-2.3h-1v2s0 2-2 2h-4c-2 0-2 2-2 2v3c0 1.1 1 2 2.3 2z" fill="#ffd343"/><g fill="#fff"><circle cx="5.5" cy="2.5" r=".5"/><circle cx="10.5" cy="13.5" r=".5"/></g><path d="m4 3v1h3v-1zm8 2s0 2-2 2h-4c-2 0-2 2-2 2v1s0-2 2-2h4c2 0 2-2 2-2zm-11 3.7v1c0 1.3.9 2.3 2 2.3h1v-1h-1c-1.1 0-2-1-2-2.3zm8 3.3v1h3v-1z" opacity=".2"/><path d="m6.3 1c-1.3 0-2.3.9-2.3 2v1c0-1.1 1-2 2.3-2h3.4c1.3 0 2.3.9 2.3 2v-1c0-1.1-1-2-2.3-2zm5.7 3v1h1c1.1 0 2 1 2 2.3v-1c0-1.3-.9-2.3-2-2.3zm-8 0h-1c-1.1 0-2 1-2 2.3v1c0-1.3.9-2.3 2-2.3h1zm8 2s0 2-2 2h-4c-2 0-2 2-2 2v1s0-2 2-2h4c2 0 2-2 2-2z" fill="#fff" opacity=".1"/></svg>