<svg height="16" width="16" xmlns="http://www.w3.org/2000/svg"><path d="m2.2 1h13.8v11.8l-2.2 2.2h-13.8v-11.8z" fill="#26d03a"/><path d="m10.5 4.5v4.7c0 1.1.2 1.3 1.1 1.3h.8m-3.1-4h3.2m-4.5 5.6-1-1.7m-1-5.9c2.2 0 2.2 2 2.2 3s0 3-2.2 3-2.2-2-2.2-3 0-3 2.2-3z" fill="none" stroke="#fff" stroke-width="1.1"/><circle cx="11.5" cy="11.5" fill="#5f7c8a" r="4.5"/><g fill="none" stroke="#fff" stroke-width="1.2"><circle cx="11.5" cy="11.5" r="1.4"/><path d="m13.7 12.8-.7-.4m-3-1.8-.7-.4m4.4 0-.7.4m-3 1.8-.7.4m2.2-3.8v1m0 3v1"/></g></svg>