<svg viewBox="0 0 16 16"><rect fill="#78909c" height="14" rx="1" width="16" y="1"/><g fill="#fff"><path d="m2 3h12v10h-12z" opacity=".2"/><path d="m1 1s-1 0-1 1v1s0-1 1-1h14s1 0 1 1v-1s0-1-1-1z" opacity=".1"/></g><path d="m0 6v2c3.8 0 7 3.2 7 7h2c0-5-4-9-9-9zm0 3v2c2.2 0 4 1.8 4 4h2c0-3.3-2.7-6-6-6zm0 3v2s0 1 1 1h2c0-1.6-1.4-3-3-3z" fill="#cfd8dc"/><path d="m0 6v1c4.6 0 8.4 3.5 8.9 8h .1c0-5-4-9-9-9zm0 3v1c3 0 5.4 2.1 5.9 5h .1c0-3.3-2.7-6-6-6zm0 3v1c1.3 0 2.4.8 2.8 2h .2c0-1.6-1.4-3-3-3z" fill="#fff" opacity=".2"/></svg>