<svg viewBox="0 0 16 16"><rect fill="#ff9800" height="16" rx="2" width="16"/><path d="m6 4c-1.8.1-1.9 1.9-1.9 1.9s-.1-.1-.3-.1c-1.4.2-1.2 1.4-1.2 1.4s-.1-.1-.3-.1c-.6 0-.7.5-.7.5v.4h2.2s.5-1.4 2.1-1.4c.7 0 1.1.3 1.1.3s.4-.9 1-1.2c0 0-.3-1.7-2-1.7zm3.8 1.5c-2.3.2-2.6 2.2-2.6 2.2s-.4-.6-1.3-.6c-1 0-1.8.8-1.8 1.8 0 .2.1.6.1.6s-.9.3-.9 1.2c.1 1.3 1.3 1.3 1.3 1.3h.7c1.1 0 2-2.9 3.5-3.4.7-.2 1.5-.2 2 .3.4.4.7 1.5.2 1.9-.3.2-.9.1-1.2-.3s.2-1.1.2-1.1c-1.3.4-1.4 2.6-.2 2.6h2.8s1.8 0 1.8-1.8-1.8-1.8-1.8-1.8h-.3s.1-.1.1-.3c0 0 0-2.3-2.6-2.6z" fill="#fff"/></svg>