<svg viewBox="0 0 16 16"><path d="m6.1 0-.4 2-1.7 1-1.9-.7-2 3.4 1.5 1.3v2l-1.5 1.3 2 3.4 1.9-.7 1.7 1 .4 2h3.8l.4-2 1.7-1 1.9.7 2-3.4-1.5-1.3v-2l1.5-1.3-2-3.4-1.9.7-1.7-1-.4-2z" fill="#3f3f3f"/><path d="m .5 5-.4.7 1.5 1.3v-1zm15 0-1.1 1v1l1.5-1.3zm-15 5-.4.3 2 3.4 1.9-.7 1.7 1 .4 2h3.8l.4-2 1.7-1 1.9.7 2-3.4-.4-.3-1.6 2.7-1.9-.7-1.7 1-.4 2h-3.8l-.4-2-1.7-1-1.9.7z" opacity=".1"/><path d="m3.5 7v3m0-1.5h2m .5-4h3m-1.5 0v2m4.5 1h-2.3l-.9-1h-3.3v3.2l1.8 1.8h2l1-1h1.7m-.5-3.5h.8l.2.2v3.6l-.2.2h-.8" fill="none" stroke="#fe9700"/></svg>