<svg viewBox="0 0 16 16"><path d="m0 6v-4c0-1 1-1 1-1h6l2 2h6c1 0 1 1 1 1v2z" fill="#f57c00"/><path d="m16 15v-11s0-1-1-1h-6l-2 2h-6s-1 0-1 1v9s0 1 1 1h14s1 0 1-1z" fill="#ff9800"/><path d="m1 1s-1 0-1 1v1s0-1 1-1h6l1.5 1.5-1.5 1.5h-6s-1 0-1 1v1s0-1 1-1h6l2-2h6s1 0 1 1v-1s0-1-1-1h-6l-2-2z" fill="#fff" opacity=".1"/><path d="m8.5 2.5-1.5 1.5h-6s-1 0-1 1v1s0-1 1-1h6l2-2zm-8.5 11.5v1s0 1 1 1h14s1 0 1-1v-1s0 1-1 1h-14s-1 0-1-1z" opacity=".1"/><use opacity=".2" xlink:href="#a" y="1"/><g fill="#fff"><path id="a" d="m10.5 7.9c.7 0 .2 1.7.8 2.1s2-.6 2.2.1-1.6.7-1.8 1.4 1.2 1.7.6 2.1c-.6.5-1.1-1.2-1.8-1.2s-1.2 1.7-1.8 1.2c-.6-.4.8-1.4.6-2.1s-2-.7-1.8-1.4 1.6.3 2.2-.1.1-2.1.8-2.1z"/></g></svg>