<svg height="16" width="16" xmlns="http://www.w3.org/2000/svg"><rect fill="#4a148c" height="16" rx="2" width="16"/><path d="m16 11v3c0 2-2 2-2 2h-12c-2 0-2-2-2-2v-1s8-2 16-2z" fill="#4a1d59"/><path d="m0 11v3s0 2 2 2h12s2 0 2-2v-1s-8-2-16-2z" fill="#1a1a1a"/><path d="m3.8 2.3-.3.9-.9.3.9.3.3.9.3-.9.9-.3-.9-.3zm1.8 2.1-.2.4-.4.2.4.2.2.4.2-.4.4-.2-.4-.2zm-2.8 1.4-.2.4-.4.2.4.2.2.4.2-.4.4-.2-.4-.2zm3.4 1-.2.4-.4.2.4.2.2.4.2-.4.4-.2-.4-.2zm8 0-.2.4-.4.2.4.2.2.4.2-.4.4-.2-.4-.2zm-10.4 2-.2.4-.4.2.4.2.2.4.2-.4.4-.2-.4-.2zm6.4 0-.2.4-.4.2.4.2.2.4.2-.4.4-.2-.4-.2z" fill="#fff" opacity=".8"/><circle cx="10.5" cy="4.5" fill="#fffde7" r="2.5"/></svg>