<svg viewBox="0 0 16 16"><path d="m6.1 0-.4 2-1.7 1-1.9-.7-2 3.4 1.5 1.3v2l-1.5 1.3 2 3.4 1.9-.7 1.7 1 .4 2h3.8l.4-2 1.7-1 1.9.7 2-3.4-1.5-1.3v-2l1.5-1.3-2-3.4-1.9.7-1.7-1-.4-2z" fill="#d32f2f"/><path d="m6.1 0-.4 2-1.7 1-1.9-.7-2 3.4.4.3 1.6-2.7 1.9.7 1.7-1 .4-2h3.8l.4 2 1.7 1 1.9-.7 1.6 2.7.4-.3-2-3.4-1.9.7-1.7-1-.4-2zm-4.5 9-1.5 1.3.4.7 1.1-1zm12.8 0v1l1.1 1 .4-.7z" fill="#fff" opacity=".1"/><path d="m .5 5-.4.7 1.5 1.3v-1zm15 0-1.1 1v1l1.5-1.3zm-15 5-.4.3 2 3.4 1.9-.7 1.7 1 .4 2h3.8l.4-2 1.7-1 1.9.7 2-3.4-.4-.3-1.6 2.7-1.9-.7-1.7 1-.4 2h-3.8l-.4-2-1.7-1-1.9.7z" opacity=".1"/><path d="m6.7 9.6c.1-1.6 2-.8 2.8-2.2.5 1.9.1 3.2-1.6 3.4-1.2 0-1.2-1.2-1.2-1.2zm1.9-5.8c.5 1.6.4 3.2-1 3.2s-1.4-1.5-1.4-1.5-1.2 1.2-1.2 3.3c0 0 0 3 3 3s3-3 3-3c0-3.1-2.4-5-2.4-5z" fill="#fff"/></svg>