<svg height="16" width="16" xmlns="http://www.w3.org/2000/svg"><path d="m4 14h8v2h-8z" fill="#4d4d4d"/><rect fill="#666" height="14" rx="1" width="16"/><path d="m1 0s-1 0-1 1v1s0-1 1-1h14s1 0 1 1v-1s0-1-1-1z" fill="#fff" opacity=".1"/><path d="m1 1h14v11h-14z" fill="#c0ca33"/><path d="m9 3s-1 0-1 1 1 1 1 1 1 0 1-1-1-1-1-1zm-4 3c-1.5 0-3 2-3 4.5v.5h12s-1-4-2.5-4-1.5 2-2.5 2-2.5-3-4-3z" opacity=".5"/><circle cx="12.5" cy="11.5" fill="#f44336" r="4.5"/><path d="m11 9.3v4.4l4-2.2z" fill="#fff"/></svg>