<svg viewBox="0 0 16 16"><path d="m2.8 9s-.5 0-.7.4l-2 5.5s-.4.9.7 1.1h14.4s1.1-.2.7-1.1l-2-5.5s-.2-.4-.7-.4z" fill="#f80"/><path d="m6.4 9-3.2 3 3.6 4h8.4s1.1-.2.7-1.1l-2-5.5s-.2-.4-.7-.4z" opacity=".2"/><path d="m8 0c-1.3 0-1.6.7-1.6.7l-3.1 10.5h9.4l-3.1-10.5s-.3-.7-1.6-.7z" fill="#f80"/><path d="m5.7 3.1-1 3.3c2.4 1 4.2 1 6.6 0l-1-3.3c-1.3.8-3.3.8-4.6 0zm-2.5 8.4c-.2.6.3.9.3.9s1.3 1.2 4.5 1.2 4.5-1.2 4.5-1.2.5-.3.3-.9l-.7-2.2c-2.1 1.4-6.1 1.4-8.2 0z" fill="#fff"/><path d="m9.6.7s-.1.5-.8.5h-1.1l-3.2 11.8s1.3.6 3.5.6c3.2 0 4.5-1.2 4.5-1.2s.5-.3.3-.9z" opacity=".1"/></svg>