<svg height="16" width="16" xmlns="http://www.w3.org/2000/svg"><path d="m6.4 0-.3.3-.3 1.7-1.7 1-1.8-.6-.3.1-1.8 3 .1.3 1.4 1.2v2l-1.4 1.2-.1.3 1.8 3 .3.1 1.8-.6 1.7 1 .3 1.7.3.3h3.4l.3-.3.3-1.7 1.7-1 1.8.6.3-.1 1.8-3-.1-.3-1.4-1.2v-2l1.4-1.2.1-.3-1.8-3-.3-.1-1.8.6-1.7-1-.3-1.7-.3-.3z" fill="#4caf50"/><g fill="#fff"><path d="m6.4 0-.3.3-.3 1.7-1.7 1-1.8-.6-.3.1-1.8 3 .1.3.2.2 1.5-2.5.3-.1 1.8.6 1.7-1 .3-1.7.3-.3h3.4l.3.3.3 1.7 1.7 1 1.8-.6.3.1 1.5 2.5.2-.2.1-.3-1.8-3-.3-.1-1.8.6-1.7-1-.3-1.7-.3-.3zm-4.7 9-1.4 1.2-.1.3.3.5 1.2-1zm12.8 0v1l1.2 1 .3-.5-.1-.3z" opacity=".1"/><circle cx="8" cy="8" r="3"/></g></svg>