<svg height="16" width="16" xmlns="http://www.w3.org/2000/svg"><path d="m7.9 0c-2.1 0-4.9.8-4.9 3.3 0 2.6 2.9 1.7 3.2 2.7 0 0 2.8-3.1 5.5-4.9 0 0-1.8-1.1-3.8-1.1zm6.1 0c-4.2 3.2-7.8 6.5-10.8 11.1 0 0-.2-.1-.5-.1-1.5 0-.8 2.5-2.7 2.5 0 0 0 .5 1.3.5 1.7 0 2.7-.6 2.7-1.7 0-.4-.3-.8-.3-.8 4.2-3.4 7.8-7.6 10.3-11.5zm-8 1.5s1.5 0 1.5 1.5-1.5 1.5-1.5 1.5-1.5 0-1.5-1.5 1.5-1.5 1.5-1.5zm7.2.7s-2.1 4.3-8.1 9.5c0 2 1.8 3.3 4.4 3.3 3.4 0 6.4-2.1 6.4-6.5 0-3.8-2.7-6.3-2.7-6.3zm.3 3.8s1 0 1 1-1 1-1 1-1 0-1-1 1-1 1-1zm-.5 3s1 0 1 1-1 1-1 1-1 0-1-1 1-1 1-1zm-5 2s1 0 1 1-1 1-1 1-1 0-1-1 1-1 1-1zm3 0s1 0 1 1-1 1-1 1-1 0-1-1 1-1 1-1z"/></svg>