<svg height="16" width="16" xmlns="http://www.w3.org/2000/svg"><path d="m12.2 0c-2.4.1-4.4 2.6-2.7 5.4l-1.6 2.6h3.5l.8-1.2c3.4.1 4.7-3.2 3.2-5.4l-1.4 2.3s-.6.9-1.4.4l-.9-.5s-.9-.5-.4-1.3l1.4-2.3c-.2 0-.3 0-.5 0zm-8.7.8-.6.1-.1 1.7h-1.8l-.3.8 1.3 1.2-1.2 1.3.4.7 1.7-.3.2 1.7.8.1.9-1.5 1.5.9.6-.5-.7-1.6 1.7-.7v-.8l-1.8-.4.5-1.8-.7-.5-1.4 1zm .7 1.8s1.7 0 1.7 1.7-1.7 1.7-1.7 1.7-1.7 0-1.7-1.7 1.7-1.7 1.7-1.7zm-1.5 6.4-2.4 2.4c-.8.8.6 2.2 1.4 1.4l1.3-1.3v3.5s0 1 1 1h8s1 0 1-1v-3.5l1.3 1.3c.8.8 2.2-.6 1.4-1.4l-2.4-2.4z"/></svg>