<svg height="16" width="16" xmlns="http://www.w3.org/2000/svg"><path d="m8.9 2h-1.3l-.1.8-1 .9.3.3 1.2.1.5.7-.1 1.2-1.1.9.2.7-.1.7 1.6-.3 1.4 1v1.4l1.2-1.2v-2.1l.5-.5-.1-2.1-2-1z" opacity=".35"/><path d="m8 0c-2 0-3.8.7-5.2 1.9l.2.5.9-.1c1.2-.9 2.6-1.3 4.1-1.3.3 0 .5.1.8.1.2-.9 2.2-.5 2.2-.5-.9-.4-1.9-.6-3-.6zm3.6 2.5h-1s3 1.2 3.1 3.2l-.7-.5s.6 1.8.1 3.3c-.2-.6-.5-1-.5-1s .4 2.5-.9 4l .3-1.3s-1.5 2.2-3.3 2.2c-2.1-.1-3-1.3-3-1.3s1.3.4 3.1-1.1h.6l.1-.4c-.6-.8-1.2-.8-2.1-.4-1.4.8-2.6-1-2.6-1l .2-.6 1.5.2-.3-1.3 1.4-1.3-1.1-.2-1-.9.3-.9.6-1-1.8 1.2-2.1.1-1.1-1.7-.4 2.9s-.9.9-.9 2.3l.4-.4s-.3.4-.3 1.6l-.2-.2c0 5 4 8 8.5 8 3.5 0 7.5-3 7.5-8l-.1.1c.2-1.2-.1-2-.1-2l-.2.8c-.6-5.9-5.9-5.3-5.9-5.3s1.4 0 1.9.9z"/></svg>