<svg viewBox="0 0 16 16"><path d="m8 .1c-.5 0-.9.2-1.2.5l-6.2 6.4c-.3.4-.5.8-.5 1.3 0 1.4 3.6 0 4 1.7.2.9-2 .5-2 1.4 0 1.1 3.1.3 3.9 1.2.4.9-1.2.7-.9 1.6.5.5 1.7.2 1.9 1.1.3 1 1.9.8 2.9.1.5-.5-.8-.8-.3-1.3s3.1-.4 3.1-1.6c-.2-.7-1.2-.8-1.2-1.7-.1-.7.8-.5 3.4-1.2 1.1-.5 1.1-.8 1.1-1.2 0-.5-.2-.9-.6-1.3l-6.2-6.5c-.3-.3-.7-.5-1.2-.5zm0 1.3c.6 0 3 2.8 3 2.8.3.4-.1.9-.1.9l-2.4-1.3-1.1 1.4-.9-1.4-.6 2.2-1.6-1 .4-.6s2.7-3 3.3-3zm6.9 9.6c-.2 0-1 .1-.9.7.7.3 1.8.5 2-.1.1-.5-.3-.6-.7-.7zm-11.9 2s-1.5.4-.7.9c1.3.3 1.7-.6 1.7-.6z"/></svg>