<svg height="16" width="16" xmlns="http://www.w3.org/2000/svg"><path d="m9.5 0s-1.5 0-1.5 1.5v4s0 1.5 1.5 1.5h4s1.5 0 1.5-1.5v-4s0-1.5-1.5-1.5zm-8 1s-1.5 0-1.5 1.5v3s0 1.5 1.5 1.5h4s1.5 0 1.5-1.5v-3s0-1.5-1.5-1.5zm8.1 0s1.9.3 3.8 0c0 0 .6 0 .6.5v3s0 .6-.6.6c0 0-1.9.3-3.8 0 0 0-.6 0-.6-.6v-3s0-.5.6-.5zm-8 1s1.9.3 3.8 0c0 0 .6 0 .6.6v2.9s0 .6-.5.6c0 0-2 .3-4 0 0 0-.5 0-.5-.7v-2.9s0-.5.6-.5zm-.1 6s-1.5 0-1.5 1.5v4s0 1.5 1.5 1.5h9s1.5 0 1.5-1.5v-4s0-1.5-1.5-1.5zm.1 1s4.4.5 8.8 0c0 0 .6 0 .6.5v3s0 .6-.5.6c0 0-4.5.5-9 0 0 0-.5 0-.5-.7v-2.9s0-.5.6-.5z"/></svg>