<svg height="48" width="48" xmlns="http://www.w3.org/2000/svg"><circle cx="24" cy="25" opacity=".2" r="20"/><circle cx="24" cy="24" fill="#455a64" r="20"/><circle cx="24" cy="25" opacity=".2" r="16"/><circle cx="24" cy="24" fill="#ebebeb" r="16"/><path d="m24 24v16c8.9 0 16-7.1 16-16 0-7.2-4.7-11.3-4.7-11.3z" fill="#c4c4c4"/><path d="m24 24v16" fill="none" stroke="#f34235"/><path d="m24 8c-7.2 0-11.3 4.7-11.3 4.7l11.3 11.3z" fill="#ff5722"/><path d="m24 4c-11.1 0-20 8.9-20 20v .5c.3-10.8 9.1-19.5 20-19.5s19.7 8.7 20 19.5c0-.2 0-.3 0-.5 0-11.1-8.9-20-20-20z" fill="#fff" opacity=".1"/><path d="m24 24 7.7-7.7" fill="none" stroke="#000" stroke-width="2"/><circle cx="24" cy="24" fill="#333" r="2"/><path d="m24 24v-16" fill="none" stroke="#333" stroke-width="2"/></svg>