<svg height="48" width="48" xmlns="http://www.w3.org/2000/svg"><path d="m24 4-12 11h-10v20h10l12 11zm6 0v4.5s12 3.5 12 16.5-12 16.5-12 16.5v4.5s16.5-3.7 16.5-21-16.5-21-16.5-21zm0 12v18s5.4-2.6 5.4-9-5.4-9-5.4-9z" opacity=".2"/><path d="m30 15v18s5.4-2.6 5.4-9-5.4-9-5.4-9zm-6-12-12 11h-10v20h10l12 11z" fill="#78909c"/><path d="m30 3v4.5s12 3.5 12 16.5-12 16.5-12 16.5v4.5s16.5-3.7 16.5-21-16.5-21-16.5-21z" fill="#b0bec5"/><path d="m24 3-12 11h-10v1h10l12-11zm6 0v1s15.3 3 16.5 20.5v-.5c0-17.3-16.5-21-16.5-21zm0 12v1s5.1 2.5 5.4 8.5v-.5c0-6.4-5.4-9-5.4-9zm12 9.5c-.3 12.5-12 16-12 16v1s12-3.5 12-16.5z" fill="#fff" opacity=".2"/></svg>