<svg height="48" width="48" xmlns="http://www.w3.org/2000/svg"><rect height="6" opacity=".2" rx="1.5" width="16" x="16" y="36"/><rect fill="#cbc" height="6" rx="1.5" width="16" x="16" y="35"/><path d="m16 36h16v2h-16z" opacity=".05"/><path d="m6 37c-2 0-2-2-2-2v-1h40v1c0 2-2 2-2 2z" opacity=".2"/><rect fill="#ddd" height="32" rx="2" width="40" x="4" y="4"/><path d="m42 30v-24h-36v24z" fill="#e43"/><path d="m18 11v6h2v-6zm10 0v6h2v-6zm-12 10v2h16v-2zm16 2v2h2v-2zm-16 0h-2v2h2z" fill="#fff"/><g opacity=".1"><path d="m6 4s-2 0-2 2v1s0-2 2-2h36s2 0 2 2v-1s0-2-2-2z" fill="#fff"/><path d="m42 7v-1h-36v1z"/></g></svg>