<svg viewBox="0 0 48 48"><g stroke-linejoin="round" stroke-width="8"><path d="m24 7-18 18 18 18 18-18z" opacity=".2" stroke="#000"/><path d="m24 6-18 18 18 18 18-18z" fill="#56b" stroke="#56b"/></g><g fill="#fff"><path d="m26 35h-3v-3h3zm-.1-6h-3c0-6.3 4.6-5.6 4.6-9-.2-3-3-3-3-3s-2.8 0-3 3h-3c .3-6 6-6 6-6s5.7 0 6 6c0 4.5-4.6 4-4.6 9z"/><path d="m21.1 3.1-18 18c-1.6 1.6-1.1 3.4-1.1 3.4s.2-1.5 1.1-2.4l18-18c1.8-1.5 4.2-1.5 5.8 0l18 18c .9.9 1.1 2.4 1.1 2.4s.5-1.8-1.1-3.4l-18-18c-1.8-1.5-4.3-1.5-5.8 0z" opacity=".2"/></g></svg>