<svg height="48" width="48" xmlns="http://www.w3.org/2000/svg"><path d="m4 40v1s0 2 2 2h36s2 0 2-2v-1z" opacity=".1"/><path d="m4 22v-14c0-2 2-2 2-2h16l4 4h16c2 0 2 2 2 2v10z" fill="#789"/><path d="m44 40v-22s0-2-2-2h-16l-4 4h-16s-2 0-2 2v18s0 2 2 2h36s2 0 2-2z" fill="#89a"/><path d="m26 16-4 4h-16s-2 0-2 2v1s0-2 2-2h16l4-4h16s2 0 2 2v-1s0-2-2-2z" fill="#fff" opacity=".2"/><path d="m26 15-4 4h-16s-2 0-2 2v1s0-2 2-2h16l4-4h16s2 0 2 2v-1s0-2-2-2z" opacity=".05"/><path d="m22 6 4 4h16c2 0 2 2 2 2v1c0-2-2-2-2-2h-16l-4-4h-16c-2 0-2 2-2 2v-1c0-2 2-2 2-2z" fill="#fff" opacity=".2"/></svg>