<svg height="48" width="48" xmlns="http://www.w3.org/2000/svg"><rect height="5" opacity=".2" rx="2" width="40" x="4" y="40"/><path d="m24 2-19.1 14.3s-.9.7-.9 1.7v3h40v-3c0-1-.9-1.7-.9-1.7z" fill="#90a4ae"/><rect fill="#ececec" height="26" rx="2" width="32" x="8" y="6"/><path d="m4 18 38 26h-36c-2 0-2-2-2-2z" fill="#b0bec5"/><path d="m42 44s2 0 2-2v-24l-38 26z" fill="#cfd8dc"/><path d="m16 13v2h16v-2zm0 4v2h16v-2zm0 4v2h8v-2z" fill="#b3b3b3" stroke-width="2"/><circle cx="36" cy="36" opacity=".2" r="12"/><circle cx="36" cy="35" fill="#ff9800" r="12"/><path d="m35 41.5-6.5-4.5 6.5-4.5v2.5h2c2.3 0 2.9-2 2.9-2 .4-1.3-1.4-4-1.4-4 4.3 1.8 4 4.8 4 4.8 0 5.2-5 5.2-5 5.2h-2.5z" fill="#fff"/></svg>