<svg height="48" width="48" xmlns="http://www.w3.org/2000/svg"><rect height="5" opacity=".2" rx="2" width="40" x="4" y="40"/><path d="m24 2-19.1 14.3s-.9.7-.9 1.7v3h40v-3c0-1-.9-1.7-.9-1.7z" fill="#90a4ae"/><rect fill="#f2f2f2" height="26" rx="2" width="32" x="8" y="6"/><path d="m4 18 38 26h-36c-2 0-2-2-2-2z" fill="#b0bec5"/><path d="m42 44s2 0 2-2v-24l-38 26z" fill="#cfd8dc"/><g fill="#b3b3b3"><circle cx="24" cy="15" r="3"/><path d="m21 24 3-10 3 10z"/></g><circle cx="36" cy="36" opacity=".2" r="12"/><circle cx="36" cy="35" fill="#4caf50" r="12"/><path d="m31 36 3 3 7-8" fill="none" stroke="#fff" stroke-linecap="square" stroke-width="2"/></svg>