<svg height="48" width="48" xmlns="http://www.w3.org/2000/svg"><path d="m4 35v1s0 3 3 3h5l4 4h12v-8z" opacity=".2"/><path d="m7 8s-3 0-3 3v24s0 3 3 3h5l4 4h28v-31c0-3-3-3-3-3z" fill="#e6e6e6"/><path d="m10 32h15v5h-6.5l-4-4h-4.5z" fill="#fff" opacity=".4"/><path d="m10 14h28v22h-19.5l-4-4h-4.5z" fill="#4d4d4d"/><path d="m7 8s-3 0-3 3v1s0-3 3-3h34s3 0 3 3v-1s0-3-3-3z" fill="#fff" opacity=".1"/><circle cx="36" cy="36" opacity=".2" r="12"/><circle cx="36" cy="35" fill="#f44336" r="12"/><path d="m30.3 40.7 11.4-11.4m-11.4 0 11.4 11.4" fill="none" stroke="#fff" stroke-width="2"/></svg>