<svg height="48" width="48" xmlns="http://www.w3.org/2000/svg"><circle cx="24" cy="25" opacity=".2" r="20"/><circle cx="24" cy="24" fill="#3f51b5" r="20"/><g fill="none" stroke="#fff" stroke-width="2"><circle cx="24" cy="24" r="13"/><path d="m24 11v26m-10-21s4 2 9.9 2c6.1 0 10.1-2 10.1-2m0 16s-4-2-10-2-10 2-10 2m-3-8h26"/><ellipse cx="24" cy="24" rx="7.2" ry="13"/></g><path d="m24 4c-11 0-20 9-20 20v .5c0-11 9-19.5 20-19.5s20 8.5 20 19.5v-.5c0-11-9-20-20-20z" fill="#fff" opacity=".2"/><path d="m24 44c-11 0-20-9-20-20v-.5c0 11 9 19.5 20 19.5s20-8.5 20-19.5v.5c0 11-9 20-20 20z" opacity=".1"/><circle cx="36" cy="36" opacity=".2" r="12"/><circle cx="36" cy="35" fill="#f44336" r="12"/><path d="m30.3 40.7 11.4-11.4m-11.4 0 11.4 11.4" fill="none" stroke="#fff" stroke-width="2"/></svg>