<svg viewBox="0 0 48 48"><circle cx="24" cy="25" opacity=".2" r="20"/><circle cx="24" cy="24" fill="#00acc1" r="20"/><g fill="#fff"><path d="m24 4c-11.1 0-20 9-20 20v .5c0-10.5 9.1-19.5 20-19.5s20 9 20 19.5v-.5c0-11-8.9-20-20-20z" opacity=".1"/><path d="m36 20-3 4h6zm-27 4 3 4 3-4z"/></g><path d="m32.5 15.5s-3.3-3.5-8.5-3.5c-6.7 0-12 5.3-12 12m3.5 8.5s3.3 3.5 8.5 3.5c6.7 0 12-5.3 12-12" fill="none" stroke="#fff" stroke-width="2"/><circle cx="36" cy="36" opacity=".2" r="12"/><circle cx="36" cy="35" fill="#f44336" r="12"/><path d="m28 34h16v2h-16z" fill="#fff"/></svg>