<svg height="48" width="48" xmlns="http://www.w3.org/2000/svg"><rect height="37" opacity=".2" rx="3" width="36" x="6" y="8"/><rect fill="#a1887f" height="37" rx="3" width="36" x="6" y="7"/><path d="m39 11h-30v5.5l3.2 2.4 3.2-2.4 4.7 1.6 3.9-2.4 3.9 2.4 7.1-2.4 4 .8z" opacity=".2"/><path d="m39 10h-30v5.5l3.2 2.4 3.2-2.4 4.7 1.6 3.9-2.4 3.9 2.4 7.1-2.4 4 .8z" fill="#fff"/><path d="m9 7s-3 0-3 3v1s0-3 3-3h30s3 0 3 3v-1s0-3-3-3z" fill="#fff" opacity=".2"/><path d="m24 2c-4 0-4 4-4 4v2h-2c-2 0-2 2-2 2v4h16v-4s0-2-2-2h-2v-2s0-4-4-4z" fill="#ccc"/><circle cx="24" cy="7" opacity=".2" r="2"/><circle cx="24" cy="6" fill="#fff" r="2"/><path d="m24 2c-4 0-4 4-4 4v1s0-4 4-4 4 4 4 4v-1s0-4-4-4zm-6 6c-2 0-2 2-2 2v1s0-2 2-2h2v-1zm10 0v1h2c2 0 2 2 2 2v-1s0-2-2-2z" fill="#fff" opacity=".2"/><path d="m16 12v2h16v-2z" fill="#b3b3b3"/></svg>