<svg viewBox="0 0 48 48"><path d="m8 12v1h1v30s0 2 2 2h27s2 0 2-2v-30h1v-1z" opacity=".2"/><path d="m40 42v-30h-31v30s0 2 2 2h27s2 0 2-2z" fill="#678"/><path d="m15 12v25.5s0 1.5 1.5 1.5c0 0 1.5 0 1.5-1.5v-25.5zm8 0v25.5s0 1.5 1.5 1.5c0 0 1.5 0 1.5-1.5v-25.5zm8 0v25.5s0 1.5 1.5 1.5c0 0 1.5 0 1.5-1.5v-25.5z" fill="#567"/><path d="m20 4s-1 0-1 1v1h-9s-2 0-2 2v4h33v-4s0-2-2-2h-9v-1s0-1-1-1z" fill="#789"/><path d="m10 6s-2 0-2 2v1s0-2 2-2h29s2 0 2 2v-1s0-2-2-2z" fill="#fff" opacity=".2"/><path d="m9 12h31v1h-31z" opacity=".05"/></svg>