<svg height="48" width="48" xmlns="http://www.w3.org/2000/svg"><path d="m24 4.5s-7.5-.5-11.5 7.5c0 0-8.5 1-8.5 10 0 0 0 10 10 10h21.5s8.5 0 8.5-9c0 0 0-7-7.5-8.5 0 0-2-10-12.5-10z" fill="#ccc"/><path d="m12.5 12s-8.5 1-8.5 10v .5c0-8.5 8.5-9.5 8.5-9.5 4-8 11.5-7.5 11.5-7.5 10.5 0 12.5 10 12.5 10 7.5 1.5 7.5 8 7.5 8v-.5s0-7-7.5-8.5c0 0-2-10-12.5-10 0 0-7.5-.5-11.5 7.5z" fill="#fff" opacity=".5"/><circle cx="24" cy="33" opacity=".2" r="12"/><circle cx="24" cy="32" fill="#f34235" r="12"/><path d="m23 25v10h2v-10zm0 12v2h2v-2z" fill="#fff"/></svg>