<svg height="48" width="48" xmlns="http://www.w3.org/2000/svg"><path d="m24 4.5s-8-.5-11.5 7.5c0 0-8.5 1-8.5 10 0 0 0 10 10 10h21s9 0 9-8.5c0 0 0-7.5-8-9 0 0-1-9.5-12-10z" fill="#e6e6e6"/><path d="m12.5 12s-8.5 1-8.5 10v .5c0-8.5 8.5-9.5 8.5-9.5 3.5-8 11.5-7.5 11.5-7.5 11 .5 12 10 12 10 8 1.5 8 9 8 9v-1s0-7.5-8-9c0 0-1-9.5-12-10 0 0-8-.5-11.5 7.5z" fill="#fff" opacity=".5"/><path d="m30.5 40.9 7-3.8m-3.5 5.9v-8m3.5 5.9-7-3.8m-10 3.8 7-3.8m-3.5 5.9v-8m3.5 5.9-7-3.8m-10 3.8 7-3.8m-3.5 5.9v-8m3.5 5.9-7-3.8" fill="none" stroke="#bbdefb" stroke-width="2"/></svg>