<svg viewBox="0 0 48 48"><path d="m10.5 33s-2.5 4-2.5 5.5c0 2.5 2.5 2.5 2.5 2.5s2.5 0 2.5-2.5c0-1.5-2.5-5.5-2.5-5.5zm14 0s-2.5 4-2.5 5.5c0 2.5 2.5 2.5 2.5 2.5s2.5 0 2.5-2.5c0-1.5-2.5-5.5-2.5-5.5zm14 0s-2.5 4-2.5 5.5c0 2.5 2.5 2.5 2.5 2.5s2.5 0 2.5-2.5c0-1.5-2.5-5.5-2.5-5.5zm-21 3s-2.5 4-2.5 5.5c0 2.5 2.5 2.5 2.5 2.5s2.5 0 2.5-2.5c0-1.5-2.5-5.5-2.5-5.5zm14 0s-2.5 4-2.5 5.5c0 2.5 2.5 2.5 2.5 2.5s2.5 0 2.5-2.5c0-1.5-2.5-5.5-2.5-5.5z" fill="#64b5f6"/><path d="m24 4.5s-8-.5-11.5 7.5c0 0-8.5 1-8.5 10 0 0 0 10 10 10h21s9 0 9-8.5c0 0 0-7.5-8-9 0 0-1-9.5-12-10z" fill="#e6e6e6"/><path d="m12.5 12s-8.5 1-8.5 10v .5c0-8.5 8.5-9.5 8.5-9.5 3.5-8 11.5-7.5 11.5-7.5 11 .5 12 10 12 10 8 1.5 8 8.5 8 8.5v-.5s0-7.5-8-9c0 0-1-9.5-12-10 0 0-8-.5-11.5 7.5z" fill="#fff" opacity=".5"/></svg>