<svg height="48" width="48" xmlns="http://www.w3.org/2000/svg"><g fill="#c4c4c4"><circle cx="12" cy="22" r="8"/><circle cx="22" cy="16" r="11"/><circle cx="31" cy="21" r="9"/></g><path d="m22 5c-9 0-10.8 9-10.8 9s-7.2.8-7.2 8.1v.4c0-7 7.2-7.5 7.2-7.5s1.8-9 10.8-9c8 0 10.3 7.1 10.3 7.1s7.3.8 7.7 8.4v-.5c-.4-8.1-7.7-8.9-7.7-8.9s-2.3-7.1-10.3-7.1z" fill="#fff" fill-opacity=".2"/><g fill="#e6e6e6"><circle cx="20" cy="34" r="8"/><circle cx="28" cy="30" r="10"/><circle cx="37" cy="35" r="7"/><path d="m20 39h17v3h-17z"/></g><path d="m28 20c-7 0-9.2 6.1-9.2 6.1s-6.4.7-6.8 7.9v.5c.4-6.7 6.8-7.4 6.8-7.4s2.2-6.1 9.2-6.1c8.2 0 9.8 8 9.8 8s5.9.7 6.2 6.5v-.5c-.3-6.3-6.2-7-6.2-7s-1.6-8-9.8-8z" fill="#fff" opacity=".5"/></svg>