<svg viewBox="0 0 48 48"><g fill="#f9ce1d"><circle cx="24" cy="24" r="18"/><path d="m24 0-1.5 3h3zm-17 7 1.1 3.2 2.1-2.1zm33.9 0-3.1 1.1 2.1 2.1zm-37.9 15.5-3 1.5 3 1.5zm42 0v3l3-1.5zm-36.9 15.3-1.1 3.2 3.2-1.1zm31.8 0-2.1 2.1 3.2 1.1zm-17.4 7.2 1.5 3 1.5-3z"/></g><path d="m24 0-1.5 3h .5l1-2 1 2h .5zm0 6c-9.9 0-18 8.1-18 18v .5c.3-9.7 8.2-17.5 18-17.5s17.7 7.8 18 17.5v-.5c0-9.9-8.1-18-18-18zm-17 1 .4 1.1 2.1.7.7-.7zm33.9 0-3.1 1.1.7.7 2.1-.7zm-37.9 15.5-3 1.5 1 .5 2-1zm42 0v1l2 1 1-.5zm-36.9 15.3-1.1 3.2.4-.1.7-2 1.3 1.3.8-.3zm31.8 0-2.1 2.1.7.3 1.3-1.3.8 2 .4.1zm-17.4 7.2.5 1h2l .5-1z" fill="#fff" opacity=".2"/></svg>