<svg viewBox="0 0 24 24"><linearGradient id="a"><stop offset="0" stop-color="#555"/><stop offset="1" stop-color="#555" stop-opacity="0"/></linearGradient><linearGradient id="b" gradientUnits="userSpaceOnUse" x1="25.5" x2="1.1" xlink:href="#a" y1="-2.7" y2="9.1"/><linearGradient id="c" gradientUnits="userSpaceOnUse" x1="6.8" x2="4.8" xlink:href="#a" y1="15" y2="3.5"/><path d="m5.1 16c-2.2-3.8-.9-8.7 2.9-10.9s8.7-.9 10.9 2.9l-1.7 1c-1.7-2.9-5.3-3.9-8.2-2.2s-3.9 5.3-2.2 8.2z" fill="url(#b)"/><path d="m5.1 16c2.2 3.8 7.1 5.1 10.9 2.9s5.1-7.1 2.9-10.9l-1.7 1c1.7 2.9.7 6.5-2.2 8.2s-6.5.7-8.2-2.2c0 0-.4-.8-1.4-.4-.8.7-.3 1.4-.3 1.4z" fill="url(#c)"/></svg>