<svg viewBox="0 0 24 24"><linearGradient id="a"><stop offset="0" stop-color="#555"/><stop offset="1" stop-color="#555" stop-opacity="0"/></linearGradient><linearGradient id="b" gradientUnits="userSpaceOnUse" x1="6" x2="4" xlink:href="#a" y1="-7" y2="20"/><linearGradient id="c" gradientUnits="userSpaceOnUse" x1="12" x2="1" xlink:href="#a" y1="18" y2="14"/><path d="m12 20c-4.4 0-8-3.6-8-8s3.6-8 8-8v2c-3.3 0-6 2.7-6 6s2.7 6 6 6z" fill="url(#b)"/><path d="m12 20c4.4 0 8-3.6 8-8s-3.6-8-8-8v2c3.3 0 6 2.7 6 6s-2.7 6-6 6c0 0-1 0-1 1s1 1 1 1z" fill="url(#c)"/></svg>