<svg viewBox="0 0 16 16"><circle cx="8" cy="8" fill="#e6e6e6" r="8"/><circle cx="8" cy="9" opacity=".2" r="5"/><circle cx="8" cy="8" fill="#880e4f" r="5"/><circle cx="8" cy="8" fill="#e91e63" r="4"/><g fill="#fff"><path d="m9.4 6.6c-.8-.8-2-.8-2.8 0l1.4 1.4z" opacity=".2"/><path d="m6.6 9.4c-.8-.8-.8-2 0-2.8l1.4 1.4zm2.8-2.8c.8.8.8 2 0 2.8l-1.4-1.4z" opacity=".4"/><path d="m6.6 9.4c.8.8 2 .8 2.8 0l-1.4-1.4z" opacity=".6"/><path d="m8 0c-4.4 0-8 3.6-8 8v .5c0-4.2 3.7-7.5 8-7.5s8 3.3 8 7.5v-.5c0-4.4-3.6-8-8-8z" opacity=".2"/></g><path d="m8 4c-2.2 0-4 1.8-4 4v .5c0-2 2-3.5 4-3.5s4 1.5 4 3.5c0-.2 0-.3 0-.5 0-2.2-1.8-4-4-4z" opacity=".2"/></svg>