<svg viewBox="0 0 16 16"><rect fill="#78909c" height="16" rx="1" width="14" x="1"/><path d="m2 0s-1 0-1 1v1s0-1 1-1h12s1 0 1 1v-1s0-1-1-1z" fill="#fff" opacity=".1"/><g fill="none" opacity=".2" stroke="#fff"><circle cx="8" cy="8.2" r="1.5" stroke-width=".8"/><path d="m9.8 6.4 1.6-1.6" stroke-width="2.2"/><path d="m6.9 12.5h2.2m-2.2-1.5h2.2m-4-4.2 1.6-1.6m-2.6.6 1.6-1.6" stroke-width=".7"/></g><g fill="none" stroke="#455a64"><circle cx="8" cy="7.2" r="1.5" stroke-width=".8"/><path d="m9.8 5.4 1.6-1.6" stroke-width="2.2"/><path d="m6.9 11.5h2.2m-2.2-1.5h2.2m-4-4.2 1.6-1.6m-2.6.6 1.6-1.6" stroke-width=".7"/></g></svg>