<svg viewBox="0 0 16 16"><circle cx="8" cy="8" fill="none" opacity=".5" r="2.6" stroke="#e0e2e3" stroke-width="1.7"/><circle cx="8" cy="8" fill="none" r="5.7" stroke="#e0e2e3" stroke-width="4.6"/><g fill="#fff"><path d="m .7 4.9 5.6 2.4 1-1-2.5-5.6c-1.6.6-3.5 2.3-4.1 4.2zm8.1 4.9 2.4 5.5c1.8-.8 3.4-2.3 4.2-4.2l-5.5-2.4z" opacity=".2"/><path d="m3.3 1.5c-1.7 1.2-2.8 3.2-3.1 5l5.9 1.1.7-1.2zm5.8 8.2 3.5 4.8c1.9-1.2 2.8-3.1 3.2-4.9l-5.8-1.2z" opacity=".2"/><path d="m8 0c-4.4 0-8 3.6-8 8v .5c0-4.2 3.6-7.5 8-7.5s8 3.3 8 7.5v-.5c0-4.4-3.6-8-8-8z" opacity=".1"/></g></svg>