<svg height="16" width="16" xmlns="http://www.w3.org/2000/svg"><path d="m2.6 5 8.4-2.4 2.4 8.4-8.4 2.4z" fill="#f4f1ef"/><path d="m0 5.8v8.2c0 .4.1.7.1.7l4.9-1.4-2.3-8.3z" fill="#48c39e"/><path d="m13.3 11-8.3 2.3.8 2.7h8.2c.4 0 .7-.1.7-.1z" fill="#d81768"/><path d="m15.9 1.3-4.9 1.4 2.3 8.3 2.7-.8v-8.2c0-.4-.1-.7-.1-.7z" fill="#ecb524"/><path d="m2 0c-.4 0-.7.1-.7.1l1.4 4.9 8.3-2.3-.8-2.7z" fill="#81d2e0"/><path d="m5 13.3-4.9 1.4s.5 1.3 1.9 1.3h3.8z" fill="#390f39"/><path d="m1.3.1s-1.3.5-1.3 1.9v3.8l2.7-.8z" fill="#20a48e"/><path d="m10.2 0 .8 2.7 4.9-1.4s-.5-1.3-1.9-1.3z" fill="#77971f"/><path d="m16 10.2-2.7.8 1.4 4.9s1.3-.5 1.3-1.9z" fill="#d5100d"/><path d="m10.2 9.2s0 1.8-2.2 1.8c-1.8 0-2.3-1.1-2.3-1.1l.9-.7s.4.7 1.4.7 1-.7 1-.7c0-1.1-3.2-.4-3.2-2.5 0 0 0-1.7 2.2-1.7 1.7 0 2.1 1 2.1 1l-.9.7s-.4-.7-1.2-.7c-1 0-1 .7-1 .7 0 .8 3.2.2 3.2 2.5z" fill="#5a3856"/></svg>