<svg viewBox="0 0 16 16"><rect fill="#fff" height="16" rx="1" width="16"/><path d="m11.1 10.2v.1s1.4-.1 1.4.1c.1.2-.3 1.2-.3 1.2l.1.1s.8-.7.7-1.7c-.8-.3-1.9.2-1.9.2zm-8.1 0s1.8 1.9 5 1.9c2.7 0 4.1-1.3 4.1-1.3l-.2-.2s-1.4.8-3.8.8c-2.8 0-4.9-1.3-4.9-1.3z" fill="#f90"/><path d="m8 3.7s-2.6 0-2.6 2l1.5.1s0-.9.9-.9c0 0 .8 0 .8.7v.6s-3.4-.1-3.4 2.3c0 0 0 1.8 1.7 1.8 0 0 1.5 0 1.9-.8 0 0 .3.6.8.9l1.2-1s-.5-.6-.5-1.3v-2.6s0-1.8-2.3-1.8zm.6 3.5v.3s.1 1.7-1 1.7c0 0-.7 0-.7-.8 0 0-.1-1.2 1.7-1.2z" fill="#373737"/></svg>