<svg viewBox="0 0 16 16"><rect fill="#b71c1c" height="16" rx="2" width="16"/><path d="m7.3 10.6-.4-1.2s-.7.8-1.8.8c-.9 0-1.6-.8-1.6-2.1 0-1.7.9-2.3 1.7-2.3 1.2 0 1.6.8 1.9 1.8l.4 1.4c.4 1.3 1.3 2.4 3.6 2.4 1.7-.1 2.9-.6 2.9-2 0-1.1-.6-1.7-1.8-1.9l-.9-.2c-.6-.1-.8-.4-.8-.8 0-.5.4-.7 1-.7.7 0 1 .2 1.1.8l1.3-.2c-.1-1.2-.9-1.7-2.3-1.7-1.2 0-2.4.5-2.4 2 0 .9.5 1.5 1.6 1.8l.9.2c.7.2.9.5.9.9 0 .5-.5.7-1.4.7-1.4 0-2-.7-2.3-1.7l-.5-1.5c-.6-1.8-1.5-2.4-3.3-2.4-2 0-3.1 1.2-3.1 3.4 0 2.1 1.1 3.2 3 3.2 1.6 0 2.3-.7 2.3-.7z" fill="#fff"/></svg>