<svg viewBox="0 0 48 48"><rect height="40" opacity=".2" rx="2" width="40" x="4" y="5"/><path d="m4 24v-18c0-2 2-2 2-2h18v20z" fill="#b3b3b3"/><path d="m24 4v20h20v-18s0-2-2-2z" fill="#4d4d4d"/><path d="m6 44c-2 0-2-2-2-2v-18h20v20z" fill="#808080"/><path d="m42 44s2 0 2-2v-18h-20v20z" fill="#666"/><path d="m6 4s-2 0-2 2v1s0-2 2-2h36s2 0 2 2v-1s0-2-2-2c0 0-24 0-36 0z" fill="#fff" opacity=".1"/><circle cx="34" cy="35" opacity=".2" r="12"/><circle cx="34" cy="34" fill="#00bfa5" r="12"/><g fill="none" stroke-width="2"><path d="m30 14h8m-24-4v8m-4-4h8m-7.7 16.3 7.4 7.4m0-7.4-7.4 7.4" stroke="#ebebeb"/><path d="m30 32h8m-8 4h8" stroke="#fff"/></g></svg>