<svg height="48" width="48" xmlns="http://www.w3.org/2000/svg"><path d="m8 42v1s0 2 2 2h28s2 0 2-2v-1z" opacity=".2"/><rect fill="#e6e6e6" height="40" rx="2" width="32" x="8" y="4"/><path d="m36 2v44h1s2 0 2-2v-40c0-2-2-2-2-2z" opacity=".1"/><path d="m10 4s-2 0-2 2v1s0-2 2-2h28s2 0 2 2v-1s0-2-2-2z" fill="#fff" opacity=".4"/><path d="m19 19v2.5l2.5-1.5 2.5 1.5v-2.5z" opacity=".2"/><path d="m20 3s-1 0-1 1v16.5l2.5-1.5 2.5 1.5v-16.5s0-1-1-1z" fill="#f44336"/><path d="m20 3s-1 0-1 1v1s0-1 1-1h3s1 0 1 1v-1s0-1-1-1z" fill="#fff" opacity=".1"/><path d="m24 4v40l12 2s2 0 2-2v-40c0-2-2-2-2-2z" fill="#f9f9f9"/><path d="m36 2-12 2v1l12-2s2 0 2 2v-1c0-2-2-2-2-2z" fill="#fff" opacity=".5"/></svg>