<svg height="48" width="48" xmlns="http://www.w3.org/2000/svg"><path d="m24 5c-11 0-20 9-20 20s9 20 20 20c2 0 3.3-1.3 3.3-3.3s-1.6-2.4-1.6-4.4 1.3-3.3 3.3-3.3h4c6 0 11-5 11-11 0-10-9-18-20-18z" opacity=".2"/><path d="m24 4c-11 0-20 9-20 20s9 20 20 20c2 0 3.3-1.3 3.3-3.3s-1.6-2.4-1.6-4.4 1.3-3.3 3.3-3.3h4c6 0 11-5 11-11 0-10-9-18-20-18z" fill="#ebebeb"/><circle cx="12.5" cy="23.5" fill="#f34235" r="3.5"/><circle cx="18.5" cy="13.5" fill="#fec006" r="3.5"/><circle cx="29.5" cy="12.5" fill="#4bae4f" r="3.5"/><circle cx="36.5" cy="21.5" fill="#2095f2" r="3.5"/><path d="m24 4c-11 0-20 9-20 20v .5c0-10.5 9-19.5 20-19.5s20 8 20 17.1v-.4c0-9.7-9-17.7-20-17.8zm1.7 32.7v.5c0 1.3 1.6 2.2 1.6 3.9v-.4c0-1.8-1.6-2.7-1.6-4z" fill="#fff" opacity=".2"/></svg>