<svg height="48" width="48" xmlns="http://www.w3.org/2000/svg"><circle cx="24" cy="25" opacity=".2" r="20"/><circle cx="24" cy="24" fill="#343434" r="20"/><circle cx="24" cy="25" opacity=".2" r="16"/><circle cx="24" cy="24" fill="#ebebeb" r="16"/><path d="m35.3 12.7-11.3 11.3v16c8.9 0 16-7.1 16-16 0-4.4-1.8-8.4-4.7-11.3z" fill="#c4c4c4"/><path d="m35 12.3-11.7 11 1.4 1.4 11-11.7z" fill="#636e73"/><path d="m24 24v16" fill="none" stroke="#f34235"/><path d="m16.4 15.6-.7.7 7.6 8.4 1.4-1.4z" fill="#3b4245"/><circle cx="24" cy="24" fill="#3b4245" r="1"/><path d="m24 4c-11 0-20 9-20 20v .5c0-10.5 9-19.5 20-19.5s20 9 20 19.5v-.5c0-11-9-20-20-20z" fill="#fff" opacity=".1"/></svg>