<svg height="48" width="48" xmlns="http://www.w3.org/2000/svg"><g opacity=".2"><rect height="28" rx="2" width="28" x="16" y="5"/><rect height="28" rx="2" width="28" x="4" y="17"/></g><rect fill="#d8d8d8" height="28" rx="2" width="28" x="16" y="4"/><path d="m38.1 23.4h-8.6c0 2.3 1.6 3.9 4.1 3.9 2.2 0 4.1-1.1 4.1-1.1v1.8s-1.7.8-4.2.8c-3.5 0-5.9-2.1-5.9-5.9 0-4 2.4-6 5.6-6 3.4 0 4.9 2.5 4.9 5.5m-1.9-.4c0-2.3-1.5-3.4-3.1-3.4-2.1 0-3.5 1.4-3.6 3.4zm-2.2-9h2v2h-2zm-4 0h2v2h-2z" fill="#9d9d9d"/><rect fill="#ebebeb" height="28" rx="2" width="28" x="4" y="16"/><path d="m23 34.3c-3 0-3.8.6-3.8 2.2 0 1.2.7 2 2.3 2 2.4 0 3.3-1.9 3.3-3.8v-.4zm3.5-.7v6.1h-1.8v-1.6s-.9 1.9-3.7 1.9c-2.4 0-3.6-1.5-3.6-3.4 0-3.1 2.6-3.6 4.8-3.6h2.5c0-2-1.3-2.8-3-2.8-2.2 0-3.5.9-3.5.9v-1.6s2.1-.8 3.7-.8c3.2 0 4.6 1.7 4.6 4.9m-5.9-9.6 2.7 3.6h-1.5l-3.1-3.6z" fill="#7e7e7e"/><path d="m18 4s-2 0-2 2v1s0-2 2-2h24s2 0 2 2v-1s0-2-2-2zm-12 12s-2 0-2 2v1s0-2 2-2h24s2 0 2 2v-1s0-2-2-2z" fill="#fff" opacity=".4"/></svg>