<svg viewBox="0 0 48 48"><rect height="40" opacity=".2" rx="2" width="40" x="4" y="5"/><rect fill="#d7ccc8" height="40" rx="2" width="40" x="4" y="4"/><path d="m6 4s-2 0-2 2v1s0-2 2-2h22v-1z" fill="#fff" opacity=".1"/><path d="m7.5 44 16.5-16.5 16.5 16.5z" fill="#2196f3"/><path d="m44 40.5-16.5-16.5 16.5-16.5z" fill="#4caf50"/><path d="m24 27.5 3.5-3.5 16.5 16.5v1.5c0 2-2 2-2 2h-1.5z" fill="#feea3a"/><path d="m4 40.5 36.5-36.5 3.5 3.5-36.5 36.5h-1.5c-2 0-2-2-2-2z" fill="#fff"/><path d="m24 13c0 11 12 21.6 12 21.6s12-10.6 12-21.6z" opacity=".2"/><g fill="#f44336"><circle cx="36" cy="12" r="12"/><path d="m24 12c0 11 12 21.6 12 21.6s12-10.6 12-21.6z"/></g><circle cx="36" cy="13" opacity=".2" r="5"/><circle cx="36" cy="12" fill="#fff" r="5"/></svg>