<svg height="48" width="48" xmlns="http://www.w3.org/2000/svg"><rect height="37" opacity=".2" rx="3" width="36" x="6" y="7"/><rect fill="#a1887f" height="37" rx="3" width="36" x="6" y="6"/><path d="m9 6s-3 0-3 3v1s0-3 3-3h30s3 0 3 3v-1s0-3-3-3z" fill="#fff" opacity=".2"/><path d="m9 40h30v1h-30z" opacity=".2"/><path d="m9 9h30v31h-30z" fill="#fff"/><path d="m24 1s-4 0-4 4v2h-2s-2 0-2 2v4h16v-4c0-2-2-2-2-2h-2v-2c0-4-4-4-4-4z" fill="#ccc"/><circle cx="24" cy="6" opacity=".2" r="2"/><circle cx="24" cy="5" fill="#fff" r="2"/><path d="m24 1s-4 0-4 4v1c0-4 4-4 4-4s4 0 4 4v-1c0-4-4-4-4-4zm-6 6s-2 0-2 2v1c0-2 2-2 2-2h2v-1zm10 0v1h2s2 0 2 2v-1c0-2-2-2-2-2z" fill="#fff" opacity=".2"/><path d="m16 11v2h16v-2z" fill="#b3b3b3"/></svg>