<svg height="48" width="48" xmlns="http://www.w3.org/2000/svg"><circle cx="24" cy="25" opacity=".2" r="18"/><circle cx="24" cy="24" fill="#e6e6e6" r="18"/><circle cx="24" cy="25" opacity=".5" r="11"/><circle cx="24" cy="24" fill="#e91e63" r="10" stroke="#880e4f" stroke-width="2"/><g fill="#fff"><path d="m19.8 19.8 4.2 4.2 4.2-4.2s-1.4-1.8-4.2-1.8-4.2 1.8-4.2 1.8z" opacity=".2"/><path d="m19.8 19.8s-1.8 1.4-1.8 4.2 1.8 4.2 1.8 4.2l4.2-4.2zm4.2 4.2 4.2 4.2s1.8-1.4 1.8-4.2-1.8-4.2-1.8-4.2z" opacity=".4"/><path d="m24 24-4.2 4.2s1.4 1.8 4.2 1.8 4.2-1.8 4.2-1.8z" opacity=".6"/></g><path d="m24 15c-5 0-9 4-9 9v .5c0-4.7 4.3-8.5 9-8.5s9 3.8 9 8.5v-.5c0-5-4-9-9-9z" opacity=".2"/><path d="m24 6c-10 0-18 8-18 18v .5c0-9.5 9-17.5 18-17.5s18 8 18 17.5v-.5c0-10-8-18-18-18z" fill="#fff" opacity=".1"/></svg>