<svg height="48" width="48" xmlns="http://www.w3.org/2000/svg" xmlns:xlink="http://www.w3.org/1999/xlink"><path d="m4 28v15s0 2 2 2h22l16-16v-1z" opacity=".2"/><path d="m6 4s-2 0-2 2v36s0 2 2 2h22l16-16v-22s0-2-2-2z" fill="#f9ce1d"/><g fill="none" stroke-linecap="square" stroke-width="2"><use height="100%" opacity=".2" stroke="#fff" width="100%" xlink:href="#a" y="1"/><g stroke="#cb9a05"><path id="a" d="m11 23h2.2c4.3.1 8.4 1.2 9.9 3.5 3.6 5.5-3.5 7.3-6.3 3.4-2.7-4.3-1.7-13.2 2.1-14.2 6.9-1.6 8.1 9.4 12.3 7.2 3.3-1.7-2.1-9.2 1.1-10.9 1.4-.8 4.3 2.1 4.3 2.1"/></g></g><path d="m44 28h-14s-2 0-2 2v14z" fill="#fff59d"/><g fill="#fff"><path d="m6 4s-2 0-2 2v1s0-2 2-2h36s2 0 2 2v-1s0-2-2-2z" opacity=".1"/><path d="m30 28s-2 0-2 2v1s0-2 2-2h13l1-1z" opacity=".2"/></g></svg>