<svg height="48" width="48" xmlns="http://www.w3.org/2000/svg"><path d="m8 4s-2 0-2 2v36s0 2 2 2h28s2 0 2-2v-26l-12-12z" fill="#c03630"/><path d="m26 4v11s0 2 2 2h10v-1z" opacity=".1"/><path d="m26 4v10s0 2 2 2h10z" fill="#f36961"/><g fill="#fff"><path d="m8 4s-2 0-2 2v1s0-2 2-2h18l11 11h1l-12-12z" opacity=".2"/><path d="m20.8 18.2c-.9 0-1 .6-1 .6-.4 1.4.1 3.6.8 6.4 0 0-2.1 4.4-2.1 4.4-4.2 8.2-5.8 7.7-5.8 7.7s-.1-1.3 3.5-4.2c-3.7 1.7-4.2 3.6-4.2 3.6s-.1.4.2.6l.5.2s1.6 1.5 5.2-4.9c0 0 3.6-1.3 7.5-1.8 0 0 4.1 2.1 5.9 1.6 0 0 .6-.1.6-1 0 0 0 1.5-5-.8 0 0 4.1-.7 5.1.7 0 0 .1-.6-.3-1 0 0-.9-.9-5.8-.3 0 0-2.9-1.2-4.4-5.5 0 0 .3-.9.4-3.8l-.7 2.9c-.6-1.9-.6-3.6-.6-3.6 0-1.7.3-1.8.3-1.8.4 0 .8 1 .8 1 .2.4.2 1.4.2 1.4.2-.9.2-1.4.2-1.4-.3-1.2-1-1.1-1-1.1zm.2 8c1.4 2.9 3.6 4.2 3.6 4.2-3.8.6-6.5 1.8-6.5 1.8 1.5-2.3 2.9-6.1 2.9-6z"/></g><circle cx="32" cy="35" opacity=".2" r="12"/><circle cx="32" cy="34" fill="#2095f2" r="12"/><path d="m32 29c-6.1 0-8 5-8 5s2 5 8 5 8-5 8-5-1.9-5-8-5zm0 2c3 0 3 3 3 3s0 3-3 3-3-3-3-3 0-3 3-3zm0 2c-1 0-1 1-1 1s0 1 1 1 1-1 1-1 0-1-1-1z" fill="#fff"/></svg>