<svg viewBox="0 0 48 48"><circle cx="24" cy="25" opacity=".2" r="22"/><circle cx="24" cy="24" fill="#3949ab" r="22"/><path d="m6.4 19.5c-1.4.4 2.7 6.9 4.4 7.7l19.1 18s0-4.3 1.5-4.2c0 0-2.1-7.3.6-7 0 0 .7-7.3 10.5-8.8 0 0 2.4-.9 1.4-3l-4.8-.8s3.2-4.8 4.8-6.6c-.6-1.4-1.3-2.6-2.2-3.8z" opacity=".2"/><path d="m24 2c12.1 0 22 9.9 22 22v .6c-.3-11.9-10.1-21.6-22-21.6s-21.7 9.7-22 21.6v-.6c0-12.1 9.9-22 22-22z" fill="#fff" opacity=".2"/><path d="m40.1 10.1c-5.8 1.9-8.4 3.5-16.7 2 .8 2.3-5.7 3.5-8.1 2.9-3 1.6-6.5 2.3-8.9 3.5-1.4.4 2.7 6.9 4.4 7.7 0 0-1.5 1.9-3.3 2 .8 1.4-3.1 1.3-4.4 2.6 2.9 8.9 11.2 15.2 20.9 15.2 0 0 3.2 0 5.9-.8 0 0 0-5.3 1.5-5.2 0 0-2.1-7.3.6-7 0 0 .7-7.3 10.5-8.8 0 0 2.4-1 1.4-3l-4.8-.8 4.7-6.4s1.7-2.7-.7-4z" fill="#2196f3"/><path d="m22.3 20s3-.4 4.2-1.1c3.8-2.2 3.6-3.5 3.6-3.5s-3.9-1.7-6.7 1.7c-1.2 1.4-1.1 2.9-1.1 2.9z" fill="#34495e"/><path d="m23.3 18.7c2.5-.3 5.5-1.8 5.7-3-1.5-1.2-5.6.2-5.7 3z" fill="#fff"/><path d="m43.4 9.1s-1.3 0-2.5.9c.3.9 2.3.3 3.2.8 0 0 .1-.7-.7-1.7zm-36 10.2s2.7 9.5 12.1 6c0 0-.7-5.8-6.6-2.5l-1-1s .9-1.6-1.1-3.3c0 0-1.7 0-3.4.8z" fill="#1565c0"/><path d="m43.1 10-3 .1c-5.8 1.9-8.4 3.5-16.7 2 .8 2.3-5.7 3.5-8.1 2.9-3 1.6-6.5 2.3-8.9 3.5 0 0-.5.1-.2 1.1 2.6-1.3 6.1-2 9.1-3.6 2.4.6 8.9-.6 8.1-2.9 8.3 1.5 10.9-.1 16.7-2l3-.1c1 .3 1.2 1.6 1.2 1.6s.5-1.6-1.2-2.6zm-3.3 10.5-.7.9 4.8.8.2.4s.2-.7-.2-1.4zm-29.6 6.3s-1.4 1.4-2.7 1.4c.8 1.4-3.1 1.3-4.4 2.6l.3.8c1.5-1.1 4.8-1.1 4.1-2.4 1.8-.1 3.3-2 3.3-2zm20.4 8.9c-.1 1.8.6 4.3.6 4.3h.2s-.7-2.5-.8-4.3z" fill="#fff" opacity=".2"/><path d="m41.9 20.6s.1-.6.3-.6c.3.1.6.9.6.9z" fill="#fcfcfc"/><path d="m43.7 14.1s-3.4 1-5.6 6.6c0 0 2 .9 4.3.7 0 0 1.1-.1.2-.6 0 0-1.6-.4-1.5-.9 0 0 .5-3.5 2.6-5.8z" fill="#0d47a1"/><path d="m40.4 21.4s.3.2 1.4.1c0 0-.2-1-.6-1.1 0 0-.7.2-.8 1z" fill="#fcfcfc"/></svg>