<svg height="48" width="48" xmlns="http://www.w3.org/2000/svg" xmlns:xlink="http://www.w3.org/1999/xlink"><circle cx="24" cy="25" opacity=".2" r="22"/><circle cx="24" cy="24" fill="#78c257" r="22"/><path d="m24 2a22 22 0 0 0 -22 22h44a22 22 0 0 0 -22-22z" opacity=".05"/><use opacity=".2" xlink:href="#a" y="1"/><g fill="#c6c6c6"><path id="a" d="m25.5 20 12 22 .3 4-3.8-2-12-22z"/></g><use opacity=".2" xlink:href="#b" y="1"/><g fill="#e6e6e6"><path id="b" d="m22.2 20-12 22-.2 4 3.8-2 1.6-3.1c2.7 1.4 5.6 2.1 8.6 2.1 10.5 0 19-8.5 19-19h-4c0 8.3-6.7 15-15 15-2.3 0-4.6-.6-6.7-1.6l8.5-15.4z"/></g><path d="m10.2 42-.2 4 .2-3 12-22v-1zm28.8-18c0 8.3-6.7 15-15 15-2.2 0-4.2-.5-6.2-1.4l-.5.8c2.1 1 4.4 1.6 6.7 1.6 8.3 0 15-6.7 15-15h4c0-.3 0-.7 0-1z" fill="#fff" opacity=".5"/><use opacity=".2" xlink:href="#c" y="1"/><g fill="#6a6a6a"><path id="c" d="m22 12v4h-2c-2 0-2 2-2 2v8l4 4c1.3 1.1 2.8 1.2 4 0l4-4v-8c0-2-2-2-2-2h-2v-4z"/></g><circle cx="24" cy="23" opacity=".2" r="2"/><circle cx="24" cy="22" fill="#fff" r="2"/><path d="m24 2c-12.1 0-22 9.9-22 22v .6c.3-11.9 10.1-21.6 22-21.6s21.7 9.7 22 21.6v-.6c0-12.1-9.9-22-22-22zm-2 10v1h4v-1zm-2 4c-2 0-2 2-2 2v1s0-2 2-2h2v-1zm6 0v1h2s2 0 2 2v-1c0-2-2-2-2-2z" fill="#fff" opacity=".2"/></svg>