<svg height="48" width="48" xmlns="http://www.w3.org/2000/svg" xmlns:xlink="http://www.w3.org/1999/xlink"><rect height="40" opacity=".2" rx="2" width="32" x="8" y="5"/><rect fill="#666" height="40" rx="2" width="32" x="8" y="4"/><path d="m10 4s-2 0-2 2v1s0-2 2-2h28s2 0 2 2v-1s0-2-2-2z" fill="#fff" opacity=".1"/><use opacity=".2" xlink:href="#a" y="1"/><g fill="#90caf9"><path id="a" d="m29.4 12.2c-.6.1-2.6-1.2-3.1-.7-.5.4 1 2.4.9 3.1s-2 2.2-1.7 2.8c.4.6 2.7-.2 3.3.1.6.2 1.5 2.5 2.1 2.4.7-.1.7-2.5 1.1-3 .5-.6 2.8-.6 3-1.3s-2.5-1.5-2.6-2.1c-.2-.6.3-2.9-.3-3.2-.6-.2-2.1 1.8-2.7 1.9zm-8.4 7.7c-1.3.2-1.4 4.7-2.3 5.6s-5.6.9-5.7 2.2c-.1 1.2 4 2.7 4.6 3.9.6 1.1-1 5.4.2 6 1.1.6 3.9-3 5.2-3.1 1.3-.2 4.9 2.5 5.8 1.6s-1.6-4.5-1.4-5.8 4-4 3.4-5.1-4.9.1-6-.5c-1.2-.4-2.5-5-3.8-4.8z"/></g></svg>