<svg height="48" width="48" xmlns="http://www.w3.org/2000/svg"><circle cx="24" cy="25" opacity=".2" r="22"/><circle cx="24" cy="24" fill="#4db9c0" r="22"/><path d="m24 2c-12.1 0-22 9.9-22 22v .6c.3-11.9 10.1-21.6 22-21.6s21.7 9.7 22 21.6v-.6c0-12.1-9.9-22-22-22z" fill="#fff" opacity=".2"/><g fill="none" stroke="#fff"><path d="m16.4 18.2c8.2 0 7 11.6 15.2 11.6 2.3 0 6-1.6 6-5.8s-3.7-5.8-6-5.8c-8.2 0-7 11.6-15.2 11.6-2.3 0-6.1-1.6-6.1-5.8s3.8-5.8 6.1-5.8z" stroke-width="2.6"/><path d="m14 23.8h5" stroke-width="1.1"/><path d="m29.2 23.8h4.2m-2.1-2.1v4.2" stroke-width="1.4"/></g></svg>