<svg height="48" width="48" xmlns="http://www.w3.org/2000/svg"><circle cx="24" cy="25" opacity=".2" r="20"/><circle cx="24" cy="24" fill="#81c784" r="20"/><g fill="#fff"><path d="m24 4c-11.1 0-20 8.9-20 20v .5c.3-10.8 9.1-19.5 20-19.5s19.7 8.7 20 19.5v-.5c0-11.1-8.9-20-20-20z" opacity=".1"/><circle cx="24" cy="24" r="2"/></g><path d="m14.8 27.3s-4.4-1.2-4.3-3.3c.8-6 26.2-6 27 0 .1 2.1-4.3 3.3-4.3 3.3m-10.5 5.9s-3.4 3.6-5.5 2.5c-4.7-3.6 8-25.7 13.5-23.4 2 1.1.6 5.9.6 5.9m-3.4 3.6s6.2 10.7 2.9 13.9c-5.7 2.3-18.3-19.9-13.6-23.4 2-1.1 5.3 2.3 5.3 2.3" fill="none" stroke="#fff" stroke-linecap="round"/><path d="m24 44c-11.1 0-20-8.9-20-20v-.5c.3 10.8 9.1 19.5 20 19.5s19.7-8.7 20-19.5v.5c0 11.1-8.9 20-20 20z" opacity=".1"/></svg>