<svg height="48" width="48" xmlns="http://www.w3.org/2000/svg"><circle cx="24" cy="25" opacity=".2" r="22"/><circle cx="24" cy="24" fill="#232323" r="22"/><g fill="#fff"><path d="m24 2c-12.1 0-22 9.9-22 22v .6c.3-11.9 10.1-21.6 22-21.6s21.7 9.7 22 21.6v-.6c0-12.1-9.9-22-22-22z" opacity=".2"/><path d="m25 14c5 .2 8 3.4 8.3 7.9.4 5.2-1.3 6.6-.6 7.6 1.5 2.2-.6 2.7-1.9 3.8-.9.7-2.6.4-3.4-.6-2.6-1.2-1.5 1.3-6.6 1.3-2.7-.1-5.1-1.9-5.8-4.3-1.1-3.7.5-6.5 4.8-7.8 1.2-.4 3.7-.1 4.8-.9 1-.7.7-1.8-.8-1.9-1.8-.1-4.5.6-6.1.3-1.4-.3-1.8-2.6-.9-3.7 1.6-2 8.2-1.7 8.2-1.7zm-.6 11.1c-2 0-2.2 1.8-2.2 1.8s.1 1.9 2.2 1.9c1.9 0 2-1.9 2-1.9s-.2-1.8-2-1.8z"/></g></svg>