<svg height="48" width="48" xmlns="http://www.w3.org/2000/svg" xmlns:xlink="http://www.w3.org/1999/xlink"><g opacity=".2"><use xlink:href="#b" y="1"/><use stroke="#000" xlink:href="#a" y="1"/></g><g fill="none"><path d="m16 30.5h1.5l4 12 6-20 3 8h1.5" stroke="#fec006"/><path d="m16 34.6h1.5l4-12 6 20 3-8h1.5" stroke="#feea3a"/></g><g stroke="#3e50b4"><path id="a" d="m10 27v-5s0-14 14-14 14 14 14 14v5" fill="none" stroke-width="4"/></g><g fill="#3e50b4"><path id="b" d="m14 24s-9 0-9 9 9 9 9 9h2s1 0 1-1v-16s0-1-1-1zm17 1v16s0 1 1 1h2s9 0 9-9-9-9-9-9h-2s-1 0-1 1z"/></g><path d="m24 6c-16 0-16 16-16 16v1s .4-16 16-16 16 16 16 16v-1s0-16-16-16zm-10 19h2s1 0 1 1v-1s0-1-1-1h-2s-9 0-9 9v .6c.3-8.6 9-8.6 9-8.6zm29 8.6v-.6c0-9-9-9-9-9h-2s-1 0-1 1v1s0-1 1-1h2s8.6 0 9 8.6z" fill="#fff" opacity=".2"/></svg>