<svg height="48" width="48" xmlns="http://www.w3.org/2000/svg"><circle cx="24" cy="25" opacity=".2" r="22"/><circle cx="24" cy="24" fill="#e91e63" r="22"/><path d="m24 2c-12.2 0-22 9.9-22 22v .6c.3-11.9 10-21.6 22-21.6s21.7 9.7 22 21.6v-.6c0-12.1-9.8-22-22-22z" fill="#fff" opacity=".2"/><path d="m29.6 14.9 4.9 4.9c2.6 2.9 2.1 7.2-.2 9.5s-6.3 3.1-9.7.2l-4.8-4.8m-1.4 8.4-4.9-4.9c-2.6-2.9-2.1-7.2.2-9.5s6.3-3.1 9.7-.2l4.8 4.8" fill="none" stroke="#fff" stroke-linecap="round" stroke-width="3.4"/></svg>