<svg viewBox="0 0 48 48"><linearGradient id="a" gradientUnits="userSpaceOnUse" x1="24" x2="24" y1="28" y2="8"><stop offset="0" stop-color="#3b9de8"/><stop offset="1" stop-color="#52c1ea"/></linearGradient><use opacity=".2" xlink:href="#b" y="1"/><g fill="url(#a)"><path id="b" d="m24 3-2 2-2-1-1.7 2.5c-12 3-15.3 12.1-15.3 29.5 0 6 11 8 21 8s21-2 21-8c0-17.4-3.3-26.5-15.3-29.5l-1.7-2.5-2 1z"/></g><path d="m19.3 35.3s1.4 2.7 4.7 2.7 4.7-2.7 4.7-2.7z" fill="#95551c"/><g opacity=".2"><use xlink:href="#c" y="1"/><use xlink:href="#d" y="1"/></g><g fill="#fbba1e"><path id="c" d="m24 28v8.2l-5.3-.9c-1.1 0-1.2-1.7-.7-2.3l5.3-4.7c.5-.4.7-.3.7-.3z"/></g><g fill="#ea8616"><path id="d" d="m24 28v8.2l5.3-.9c1.1 0 1.2-1.7.7-2.3l-5.3-4.7c-.5-.4-.7-.3-.7-.3z"/></g><path d="m14.6 21c-4 .4-4.1 4.4-4.1 4.4s0 3.4 3.4 3.7c3.9-.4 4.1-4.4 4.1-4.4s0-3.4-3.4-3.7zm19 .1c-3.3.2-3.4 3.6-3.4 3.6s.2 4.1 4.1 4.4c3.4-.2 3.4-3.6 3.4-3.6s-.1-4.1-4.1-4.4z" opacity=".7"/><path d="m33.5 22.1c-1.6.1-1.8 1.6-1.8 1.6s-.1.7.8.7c1.6-.1 1.8-1.6 1.8-1.6s.1-.7-.8-.7zm-19.2.2c-1.6.1-1.8 1.6-1.8 1.6s-.1.7.8.7c1.6-.1 1.8-1.6 1.8-1.6s.1-.7-.8-.7z" fill="#fff" opacity=".8"/><path d="m24 24v20c10 0 21-2 21-8s0-16.6-4.8-22.8c-.2-1.2-16.2-1.2-16.2 10.8z" opacity=".05"/><g fill="#fff"><path d="m24 3-2 2-2-1-1.7 2.5c-12 3-15.3 12.1-15.3 29.5 0-16.4 3.3-25.5 15.3-28.5l1.7-2.5 2 1 2-2 2 2 2-1 1.7 2.5c12 3 15.3 12.1 15.3 28.5 0-17.4-3.3-26.5-15.3-29.5l-1.7-2.5-2 1z" opacity=".2"/><path d="m3 35.1v.9c0 6 11 8 21 8s21-2 21-8c0-.3 0-.6 0-.9-.1 5.9-11 7.9-21 7.9s-20.9-2-21-7.9z" opacity=".1"/></g></svg>