<svg height="48" width="48" xmlns="http://www.w3.org/2000/svg"><circle cx="24" cy="25" opacity=".2" r="22"/><circle cx="24" cy="24" fill="#ff9800" r="22"/><g fill="#fff"><path d="m24 2c-12.1 0-22 9.9-22 22v .6c.3-11.9 10.1-21.6 22-21.6s21.7 9.7 22 21.6v-.6c0-12.1-9.9-22-22-22z" opacity=".2"/><path d="m35.2 20.9c1-4.6-5.5-6.4-5.5-6.4l1.1-4.6-2.8-.7-1.1 4.5-2.2-.5 1.1-4.5-2.7-.7-1.2 4.6-5.6-1.4-.7 2.9 2 .5s1.4.3 1.3 1.6l-3.1 12.5s-.3.9-1.3.7l-2-.5-1.4 3.1 5.6 1.5-1.1 4.6 2.7.7 1.2-4.6 2.2.6-1.2 4.5 2.8.7 1.2-4.6s8 2.3 9.7-3.7c2-4.9-2.5-6.8-2.5-6.8s3-.2 3.5-4zm-6.3 8.8c-.7 3.8-8.5 1.2-8.5 1.2l1.5-6.1s8 1 7 4.9zm.9-8.9c-.8 3.4-7.2 1.2-7.2 1.2l1.4-5.6s6.6.8 5.8 4.4z"/></g></svg>