<svg height="48" width="48" xmlns="http://www.w3.org/2000/svg" xmlns:xlink="http://www.w3.org/1999/xlink"><g opacity=".2"><circle cx="30" cy="31" r="14"/><use stroke="#000" xlink:href="#a" y="1"/></g><g stroke="#f5792a"><path id="a" d="m22.9 6.6 15.1 15.1m-31.3 15.3 18.5-18.5m-16.7 0h26.3" fill="none" stroke-linecap="round" stroke-width="5"/></g><circle cx="30" cy="30" fill="#f5792a" r="14"/><circle cx="30" cy="30" fill="#0d528a" r="7" stroke="#fff" stroke-width="4"/><path d="m23 4.1s-3 0-2.5 3.1c.5-2.2 2.5-2.1 2.5-2.1.9 0 1.7.8 1.7.8l15.2 15.2s4.1 3.9 4.1 9.5v-.6c0-6.3-4.1-9.9-4.1-9.9l-15.2-15.2s-.7-.8-1.7-.8zm-14.5 11.9s-2.5 0-2.5 2.5v.5c0-2 2.5-2 2.5-2h20.2l-1-1zm10.7 5-14.3 14.3s-.9.7-.7 2.3c0-.7.7-1.3.7-1.3l15.3-15.3z" fill="#fff" opacity=".1"/><path d="m20.5 6.2c-.4 1.2.7 2.2.7 2.2l6.6 6.6h1l-7.6-7.6s-.6-.5-.7-1.2zm-14.5 11.8v.5c0 2.5 2.5 2.5 2.5 2.5h11.6l1-1h-12.6s-1.8.2-2.5-2zm38 11.6c-.3 7.4-6.5 13.4-14 13.4-7.3 0-13.4-5.6-13.9-12.8l-7.7 7.7c-2 1.6-3.5-.1-3.5-.1s-.5-.4-.7-1.2c-.2 1.4.8 2.2.8 2.2s1.6 1.6 3.4 0l7.7-7.6c.5 7.2 6.6 12.8 13.9 12.8 7.7 0 14-6.2 14-14z" opacity=".2"/></svg>