<svg height="48" width="48" xmlns="http://www.w3.org/2000/svg" xmlns:xlink="http://www.w3.org/1999/xlink"><use opacity=".2" xlink:href="#a" y="1"/><g fill="#ff5722"><path id="a" d="m17.2 3-3.3 4.1-2.3-.4-2.6 2.7.2 1.8-2.8 4.9v1.1l4.5 17.3c.4 2.3 2.6 3.7 2.6 3.7l9.4 6.4c.8.5 1.4.5 2.2 0l9.4-6.4s2.2-1.5 2.6-3.7l4.5-17.3v-1.1l-2.8-4.9.2-1.8-2.6-2.7-2.3.4-3.3-4.1z"/></g><path d="m24 9.3-4.6 1.3-4.5-.8s-5 6-4.7 7.2c-.3.9 5.5 5.4 5.5 6 0 .7-.9 2-.9 2.9.5 2.7 2.6 3.2 2.6 3.2 4.2-1.1 6.1-4.1 6.1-4.1 0-.8-3.7-3.1-3.7-4 0-.8 1.7-3.3 1.1-4.2-.2-.5-.5-.6-.5-.6l-5.6-2.3c1.7-.4 3.8-.3 3.8-.3 3.4 1.1 3.4 1.4 3.4 1.4.3.4-1 4.4-1 5.7 2 .9 4 .9 6 0 0-1.3-1.3-5.3-1-5.7 0 0 0-.3 3.4-1.4 0 0 2.1-.1 3.8.3l-5.6 2.3s-.3.1-.5.6c-.6.9 1.1 3.4 1.1 4.2 0 .9-3.7 3.2-3.7 4 0 0 1.9 3 6.1 4.1 0 0 2.1-.5 2.6-3.2 0-.9-.9-2.2-.9-2.9 0-.6 5.8-5.1 5.5-6 .3-1.2-4.7-7.2-4.7-7.2l-4.5.8zm0 18.3s-1.4.1-5.6 2.6c-.3.2 0 .4.5.8 2.5 1.6 4.5 4 5.1 3.8.6.2 2.6-2.2 5.1-3.8.5-.4.8-.6.5-.8-4.2-2.5-5.6-2.6-5.6-2.6z" fill="#fff"/><path d="m30.8 3 3.3 4.1 2.3-.4 2.6 2.7-.2 1.8 2.8 4.9v1.1l-4.5 17.3c-.4 2.2-2.6 3.7-2.6 3.7l-9.4 6.4c-.4.3-1.1.4-1.1.4v-42z" opacity=".1"/><path d="m17.2 3-3.3 4.1-2.3-.4-2.6 2.7.1.9 2.5-2.6 2.3.4 3.3-4.1h13.6l3.3 4.1 2.3-.4 2.5 2.6.1-.9-2.6-2.7-2.3.4-3.3-4.1zm-8.1 8.4-2.7 4.7v1l2.8-4.9zm29.8 0-.1.8 2.8 4.9v-1z" fill="#fff" opacity=".2"/></svg>