<svg height="48" width="48" xmlns="http://www.w3.org/2000/svg"><g fill="none" stroke="#cbbb2e"><path d="m12 41v-17" stroke-width="12"/><path d="m26 10-14 14" stroke-width="8"/><path d="m26 10 10 10" stroke-width="6"/></g><rect fill="#d6c84a" height="4" rx="2" width="16" x="4" y="38"/><path d="m20 40c2 0 2 2 2 2v2h-20v-2c0-2 2-2 2-2z" fill="#3f3f3f"/><g opacity=".2"><circle cx="12" cy="25" r="8"/><circle cx="26" cy="11" r="6"/></g><g fill="#d6c84a"><circle cx="12" cy="24" r="8"/><circle cx="26" cy="10" r="6"/></g><g fill="#3f3f3f"><circle cx="12" cy="24" r="6"/><circle cx="26" cy="10" r="4"/></g><g fill="#fff" opacity=".1"><circle cx="12" cy="24" r="4"/><circle cx="26" cy="10" r="2"/><path d="m26 4c-3.3 0-6 2.7-6 6v .5c.3-3.1 2.9-5.5 6-5.5s5.7 2.4 6 5.5v-.5c0-3.3-2.7-6-6-6zm-14 12c-4.4 0-8 3.6-8 8v .5c.3-4.2 3.8-7.5 8-7.5s7.7 3.3 8 7.5v-.5c0-4.4-3.6-8-8-8zm-6 22s-1.9 0-2 2c0 0-2 0-2 2v1c0-2 2-2 2-2h16c2 0 2 2 2 2v-1s0-2-2-2c0 0-.1-2-2-2zm0 1h12s1.4 0 1.9 1h-15.8s.5-1 1.9-1z"/></g><path d="m38 28-4-2v-4l4-4h4l2 4" fill="none" stroke="#3f3f3f" stroke-linecap="round" stroke-linejoin="round" stroke-width="2"/></svg>