<svg viewBox="0 0 48 48"><rect height="36" opacity=".2" rx="2" width="40" x="4" y="7"/><rect fill="#ffcca3" height="36" rx="2" width="40" x="4" y="6"/><rect fill="#fff" height="36" opacity=".2" rx="2" width="22" x="4" y="6"/><path d="m6 6s-2 0-2 2v1s0-2 2-2h36s2 0 2 2v-1s0-2-2-2z" fill="#fff" opacity=".2"/><path d="m9.1 9.5v.5s-1.3.2-1.3 1.3 1.3 1.4 1.3 1.4v1.6c-.6-.2-.9-.8-.9-.8l-.5.8s.5.7 1.4.7v.5h.8v-.5s1.4-.2 1.4-1.5c0-1.1-1.4-1.4-1.4-1.4v-1.3c.4.1.7.6.7.6l.6-.6s-.5-.7-1.3-.8v-.5zm0 1.3v1s-.4-.1-.4-.5.4-.5.4-.5zm.8 2.2s.5.1.5.6-.5.6-.5.6zm3.1 2v1h4v-1z" fill="#662d00" opacity=".5"/><path d="m24 6v36l15 3s1.8.2 2-2v-36c-.2-2.2-2-2-2-2z" opacity=".1"/><path d="m24 6v36l14 2s1.8.2 2-2v-36c-.2-2.2-2-2-2-2z" fill="#ffe1c9"/><path d="m38 4-14 2v1l14-2s1.8-.2 2 2v-1c-.2-2.2-2-2-2-2z" fill="#fff" opacity=".2"/></svg>