<svg height="48" width="48" xmlns="http://www.w3.org/2000/svg" xmlns:xlink="http://www.w3.org/1999/xlink"><g opacity=".2"><use xlink:href="#a" y="1"/><use xlink:href="#b" y="1"/></g><g fill="#fef8e2"><path id="a" d="m5 32c0 9 6 15 15 15h6c9 0 14.3-4.7 14.9-12h1.6c4.5 0 4.5-4.5 4.5-4.5v-3c0-4.5-4.5-4.5-4.5-4.5h-37.5zm37.5-6c1.5 0 1.5 1.5 1.5 1.5v3c0 1.5-1.5 1.5-1.5 1.5h-1.5v-6z"/></g><g fill="#bcaaa4"><g id="b"><path id="c" d="m14.6 2c-3.3 4.1-4.3 6.1-3.1 8.8 1.1 2.4 3.8 3.7 2.4 9.2 2.3-2.7 4.2-6.1 2.4-8.9s-2.9-4.5-1.7-9.1z"/><use x="9" xlink:href="#c"/><use x="18" xlink:href="#c"/></g></g><g fill="#fff" opacity=".4"><path id="d" d="m14.6 2s-4.2 4.6-3.6 7.3c.2-1.8 3.3-5.9 3.3-5.9zm-.5 3.8c-.3 4.3 2.7 5.7 2.9 8.3.5-3-2.9-4.6-2.9-8.3zm.2 11.9s-.1 1.7-.4 2.3l.3-.3c.2-1 .1-2 .1-2z"/><use x="9" xlink:href="#d"/><use x="18" xlink:href="#d"/><path d="m5 23v1h37.5s4.5 0 4.5 4.5v-1c0-4.5-4.5-4.5-4.5-4.5zm39 7.5c0 1.5-1.5 1.5-1.5 1.5h-1.5v1h1.5s1.5 0 1.5-1.5z"/></g></svg>