<svg viewBox="0 0 48 48"><rect height="42" opacity=".2" rx="3" width="42" x="3" y="4"/><rect fill="#e6e6e6" height="42" rx="3" width="42" x="3" y="3"/><path d="m31 3v14h14v-11s0-3-3-3z" fill="#d1c4e9"/><path d="m31 17v14h14v-14z" fill="#9575cd"/><path d="m31 31-14 14h25s3 0 3-3v-11z" fill="#673ab7"/><path d="m17 45v-11c0-3 3-3 3-3h11z" fill="#b3b3b3"/><path d="m6 3s-3 0-3 3v1s0-3 3-3h36s3 0 3 3v-1s0-3-3-3z" fill="#fff" opacity=".2"/><path d="m8 7-1 2h2v8h2v-10z" fill="#673ab7"/><path d="m15 8c1.1 0 2 .9 2 2s-.9 2-2 2-2 .9-2 2 .9 2 2 2 2-.9 2-2-.9-2-2-2-2-.9-2-2 .9-2 2-2z" fill="none" stroke="#673ab7" stroke-width="2"/></svg>