<svg height="48" width="48" xmlns="http://www.w3.org/2000/svg"><rect height="42" opacity=".2" rx="3" width="42" x="3" y="4"/><rect fill="#e6e6e6" height="42" rx="3" width="42" x="3" y="3"/><path d="m31 3v14h14v-11s0-3-3-3z" fill="#2196f3"/><path d="m31 17v14h14v-14z" fill="#03a9f4"/><path d="m31 31-14 14h25s3 0 3-3v-11z" fill="#3f51b5"/><path d="m17 45v-11c0-3 3-3 3-3h11z" fill="#b3b3b3"/><path d="m6 3s-3 0-3 3v1s0-3 3-3h36s3 0 3 3v-1s0-3-3-3z" fill="#fff" opacity=".2"/><path d="m12 7v10m-4-10v5h6" fill="none" stroke="#3f51b5" stroke-width="2"/></svg>