<svg height="48" width="48" xmlns="http://www.w3.org/2000/svg"><rect height="42" opacity=".2" rx="3" width="42" x="3" y="4"/><rect fill="#e6e6e6" height="42" rx="3" width="42" x="3" y="3"/><path d="m31 3v14h14v-11s0-3-3-3z" fill="#e57373"/><path d="m31 17v14h14v-14z" fill="#e53935"/><path d="m31 31-14 14h25s3 0 3-3v-11z" fill="#c62828"/><path d="m17 45v-11c0-3 3-3 3-3h11z" fill="#b3b3b3"/><path d="m6 3s-3 0-3 3v1s0-3 3-3h36s3 0 3 3v-1s0-3-3-3z" fill="#fff" opacity=".2"/><path d="m15 10.5c0-2.5 2.5-2.5 2.5-2.5s2.5 0 2.5 2.5v3c0 2.5-2.5 2.5-2.5 2.5s-2.5 0-2.5-2.5zm-8 5.5h3s2 0 2-2-2-2-2-2m-3-4h3s2 0 2 2-2 2-2 2h-3" fill="none" stroke="#c62828" stroke-width="2"/></svg>