<svg viewBox="0 0 48 48"><rect height="40" opacity=".2" rx="3" width="40" x="4" y="5"/><rect fill="#160d28" height="40" rx="3" width="40" x="4" y="4"/><path d="m7 4s-3 0-3 3v34s0 3 3 3h14s7-7.7 7-20-7-20-7-20z" fill="#d50000"/><path d="m33 10-2 .8-2-.8 2-.8zm-2 2-.8-2 .8-2 .8 2zm10 2-2-.8-2 .8 2 .8zm-2-2-.8 2 .8 2 .8-2zm-11 27 3 1.2 3-1.2-3-1.2zm3 3 1.2-3-1.2-3-1.2 3zm10-8-2-.8-2 .8 2 .8zm-2-2-.8 2 .8 2 .8-2zm-7-10 4-1.6 4 1.6-4 1.6zm4-4 1.6 4-1.6 4-1.6-4z" fill="#c5cae9"/><circle cx="24" cy="29" opacity=".2" r="8"/><circle cx="24" cy="28" fill="#efebe9" r="8"/><path d="m7 4s-3 0-3 3v1s0-3 3-3h34s3 0 3 3v-1s0-3-3-3z" fill="#fff" opacity=".2"/></svg>