<svg height="48" width="48" xmlns="http://www.w3.org/2000/svg"><rect height="40" opacity=".2" rx="2" width="32" x="8" y="5"/><rect fill="#9c27b0" height="40" rx="2" width="32" x="8" y="4"/><path d="m10 4s-2 0-2 2v1s0-2 2-2h28s2 0 2 2v-1s0-2-2-2z" fill="#fff" opacity=".1"/><path d="m10 44c-2 0-2-2-2-2v-1c0 2 2 2 2 2h20v1z" opacity=".2"/><path d="m11 7h26v34h-26z" fill="#ebebeb"/><circle cx="24" cy="24" opacity=".2" r="9"/><g fill="#ebebeb"><circle cx="20.1" cy="21.4" r="1.3"/><circle cx="27.8" cy="21.4" r="1.3"/></g><path d="m19.9 26.8s1.5 1.7 4.1 1.7 4.1-1.7 4.1-1.7" fill="none" stroke="#ebebeb" stroke-width="1.3"/><circle cx="36" cy="35" opacity=".2" r="12"/><circle cx="36" cy="34" fill="#e6e6e6" r="12"/><circle cx="36" cy="35" opacity=".2" r="7"/><circle cx="36" cy="34" fill="#333" r="7"/><circle cx="36" cy="34" fill="#e91e63" r="5"/><g fill="#fff"><path d="m38.1 31.9c-1.2-1.2-3-1.2-4.2 0l2.1 2.1z" opacity=".2"/><path d="m33.9 31.9c-1.2 1.2-1.2 3 0 4.2l2.1-2.1zm2.1 2.1 2.1 2.1c1.2-1.2 1.2-3 0-4.2z" opacity=".4"/><path d="m33.9 36.1c1.2 1.2 3 1.2 4.2 0l-2.1-2.1z" opacity=".6"/></g><path d="m36 29c-2.7 0-5 2.2-5 5v .5c.3-2.6 2.5-4.5 5-4.5s4.7 1.9 5 4.5v-.5c0-2.8-2.3-5-5-5z" opacity=".2"/><path d="m36 22c-6.7 0-12 5.4-12 12v .5c.3-6.4 5.5-11.5 12-11.5s11.7 5.1 12 11.5v-.5c0-6.6-5.3-12-12-12z" fill="#fff" opacity=".1"/></svg>