<svg viewBox="0 0 48 48"><linearGradient id="a" gradientUnits="userSpaceOnUse" x1="32" x2="24" xlink:href="#b" y1="30" y2="34"/><linearGradient id="b"><stop offset="0"/><stop offset="1" stop-opacity="0"/></linearGradient><linearGradient id="c" gradientUnits="userSpaceOnUse" x1="27" x2="41" xlink:href="#b" y1="15" y2="20"/><linearGradient id="d" gradientUnits="userSpaceOnUse" x1="12" x2="18" xlink:href="#b" y1="26" y2="19"/><circle cx="24" cy="24" fill="#608ab5" r="20"/><path d="m6.7 34.1c3.5 6 9.7 9.5 16.2 9.9l9.1-5v-10.4h-15.8l-8.9-15.6c-4.1 6.2-4.5 14.3-.6 21.1z" fill="#85b4df"/><path d="m41.4 33.9c3.4-6.1 3.4-13.1.5-18.9h-17.6l7.5 13.5-8.9 15.5c9 .3 15.3-4.5 18.5-10.1z" fill="#cddff0"/><path d="m16.2 28.5 7.8-4.5-16.7-11z" fill="url(#d)" opacity=".2"/><path d="m24 15v9l17.9-9z" fill="url(#c)" opacity=".1"/><path d="m31.8 28.5-7.8-4.5-1.2 20z" fill="url(#a)" opacity=".2"/><path d="m24 4c-10.8 0-19.7 8.7-20 19.5.5-10.6 9.4-19 20-19s19.5 8.4 20 19c-.3-10.8-9.2-19.5-20-19.5z" fill="#fff" opacity=".1"/><circle cx="24" cy="24" fill="#fff" r="9"/><circle cx="24" cy="24" fill="#779fd3" r="7.5"/><path d="m4 23.5v.5c0 11.1 8.9 20 20 20s20-8.9 20-20v-.5c-.3 10.8-9.1 19.5-20 19.5s-19.7-8.7-20-19.5z" opacity=".2"/></svg>