<svg height="48" width="48" xmlns="http://www.w3.org/2000/svg"><circle cx="24" cy="25" opacity=".2" r="22"/><circle cx="24" cy="24" fill="#fd9146" r="22"/><g fill="#fff"><path d="m24 2c-12.1 0-22 9.9-22 22v .6c.3-11.9 10.1-21.6 22-21.6s21.7 9.7 22 21.6v-.6c0-12.1-9.9-22-22-22z" opacity=".2"/><path d="m28.9 24 11 6.4c2.3-3.4 2.3-9.4 0-12.8zm-9.8 0-11 6.4c-2.3-3.4-2.3-9.4 0-12.8zm2.5-4.3-11-6.4c2.1-3.5 6.1-6.3 11-6.3zm4.8.1 11-6.4c-2.1-3.5-6.1-6.3-11-6.3zm-4.8 8.5-11 6.4c2.1 3.5 6.1 6.3 11 6.3zm4.8 0 11 6.4c-2.1 3.5-6.1 6.3-11 6.3z" opacity=".5" stroke="#fff" stroke-linejoin="round" stroke-width="2.8"/></g></svg>