<svg height="48" width="48" xmlns="http://www.w3.org/2000/svg"><path d="m12 10v2h4v-2zm0 2h-2v4h2z" fill="#07285b"/><path d="m16 8v4h4v-4zm0 4h-4v4h4zm-4 4h-4v4h4z" fill="#0b3b87"/><path d="m20 8v4h4v-4zm0 4h-4v4h4zm-4 4h-4v4h4zm-4 4h-4v4h4z" fill="#0d47a1"/><path d="m24 8v4h4v-4zm0 4h-4v4h4zm-4 4h-4v4h4zm-4 4h-4v4h4zm-4 4h-4v4h4z" fill="#1565c0"/><path d="m28 8v4h4v-4zm0 4h-4v4h4zm-4 4h-4v4h4zm-4 4h-4v4h4zm-4 4h-4v4h4zm-4 4h-4v4h4z" fill="#1976d2"/><path d="m32 10v2h3v-2zm0 2h-4v4h4zm-4 4h-4v4h4zm-4 4h-4v4h4zm-4 4h-4v4h4zm-4 4h-4v4h4zm-4 4h-2v3h2z" fill="#1e88e5"/><path d="m36 12h-4v4h4zm-4 4h-4v4h4zm-4 4h-4v4h4zm-4 4h-4v4h4zm-4 4h-4v4h4zm-4 4h-4v4h4z" fill="#2196f3"/><path d="m36 13v3h2v-3zm0 3h-4v4h4zm-4 4h-4v4h4zm-4 4h-4v4h4zm-4 4h-4v4h4zm-4 4h-4v4h4zm-4 4h-3v2h3z" fill="#42a5f5"/><path d="m36 16v4h4v-4zm0 4h-4v4h4zm-4 4h-4v4h4zm-4 4h-4v4h4zm-4 4h-4v4h4zm-4 4h-4v4h4z" fill="#64b5f6"/><path d="m36 20v4h4v-4zm0 4h-4v4h4zm-4 4h-4v4h4zm-4 4h-4v4h4zm-4 4h-4v4h4z" fill="#90caf9"/><path d="m36 24v4h4v-4zm0 4h-4v4h4zm-4 4h-4v4h4zm-4 4h-4v4h4z" fill="#bbdefb"/><path d="m36 28v4h4v-4zm0 4h-4v4h4zm-4 4h-4v4h4z" fill="#d3e9fc"/><path d="m36 32v4h2v-4zm0 4h-4v2h4z" fill="#e3f2fd"/><path d="m6 5s-2 0-2 2v18c0 11 9 20 20 20s20-9 20-20-9-20-20-20zm2 2c1.1 0 2 .9 2 2s-.9 2-2 2-2-.9-2-2 .9-2 2-2zm16 2c9 0 16 7 16 16s-7 16-16 16-16-7-16-16 7-16 16-16z" opacity=".2"/><path d="m6 4s-2 0-2 2v18c0 11 9 20 20 20s20-9 20-20-9-20-20-20zm2 2c1.1 0 2 .9 2 2s-.9 2-2 2-2-.9-2-2 .9-2 2-2zm16 2c9 0 16 7 16 16s-7 16-16 16-16-7-16-16 7-16 16-16z" fill="#ececec"/><path d="m6 4s-2 0-2 2v1s0-2 2-2h18c11 0 20 9 20 19.5v-.5c0-11-9-20-20-20zm3.9 4.5c-.2.9-1 1.5-1.9 1.5s-1.7-.6-1.9-1.5l-.1.5c0 1.1.9 2 2 2s2-.9 2-2zm30.1 15.9c0 8.6-7 15.6-16 15.6s-16-7-16-15.5v.5c0 9 7 16 16 16s16-7 16-16z" fill="#fff" opacity=".4" stroke-width="2"/><path d="m24 8c-9 0-16 7-16 16v .5c0-8.5 7-15.5 16-15.5s16 7 16 15.5v-.5c0-9-7-16-16-16z" opacity=".2" stroke-width="2"/></svg>