<svg viewBox="0 0 48 48"><use opacity=".2" xlink:href="#a" y="1"/><circle cx="24" cy="22" fill="#e9659e" r="19"/><g fill="#fff"><path d="m24 3c-10.5 0-19 8.5-19 19h19z" opacity=".2"/><path d="m24 3c-10.5 0-19 8.5-19 19v .6c.3-10.2 8.7-18.6 19-18.6s18.7 8.4 19 18.6v-.6c0-10.5-8.5-19-19-19z" opacity=".1"/></g><g fill="#608bbd"><path id="a" d="m5.6 12s-3.6 4.8-3.6 12c0 12.1 9.8 22 22 22s22-9.9 22-22c0-7.2-3.6-12-3.6-12z"/></g><g fill="#fff"><circle cx="18" cy="26" r="8"/><circle cx="30" cy="26" r="8"/></g><path d="m18 33c-4.2 0-7.7-3.2-8-7.4v.4c0 4.4 3.6 8 8 8zm12 1c4.4 0 8-3.6 8-8v-.4c-.3 4.2-3.8 7.4-8 7.4z" opacity=".2"/><circle cx="30" cy="26" opacity=".05" r="8"/><path d="m22 20.7h2v10.6h-2z" fill="#fff"/><path d="m24 27.6s-.6 0-1.1.4l-6.4 4.9s-.5.4-.5 1.1.5 1.1.5 1.1l6.4 6.4c.5.5 1.1.5 1.1.5z" fill="#f4de25"/><path d="m24 27.6s.6 0 1.1.4l6.4 4.9s.5.4.5 1.1-.5 1.1-.5 1.1l-6.4 6.4c-.5.5-1.1.5-1.1.5z" fill="#ecc200"/><g opacity=".6"><circle cx="17" cy="28" r="2"/><circle cx="31" cy="28" r="2"/></g><path d="m5.6 12s-3.6 4.8-3.6 12v .6c0-6.5 3.6-11.6 3.6-11.6h36.8s3.6 5.1 3.6 11.6v-.6c0-7.2-3.6-12-3.6-12z" fill="#fff" opacity=".1"/></svg>