<svg height="48" width="48" xmlns="http://www.w3.org/2000/svg"><rect height="32" opacity=".2" rx="2" width="40" x="4" y="9"/><rect fill="#fff" height="4" rx="1" width="7" x="7" y="7"/><rect fill="#333" height="32" rx="2" width="40" x="4" y="8"/><path d="m6 8s-2 0-2 2v1s0-2 2-2h36s2 0 2 2v-1s0-2-2-2z" fill="#fff" opacity=".1"/><path d="m6 40c-2 0-2-2-2-2v-1c0 2 2 2 2 2h36c2 0 2-2 2-2v1c0 2-2 2-2 2z" opacity=".2"/><path d="m23 12.1-1.6 10.4 12.9-4.7z" fill="#ff5722"/><path d="m34.2 17.8-10.2 3.2 10.5 8.8z" fill="#f9ce1d"/><path d="m26.6 22.5-2.4 13.5 10.3-6.2z" fill="#4caf50"/><path d="m26.6 25.5-12.9 4.7 10.5 5.8z" fill="#3f51b5"/><path d="m13.5 18.2.2 12 10.3-3.2z" fill="#9c27b0"/><path d="m13.5 18.2 7.9 7.3v-3l2.4-10.5z" fill="#f44336"/><g stroke-width="2"><circle cx="24" cy="25" fill="none" opacity=".2" r="11" stroke="#000"/><circle cx="24" cy="24" fill="none" r="11" stroke="#fff"/></g><circle cx="24" cy="25" opacity=".2" r="3"/><g fill="#fff"><circle cx="24" cy="24" r="3"/><circle cx="38" cy="13" r="2"/></g></svg>