<svg viewBox="0 0 48 48"><circle cx="24" cy="25" opacity=".2" r="22"/><circle cx="24" cy="24" fill="#ccc" r="22"/><path d="m24 2c-12.2 0-22 9.9-22 22v .6c.3-11.9 10-21.6 22-21.6s21.7 9.7 22 21.6v-.6c0-12.1-9.8-22-22-22z" fill="#fff" opacity=".2"/><g fill="#6d4c41"><circle cx="13.5" cy="24.5" r="6.5"/><circle cx="34.5" cy="24.5" r="6.5"/></g><path d="m24 18.1c-9.7 0-17 7.9-17 17.6v2.2s5.7 8.1 17 8.1 17-8.1 17-8.1v-2.2c0-9.7-7.3-17.6-17-17.6z" fill="#a1887f"/><path d="m19 40h5v7h-5z" fill="#fff"/><path d="m24 39.4h5v7.6h-5z" fill="#f2f2f2"/><path d="m19.8 35.5c-2 0-3.1 3.4-3.1 5.4s1.5 3.6 3.6 3.6c1.9 0 3.7-1.6 3.7-1.6s1.8 1.6 3.7 1.6c2.1 0 3.6-1.6 3.6-3.6s-1.1-5.4-3.1-5.4z" fill="#6d4c41"/><path d="m28.3 35.4c.5 1.9-2.5 4-4.3 4s-4.8-2.1-4.3-4c .3-1.5 2.5-1.4 4.3-1.4s4-.1 4.3 1.4z" fill="#3e2723"/><g fill="#fefefe"><circle cx="15.5" cy="30.5" r="3.5"/><circle cx="32.5" cy="30.5" r="3.5"/></g><g fill="#333"><circle cx="14.5" cy="29.5" r="1.5"/><circle cx="31.5" cy="29.5" r="1.5"/></g></svg>