<svg viewBox="0 0 48 48"><g stroke-linejoin="round" stroke-width="4"><path d="m7 6 35 19-35 19z" opacity=".2" stroke="#000"/><path d="m7 5 35 19-35 19z" fill="#3f3f3f" stroke="#3f3f3f"/></g><path d="m9 8.8v15.4l9.3-5.1 8.9 4.9-18.2 9.9v5.3l28-15.2z" fill="#86e914"/><g fill="#fff"><path d="m6.9 3s-1.7.1-1.9 1.9v1s .2-1.8 1.9-1.9c0 0 .7 0 1 .2l35.1 19.1s.6.3.9 1.2c0 0 .5-1.3-.9-2.2l-35.1-19.1s-.3-.2-1-.2z" opacity=".2"/><path d="m9 8.8v1l27.1 14.7.9-.5zm17.3 15.7-17.3 9.4v1l18.2-9.9z" opacity=".5"/></g></svg>