<svg height="48" width="48" xmlns="http://www.w3.org/2000/svg" xmlns:xlink="http://www.w3.org/1999/xlink"><use opacity=".2" xlink:href="#a" y="1"/><g fill="#4477b0"><path id="a" d="m24 47c-9 0-16.4-7-16.4-16 0-4.6 2-8.5 2-8.5 4.4-8.5 7.4-9.5 14.4-21.5 7 12 10 13 14.4 21.5 0 0 2 3.9 2 8.5 0 9-7.4 16-16.4 16z"/></g><g fill="#fff"><path d="m19.8 18.2s-12 2.5-12 13.6c0 8.2 7.3 15.2 16.2 15.2 9 0 14.4-6.6 15.8-11.7 0 0-3.1 2.9-8.1 2.9-7.4 0-13.6-5.8-13.6-13.2 0-4 1.7-6.8 1.7-6.8z" opacity=".5"/><path d="m24 1c-7 12-10 13-14.4 21.5 0 0-2 3.9-2 8.5v.5c.1-4.3 2-8 2-8 4.4-8.5 7.4-9.5 14.4-21.5 7 12 10 13 14.4 21.5 0 0 1.9 3.7 2 8v-.5c0-4.6-2-8.5-2-8.5-4.4-8.5-7.4-9.5-14.4-21.5z" opacity=".2"/></g></svg>