<svg viewBox="0 0 48 48"><g opacity=".2"><use xlink:href="#a" y="1"/><use xlink:href="#b" y="1"/></g><g fill="#03a9f4"><path id="a" d="m4 8v30s0 2 2 2h37zm8 16.9 8.8 7.1h-8.8z"/></g><g fill="#3f51b5"><path id="b" d="m43 40v-30s0-2-2-2h-37zm-8-16.9-8.8-7.1h8.8z"/></g><path d="m4 8v1l37.8 31h1.2l-37.8-31h35.8s2 0 2 2v-1s0-2-2-2zm22.2 9 8.8 7.1v-1l-7.6-6.1zm-14.2 15v1h8.8l-1.2-1z" fill="#fff" opacity=".2"/><path d="m4 8 37.8 31h-35.8s-2 0-2-2v1s0 2 2 2h37v-1l-37.8-31zm22.2 7 1.2 1h7.6v-1zm-14.2 8.9v1l7.6 6.1h1.2z" opacity=".1"/></svg>