<svg height="48" width="48" xmlns="http://www.w3.org/2000/svg" xmlns:xlink="http://www.w3.org/1999/xlink"><g opacity=".2"><rect height="40" rx="2" width="32" x="8" y="5"/><rect height="3" rx="1" width="3" x="39" y="38"/></g><rect fill="#4caf50" height="12" rx="1" width="3" x="39" y="8"/><rect fill="#2196f3" height="12" rx="1" width="3" x="39" y="18"/><rect fill="#f9ce1d" height="12" rx="1" width="3" x="39" y="28"/><path d="m40 8v1h1s1 0 1 1v-1s0-1-1-1zm0 10v1h1s1 0 1 1v-1s0-1-1-1zm0 10v1h1s1 0 1 1v-1s0-1-1-1z" fill="#fff" opacity=".2"/><rect fill="#f44336" height="40" rx="2" width="32" x="8" y="4"/><path d="m10 4s-2 0-2 2v36s0 2 2 2h4v-40z" fill="#333"/><path d="m10 4s-2 0-2 2v1s0-2 2-2h28s2 0 2 2v-1s0-2-2-2z" fill="#fff" opacity=".2"/><use opacity=".2" xlink:href="#a" y="-1"/><g fill="#f9f9f9"><path id="a" d="m19 15v18h5.3c9.3 0 9.7-5.6 9.7-9s-.4-9-9.7-9zm5.3 4c4 0 5.4 1 5.4 5s-1.4 5-5.4 5h-1.3v-10z"/></g></svg>