<svg height="48" width="48" xmlns="http://www.w3.org/2000/svg" xmlns:xlink="http://www.w3.org/1999/xlink"><use opacity=".2" xlink:href="#a" y="1"/><g fill="#fbc02d"><g id="a"><rect height="36" rx="3" width="36" x="6" y="4"/><path d="m42 46-10-10h10z"/></g></g><path d="m33 40-1-4 4 4z" opacity=".2"/><g fill="#fff"><path d="m20.7 13.2.3.3c-3.6 1.2-5.3 2.7-5.3 2.7s3.3-2.1 8.3-2.1 8.3 2.1 8.3 2.1-1.7-1.5-5.3-2.6l.3-.4s3.1.1 5.7 2.2c0 0 3 5.3 3 11.9 0 0-2 3.1-6.3 3.1l-1.3-1.7c2.6-.8 3.6-2.4 3.6-2.4s-3.4 2.3-8 2.3-8-2.3-8-2.3 1 1.6 3.7 2.4l-1.4 1.7c-4.3 0-6.3-3.1-6.3-3.1 0-6.6 3-11.9 3-11.9 2.6-2.1 5.7-2.2 5.7-2.2zm-.7 7.5s-2.1 0-2.1 2.3 2.1 2.3 2.1 2.3 2.1 0 2.1-2.3-2.1-2.3-2.1-2.3zm8 0s-2.1 0-2.1 2.3 2.1 2.3 2.1 2.3 2.1 0 2.1-2.3-2.1-2.3-2.1-2.3z"/><path d="m9 4s-3 0-3 3v1c0-3 3-3 3-3h30s3 0 3 3v-1c0-3-3-3-3-3z" opacity=".2"/></g></svg>