<svg height="48" width="48" xmlns="http://www.w3.org/2000/svg"><g fill="none"><circle cx="24" cy="26" opacity=".2" r="12" stroke="#000" stroke-width="16"/><circle cx="24" cy="25" opacity=".8" r="7" stroke="#e0e2e3" stroke-width="6"/><circle cx="24" cy="25" r="14" stroke="#e0e2e3" stroke-width="12"/></g><g fill="#fff"><path d="m5.7 17 14.7 6.3c.4-1 1.2-1.7 2.2-2.1l-6.6-14.5c-5 2.3-8 5.3-10.3 10.3z" opacity=".2"/><path d="m4.3 21.4 15.7 3c .2-1 .7-1.9 1.5-2.5l-9.3-13c-4.2 3.1-6.8 7.1-7.9 12.5z" opacity=".2"/><path d="m24 5c11 0 20 8.9 20 20v .5c-.3-10.8-9-19.5-20-19.5s-19.7 8.7-20 19.5v-.5c0-11.1 9-20 20-20zm0 25c-2.2 0-4-1.8-4-4l .1-.5c.2 2 1.9 3.5 3.9 3.5z" opacity=".1"/></g><circle cx="34" cy="35" opacity=".2" r="12"/><circle cx="34" cy="34" fill="#ff5722" r="12"/><path d="m33.8 39c-1.2 0-2.1-.8-2.1-2 0-2.8 3.3-1.5 4.9-3.8 1.2 4-.7 5.8-2.8 5.8zm1.2-12s1.8 5.4-1.8 5.6c-2.5 0-2.3-2.7-2.3-2.7s-2.2 2.3-2.2 5.8c0 2.9 2.4 5.3 5.3 5.3s5.3-2.4 5.3-5.3c0-5.4-4.3-8.7-4.3-8.7z" fill="#fff"/></svg>