<svg height="48" width="48" xmlns="http://www.w3.org/2000/svg" xmlns:xlink="http://www.w3.org/1999/xlink"><rect height="40" opacity=".2" rx="2" width="32" x="8" y="5"/><rect fill="#78909c" height="40" rx="2" width="32" x="8" y="4"/><path d="m10 4s-2 0-2 2v1s0-2 2-2h28s2 0 2 2v-1s0-2-2-2z" fill="#fff" opacity=".1"/><use opacity=".05" stroke="#fff" xlink:href="#a" y="1"/><g stroke="#455a64"><g id="a" fill="none" stroke-width="5"><circle cx="24" cy="20" r="7.5"/><path d="m16.5 20v7.5h7.5"/></g></g><circle cx="36" cy="36" opacity=".2" r="12"/><circle cx="36" cy="35" fill="#ff766a" r="12"/><path d="m36 35-8.5-8.5s3.1-3.5 8.5-3.5c6.6 0 12 5.4 12 12z" fill="#00bbd3"/><path d="m36 35-8.5 8.5s3.1 3.5 8.5 3.5c6.6 0 12-5.4 12-12z" fill="#8ac249"/><circle cx="36" cy="35" fill="#fff" r="8"/></svg>