<svg viewBox="0 0 48 48"><rect height="40" opacity=".2" rx="2" width="32" x="8" y="5"/><rect fill="#78909c" height="40" rx="2" width="32" x="8" y="4"/><path d="m10 4s-2 0-2 2v1s0-2 2-2h28s2 0 2 2v-1s0-2-2-2z" fill="#fff" opacity=".1"/><use opacity=".05" stroke="#fff" xlink:href="#a" y="1"/><g stroke="#455a64"><g id="a" fill="none" stroke-width="5"><circle cx="24" cy="20" r="7.5"/><path d="m16.5 20v7.5h7.5"/></g></g><circle cx="36" cy="36" opacity=".2" r="12"/><circle cx="36" cy="35" fill="#8561c5" r="12"/><path d="m34.3 28-.3 3.5-3.2-1.5-1.7 3 2.8 2-2.8 2 1.7 3 3.2-1.5.3 3.5h3.4l.3-3.5 3.2 1.5 1.7-3-2.8-2 2.8-2-1.7-3-3.2 1.5-.3-3.5z" fill="#fff"/><circle cx="36" cy="35" fill="#8561c5" r="3.9" stroke="#fff" stroke-width="3.2"/></svg>