<svg viewBox="0 0 48 48"><rect height="40" opacity=".2" rx="3" width="40" x="4" y="5"/><rect fill="#29b6f6" height="40" rx="3" width="40" x="4" y="4"/><g fill="#fff"><path d="m7 4s-3 0-3 3v1s0-3 3-3h34s3 0 3 3v-1s0-3-3-3z" opacity=".2"/><path d="m39.5 32.4c-4.5-7.9-8.6-10.9-14.3-12-3.8-.7-7.9-.1-9.1 1.4-.3.4.2.4 3.1.4 4.6 0 7.9 1 11.5 3.8 2.6 1.9 3 3.4.5 1.8-2.1-1.4-8.1-3.4-8.1-2.8 0 .4 1.6 1.7 2.3 2.1 1 .5.6 1.1-.4 1-2.2-.2-3.9-1-5.1-2.3-.8-1-1.5-1.4-2-1.4-1.3 0-4.2.6-5.8 1.3-1 .4-1.4.5-1.7.2-.7-.8.5-2.2.5-2.2.7-.5.6-1.4.6-1.4 2.1-5 7.6-5.8 13.4-4.9 1.7.4 2.4.4 3.4-.1 1.4-.7 5.3-.7 5.3 0-.1.8-2.2.7-2.5 1.8.5 1.3 6.9 5.3 9.1 13.7 0 .4-.4.4-.7-.4z"/></g></svg>