<svg viewBox="0 0 48 48"><rect height="40" opacity=".2" rx="3" width="40" x="4" y="5"/><rect fill="#c43216" height="40" rx="3" width="40" x="4" y="4"/><path d="m7 4s-3 0-3 3v1s0-3 3-3h34s3 0 3 3v-1s0-3-3-3z" fill="#fff" opacity=".2"/><use opacity=".2" xlink:href="#a" y="1"/><g fill="#d3d3d3"><path id="a" d="m6 9c-1 0-2 .1-2 .1v5.1s1-.2 2-.2c5.5 0 10 4.5 10 10s-4.5 10-10 10c-1 0-2-.2-2-.2v5.1s1 .1 2 .1c8.3 0 15-6.7 15-15s-6.7-15-15-15zm36 0c-8.3 0-15 6.7-15 15s6.7 15 15 15c1 0 2-.1 2-.1v-5.1s-1 .2-2 .2c-5.5 0-10-4.5-10-10s4.5-10 10-10c1 0 2 .2 2 .2v-5.1s-1-.1-2-.1z"/></g><path d="m6 9c-1 0-2 .1-2 .1v1s1-.1 2-.1c8.1 0 14.8 6.5 15 14.6v-.6c0-8.3-6.7-15-15-15zm36 0c-8.3 0-15 6.7-15 15v .6c.2-8.1 6.9-14.6 15-14.6 1 0 2 .1 2 .1v-1s-1-.1-2-.1zm-26 15.4c-.2 5.3-4.7 9.6-10 9.6-1 0-2-.2-2-.2v1s1 .2 2 .2c5.5 0 10-4.5 10-10zm16 0v .6c0 5.5 4.5 10 10 10 1 0 2-.2 2-.2v-1s-1 .2-2 .2c-5.3 0-9.8-4.3-10-9.6z" fill="#fff" opacity=".2"/></svg>