<svg height="48" width="48" xmlns="http://www.w3.org/2000/svg" xmlns:xlink="http://www.w3.org/1999/xlink"><use opacity=".2" stroke="#000" xlink:href="#a" y="1"/><g fill="#4caf50" stroke="#4caf50"><path id="a" d="m22.3 3.7 22 22-18.6 18.6-22-22v-16.3c0-1.3 1-2.3 2.3-2.3z" stroke-linejoin="round" stroke-width="3.4"/></g><circle cx="8" cy="8" fill="#fff" r="2"/><circle cx="8" cy="9" opacity=".2" r="2"/><path d="m38.1 24.8-9.7 9.7s-2.2 2.2-4.4 0l-9.4-9.2c-2.2-2.2 0-4.4 0-4.4l6.3-6.3s2.3-2.1 4.4 0l5 4.7-11 11" fill="none" stroke="#f9f9f9" stroke-width="3"/><path d="m6 2s-4 0-4 4v1s0-4 4-4h16.2c.9 0 1.3.5 1.3.5l22 22c .4.4.4.7.4.7s.4-.8-.4-1.7l-22-22s-.4-.5-1.3-.5z" fill="#fff" opacity=".2"/></svg>