<svg height="48" width="48" xmlns="http://www.w3.org/2000/svg"><circle cx="22" cy="24" fill="#ff9800" r="20"/><path d="m22 4c-11.1 0-20 9-20 20v .5c.3-10.8 9.1-19.5 20-19.5s19.7 8.7 20 19.5v-.5c0-11-8.9-20-20-20z" fill="#fff" opacity=".1"/><circle cx="26" cy="25" opacity=".2" r="20"/><circle cx="26" cy="24" fill="#4a148c" r="20"/><path d="m26 4c-11.1 0-20 9-20 20v .5c.3-10.8 9.1-19.5 20-19.5s19.7 8.7 20 19.5v-.5c0-11-8.9-20-20-20z" fill="#fff" opacity=".2"/><path d="m26 44c-11.1 0-20-9-20-20v-.5c.3 10.8 9.1 19.5 20 19.5s19.7-8.7 20-19.5v.5c0 11-8.9 20-20 20z" opacity=".1"/><path d="m7.3 17-.7 2h38.7l-.6-2zm-1.1 4-.2 2h40l-.2-2zm-.2 4 .2 2h39.6l.2-2zm .6 4 .7 2h37.4l.7-2z" fill="#fff" opacity=".8"/></svg>