<svg viewBox="0 0 48 48"><rect height="40" opacity=".2" rx="2" width="40" x="4" y="5"/><rect fill="#ebebeb" height="40" rx="2" width="40" x="4" y="4"/><rect fill="#fff" height="10" opacity=".2" rx="1" width="28" x="10" y="20"/><rect fill="#028ccc" height="10" rx="1" width="26" x="10" y="19"/><circle cx="32" cy="25" opacity=".2" r="7"/><path d="m11 19s-1 0-1 1v1s0-1 1-1h17v-1z" opacity=".1"/><g fill="#fff"><circle cx="32" cy="24" r="7"/><path d="m6 4s-2 0-2 2v1s0-2 2-2h36s2 0 2 2v-1s0-2-2-2z" opacity=".1"/></g></svg>