<svg viewBox="0 0 48 48"><circle cx="24" cy="25" opacity=".2" r="22"/><circle cx="24" cy="24" fill="#e81d62" r="22"/><path d="m24 2c-12.2 0-22 9.9-22 22v .6c.3-11.9 10-21.6 22-21.6s21.7 9.7 22 21.6v-.6c0-12.1-9.8-22-22-22z" fill="#fff" opacity=".2"/><path d="m24 25c0 4 3.2 8 8 8m-9.3 5s-6.7-4.1-6.7-13c0-4.6 3.8-8 8-8 4.6 0 8 3.8 8 8m-18.7 7.2s-1.3-3.1-1.3-7.2c0-6.4 5.2-12 12-12 7 0 12 5.8 12 12 0 2.3-1.9 4-4 4-1.9 0-4-1.5-4-4 0-1.8-1.4-4-4-4-2.5 0-4 2.1-4 4 0 6.9 5.6 12 11.9 12m-18.2-24.2s3.9-3.8 10.3-3.8c6.9 0 10.9 4.3 10.9 4.3" fill="none" stroke="#fff" stroke-linecap="round" stroke-width="2"/></svg>