<svg viewBox="0 0 48 48"><circle cx="24" cy="24" fill="#0288d1" r="20"/><path d="m23.6 4s-3.5 0-6.9 1.4l-1.3 1.5 2.2 2.1v2.2l2.5 2.8h1.4v-1.4l2.1-2.2v-1.4l1.5-1.4v-2.2zm-10.7 3.4-.3.2h.3zm-2.1 1.6s-1.1.9-2 2h5.1l-2.1-2zm22.1 1.4-2.1 2.2v1.8h2.1v-1.1h1.5v1.4l-.8.8h-2.8l-1.1 1h-1.4v1.4l-1.1 1.1v2.2h2.2l1.4-1.5h1.4v.7l1.4 1.5v-2.2h.8l1.4 1.5h1.8l-1.1-1.1 1.1-1.1 3.4 5h3c0-4.7-1.7-9.2-4.7-12.8l-.7.7-1.4-1.5zm4.3 12.9h-4.3l-.7-.7h-4.3l-2.5 2.5v3.6l1.8 1.7h2.5l1.1 1.1h6.4zm-13.9-10v1.1h2.1l-1-1.1zm6.4.3-1.1 1.1v1.1h1.1zm-13.6 6.8h1.1l-1.1-1zm2.5-2.8-1 1.1h1l .4.3h.3l.4-.3zm.7 15.4h1.5v-2h-1.5z" opacity=".1"/><path d="m24 4c-11 0-20 8.9-20 20v .5c.3-10.8 9.2-19.5 20-19.5s19.7 8.7 20 19.5v-.5c0-11.1-9-20-20-20z" fill="#fff" opacity=".2"/><g opacity=".2"><use xlink:href="#c" y="1"/><use xlink:href="#a" y="1"/></g><g fill="#ef6c00"><path id="a" d="m10.7 14-7.7-7.2v7.2zm.3 8c4.4 0 8-3.6 8-8h-8z"/></g><path d="m3 6.8v1l7.7 7.2h8.2s.1-.3.1-1h-8.3z" fill="#fff" opacity=".2"/><use opacity=".2" xlink:href="#b" y="1"/><g fill="#f29312"><path id="b" d="m15 6.8-3.8 3.5s-1-.3-2.2-.3c-4.4 0-8 3.6-8 8h1.1s-1.1 1.8-1.1 4h2v2c0 11.6 9.4 21 21 21s21-9.4 21-21c0-10.2-6.4-14.2-6.4-14.2s4 5 3.2 11.6c0 0-.8-7.6-8.8-10.2 0 0 5.7 6.7 3.8 13.6 0 0-.6-5.2-5.2-6.2 0 0 1.6 2.3 1.6 5.4 0 4.6-3.5 9.1-9.2 9.1-4.6 0-9-3.8-9-9.1v-2h2c0-2.3-1.1-4-1.1-4h1.1c0-3.3-2-5.3-2-5.3z"/></g><path d="m15 6.8-3.8 3.5s-1-.3-2.2-.3c-4.4 0-8 3.6-8 8h .1c.5-3.9 3.8-7 7.9-7 1.2 0 2.2.3 2.2.3l3.8-3.5zm23.6 3 1.3 2.1c1.8 1.7 5 5.7 5.1 12.7v-.6c0-10.2-6.4-14.2-6.4-14.2zm-5.6 1.4 1 1.4c7 2.9 7.8 9.8 7.8 9.8.2-1.2.1-2.2.1-2.2l-.1 1.2s-.8-7.6-8.8-10.2zm-18 1.5v1s1.6 1.6 1.9 4.3h.1c0-3.3-2-5.3-2-5.3zm16.6 5.9.7 1.3c4 1.3 4.5 5.9 4.5 5.9.5-1.8.4-3.4.4-3.4s-.1 1.4-.4 2.4c0 0-.6-5.2-5.2-6.2zm-30 .4s-.6 1.4-.6 3h .1c.3-1.7 1-3 1-3zm14.3 0s .8 1.3 1 3h .1s0-1.6-.6-3zm-.9 5v1c0 5.3 4.4 9.1 9 9.1 5.7 0 9.2-4.5 9.2-9.1v-.4c-.3 4.3-3.7 8.5-9.2 8.5-4.6 0-9-3.8-9-9.1z" fill="#fff" opacity=".2"/><g fill="#f29312"><path id="c" d="m13 22c-2 0-2 2-2 2s0 8 8 8 8-8 8-8 0-2-2-2-2 2-2 2 0 4-4 4-4-4-4-4 0-2-2-2z"/></g><path d="m25 22c-2 0-2 2-2 2s0 4-4 4-4-4-4-4v1s0 4 4 4 4-4 4-4 0-2 2-2c1.7 0 2 1.5 2 1.5v-.5s0-2-2-2z" fill="#fff" opacity=".2"/></svg>