<svg viewBox="0 0 48 48"><g id="a"><circle cx="9" cy="10" opacity=".2" r="4"/><circle cx="9" cy="9" fill="#4caf50" r="4"/><path d="m9 5c-2.2 0-4 1.8-4 4v .5c.2-2 2-3.5 4-3.5s3.8 1.5 4 3.5v-.5c0-2.2-1.8-4-4-4z" fill="#fff" opacity=".1"/></g><use x="10" xlink:href="#a" y="10"/><use x="30" xlink:href="#a" y="30"/><g id="b"><circle cx="19" cy="10" opacity=".2" r="4"/><circle cx="19" cy="9" fill="#f44336" r="4"/><path d="m19 5c-2.2 0-4 1.8-4 4v .5c.2-2 2-3.5 4-3.5s3.8 1.5 4 3.5v-.5c0-2.2-1.8-4-4-4z" fill="#fff" opacity=".1"/></g><use x="20" xlink:href="#b" y="20"/><g id="c"><circle cx="39" cy="10" opacity=".2" r="4"/><circle cx="39" cy="9" fill="#3f51b5" r="4"/><path d="m39 5c-2.2 0-4 1.8-4 4v .5c.2-2 2-3.5 4-3.5s3.8 1.5 4 3.5v-.5c0-2.2-1.8-4-4-4z" fill="#fff" opacity=".1"/></g><use x="-10" xlink:href="#c" y="10"/><use x="-20" xlink:href="#c" y="20"/><use x="-30" xlink:href="#c" y="30"/><use x="-10" xlink:href="#c" y="30"/></svg>