<svg height="48" width="48" xmlns="http://www.w3.org/2000/svg" xmlns:xlink="http://www.w3.org/1999/xlink"><filter id="a" height="1.2" width="1.2" x="-.1" y="-.1"><feGaussianBlur stdDeviation=".7"/></filter><circle cx="24" cy="25" opacity=".2" r="22"/><circle cx="24" cy="24" fill="#ffcc80" r="22"/><path d="m24 2c-12.2 0-22 9.9-22 22v .6c.3-11.9 10-21.6 22-21.6s21.7 9.7 22 21.6v-.6c0-12.1-9.8-22-22-22z" fill="#fff" opacity=".2"/><path d="m3.5 32c3.2 8.4 11.4 14 20.5 14s17.3-5.6 20.5-14z" fill="#82b1ff"/><circle cx="30" cy="19" filter="url(#a)" opacity=".2" r="7"/><circle cx="30" cy="18" fill="#fff3e0" r="7"/><path d="m3.5 32 .4 1h40.2l.4-1z" opacity=".05"/><path d="m3.9 33 .5 1h39.2l.5-1z" opacity=".02"/><path d="m3.2 31 .3 1h41l .3-1z" fill="#fff" opacity=".1"/></svg>