<svg height="48" width="48" xmlns="http://www.w3.org/2000/svg"><rect height="40" opacity=".2" rx="3" width="40" x="4" y="5"/><rect fill="#f2f2f2" height="40" rx="3" width="40" x="4" y="4"/><path d="m7 4s-3 0-3 3v1s0-3 3-3h34s3 0 3 3v-1s0-3-3-3z" fill="#fff" opacity=".2"/><path d="m10 10v20h4v-8h6v-4h-6v-4h10v-4z" fill="#f44336"/><path d="m32.8 18.1-2.8 4.1-2.8-4.1-4.4 2.5 2.2 4.5-5 .4v5l5 .4-2.2 4.5 4.4 2.5 2.8-4.1 2.8 4.1 4.4-2.5-2.2-4.5 5-.4v-5l-5-.4 2.2-4.5z" fill="#3f51b5"/><circle cx="30" cy="28" fill="#f2f2f2" r="5.3" stroke="#3f51b5" stroke-width="5"/></svg>