<svg height="48" width="48" xmlns="http://www.w3.org/2000/svg" xmlns:xlink="http://www.w3.org/1999/xlink"><g opacity=".2"><use xlink:href="#b" y="1"/><use stroke="#000" xlink:href="#a" y="1"/></g><circle cx="25" cy="13" fill="#fbc02d" r="6"/><g stroke="#fbc02d"><path id="a" d="m36.5 13v-3.5c0-2 2-2 2-2h4c2 0 2 2 2 2v16c0 2-2 2-2 2h-2.5" fill="none" stroke-width="3"/></g><g fill="#ffd600"><path id="b" d="m4 13s0 6 6 6v18s0 4 4 4h22s4 0 4-4v-22s0-2-2-2z"/></g><path d="m38.5 6s-3.5 0-3.5 3.5v1s0-3.5 3.5-3.5h4s3.5 0 3.5 3.5v-1s0-3.5-3.5-3.5zm-13.5 1c-3.3 0-6 2.7-6 6h-15c0 .4.1 1 .1 1h33.9s2 0 2 2v-1s0-2-2-2h-7c0-3.3-2.7-6-6-6zm0 1c2.9 0 5.5 2.1 5.9 5h-11.8c.4-2.9 3-5 5.9-5zm18 17.5s0 .5-.5.5h-2.5v1h2.5s.5 0 .5-.5z" fill="#fff" opacity=".2"/><path d="m16 22 2.8 4-2.8 4-2.8-4zm9 0 2.8 4-2.8 4-2.8-4zm9 0 2.8 4-2.8 4-2.8-4z" fill="#f44336"/></svg>