<svg viewBox="0 0 48 48"><use opacity=".2" stroke="#000" xlink:href="#a" y="1"/><g fill="#8bc34a" stroke="#8bc34a"><g id="a" stroke-linejoin="round" stroke-width="3"><path id="b" d="m10.2 5.5h10l5 8.5-5 8.5h-10l-5-8.5z"/><use xlink:href="#b" y="20"/><use x="17.6" xlink:href="#b" y="10"/></g></g><g opacity=".1"><g fill="#fff"><path id="c" d="m10.5 4c-1.4 0-1.7.9-1.7.9l-4.8 8.2s-.5.7-.2 1.4l5-8.6s.5-.9 1.7-.9h9.4c1.2 0 1.7 1 1.7 1l5 8.5c.3-.7-.2-1.4-.2-1.4l-4.8-8.1s-.3-1-1.7-1z"/><use xlink:href="#c" y="20"/><use x="17.6" xlink:href="#c" y="10"/></g><path id="d" d="m10.5 24c-1.4 0-1.7-.9-1.7-.9l-4.8-8.2s-.5-.7-.2-1.4l5 8.6s.5.9 1.7.9h9.4c1.2 0 1.7-1 1.7-1l5-8.5c.3.7-.2 1.4-.2 1.4l-4.8 8.1s-.3 1-1.7 1z"/><use xlink:href="#d" y="20"/><use x="17.6" xlink:href="#d" y="10"/></g></svg>