<svg height="48" width="48" xmlns="http://www.w3.org/2000/svg" xmlns:xlink="http://www.w3.org/1999/xlink"><g opacity=".2"><use xlink:href="#a" y="1"/><use xlink:href="#b" y="1"/></g><g fill="#514b3d"><path id="a" d="m7 4s-3 0-3 3c0 0-.2 14.2 2.9 20.2 1.8 3.6 11.4 11.3 11.4 11.3h11.4s9.6-7.7 11.4-11.3c3-6 2.9-20.2 2.9-20.2 0-3-3-3-3-3 0 6-5.5 6-5.5 6h-23s-5.5 0-5.5-6z"/></g><g fill="#252525"><path id="b" d="m18.3 38.5s1.7 2.9 5.7 2.9 5.7-2.9 5.7-2.9-1.4-2.9-5.7-2.9-5.7 2.9-5.7 2.9z"/></g><path d="m41 4c0 6-5.5 6-5.5 6h-11.5v28.5h5.7s9.6-7.8 11.4-11.4c3-6 2.9-20.1 2.9-20.1 0-3-3-3-3-3z" opacity=".05"/><path d="m7 4s-3 0-3 3v .5c0-2.5 3-2.5 3-2.5 0 6 5.5 6 5.5 6h23s5.5 0 5.5-6c0 0 3 0 3 2.5v-.5c0-3-3-3-3-3 0 6-5.5 6-5.5 6h-23s-5.5 0-5.5-6z" fill="#fff" opacity=".2"/><g id="c"><circle cx="15" cy="23" fill="#ebebeb" r="4"/><circle cx="15" cy="24" opacity=".8" r="3"/><circle cx="15" cy="22.5" fill="#ebebeb" r="1.5"/></g><use x="18" xlink:href="#c"/></svg>