<svg viewBox="0 0 48 48"><use opacity=".2" stroke="#000" xlink:href="#a" y="1"/><g fill="#f44336" stroke="#f44336"><path id="a" d="m24 6-18 18 18 18 18-18z" stroke-linejoin="round" stroke-width="8"/></g><g fill="#fff"><path d="m24 2s-1.6 0-2.8 1.2l-18 18s-1.4 1.3-1.2 3.3c.2-1.5 1.2-2.3 1.2-2.3l18-18c1.2-1.2 2.8-1.2 2.8-1.2 1.6 0 2.8 1.2 2.8 1.2l18 18s1 .8 1.2 2.3c.2-2.1-1.2-3.3-1.2-3.3l-18-18s-1.2-1.2-2.8-1.2z" opacity=".2"/><circle cx="24" cy="15" r="4"/><circle cx="33" cy="24" r="4"/><circle cx="24" cy="33" r="4"/></g><path d="m16.6 7.6 16.4 16.4m-9-9v18" fill="none" stroke="#fff" stroke-width="2"/></svg>