<svg viewBox="0 0 48 48"><circle cx="24" cy="25" opacity=".2" r="22"/><circle cx="24" cy="24" fill="#4d4d4d" r="22"/><path d="m24 2c-12.1 0-22 9.9-22 22v .6c.3-11.9 10.1-21.6 22-21.6s21.7 9.7 22 21.6v-.6c0-12.1-9.9-22-22-22z" fill="#fff" opacity=".2"/><path d="m17.4 18.7c-1.8 4.3 1.6 2.9 1.6 9.2v3.7s.5 2.6 5 2.6 5-2.6 5-2.6v-3.7c0-6.3 3.4-4.9 1.6-9.2-1.6-3.8-3-9.9-6.6-9.9s-5 6.1-6.6 9.9z" fill="#26a69a"/><g stroke="#26a69a"><path d="m33.1 12.3c9.2 8.1 5 21.4-4.8 24.6v-6.9m-13.4-17.7c-9.2 8.1-5 21.4 4.8 24.6l.1-6.9m20.2-12.7c3.7 10.5-3.2 21.9-14.6 23v-10.3m-17.4-12.7c-3.7 10.5 3.2 21.9 14.6 23v-10.3" fill="none" stroke-linecap="round" stroke-linejoin="round" stroke-width="2"/><g fill="#4d4d4d"><circle cx="19.7" cy="27.9" r="1.8"/><circle cx="28.3" cy="27.9" r="1.8"/></g></g></svg>