<svg height="48" width="48" xmlns="http://www.w3.org/2000/svg"><rect height="40" opacity=".2" rx="3" width="40" x="4" y="5"/><rect fill="#f2f2f2" height="40" rx="3" width="40" x="4" y="4"/><path d="m7 4s-3 0-3 3v1s0-3 3-3h34s3 0 3 3v-1s0-3-3-3z" fill="#fff" opacity=".2"/><g fill="#f44336"><circle cx="15" cy="23" r="2"/><circle cx="22" cy="28" r="2"/><circle cx="29" cy="18" r="2"/><circle cx="34" cy="22" r="2"/></g><g fill="#3f51b5"><circle cx="15" cy="30" r="2"/><circle cx="21" cy="35" r="2"/><circle cx="28" cy="27" r="2"/><circle cx="34" cy="31" r="2"/></g><g fill="none"><g stroke-linecap="round"><path d="m7.5 39.5 7.5-16.5 7 5 7-10 5 4 4.5-8.5" stroke="#f44336"/><path d="m7.5 40.5 7.5-10.5 6 5 7-8 6 4 4.5-8.5" stroke="#3f51b5"/></g><path d="m7.5 7v33.5h33.5" stroke="#333"/></g></svg>