<svg height="48" width="48" xmlns="http://www.w3.org/2000/svg"><rect height="32" opacity=".2" rx="1.6" width="26" x="16" y="5"/><rect fill="#ebebeb" height="32" rx="1.6" width="26" x="16" y="4"/><path d="m17.6 4s-1.6 0-1.6 1.6v1s0-1.6 1.6-1.6h22.8s1.6 0 1.6 1.6v-1s0-1.6-1.6-1.6z" fill="#fff" opacity=".2"/><g fill="#3f3f3f"><circle cx="29" cy="15.9" r="3.9"/><circle cx="25.9" cy="21.8" r="3.9"/><circle cx="32.1" cy="21.8" r="3.9"/><path d="m30 24h-2s0 3-3 3v1h8v-1c-3 0-3-3-3-3z"/></g><rect height="32" opacity=".2" rx="1.6" width="26" x="6" y="13"/><rect fill="#fff" height="32" rx="1.6" width="26" x="6" y="12"/><path d="m22.1 22c-2 0-3.1 1.5-3.1 1.5s-1.1-1.5-3.1-1.5c-2.2 0-3.9 1.8-3.9 4 0 4.1 7 10 7 10s7-5.9 7-10c0-2.2-1.7-4-3.9-4z" fill="#f34235"/></svg>