<svg viewBox="0 0 48 48"><g stroke-linejoin="round" stroke-width="6.2"><path d="m8.1 20-1.1 20 6.6-10h20l7.4 10-1.1-20z" opacity=".2" stroke="#000"/><path d="m41 39-7.4-10h-19.6v-10h25.9z" fill="#b0bec5" stroke="#b0bec5"/></g><g fill="#cfd8dc"><rect height="18" rx="9" width="38" x="5" y="10"/><path d="m7 39 8-12-6.9-8z" stroke="#cfd8dc" stroke-linejoin="round" stroke-width="6.2"/></g><path d="m14 10c-5 0-9 4-9 9v1c0-5 4-9 9-9h20c5 0 9 4 9 9v-1c0-5-4-9-9-9z" fill="#fff" opacity=".1"/><use opacity=".2" xlink:href="#a" y="1"/><g fill="#fff"><g id="a"><path d="m13 15h3v9h-3zm-3 6v-3h9v3z"/><circle cx="30.5" cy="19.5" r="1.5"/><circle cx="36.5" cy="19.5" r="1.5"/><circle cx="33.5" cy="16.5" r="1.5"/><circle cx="33.5" cy="22.5" r="1.5"/></g></g></svg>