<svg height="48" width="48" xmlns="http://www.w3.org/2000/svg"><rect height="32" opacity=".2" rx="2" width="40" x="4" y="9"/><rect fill="#fff" height="4" rx="1" width="7" x="7" y="7"/><rect fill="#d6d6d6" height="32" rx="2" width="40" x="4" y="8"/><path d="m6 8s-2 0-2 2v1s0-2 2-2h36s2 0 2 2v-1s0-2-2-2z" fill="#fff" opacity=".1"/><path d="m4 11h40v26h-40z" fill="#343434"/><circle cx="10" cy="16" fill="#f34235" r="2"/><circle cx="28" cy="24" fill="#d6d6d6" r="10"/><circle cx="28" cy="24" opacity=".5" r="8"/><g fill="#fff"><path d="m31.5 20.5c-1.9-2-5-2-7 0l3.5 3.5z" opacity=".2"/><path d="m24.5 20.5c-2 2-2 5 0 7l3.5-3.5zm3.5 3.5 3.5 3.5c2-2 2-5 0-7z" opacity=".4"/><path d="m24.5 27.5c1.9 2 5.1 2 7 0l-3.5-3.5z" opacity=".6"/></g></svg>