<svg viewBox="0 0 48 48"><circle cx="24" cy="25" opacity=".2" r="20"/><circle cx="24" cy="24" fill="#ebebeb" r="20"/><g fill="#fff"><path d="m24 4c-11 0-20 8.9-20 20v .5c.3-10.8 9.2-19.5 20-19.5s19.7 8.7 20 19.5v-.5c0-11.1-9-20-20-20z" opacity=".1"/><path d="m24 44c-11.1 0-20-8.9-20-20h40c0 11.1-8.9 20-20 20z" opacity=".5"/></g><path d="m20.4 12.7c-2.7 0-2.7 2.6-2.7 2.6h1.5s0-1.3 1.1-1.3 1.1 1.1 1.1 1.1 0 .6-1.1 1.8l-2.5 2.7v1h5.4v-1.2h-3.4l1.8-1.9s1.5-1.6 1.3-2.6c0 0 0-2.2-2.5-2.2zm4.4.1-.5 4 1.3.3s.2-.4 1-.4c1.3 0 1.3 1.3 1.3 1.3s0 1.5-1.1 1.5-1.1-1-1.1-1h-1.6s.1 2.2 2.6 2.2c2.9 0 2.7-2.6 2.7-2.6s.1-2.6-2.4-2.6c-.6 0-1.1.3-1.1.3l.2-1.7h3.1v-1.3zm-19.8 11.2v2h1v-2zm6 0v2h1v-2zm6 0v2h1v-2zm6 0v2h1v-2zm1 4-2 3h4z" opacity=".4"/></svg>