<svg viewBox="0 0 48 48"><g opacity=".2"><rect height="32" rx="1.6" width="28" x="14" y="5"/><rect height="32" rx="1.6" width="28" x="6" y="13"/></g><rect fill="#d8d8d8" height="32" rx="1.6" width="28" x="14" y="4"/><path d="m26.8 10 .1 2h1.5v-.8zm7.2 13.5v1.1l1.6-.5z" fill="#101040"/><rect fill="#ebebeb" height="32" rx="1.6" width="28" x="6" y="12"/><path d="m15.6 4s-1.6 0-1.6 1.6v1s0-1.6 1.6-1.6h24.8s1.6 0 1.6 1.6v-1s0-1.6-1.6-1.6zm-8 8s-1.6 0-1.6 1.6v1s0-1.6 1.6-1.6h24.8s1.6 0 1.6 1.6v-1s0-1.6-1.6-1.6z" fill="#fff" opacity=".2"/><path d="m17.6 19.2.2 2.9c-1 .3-2.7.1-3 .6.7.4.1 4.7 2.2 5.4 0 0 .2-.5 0-1l1.1.1 1 12.1h.4l.3-12h1.8l-.4 1.2s3.5-3 3.4-5c0 0 .1-1.3-1.6-1.6l-3 .1v-2.1l.7-1s .3-.7-2.5-1.6c0 0-1.2-.4-.6 1.9zm.2 4.2.2 2.9-1.2-.1c-.2-.5-.2-2.6-.4-2.7zm2.1-.1s1.1.3 2.3.1c0 0-.1 2.1-.6 3.1l-1.8-.2z" fill="#ba0000"/></svg>