<svg height="48" width="48" xmlns="http://www.w3.org/2000/svg" xmlns:xlink="http://www.w3.org/1999/xlink"><rect height="32" opacity=".2" rx="3" width="40" x="4" y="13"/><rect fill="#42a5f5" height="32" rx="3" width="40" x="4" y="12"/><path d="m34 7h-20v20h20zm-10-4.1-14.1 14.1 14.1 14.1 14.1-14.1z" opacity=".1"/><path d="m7 12s-3 0-3 3v1s0-3 3-3h34s3 0 3 3v-1s0-3-3-3z" fill="#fff" opacity=".2"/><path d="m24 6h-10v10z" fill="#fadd60"/><path d="m38.1 16-4.1-4.1v-5.9h-10l-7.1 2.9-7 7.1 4.1 4.1v5.9h5.9l4.1 4.1z" fill="#f9ce1d"/><path d="m31.1 8.9-7.1-7-7.1 7z" fill="#fadd60"/><circle cx="24" cy="16" fill="#fce68d" r="10"/><path d="m24 6c-5.5 0-10 4.5-10 10v .6c.2-5.4 4.6-9.6 10-9.6 5.3 0 9.8 4.2 10 9.6v-.6c0-5.5-4.5-10-10-10z" fill="#fff" opacity=".2"/><use opacity=".1" xlink:href="#a" y="1"/><g fill="#e6e6e6"><g id="a"><circle cx="24.5" cy="23.5" r="5.5"/><circle cx="30" cy="20.7" r="6.8"/><circle cx="36.2" cy="24.2" r="4.8"/><path d="m24.5 27h11.7v2h-11.7z"/></g></g><path d="m44 30v10h-40s16-10 40-10z" fill="#689f38"/><path d="m44 30v1c-24 0-40 10-40 10v-1s16-10 40-10z" fill="#fff" opacity=".2"/><path d="m4 30v11s0 3 3 3h34s3 0 3-3v-1s-16-10-40-10z" fill="#66bb6a"/><g fill="#fff" opacity=".2"><path d="m30 13.9c-4.8 0-6.3 4.2-6.3 4.2s-4.4.4-4.7 5.4v.6c.6-4.6 4.7-5 4.7-5s1.5-4.2 6.3-4.2c5.6 0 6.8 5.5 6.8 5.5s3.6.3 4.2 4.3v-.5c-.2-4.4-4.2-4.8-4.2-4.8s-1.2-5.5-6.8-5.5z"/><path d="m4 30v1c24 0 40 10 40 10v-1s-16-10-40-10z"/></g></svg>