<svg height="48" width="48" xmlns="http://www.w3.org/2000/svg" xmlns:xlink="http://www.w3.org/1999/xlink"><rect height="40" opacity=".2" rx="3" width="40" x="4" y="5"/><rect fill="#f9ce1d" height="40" rx="3" width="40" x="4" y="4"/><path d="m7 4s-3 0-3 3v1s0-3 3-3h34s3 0 3 3v-1s0-3-3-3z" fill="#fff" opacity=".2"/><use opacity=".2" xlink:href="#a" y="-1"/><g fill="#fff"><path id="a" d="m12.2 19c-2.1 0-3.4 1.5-3.4 3.2h2s-.1-1.6 1.4-1.6c1.3 0 1.2 1.3 1.2 1.3s.3.6-1.2 2.3l-3.2 3.3v1.4h6.7v-1.6h-4.2l2.2-2.3c1.8-1.9 1.7-3.2 1.7-3.2 0-2.1-1.6-2.8-3.2-2.8zm7.9 0s-3.3-.3-3.2 4.1v1.8c-.1 4.4 3.2 4.1 3.2 4.1s3.4.3 3.3-4.1v-1.8c.1-4.4-3.3-4.1-3.3-4.1zm15.8 0s-3.1-.1-3.1 2.7c0 1.5 1.3 2.2 1.3 2.2s-1.5.5-1.5 2.3c.1 2.9 3.3 2.8 3.3 2.8s3.2.1 3.3-2.8c0-1.8-1.6-2.3-1.6-2.3s1.4-.7 1.4-2.2c0-2.8-3.1-2.7-3.1-2.7zm-7.4.1-4 6.4v1.3h4v2.1h2v-2.1h1.1v-1.6h-1.1v-6.1zm7.4 1.5s1.1 0 1.1 1.2c0 1.3-1.1 1.3-1.1 1.3s-1.2 0-1.2-1.3c0-1.2 1.2-1.2 1.2-1.2zm-15.8 0c1.6 0 1.4 2.2 1.4 2.2v2.4s.2 2.2-1.4 2.2c-1.5 0-1.3-2.2-1.3-2.2v-2.4s-.2-2.2 1.3-2.2zm8.4 1.2v3.4h-2.1zm7.4 2.9s1.3 0 1.3 1.4c0 1.3-1.3 1.3-1.3 1.3s-1.4 0-1.4-1.3c0-1.4 1.4-1.4 1.4-1.4z"/></g></svg>