<svg height="48" width="48" xmlns="http://www.w3.org/2000/svg" xmlns:xlink="http://www.w3.org/1999/xlink"><use opacity=".2" stroke="#000" xlink:href="#a" y="1"/><g stroke="#c4c4c4"><g id="a" fill="none"><path d="m9 9h30v30h-30z" stroke-width="4"/><path d="m17 31-8 8m22-8 8 8m-8-22 8-8m-22 8-8-8m8 8h14v14h-14z" stroke-width="2"/></g></g><path d="m7 7v1h34v-1zm4.4 4 6 6h13.2l6-6h-1l-5 5h-13.2l-5-5zm20 20 5.6 5.6v-1l-5.6-5.6h-14.8l-5.6 5.6v1l5.6-5.6zm-19 6-1 1h25.2l-1-1z" fill="#fff" opacity=".2"/><use opacity=".2" xlink:href="#b" y="1"/><g fill="#d8d8d8"><g id="b"><circle cx="9" cy="9" r="5"/><circle cx="39" cy="9" r="5"/><circle cx="9" cy="39" r="5"/><circle cx="39" cy="39" r="5"/><circle cx="17" cy="17" r="3"/><circle cx="31" cy="17" r="3"/><circle cx="17" cy="31" r="3"/><circle cx="31" cy="31" r="3"/></g></g><g fill="#fff" opacity=".2"><path id="c" d="m9 4c-2.8 0-5 2.2-5 5v .5c.2-2.5 2.4-4.5 5-4.5s4.8 2 5 4.5v-.5c0-2.8-2.2-5-5-5z"/><use x="30" xlink:href="#c"/><use xlink:href="#c" y="30"/><use x="30" xlink:href="#c" y="30"/><path id="d" d="m17 14c-1.7 0-3 1.3-3 3v .5c.3-1.4 1.5-2.5 3-2.5s2.7 1.1 3 2.5v-.5c0-1.7-1.3-3-3-3z"/><use x="14" xlink:href="#d"/><use xlink:href="#d" y="14"/><use x="14" xlink:href="#d" y="14"/></g></svg>