<svg viewBox="0 0 48 48"><g opacity=".2"><rect height="32" rx="1.6" width="28" x="14" y="5"/><rect height="32" rx="1.6" width="28" x="6" y="13"/></g><rect fill="#d8d8d8" height="32" rx="1.6" width="28" x="14" y="4"/><rect fill="#ebebeb" height="32" rx="1.6" width="28" x="6" y="12"/><path d="m15.6 4s-1.6 0-1.6 1.6v1s0-1.6 1.6-1.6h24.8s1.6 0 1.6 1.6v-1s0-1.6-1.6-1.6zm-8 8s-1.6 0-1.6 1.6v1s0-1.6 1.6-1.6h24.8s1.6 0 1.6 1.6v-1s0-1.6-1.6-1.6z" fill="#fff" opacity=".4"/><path d="m12 20v2h10v-2zm0 4v2h16v-2zm0 4v2h16v-2zm0 4v2h16v-2z" opacity=".2"/></svg>