<svg viewBox="0 0 48 48"><use opacity=".2" xlink:href="#a" y="1"/><g fill="#5e5e5e"><g id="a"><circle cx="24" cy="24" r="20"/><rect height="32" rx="2" width="32" x="8" y="8"/></g></g><g id="b"><circle cx="11" cy="12" opacity=".2" r="1"/><circle cx="11" cy="11" fill="#fff" r="1"/></g><use x="26" xlink:href="#b"/><use xlink:href="#b" y="26"/><use x="26" xlink:href="#b" y="26"/><circle cx="24" cy="23" fill="#fff" opacity=".1" r="15"/><circle cx="24" cy="25" opacity=".2" r="15"/><circle cx="24" cy="24" fill="#fec006" r="14" stroke="#3f3f3f" stroke-width="2"/><circle cx="24" cy="25" opacity=".2" r="6"/><circle cx="24" cy="24" fill="#3f3f3f" r="6"/><circle cx="24" cy="22" fill="#fff" opacity=".2" r="4"/><path d="m24 4c-7.3 0-12 4-12 4h-2s-2 0-2 2v1s0-2 2-2h2s4.8-4 12-4 12 4 12 4h2s2 0 2 2v-1s0-2-2-2h-2s-4.7-4-12-4zm-16 8s-4 4.7-4 12v .5c0-6.6 4-11.5 4-11.5zm32 1s4 4.9 4 11.5v-.5c0-7.3-4-12-4-12z" fill="#fff" opacity=".1"/></svg>