<svg viewBox="0 0 48 48"><circle cx="24" cy="25" opacity=".2" r="22"/><circle cx="24" cy="24" fill="#ececec" r="22"/><path d="m24 2c-12.2 0-22 9.9-22 22v .6c.3-11.9 10-21.6 22-21.6s21.7 9.7 22 21.6v-.6c0-12.1-9.8-22-22-22z" fill="#fff" opacity=".2"/><g stroke-linejoin="round" stroke-width="2"><path d="m17 14.5 19.2 10.5-19.2 10.5z" fill="#fff" opacity=".5" stroke="#fff"/><path d="m17 13.5 19.2 10.5-19.2 10.5z" fill="#4caf50" stroke="#4caf50"/></g><path d="m17 12.5s-1 0-1 1v1s0-1 1-1c0 0 .3 0 .6.2l19.1 10.4s.4.2.4.4c0 0 .4-.7-.3-1.3l-19.2-10.5s-.3-.2-.6-.2z" opacity=".2"/></svg>