<svg viewBox="0 0 48 48"><linearGradient id="a"><stop offset="0"/><stop offset="1" stop-opacity="0"/></linearGradient><linearGradient id="b" gradientUnits="userSpaceOnUse" x1="12" x2="18" xlink:href="#a" y1="26" y2="19"/><linearGradient id="c" gradientUnits="userSpaceOnUse" x1="27" x2="41" xlink:href="#a" y1="15" y2="20"/><linearGradient id="d" gradientUnits="userSpaceOnUse" x1="32" x2="24" xlink:href="#a" y1="30" y2="34"/><circle cx="24" cy="25" opacity=".2" r="20"/><circle cx="24" cy="24" fill="#dd4d3e" r="20"/><path d="m7.3 13s-3.3 4.4-3.3 11c0 11.1 8.9 20 20 20l9.2-15.5h-17z" fill="#109f5b"/><path d="m24 15 7.8 13.5-9 15.5h1.2c11.2 0 20-8.8 20-20 0-5.3-2.1-9-2.1-9z" fill="#ffce41"/><g opacity=".2"><path d="m16.2 28.5 7.8-4.5-16.7-11z" fill="url(#b)"/><path d="m31.8 28.5-7.8-4.5-1.2 20z" fill="url(#d)"/></g><g opacity=".1"><path d="m24 15v9l17.9-9z" fill="url(#c)"/><path d="m24 4c-10.9 0-19.8 8.8-20 19.5.6-10.6 9.3-19 20-19s19.4 8.4 20 19c-.2-10.7-9.1-19.5-20-19.5z" fill="#fff"/></g><circle cx="24" cy="24" fill="#4587f3" r="8.2" stroke="#fff" stroke-width="1.6"/></svg>