<svg height="48" width="48" xmlns="http://www.w3.org/2000/svg"><rect height="36" opacity=".1" rx="2" width="40" x="4" y="7"/><rect fill="#558b2f" height="36" rx="2" width="40" x="4" y="6"/><rect fill="#aed581" height="28" rx="1" width="34" x="7" y="11"/><path d="m6 6s-2 0-2 2v4h40v-4s0-2-2-2z" fill="#4d4d4d"/><path d="m12.1 28.5v.5s-1.3.2-1.3 1.3 1.3 1.4 1.3 1.4v1.5c-.4 0-.9-.7-.9-.7l-.5.8s.8.7 1.4.7v.5h.8v-.5s1.4-.2 1.4-1.5c0-1.1-1.4-1.4-1.4-1.4v-1.3c.4 0 .7.6.7.6l.6-.6s-.7-.8-1.3-.8v-.5zm0 1.3v1s-.4-.1-.4-.5.4-.5.4-.5zm.8 2.2s.5.1.5.6-.5.6-.5.6zm3.1 2v1h4v-1z" fill="#f1f8e9"/></svg>