<svg height="48" width="48" xmlns="http://www.w3.org/2000/svg" xmlns:xlink="http://www.w3.org/1999/xlink"><g stroke-linejoin="round" stroke-width="8"><path d="m24 7-18 18 18 18 18-18z" opacity=".2" stroke="#000"/><path d="m24 6-18 18 18 18 18-18z" fill="#4caf50" stroke="#4caf50"/></g><path d="m24 2c-1.8 0-2.8 1.2-2.8 1.2l-18 18s-1.5 1.4-1.2 3.3c.1-1.2 1.2-2.3 1.2-2.3l18-18s1.1-1.2 2.8-1.2 2.8 1.2 2.8 1.2l18 18s1.1 1.1 1.2 2.3c.3-1.9-1.2-3.3-1.2-3.3l-18-18s-1-1.2-2.8-1.2z" fill="#fff" opacity=".2"/><use opacity=".2" xlink:href="#a" y="1"/><g fill="#f2f2f2"><path id="a" d="m8 8s-1 0-1 1v4s0 1 1 1h1v24s0 2 2 2h3l25.6-26h .4s1 0 1-1v-4s0-1-1-1h-12s-1 0-1 1v4s0 1 1 1h1l-10 10v-10h1s1 0 1-1v-4s0-1-1-1z"/></g></svg>