<svg height="48" width="48" xmlns="http://www.w3.org/2000/svg"><rect height="40" opacity=".2" rx="2" width="32" x="8" y="5"/><rect fill="#435ece" height="40" rx="2" width="32" x="8" y="4"/><path d="m38 4v40s2 0 2-2v-36s0-2-2-2z" fill="#435ece"/><path d="m36 46h1s2 0 2-2v-40s0-2-2-2h-1z" opacity=".1"/><path d="m10 4s-2 0-2 2v1s0-2 2-2h28s2 0 2 2v-1s0-2-2-2z" fill="#fff" opacity=".2"/><path d="m24 4v40l12 2s2 0 2-2v-40c0-2-2-2-2-2z" fill="#5c77e7"/><path d="m36 2-12 2v1l12-2s2 0 2 2v-1c0-2-2-2-2-2z" fill="#fff" opacity=".2"/><path d="m24 10v4c1.9-.3 3 1.9 3 4.1 0 1.1-.3 2.3-.9 3l-1.9 2.3c-.1.1-.2.2-.3.4v6.3l1.5.3c0-3 .7-4.2 1.8-5.7l1.3-1.8c.9-1.1 1.4-2.9 1.4-4.7 0-4.4-2.5-8.8-6-8.1zm0 24v4l1.5.6v-4.3z" fill="#fff" opacity=".7"/><path d="m24.3 10c-4.4 0-8.2 3.6-8.2 8h4c0-2.2 2-4 4.2-4zm-.3 13.7c-1.2 1.4-2 3.3-2 5.3v1h2.2zm-2 10.3v4h2.2v-4z" fill="#d9dff5"/></svg>