<svg viewBox="0 0 48 48"><use opacity=".2" xlink:href="#a" y="1"/><g fill="#ff7b00"><path id="a" d="m14.2 7s-1.8 0-2.7 1.5l-8.3 14s-.8 1.5 0 3l8.3 14s .9 1.5 2.7 1.5h19.6s1.6 0 2.7-1.5l8.3-14s .8-1.5 0-3l-8.3-14s-.9-1.5-2.7-1.5z"/></g><g fill="#fff"><path d="m20.1 12s-1.8.2-1 1.9l3.9 5.5s1 1.1 2 0l3.9-5.5s.8-1.7-1-1.9zm-6.7 3.2-4.9 8.2s-.4.6 0 1.2l4.9 8.2s.9 1.2 1.9 0l5.9-8.2s.4-.6 0-1.2l-5.9-8.2s-.9-1.2-1.9 0zm19.3 0-5.9 8.2s-.4.6 0 1.2l5.9 8.2s.9 1.2 1.9 0l4.9-8.2s.4-.6 0-1.2l-4.9-8.2s-1-1.2-1.9 0zm-9.7 13.4-3.9 5.5s-.8 1.7 1 1.9h7.8s1.8-.2 1-1.9l-3.9-5.5s-1-1.1-2 0z"/><path d="m14.2 7c-1.8 0-2.7 1.5-2.7 1.5l-8.3 14s-.5 1-.3 2c0-.5.3-1 .3-1l8.3-14s .9-1.5 2.7-1.5h19.6c1.8 0 2.7 1.5 2.7 1.5l8.3 14s .3.5.3 1c .2-1-.3-2-.3-2l-8.3-14s-.9-1.5-2.7-1.5z" opacity=".2"/></g></svg>