<svg height="48" width="48" xmlns="http://www.w3.org/2000/svg" xmlns:xlink="http://www.w3.org/1999/xlink"><rect height="40" opacity=".2" rx="2" width="32" x="8" y="5"/><rect fill="#ebebeb" height="40" rx="2" width="32" x="8" y="4"/><path d="m10 4s-2 0-2 2v1s0-2 2-2h28s2 0 2 2v-1s0-2-2-2z" fill="#fff" opacity=".1"/><g fill="#999"><path id="a" d="m15 7c-2 0-2 2-2 2v3s0 2 2 2 2-2 2-2v-3s0-2-2-2zm0 1c1 0 1 1 1 1v3s0 1-1 1-1-1-1-1v-3s0-1 1-1z"/><path id="b" d="m20.5 7-.5 1h1v6h1v-7z"/><use x="12" xlink:href="#a"/><use x="18" xlink:href="#a"/><use xlink:href="#a" y="9"/><use xlink:href="#b" y="9"/><use x="6" xlink:href="#b" y="9"/><use x="18" xlink:href="#a" y="9"/><use x="-6" xlink:href="#b" y="18"/><use xlink:href="#b" y="18"/><use xlink:href="#a" y="27"/><use x="6" xlink:href="#a" y="27"/></g><circle cx="32" cy="35" opacity=".2" r="12"/><circle cx="32" cy="34" fill="#00bcd4" r="12"/><path d="m26 37.3v2.7h2.7l6.7-6.8-2.6-2.6zm11.8-6.4s.5-.5 0-1l-1.7-1.7s-.5-.5-1 0l-1.4 1.4 2.7 2.7z" fill="#fff"/></svg>