<svg viewBox="0 0 48 48"><g opacity=".2"><path d="m8 44h32v1h-32z"/><rect height="36" rx="2" width="40" x="4" y="5"/></g><rect fill="#4bae4f" height="36" rx="2" width="40" x="4" y="4"/><g opacity=".2"><path d="m6 4s-2 0-2 2v1s0-2 2-2h36s2 0 2 2v-1s0-2-2-2z" fill="#fff"/><path d="m6 40c-2 0-2-2-2-2v-1c0 2 2 2 2 2h2v1z"/></g><path d="m8 39h32v5h-32z" fill="#feea3a"/><rect fill="#3f3f3f" height="22" rx="1.5" width="32" x="8" y="8"/><g opacity=".2"><path d="m8 27.5v1s0 1.5 1.5 1.5h17v-1h-17s-1.5 0-1.5-1.5z"/><circle cx="36" cy="36" r="12"/></g><circle cx="36" cy="35" fill="#2196f3" r="12"/><path d="m37 40v-6h-2v6zm0-8v-2h-2v2z" fill="#fff"/></svg>