<svg height="48" width="48" xmlns="http://www.w3.org/2000/svg"><rect height="40" opacity=".2" rx="2" width="40" x="4" y="5"/><rect fill="#2095f2" height="40" rx="2" width="40" x="4" y="4"/><g fill="#fff"><path d="m6 4s-2 0-2 2v1s0-2 2-2h36s2 0 2 2v-1s0-2-2-2z" opacity=".1"/><path d="m20.3 21.1.3 2.1-3.4 1.9v9.2c.2 4-2.7 3.4-5.7 2.9l-.4-2.5c2.5.4 4 1.3 3.7-1v-7.4l-4 1.7-.8-2.5 4.8-1.9v-6h-3.9v-2.3h3.9v-4.9h2.4v4.9h3.3v2.3h-3.3v5zm11.8-10.7 2.6.7c-1.3 2.5-2.6 4.6-2.6 4.6h5v2.2h-3.4v6.4h4.3v2.2h-4.3v11h-2.4l.1-11h-5.2c-.8 8.3-5.7 11.1-5.7 11.1l-1.6-1.7c4.5-3.4 4.8-9.4 4.8-9.4h-3.7v-2.2h3.9l.2-1.7v-4.7h-3.1v-2.2h8.6c1.5-2.6 2.5-5.3 2.5-5.3zm-.7 7.5h-5v4.7l-.1 1.7h5.1zm-6.4-7.2c1.6 1.8 2.1 3.7 2.1 3.7l-2.4.8c-.8-2.4-2.1-3.8-2.1-3.8z"/></g></svg>