<svg height="48" width="48" xmlns="http://www.w3.org/2000/svg" xmlns:xlink="http://www.w3.org/1999/xlink"><g opacity=".2"><use xlink:href="#a" y="1"/><use xlink:href="#b" y="1"/></g><g fill="#fff"><path id="a" d="m24 6 4 18-4 19c-4 0-5.8-2.9-8-4s-5.2-3.8-7-7c-1.3-2.3-2-7-2-7-2.6-3.4-5-6-5-10 0-3.9 3.1-7 7-7 2.8 0 4.4 1.6 4.4 1.6s3.6-3.6 10.6-3.6z"/></g><g fill="#f3f9ff"><path id="b" d="m24 6c7 0 10.6 3.6 10.6 3.6s1.6-1.6 4.4-1.6c3.9 0 7 3.1 7 7 0 4-2.3 7.1-5 10 0 0-.6 4.6-2 7-1.8 3.3-4.8 6-7 7-2.3 1.1-4 4-8 4z"/></g><g opacity=".5"><path d="m8.9 10s-1.3 0-2.4.7c-2.4 1.4-3.2 4.4-1.8 6.8.7 1.4 2.3 2.1 2.3 2.1v-2.4s-.3-.2-.6-.7c-.8-1.4-.3-3.3 1.1-4.1s2.4-.2 2.4-.2l2.1-1.2s-1.2-1-3.1-1zm30.2 0c-1.9 0-3.1 1-3.1 1l2.1 1.2s1-.6 2.4.2 1.9 2.6 1.1 4.1c-.6 1.1-1.6 1.3-1.6 1.3v2.1s2.2-.4 3.3-2.4c1.4-2.4.6-5.4-1.8-6.8-1-.7-2.4-.7-2.4-.7z" fill="#73a0d0"/><path d="m14 20v6h6c0-3.3-2.7-6-6-6zm20 0c-3.3 0-6 2.7-6 6h6z" fill="#729fcf"/></g><circle cx="15" cy="24" r="3"/><circle cx="33" cy="24" r="3"/><g fill="#fff"><circle cx="15" cy="23" r="1"/><circle cx="33" cy="23" r="1"/></g><path d="m39 28c-.5 4-3.7 7.6-7 9.6v-2.4c2.3-1.5 4.8-4.9 5-7.2zm-28 0c .8 3.3 2.7 5.7 5.1 7.3v2.4c-3.4-2.1-6.6-5.7-7.1-9.7z" fill="#73a0d0" opacity=".3"/><path d="m24 41c-1 0-4.2-1.6-4-3 .2-1.5 2.5-2 4-2s3.8.5 4 2c .2 1.4-3 3-4 3z" fill="#4d4d4d"/><g fill="#fff"><path d="m24 36c-1.5 0-3.8.5-4 2 0 .6.3.9.3.9s.9-1.4 3.7-1.4 3.7 1.4 3.7 1.4.3-.3.3-.9c-.2-1.5-2.5-2-4-2z" opacity=".1"/><path d="m24 6s-7 0-10.6 3.6c-1.2-1-2.8-1.6-4.4-1.6-3.9 0-7 3.1-7 7v .6c.2-3.7 3.3-6.6 7-6.6 1.6 0 3.2.6 4.4 1.6 3.6-3.6 10.6-3.6 10.6-3.6s7 0 10.6 3.6c1.2-1 2.8-1.6 4.4-1.6 3.7 0 6.8 2.9 7 6.6 0-.2 0-.4 0-.6 0-3.9-3.1-7-7-7-1.6 0-3.2.6-4.4 1.6-3.6-3.6-10.6-3.6-10.6-3.6z"/></g></svg>