<svg height="48" width="48" xmlns="http://www.w3.org/2000/svg" xmlns:xlink="http://www.w3.org/1999/xlink"><use opacity=".2" xlink:href="#a" y="1"/><g fill="#666"><path id="a" d="m24 3c-1.2 0-2.4.4-3.3 1.4l-16.4 16.9c-.9.9-1.4 2.2-1.4 3.4 0 3.6 9.7.2 10.5 4.6.5 2.4-5.3 1.3-5.3 3.7 0 2.8 8.1.9 10.5 3.2 1 2.3-3.1 2-2.4 4.1 1.4 1.4 4.4.6 5 2.9.7 2.6 5.1 2.1 7.7.2 1.4-1.4-2.1-2.1-.7-3.5s8.1-1.1 8.1-4.2c-.6-1.9-3.2-2.2-3.2-4.5-.1-1.9 2.1-1.4 9.1-3.3 2.8-1.3 2.9-2.1 2.9-3.3s-.6-2.4-1.5-3.4l-16.3-16.9c-.9-1-2.1-1.3-3.3-1.3zm19.1 28.9-.9.1c-.4.1-2.6.2-2.4 1.8 1.9.8 4.8 1.4 5.2-.2.3-1.2-.9-1.7-1.9-1.7zm-33.2 5.6c-1.5.6-2.4 1.7-1.1 2.2 1.4.5 2.3 0 3.5-.7 1.2-.6 1.2-.7 1.1-1-.2 0-1.2-.6-2.4-.7z"/></g><use opacity=".2" xlink:href="#b" y="1"/><g fill="#fff"><path id="b" d="m24.3 7.6c1.2 0 7.7 7.3 7.7 7.3.9 1.1-.3 2.3-.3 2.3l-6.3-3.5-2.8 3.8-2.5-3.7-1.5 5.8-4.4-2.6 1.2-1.5 6.8-7c .5-.5.9-.9 2.1-.9z"/><path d="m24 3c-1.2 0-2.4.5-3.3 1.4l-16.4 16.9c-.9.9-1.4 2.2-1.4 3.4 0 .2 0 .4.1.5.1-1 .6-2.1 1.3-2.9l16.4-16.9c.9-1 2.1-1.4 3.3-1.4s2.4.5 3.3 1.4l16.3 16.9c.8.9 1.4 2 1.4 3.2.1-.1.1-.9.1-.9 0-1.2-.6-2.4-1.5-3.4l-16.3-16.9c-.9-1-2.1-1.3-3.3-1.3zm-10.6 27c-1.2 1.6-5.3.9-5.3 3l .1.5c.8-1.8 5.7-1.1 5.3-3.3 0 0-.1-.2-.1-.3zm19.7 1.7v.5c0 2.1 2.3 2.4 3.1 4.1l.1-.6c-.6-1.8-2.8-2.1-3.2-4zm9.1.3c-.4.1-2.6.2-2.4 1.8l.2.1c.5-.7 1.8-.8 2.2-.9l.9-.1c.7 0 1.6.3 1.8.9 0-.1 0-.1.1-.2.3-1.2-.9-1.7-1.9-1.7zm-32.3 5.5c-1.3.5-2.2 1.4-1.5 2 .3-.4.8-.8 1.5-1l1.1-.2c.7.1 1.3.3 1.7.5.7-.4.8-.5.7-.8-.2 0-1.2-.6-2.4-.7zm8.8-.2c-.5 1.2-3.1 1.3-2.5 3 .5-1.1 3.1-1.2 2.5-3zm9.3 3.8c-.6.9.5 1.4 1 2.1.7-.7-.4-1.4-1-2.1z" opacity=".2"/></g></svg>