<svg height="48" width="48" xmlns="http://www.w3.org/2000/svg"><rect height="40" opacity=".2" rx="3" width="40" x="4" y="5"/><rect fill="#1e88e5" height="40" rx="3" width="40" x="4" y="4"/><path d="m13.5 26.5c0-8.8 7.2-16 16-16m-4 16c0-2.2 1.8-4 4-4m-10 4c0-5.5 4.5-10 10-10" fill="none" stroke="#fff" stroke-linecap="square" stroke-width="3"/><g fill="#fff"><path d="m7 4s-3 0-3 3v1s0-3 3-3h34s3 0 3 3v-1s0-3-3-3z" opacity=".2"/><rect height="8" rx="1" width="4" x="29" y="32"/><circle cx="31" cy="28" r="2"/></g></svg>