<svg viewBox="0 0 48 48"><g opacity=".2"><use stroke="#000" xlink:href="#a" y="1"/><use xlink:href="#b" y="1"/></g><g stroke="#3f51b5"><path id="a" d="m10.5 8.5h15v18c0 8.5-6 13.5-15 13m27-31v31" fill="none" stroke-linecap="round" stroke-width="9"/></g><g fill="#ff9800"><circle id="b" cx="11.5" cy="23.5" r="5.5"/></g><path d="m37.4 3.9c-4.4 0-4.4 4.6-4.4 4.6v1s0-4.6 4.4-4.6c4.6.1 4.6 4.6 4.6 4.6v-1s0-4.5-4.6-4.6zm-26.9.1s-4.5 0-4.5 5c0-4 4.5-4 4.5-4h19.5v-1zm1 14c-5.5 0-5.5 5.5-5.5 5.5v.5s0-5 5.5-5 5.5 5 5.5 5v-.5s0-5.5-5.5-5.5zm9.5 8.5c0 6.5-4 8.5-10.4 8.5 0 0-4.6 0-4.6 5 0-4 4.6-4 4.6-4 6.4 0 10.4-2 10.4-8.5z" fill="#fff" opacity=".2"/></svg>