<svg height="48" width="48" xmlns="http://www.w3.org/2000/svg"><rect height="5" opacity=".2" rx="2" width="40" x="4" y="40"/><path d="m24 2-19.1 14.3s-.9.7-.9 1.7v3h40v-3c0-1-.9-1.7-.9-1.7z" fill="#f5a816"/><rect fill="#ececec" height="26" rx="2" width="32" x="8" y="6"/><path d="m4 18 38 26h-36c-2 0-2-2-2-2z" fill="#f6be1a"/><path d="m42 44s2 0 2-2v-24l-38 26z" fill="#f9ce1d"/><path d="m24 2-5.3 4h-8.7s-2 0-2 2v1s0-2 2-2h28s2 0 2 2v-1s0-2-2-2h-8.7zm0 1 4 3h-8zm-16 11-3.1 2.3s-.9.7-.9 1.7v1l19.3 13.2-17.3 11.8h1.5l36.5-25v-1c0-1-.9-1.7-.9-1.7l-3.1-2.3v1l3.1 2.3s.5.4.6.9l-19.7 13.5-19.7-13.5c.1-.5.6-.9.6-.9l3.1-2.3z" fill="#fff" opacity=".1"/><path d="m29 25h-5c-3.9 0-7-3.1-7-7s3.1-7 7-7 7 3.1 7 7v1c0 1.1-.9 2-2 2s-2-.9-2-2v-1c0-1.7-1.3-3-3-3s-3 1.3-3 3 1.3 3 3 3 3-1.3 3-3" fill="none" stroke="#848484" stroke-linecap="round" stroke-width="2"/></svg>