<svg height="48" width="48" xmlns="http://www.w3.org/2000/svg"><circle cx="24" cy="25" opacity=".2" r="20"/><circle cx="24" cy="24" fill="#6573c3" r="20"/><path d="m38.1 9.8-28.3 28.3c7.8 7.8 20.4 7.8 28.3 0 7.8-7.8 7.8-20.4 0-28.3z" opacity=".1"/><path d="m9.8 38.1 12.4-15.9 3.6 3.6z" fill="#f2f2f2"/><path d="m38.1 9.8-28.3 28.3c-7.8-7.8-7.8-20.4 0-28.3 7.8-7.8 20.4-7.8 28.3 0z" fill="#fff" opacity=".2"/><path d="m38.1 9.8-15.9 12.4 3.6 3.6z" fill="#f34235"/><path d="m24 4c-11 0-20 9-20 20v .5c0-10.5 9-19.5 20-19.5s20 9 20 19.5v-.5c0-11-9-20-20-20z" fill="#fff" opacity=".2"/></svg>