<svg height="48" width="48" xmlns="http://www.w3.org/2000/svg" xmlns:xlink="http://www.w3.org/1999/xlink"><g opacity=".2"><use xlink:href="#a" y="1"/><use xlink:href="#b" y="1"/></g><g fill="#3f51b5"><g id="a"><rect height="24" rx="2" width="32" x="12" y="4"/><path d="m44 32-4-4 4-2z"/></g></g><g fill="#2196f3"><g id="b"><rect height="24" rx="2" width="32" x="4" y="16"/><path d="m4 44 4-4-4-2z"/></g></g><g fill="#fff"><path d="m14 4s-2 0-2 2v1s0-2 2-2h28s2 0 2 2v-1s0-2-2-2zm-8 12s-2 0-2 2v1s0-2 2-2h28s2 0 2 2v-1s0-2-2-2z" opacity=".2"/><path d="m9 22v2h22v-2zm0 4v2h22v-2zm0 4v2h12v-2z" opacity=".6"/></g></svg>