<svg height="48" width="48" xmlns="http://www.w3.org/2000/svg" xmlns:xlink="http://www.w3.org/1999/xlink"><g opacity=".2"><use xlink:href="#a" y="1"/><use xlink:href="#b" y="1"/></g><g fill="#8bc34a"><g id="a"><rect height="24" rx="2" width="24" x="16" y="6"/><path d="m44 6-4 4-2-4z"/></g></g><g fill="#4caf50"><g id="b"><rect height="24" rx="2" width="24" x="8" y="18"/><path d="m4 18 4 4 2-4z"/></g></g><path d="m18 6s-2 0-2 2v1s0-2 2-2h25l1-1zm-14 12 1 1h25s2 0 2 2v-1s0-2-2-2z" fill="#fff" opacity=".1"/><path d="m17 22v16m6 0v-16m4 5h-14m0 6h14" fill="none" stroke="#fff" stroke-width="2"/></svg>