<svg height="48" width="48" xmlns="http://www.w3.org/2000/svg" xmlns:xlink="http://www.w3.org/1999/xlink"><rect height="40" opacity=".2" rx="3" width="40" x="4" y="5"/><rect fill="#dd4f37" height="40" rx="3" width="40" x="4" y="4"/><g opacity=".2"><path d="m7 4s-3 0-3 3v1s0-3 3-3h34s3 0 3 3v-1s0-3-3-3z" fill="#fff"/><use height="100%" width="100%" xlink:href="#a" y="-1"/></g><g fill="#fff"><path id="a" d="m27 9c1.3 5-4.5 6.5-6.5 9.5-1.4 2.1.7 4.4 3.5 6.9-1-2.4-4.9-4.7 0-8.5 6.1-4.7 3-7.9 3-7.9zm3.8 6.1s-10.3 2.6-5.4 8.2c1.4 1.7-.4 3.2-.4 3.2s3.7-1.9 2-4.3c-1.6-2.1-2.8-3.3 3.8-7.1zm.2 10.7c1.4-.6 2.8.2 2.8 1.6 0 0 .2 1.7-3.5 3.7 8.6-2.5 3.5-7.6.7-5.3zm-15.1.8c-3.1 1.6 8.3 2.2 13.2.7.6-.4 1.3-.7 1.3-.7s-2.2.4-4.5.6c-2.6.2-5.7.3-7.2.1-3.6-.5 1.9-1.8 1.9-1.8-1.7 0-3.4.5-4.7 1.1zm3.4 2.3c-5 1.7 3 3.6 10 1.5-.7-.2-1.3-.7-1.3-.7-3.5.7-5.3.6-7.9.4-2-.2-.8-1.2-.8-1.2zm.8 3.3c-4.7 1.3 2.8 4 8.6 1.4-1-.4-1.6-.8-1.6-.8-2.6.5-3.8.6-6.2.3-2-.2-.8-.9-.8-.9zm-5.7 4.7c12.1 2 21.8-.9 18.8-2.3 0 0 .8.7-1 1.3-3.3 1-14.1 1.3-17.1 0-1.1-.5 1.4-1.3 2.6-1.4-1.3-.7-7.6 1.7-3.3 2.4zm20.7-.7s-.5.9-4.5 1.7c-4.6.9-10.2.7-13.7.2 0 0 .8.6 4.3.8 5.4.4 13.6-.2 13.9-2.7z"/></g></svg>