<svg viewBox="0 0 48 48"><g opacity=".2"><path d="m8 44h32v1h-32z"/><rect height="36" rx="2" width="40" x="4" y="5"/></g><rect fill="#4bae4f" height="36" rx="2" width="40" x="4" y="4"/><g opacity=".2"><path d="m6 4s-2 0-2 2v1s0-2 2-2h36s2 0 2 2v-1s0-2-2-2z" fill="#fff"/><path d="m6 40c-2 0-2-2-2-2v-1c0 2 2 2 2 2h36c2 0 2-2 2-2v1c0 2-2 2-2 2z"/></g><path d="m8 39h32v5h-32z" fill="#feea3a"/><rect fill="#3f3f3f" height="22" rx="1.5" width="32" x="8" y="8"/><path d="m8 27.5v1s0 1.5 1.5 1.5h29s1.5 0 1.5-1.5v-1s0 1.5-1.5 1.5h-29s-1.5 0-1.5-1.5z" opacity=".2"/></svg>