<svg viewBox="0 0 48 48"><g stroke-linejoin="round" stroke-width="8"><path d="m24 7-18 18 18 18 18-18z" opacity=".2" stroke="#000"/><path d="m24 6-18 18 18 18 18-18z" fill="#12b2e7" stroke="#12b2e7"/></g><g fill="#fff"><path d="m24 2c-1.7 0-2.8 1.2-2.8 1.2l-18 18s-1.4 1.2-1.2 3.3c.1-1.2 1.2-2.3 1.2-2.3l18-18s1.1-1.2 2.8-1.2 2.8 1.2 2.8 1.2l18 18s1.1 1.2 1.2 2.3c.2-2.1-1.2-3.3-1.2-3.3l-18-18s-1.1-1.2-2.8-1.2z" opacity=".2"/><path d="m10 14.4 6-6v6.6h-6z"/></g><path d="m13 14.4v19.3m11-9.7 11.8 11.8m0-23.6-23.6 23.6" fill="none" stroke="#fff" stroke-width="6"/></svg>