<svg height="48" width="48" xmlns="http://www.w3.org/2000/svg"><rect height="40" opacity=".2" rx="2" width="36" x="6" y="5"/><rect fill="#f9ce1d" height="40" rx="2" width="36" x="6" y="4"/><rect fill="#f5f5f5" height="34" rx="1" width="30" x="9" y="7"/><path d="m26.8 7h4.1l8.1 8.6v4.4z" fill="#f9ce1d"/><path d="m8 4s-2 0-2 2v1s0-2 2-2h32s2 0 2 2v-1s0-2-2-2z" fill="#fff" opacity=".2"/><path d="m12 29s14-.3 14 4c0 1-1 2.4-5 2.4-3 0-5-1.4-5-5.4s1-6.2 3-6.2c4 0 7.7 5.7 11 5.7 4 0-.8-8.3 2.2-8.3 2 0 3.4 2.4 3.4 2.4" fill="none" stroke="#ccc" stroke-width="2"/></svg>