<svg viewBox="0 0 48 48"><rect height="40" opacity=".2" rx="2" width="36" x="6" y="5"/><rect fill="#009688" height="40" rx="2" width="36" x="6" y="4"/><rect fill="#f5f5f5" height="34" rx="1" width="30" x="9" y="7"/><path d="m26.8 7h4.1l8.1 8.6v4.4z" fill="#009688"/><path d="m8 4s-2 0-2 2v1s0-2 2-2h32s2 0 2 2v-1s0-2-2-2z" fill="#fff" opacity=".2"/><path d="m18 25c-.6 0-1 .4-1 1s .4 1 1 1 1-.4 1-1-.4-1-1-1zm8.5.6-1.4 1.4 3 3-3 3 1.4 1.4 3-3 3 3 1.4-1.4-3-3 3-3-1.4-1.4-3 3zm-12.5 3.4v2h8v-2zm4 4c-.6 0-1 .4-1 1s .4 1 1 1 1-.4 1-1-.4-1-1-1z" fill="#ccc"/></svg>