<svg height="48" width="48" xmlns="http://www.w3.org/2000/svg"><rect height="40" opacity=".2" rx="2" width="36" x="6" y="5"/><rect fill="#ff5722" height="40" rx="2" width="36" x="6" y="4"/><rect fill="#f5f5f5" height="34" rx="1" width="30" x="9" y="7"/><path d="m26.8 7h4.1l8.1 8.6v4.4z" fill="#ff5722"/><path d="m8 4s-2 0-2 2v1s0-2 2-2h32s2 0 2 2v-1s0-2-2-2z" fill="#fff" opacity=".2"/><path d="m18 22c-2.2 0-4 1.8-4 4s1.8 4 4 4 4-1.8 4-4h-4zm7 0v2h9v-2zm0 5v2h9v-2zm-11 5v2h16v-2z" fill="#ccc"/></svg>