<svg viewBox="0 0 48 48"><circle cx="24" cy="25" opacity=".2" r="20"/><circle cx="24" cy="24" fill="#dd4178" r="20"/><g fill="#fff"><path d="m24 4c-11 0-20 8.9-20 20v .5c.3-10.8 9.2-19.5 20-19.5s19.7 8.7 20 19.5v-.5c0-11.1-9-20-20-20z" opacity=".1"/><path d="m20.2 4.4s-5.5.6-10.3 5.4c0 0 .2 3.8 5.2 9.4l-1.2 6.2s-6.2-2.6-8.8-7.9c0 0-2.2 5.4-.4 11.7 0 0 4 1.6 10.7.1l4.8 4.1s-5.5 4.2-11.3 3.7c0 0 3.6 4.6 9.9 6.2 0 0 3.1-2.1 5.5-9.1l6-2.2s.8 6.7-2.5 11.6c0 0 5.4-.6 10.3-5.4 0 0-.2-3.6-5.1-9.4l1.1-6.2s6.2 2.6 8.8 7.9c0 0 2.2-5.4.4-11.7 0 0-4.1-1.6-10.7-.1l-4.8-4.1s5.4-4.2 11.3-3.7c0 0-3.4-4.5-9.9-6.2 0 0-3.1 2.1-5.5 9.1l-6 2.2s-.8-6.9 2.5-11.6z"/></g><circle cx="24" cy="25" opacity=".2" r="11"/><circle cx="24" cy="25" opacity=".05" r="12"/><circle cx="24" cy="24" fill="#fff" r="11"/><path d="m21 29v-10l9 5z" fill="#dd4178" stroke="#dd4178" stroke-linejoin="round" stroke-width="2"/></svg>