<svg height="48" width="48" xmlns="http://www.w3.org/2000/svg" xmlns:xlink="http://www.w3.org/1999/xlink"><g opacity=".2"><rect height="28" rx="1.6" width="28" x="16" y="5"/><rect height="28" rx="1.6" width="28" x="10" y="11"/><rect height="28" rx="1.6" width="28" x="4" y="17"/></g><rect fill="#fdd835" height="28" rx="1.6" width="28" x="16" y="4"/><use x="12" xlink:href="#a" y="-12"/><rect fill="#ef5350" height="28" rx="1.6" width="28" x="10" y="10"/><use x="6" xlink:href="#a" y="-6"/><rect fill="#f06292" height="28" rx="1.6" width="28" x="4" y="16"/><g id="a"><g fill="#fff"><path d="m5.6 16s-1.6 0-1.6 1.6v1s0-1.6 1.6-1.6h24.8s1.6 0 1.6 1.6v-1s0-1.6-1.6-1.6z" opacity=".2"/><circle cx="25" cy="24" opacity=".8" r="3"/></g><path d="m4 36v-1.1l2.5-2.3 4.1.8 3.7-.2 4.6.4 3.7.6 2 .1 3.4-1.3 4 1.9v1.1z" opacity=".5"/><path d="m4 36v1.1l2.5 2.3 4.1-.8 3.7.2 4.6-.4 3.7-.6 2-.1 3.4 1.3 4-1.9v-1.1z" opacity=".1"/></g></svg>