<svg viewBox="0 0 48 48"><use opacity=".2" xlink:href="#a" y="1"/><g fill="#ba121f"><path id="a" d="m24 2s-4.5 14-21 15.4c0 0 11.8 8.7 8.1 24.6 0 0 11.9-8.4 25.9.1 0 0-4.2-14.3 8-24.7 0 0-14.6-.1-21-15.4z"/></g><path d="m24 2s-4.5 14-21 15.4l1.1.9c15.7-1.8 19.9-15.3 19.9-15.3 5.4 13 16.7 15 20 15.3l1-.9s-14.6-.1-21-15.4zm12.3 34.4s0 4.2.4 5.5l.3.2c-.7-2.3-.7-5.7-.7-5.7zm-24.5.1s-.1 3.2-.7 5.5l.2-.2c.5-1.9.5-5.3.5-5.3z" fill="#fff" opacity=".2"/><use opacity=".2" xlink:href="#b" y="1"/><g fill="#e91627"><path id="b" d="m37.1 5.9s-12.2 8.6-26.1 0c0 0 4.3 14.3-8 24.7 0 0 14.7.2 21 15.4 0 0 4.4-13.8 21-15.4 0 0-11.6-8.2-7.9-24.7z"/></g><path d="m11 5.9.3 1.1c13.1 7.9 24.4.8 25.6 0l .2-1.1s-12.2 8.6-26.1 0zm25.4 6.7s-1 10.5 7.6 18.1l1-.1c-9.3-7.8-8.6-18-8.6-18zm-24.7.1s.5 10.2-8.7 17.9l1 .1c8.5-7.7 7.7-18 7.7-18z" fill="#fff" opacity=".2"/><use opacity=".2" xlink:href="#c" y="1"/><g fill="#ff9d93"><path id="c" d="m28.9 7.8s-6.9 9-18.9 6.2c0 0 6.5 9.2 0 19.7 0 0 10.8-3.2 18.8 6.2 0 0 .3-11.4 11.6-16 0 0-10.6-3.7-11.5-16.1z"/></g><path d="m28.9 7.8s-6.9 9-18.9 6.2l.7 1.1c11.6 2.3 18.2-6.3 18.2-6.3.7 10 7.7 14.3 10.4 15.6l1.1-.5s-10.6-3.7-11.5-16.1zm-16 16.8s0 4.6-2.9 9.1l.7-.2c2.4-4.4 2.2-8.9 2.2-8.9z" fill="#fff" opacity=".2"/></svg>