<svg viewBox="0 0 48 48"><path d="m4 5h34c6 0 6 6 6 6v34h-34c-6 0-6-6-6-6z" opacity=".2"/><path d="m4 4h34c6 0 6 6 6 6v34h-34l-6-6z" fill="#5c62c4"/><path d="m31.8 44h4.4c.8-3.9 3.4-19.2-.9-25.4-5.1-6.4-15.3-6-18.9 2.2-1.4 3.7 1.8 8.8 5.9 8.8 1.4 0 3.6-1.1 3.6-2.4-.3-2.2-3.5-2.3-3.6-4.5 0-1.8 3.6-2.1 5.3-1.4 2.6 1.1 4.8 4.7 4.2 7.5z" opacity=".2"/><path d="m4 4v34s0 6 6 6h26s4.3-19.2-.7-26.4c-4.8-6.2-15.3-6.2-18.9 2.2-1.3 3.9 1.8 8.8 5.9 8.7 1.7 0 3.4-.9 3.6-2.2 0-2.1-3.5-2.4-3.6-4.6 0-1.9 3.7-2.1 5.3-1.4 2.7 1.2 4.8 4.7 4.2 7.5-.9 4-6 7-10.1 7.1-3.6.2-7.6-2.3-9.4-5.4-4.4-7.2-.3-25.5-.3-25.5z" fill="#f6820c"/><path d="m16.4 19.8s-.4 1.2-.3 2.3c3.2-10.2 14.6-9.6 19.2-3.5 2.5 3.3 2.4 11 2.4 11s .4-8.1-2.4-12c-4.5-5.9-15.1-6.6-18.9 2.2zm-6.1-.7c-.8 8.8 2.8 16.7 11.4 16.8 4.1-.2 10.3-3.3 10.2-8.6-.6 4-5.3 7.3-10.2 7.6-9.2-.5-11.8-8.4-11.4-15.8zm12.1 3.1c-.7 2.2 2.6 2.7 3.4 4.5.8-1.9-3-2.9-3.4-4.5z" fill="#fff" opacity=".2"/><path d="m4 4v1h34s6 0 6 6v-1s0-6-6-6z" fill="#fff" opacity=".2"/></svg>