<svg viewBox="0 0 48 48"><rect height="40" opacity=".2" rx="3" width="40" x="4" y="5"/><rect fill="#c62828" height="40" rx="3" width="40" x="4" y="4"/><g fill="#fff"><path d="m7 4s-3 0-3 3v1s0-3 3-3h34s3 0 3 3v-1s0-3-3-3z" opacity=".2"/><path d="m17.9 15.7c-2.7 0-4.4 1.9-4.4 4.4 0 2.2 2 6.2-1.8 6.3-1.9.2-2.7 1.4-2.7 2.9 0 1.4 1 3 2.9 3 1.4 0 2.8-1 2.8-2.8 0-1.2-.6-1.9-.6-2.6 0-1 1.1-2.4 3.9-2.4 2.5 0 3.4 1.4 3.4 2.3 0 1-.6 1.7-.6 2.2 0 2.4 1.6 3.3 3.2 3.3s3.2-.9 3.2-3.3c0-.5-.6-1.2-.6-2.2 0-.9.9-2.3 3.4-2.3 2.8 0 3.9 1.4 3.9 2.4 0 .7-.6 1.4-.6 2.6 0 1.8 1.4 2.8 2.8 2.8 1.9 0 2.9-1.6 2.9-3 0-1.5-.8-2.7-2.7-2.9-3.8-.1-1.8-4.1-1.8-6.3 0-2.5-1.7-4.4-4.4-4.4-3.5 0-4 3.8-6.1 3.8s-2.6-3.8-6.1-3.8zm6.1 4.8c1.5 0 2.9 1.3 2.9 2.8 0 1.6-1.2 3-2.9 3s-2.9-1.4-2.9-3c0-1.5 1.4-2.8 2.9-2.8z"/></g></svg>