<svg viewBox="0 0 48 48"><rect height="40" opacity=".2" rx="3" width="40" x="4" y="5"/><path d="m7 4s-3 0-3 3v1h8v-4zm9 0v4h4v-4zm12 0v4h4v-4zm0 4h-4v4h4zm-4 4h-4v4h4zm12-8v4 4h4v-4h4v-1s0-3-3-3zm0 8h-4v4h4zm-4 4h-4v4h4z" fill="#72b248"/><path d="m12 4v8h4v-8zm4 8v4h4v-4zm4 0h4v-8h-4zm4 0v4h4v-4zm4 0h4v-4h-4zm8 0v4h4v-4zm4 4v4h4v-4z" fill="#56962c"/><path d="m24 4v4h4v-4zm-20 4v4h4v-4zm28 0v4h4v-4zm0 4h-4v4h4zm-20 0v4h4v-4z" fill="#60a036"/><path d="m32 4v4h4v-4zm-24 4v4h4v-4zm0 4h-4v4h4zm8-4v4h4v-4zm24 0v4h4v-4z" fill="#9bca6b"/><path d="m8 12v4h4v-4zm0 8v4h4v-4zm4 4v4h8v-8h-4v4zm8 4v4h4v-4zm4 0h4v-4h-4zm4-4h4v-4h-4zm0 4v4h4v-4zm4 4v4h4v-4zm4 4v4h8v-4zm0 4h-4v4h4zm-4 0v-4h-4v-4h-4v12h4v-4zm-12-8h-8v-4h-4v8h12zm20-12v4h4v-4zm-24 20v4h4v-4z" fill="#785439"/><path d="m40 12v4h4v-4zm0 4h-4v4h4zm-36 0v4h4v-4zm8 0v4h4v-4zm8 0v4h4v-4zm0 8v4h4v-4zm4 4v4h4v-4zm0 4h-4v4h4zm8-8v4h4v-4zm4 4v4h4v-4zm-24 0v4h4v-4zm-8 4v8h4v-8zm4 8v4h4v-4zm20 0v4h4v-4zm8 0v4h4v-4z" fill="#b8845b"/><path d="m8 16v4h4v-4zm24 0v4h4v-4zm-8 4v4h4v-4zm-20 8v4h4v-4zm28 0v4h4v-4zm-24 8v4h4v-4zm8 0v4h4v-4zm24 4v4h1s3 0 3-3v-1z" fill="#6b6b6b"/><path d="m16 16v4h4v-4zm0 4h-4v4h4zm-4 4h-4v4h4zm-4 0v-4h-4v4zm28-4v4h4v-4zm4 4v4h4v-4zm-24 4v4h4v-4zm12 4v4h4v-4zm4 4v4h4v-4zm4 0h8v-4h-8zm-24 0v4h4v-4zm8 0v4h4v-4zm-16 4v1s0 3 3 3h1v-4z" fill="#583c28"/><path d="m24 16v4h4v-4zm0 4h-4v4h4zm8 0v4h4v-4zm4 4v4h4v-4zm4 4v4h4v-4zm-8-4h-4v4h4zm-28 0v4h4v-4zm8 16v4h4v-4zm8 0v4h4v-4z" fill="#956b49"/><path d="m7 4s-3 0-3 3v1s0-3 3-3h34s3 0 3 3v-1s0-3-3-3z" fill="#fff" opacity=".2"/></svg>