<svg height="48" width="48" xmlns="http://www.w3.org/2000/svg" xmlns:xlink="http://www.w3.org/1999/xlink"><rect height="40" opacity=".2" rx="3" width="40" x="4" y="5"/><rect fill="#3f3f3f" height="40" rx="3" width="40" x="4" y="4"/><path d="m7 4s-3 0-3 3v1s0-3 3-3h34s3 0 3 3v-1s0-3-3-3zm3 14v1h28v-1zm0 16v1h28v-1z" fill="#fff" opacity=".1"/><path d="m10 14v4h28v-4zm0 16v4h28v-4z" opacity=".3"/><g id="a"><rect height="10" opacity=".2" rx="1" width="10" x="14" y="12"/><rect fill="#fff" height="10" rx="1" width="10" x="14" y="11"/><path d="m17 11h4v10h-4z" fill="#e80800"/></g><use x="10" xlink:href="#a" y="16"/></svg>