<svg viewBox="0 0 48 48"><rect height="40" opacity=".2" rx="3" width="40" x="4" y="5"/><rect fill="#7986cb" height="40" rx="3" width="40" x="4" y="4"/><path d="m7 4s-3 0-3 3v1s0-3 3-3h34s3 0 3 3v-1s0-3-3-3z" fill="#fff" opacity=".2"/><use fill="#9fa8da" opacity=".4" xlink:href="#a" y="1"/><g opacity=".6"><path id="a" d="m10.7 40 6.8-8.3 13.3 5.6 2-4.5s-3.4-1.2-6-6.2c4.9 5.2 6.3 5.3 6.3 5.3 1.3-5.6-1-10.5-1-10.5-1.4-.4-4.7-1.5-4.7-1.5l5.2.9c1.2.3 1.1-.9 1.1-.9-.1-3-1.4-5.8-1.4-5.8-.3-.8-.9-1-.9-1-5.4-1.9-10.8-1.5-10.8-1.5-1.4.1-2.6.6-2.6.6.4.3 3.7.9 3.7.9-.1.1-4-.4-4-.4-3.5-.5-3.7-.5-4-.2-1.1 1.2-1.3 2.4-1.3 2.4-.3.8.2 1.4.2 1.4.7 1.8 4 3.2 4 3.2 1.2.6 2 1.1 2 1.1-1.6-.5-4.3-1.7-4.3-1.7l-6.3 1.7v-11.6c0-1 1-1 1-1h30c1 0 1 1 1 1v30c0 1-1 1-1 1z"/></g></svg>