<svg height="48" width="48" xmlns="http://www.w3.org/2000/svg" xmlns:xlink="http://www.w3.org/1999/xlink"><rect height="40" opacity=".2" rx="2" width="32" x="8" y="5"/><rect fill="#7986cb" height="40" rx="2" width="32" x="8" y="4"/><path d="m10 4s-2 0-2 2v36s0 2 2 2h3v-40z" opacity=".3"/><path d="m10 4s-2 0-2 2v1s0-2 2-2h28s2 0 2 2v-1s0-2-2-2z" fill="#fff" opacity=".2"/><use opacity=".2" xlink:href="#a" y="1"/><g fill="#e8eaf6"><path id="a" d="m16 32.7 7.1-8.2 9.9 4.2 1.5-3.3c-3.3-1.8-4.5-4.8-4.5-4.8s3.1 3.4 4.7 4.1c0 0 .3-.3.3-2.7.2-2.9-.7-4.3-.7-4.3l-.3-.9-3.7-1.2s2.3.5 3.7.7c.9.2 1.1.1 1.2-.6 0-1.8-1-4.3-1-4.3-.3-.7-.8-.8-.8-.8-3.6-1.3-8-1.1-8-1.1-1.6.1-2 .5-2 .5l2.9.6-3-.3-2.8-.3c-.7.5-1.2 1.8-1.2 1.8-.2.6-.1.7.1 1.2.5.9 1.3 1.5 3 2.4.9.4 1.6.8 1.6.8s-.8-.1-1.7-.6l-1.6-.6-4.7 1.2v-8.2c0-1 1-1 1-1h19c1 0 1 1 1 1v25c0 1-1 1-1 1h-20z"/></g></svg>