<svg height="48" width="48" xmlns="http://www.w3.org/2000/svg"><rect height="36" opacity=".2" rx="2" width="40" x="4" y="7"/><rect fill="#ff8a65" height="36" rx="2" width="40" x="4" y="6"/><path d="m4 32v8s0 2 2 2h36s2 0 2-2v-8z" fill="#ec407a"/><circle cx="32" cy="21" opacity=".2" r="6"/><circle cx="32" cy="20" fill="#fef8e2" r="6"/><path d="m6 6s-2 0-2 2v1s0-2 2-2h36s2 0 2 2v-1s0-2-2-2z" fill="#fff" opacity=".2"/><path d="m4 32v-1.1l4-2.4 5.4 1 6.3-.3 13.5 1.3 5.3-1.4 5.5 1.9v1z" opacity=".8"/><path d="m4 32v1.1l4 2.4 5.4-1 6.3.3 13.5-1.3 5.3 1.4 5.5-1.9v-1z" opacity=".1"/></svg>