<svg height="48" width="48" xmlns="http://www.w3.org/2000/svg"><rect height="36" opacity=".2" rx="3" width="40" x="4" y="7"/><rect fill="#9c27b0" height="36" rx="3" width="40" x="4" y="6"/><path d="m7 6s-3 0-3 3v1s0-3 3-3h34s3 0 3 3v-1s0-3-3-3z" fill="#fff" opacity=".2"/><path d="m4 34v5s0 3 3 3h34s3 0 3-3v-5z" fill="#f2f2f2"/><rect fill="#999" height="2" rx="1" width="13" x="28" y="37"/><rect fill="#9c27b0" height="2" rx="1" width="21" x="7" y="37"/><circle cx="28" cy="39" opacity=".2" r="2"/><g fill="#fff"><circle cx="28" cy="38" r="2"/><path d="m4 34h40v1h-40z"/></g><g stroke-linejoin="round" stroke-width="1.4"><path d="m18.7 28.3v-13.6l12.6 6.8z" opacity=".2" stroke="#000"/><path d="m18.7 27.3v-13.6l12.6 6.8z" fill="#f3e5f5" stroke="#f3e5f5"/></g></svg>