<svg viewBox="0 0 48 48"><circle cx="24" cy="25" opacity=".2" r="22"/><circle cx="24" cy="24" fill="#ff6d00" r="22"/><path d="m24 2c-12 0-22 10-22 22v .5c0-11.5 10-21.5 22-21.5s22 10 22 21.5v-.5c0-12-10-22-22-22z" fill="#fff" opacity=".2"/><circle cx="24" cy="25" opacity=".2" r="15"/><circle cx="24" cy="24" fill="#ffbc00" r="15"/><path d="m24 9c-8.3 0-15 6.7-15 15v .5c0-7.5 6.8-14.5 15-14.5s15 7 15 14.5v-.5c0-8.3-6.7-15-15-15z" fill="#fff" opacity=".2"/><use opacity=".2" xlink:href="#a" y="1"/><g fill="#fff"><g id="a"><path d="m20 17v11h2v-7h6v7h2v-11z"/><circle cx="19" cy="28" r="3"/><circle cx="27" cy="28" r="3"/></g></g></svg>