<svg viewBox="0 0 48 48"><path d="m1 24-1 1h12v-1zm35 12h-12v1h12l12-12h-1zm-24 0v1l11 11h1z" opacity=".2"/><path d="m36 12v12h-12v-24z" fill="#f34235"/><path d="m24 24 12-12v12z" fill="#9c27b0"/><path d="m36 36h-12v-12h24z" fill="#2095f2"/><path d="m36 36-12-12v12z" fill="#3e50b4"/><path d="m12 36 12 12v-24h-12z" fill="#4bae4f"/><path d="m24 24-12 12v-12z" fill="#1ea362"/><path d="m12 12h12v12h-24z" fill="#fec006"/><path d="m12 12 12 12v-12z" fill="#fe9700"/><path d="m19 24-2 1 4.7 2.3 2.3 4.7 2.3-4.7 4.7-2.3-2-1z" opacity=".2"/><path d="m24 17-2.3 4.7-4.7 2.3h14l-4.7-2.3z" fill="#fff"/><path d="m17 24 4.7 2.3 2.3 4.7v-7z" fill="#ebebeb"/><path d="m29 24v1h18l1-1z" fill="#fff" opacity=".1"/><path d="m31 24-4.7 2.3-2.3 4.7v-7z" fill="#dfdfdf"/><path d="m24 0v1l12 12v-1zm-12 12-12 12h1l11-11h12v-1z" fill="#fff" opacity=".1"/></svg>