<svg viewBox="0 0 48 48"><g opacity=".2"><use xlink:href="#b" y="1"/><use stroke="#000" xlink:href="#a" y="1"/></g><g stroke="#1976d2"><path id="a" d="m12 26v-12c0-8 8-8 8-8v9s0 4 4 4 4-4 4-4v-9s8 0 8 8v12" fill="none" stroke-width="4"/></g><g fill="#2196f3"><path id="b" d="m14 24c-5.5 0-10 4.5-10 10s4.5 10 10 10h1v-20zm2 0v20h2v-20zm14 0v20h2v-20zm3 0v20h1c5.5 0 10-4.5 10-10s-4.5-10-10-10z"/></g><path d="m20 4c-10.6.7-10 10-10 10v1s-.6-9.3 10-10h2v-1zm6 0v1h2c10.6.7 10 10 10 10v-1s .6-9.3-10-10zm-4 11v1s0 2 2 2 2-2 2-2v-1s0 2-2 2-2-2-2-2zm-8 9c-5.5 0-10 4.5-10 10v .5c.3-5.3 4.6-9.5 10-9.5h1v-1zm2 0v1h2v-1zm14 0v1h2v-1zm3 0v1h1c5.4 0 9.7 4.2 10 9.5v-.5c0-5.5-4.5-10-10-10z" fill="#fff" opacity=".2"/></svg>