<svg height="48" width="48" xmlns="http://www.w3.org/2000/svg" xmlns:xlink="http://www.w3.org/1999/xlink"><use opacity=".2" stroke="#000" xlink:href="#a" y="1"/><g fill="#c5cae9" stroke="#c5cae9"><path id="a" d="m24 3.2 18 10.4v20.8l-18 10.4-18-10.4v-20.8z" stroke-linejoin="round" stroke-width="4"/></g><g opacity=".5"><path d="m24 46.8c-.7 0-1.2-.4-1.2-.4l-17.7-10.2c-1.3-.7-1.1-2-1.1-2v-20.4c0-.8.2-1 .2-1l19.8 11.2z" fill="#e3f2fd"/><path d="m24 46.8s.7 0 1.2-.4l17.7-10.2s1.2-.5 1.1-2v-20.4s0-.8-.2-1l-19.8 11.2z" fill="#9fa8da"/></g><path d="m24 1.2c-.6 0-1.2.4-1.2.4l-17.7 10.2c-1.2.7-1.1 2-1.1 2v1s0-1.3 1.1-2l17.7-10.2s.6-.4 1.2-.4 1.2.4 1.2.4l17.7 10.2c1.1.7 1.1 2 1.1 2v-1s .1-1.3-1.1-2l-17.7-10.2s-.6-.4-1.2-.4z" fill="#fff" opacity=".2"/></svg>