<svg height="48" width="48" xmlns="http://www.w3.org/2000/svg"><rect height="40" opacity=".2" rx="2" width="40" x="4" y="5"/><rect fill="#3f3f3f" height="40" rx="2" width="40" x="4" y="4"/><path d="m21 4v12c7.1-.3 11.8 6 11.8 6s-5.8 7.3-11.8 6.6v1.8c6.9.5 13.2-5.9 13.2-5.9l3.6 2.1s-5.6 5.2-16.8 5.4v12h21s2 0 2-2v-36s0-2-2-2zm0 26.4c-7-.8-9-8.1-9-8.1s2.6-4.3 9-4.8v-1.5c-6.4.2-12.3 6-12.3 6s3.4 9.6 12.3 10zm0-12.9v2c3.2-.5 5.8 2.5 5.8 2.5l-2.7 2.4s-1.3-3-3.1-3.1v5.9c4.2.9 8.6-5.1 8.6-5.1s-3.4-4.7-8.6-4.6zm0 9.7c-3.2-.8-4.1-4.4-4.1-4.4s2-2.3 4.1-1.5v-1.8c-3.9.1-6.7 3-6.7 3s1.6 5.6 6.7 6.1z" fill="#76b900"/><path d="m6 4s-2 0-2 2v1s0-2 2-2h36s2 0 2 2v-1s0-2-2-2zm15 12c-6.4.2-12.3 6-12.3 6l .3.7s5.9-5.6 12-5.7zm0 1.5v1c4.6-.3 8.2 4.1 8.2 4.1l.4-.5s-3.4-4.7-8.6-4.6zm0 2c-3.9.1-6.7 3-6.7 3l .3.7s2.9-2.7 6.4-2.7zm0 1.8v1c1.8.1 3.1 3.1 3.1 3.1l2.7-2.4-.5-.5-2.2 1.9s-1.3-3-3.1-3.1zm11.4 1.2s-5.7 6.8-11.4 6.1v1c6 .7 11.8-6.6 11.8-6.6zm-20.2.5-.2.3s2 7.3 9 8.1v-1c-6.4-.6-8.8-7.4-8.8-7.4zm4.9.5-.2.3s.9 3.6 4.1 4.4v-1c-2.6-.5-3.9-3.7-3.9-3.7zm20 3.7s-6 4.7-16.1 4.8v1c11.2-.2 16.8-5.4 16.8-5.4z" fill="#fff" opacity=".2"/></svg>