<svg height="48" width="48" xmlns="http://www.w3.org/2000/svg"><rect height="42" opacity=".2" rx="3" width="42" x="3" y="4"/><path d="m31 3v14h14v-11s0-3-3-3z" fill="#b0bec5"/><path d="m31 17v14h14v-14z" fill="#607d8b"/><path d="m30 31-14 14h26s3 0 3-3v-11z" fill="#455a64"/><path d="m31 31v1l-14 14h-11c-3 0-3-3-3-3v-12z" opacity=".2"/><path d="m3 6c0-3 3-3 3-3h25v28l-14 14h-11c-3 0-3-3-3-3z" fill="#e6e6e6"/><path d="m6 3s-3 0-3 3v1s0-3 3-3h36s3 0 3 3v-1s0-3-3-3z" fill="#fff" opacity=".2"/><path d="m17 45v-11c0-3 3-3 3-3h11z" fill="#b3b3b3"/><path d="m17 17v-9h-2m-8 4h3m-3-4h3s2 0 2 2-2 2-2 2 2 0 2 2-2 2-2 2h-3" fill="none" stroke="#455a64" stroke-width="2"/><path d="m15 7v2h-1z" fill="#455a64"/></svg>