<svg height="48" width="48" xmlns="http://www.w3.org/2000/svg" xmlns:xlink="http://www.w3.org/1999/xlink"><circle cx="24" cy="25" opacity=".2" r="22"/><circle cx="24" cy="24" fill="#2387c3" r="22"/><path d="m24 2c-12.1 0-22 9.9-22 22v .6c.3-11.9 10.1-21.6 22-21.6s21.7 9.7 22 21.6v-.6c0-12.1-9.9-22-22-22z" fill="#fff" opacity=".2"/><use opacity=".2" xlink:href="#a" y="1"/><g fill="#343434"><path id="a" d="m2 11v2h1v2h-1v18h1v2h-1v2h44v-2h-1v-2h1v-18h-1v-2h1v-2zm3 2h2v2h-2zm4 0h2v2h-2zm4 0h2v2h-2zm4 0h2v2h-2zm4 0h2v2h-2zm4 0h2v2h-2zm4 0h2v2h-2zm4 0h2v2h-2zm4 0h2v2h-2zm4 0h2v2h-2zm-36 20h2v2h-2zm4 0h2v2h-2zm4 0h2v2h-2zm4 0h2v2h-2zm4 0h2v2h-2zm4 0h2v2h-2zm4 0h2v2h-2zm4 0h2v2h-2zm4 0h2v2h-2zm4 0h2v2h-2z"/></g><path d="m18.7 30.9v-13.8l12.6 6.9z" fill="#fff" stroke="#fff" stroke-linejoin="round" stroke-width="1.4"/></svg>