<svg height="48" width="48" xmlns="http://www.w3.org/2000/svg" xmlns:xlink="http://www.w3.org/1999/xlink"><use opacity=".2" xlink:href="#a" y="1"/><g fill="#e6e6e6"><path id="a" d="m24 2c-12.1 0-22 9.9-22 22s9.9 22 22 22 22-9.9 22-22-9.9-22-22-22zm0 7c6.1 0 11 6.7 11 15s-4.9 15-11 15-11-6.7-11-15 4.9-15 11-15z"/></g><path d="m8.6 9.3s-.8.2-2.2 1.5c0 0-4.4 5.2-4.4 13.2 0 12.2 9.8 22 22 22 10.4 0 16.2-7.2 16.2-7.2-16 8.9-24.2-4.5-24.2-4.5s-3-3.9-3-10.3c0-4.2 1.4-7.3 1.4-7.3s.1-1.2-.4-1.6c0 0-.5-.9-4 2.7 0 0-1.2.9-1.7-1 0 0-.6-3.6.4-6.7 0 0 .3-.8-.1-.8z" fill="#c2352a"/><path d="m24 2c-12.2 0-22 9.9-22 22v .4c.2-11.8 10-21.4 22-21.4s21.8 9.6 22 21.6v-.6c0-12.1-9.8-22-22-22zm11 22.5c-.2 8.1-5.1 14.5-11 14.5s-10.8-6.4-11-14.5v.5c0 8.2 4.9 15 11 15s11-6.8 11-15z" fill="#fff" opacity=".2"/></svg>