<svg height="48" width="48" xmlns="http://www.w3.org/2000/svg"><rect height="40" opacity=".2" rx="3" width="40" x="4" y="5"/><rect fill="#e53935" height="40" rx="3" width="40" x="4" y="4"/><path d="m7 4s-3 0-3 3v1s0-3 3-3h34s3 0 3 3v-1s0-3-3-3z" fill="#fff" opacity=".2"/><path d="m13 30v-11h2s3 0 3 3v1c0 3-3 3-3 3h-2m11-7s3 0 3 3v4c0 3-3 3-3 3h-2v-10zm12 0h-5v11-6h4" fill="none" stroke="#fff" stroke-width="2"/><circle cx="36" cy="36" opacity=".2" r="12"/><circle cx="36" cy="35" fill="#30a7c0" r="12"/><path d="m30 38.3v2.7h2.7l6.7-6.8-2.6-2.6zm11.8-6.4s.5-.5 0-1l-1.7-1.7s-.5-.5-1 0l-1.4 1.4 2.7 2.7z" fill="#fff"/></svg>