<svg viewBox="0 0 48 48"><use opacity=".2" xlink:href="#a" y="1"/><g fill="#00bcd4"><path id="a" d="m24 4c-8.8 0-16 7.1-16 16v4c0 4.1 1.5 7.7 1.5 7.7l-5.5 2.9s3.1 2.3 7.4.6c0 0 5.4 8.8 16.6 8.8 4-.2 4-4 4-4s0-3.8-4-4c-3.4 0-4 3.5-4 3.5s-4.2-.7-4.2-5.5c0-6 6.2-6 6.2-6h6c6.6 0 12-5.4 12-12v-12h-16c-3 0-4 3-4 3z"/></g><g fill="#fff"><circle cx="16" cy="18" r="2"/><path d="m24 4c-8.9 0-16 7.2-16 16v1c0-8.8 7.1-16 16-16zm4 0c-3 0-4 3-4 3v1s1-3 4-3h16v-1zm-18.8 27.9-5.2 2.7.9.5 4.6-2.4zm10.6 2.6v.5c.3 4.8 4.2 5.5 4.2 5.5s.5-3.5 4-3.5c4 .2 4 3.5 4 3.5v-.5s0-3.8-4-4c-3.5 0-4 3.5-4 3.5s-3.9-.7-4.2-5z" opacity=".2"/></g></svg>