<svg viewBox="0 0 48 48"><g opacity=".2"><use xlink:href="#a" y="1"/><use xlink:href="#b" y="1"/><use xlink:href="#c" y="1"/></g><g fill="#ebebeb"><path id="a" d="m16 4v20h24l4 4v-21s0-3-3-3z"/></g><path d="m16 4v1h25s3 0 3 3v-1s0-3-3-3z" fill="#fff" opacity=".2"/><g fill="#7d4f89"><rect id="b" height="40" rx="12" width="24" x="4" y="4"/></g><path d="m18.7 18c1 .2.5 1.1.5 1.1l-2.7 2.7c-.2.2-.5.2-.5.2v-4z" fill="#fec006"/><path d="m13.3 18c-1 .2-.5 1.1-.5 1.1l2.7 2.7c.2.2.5.2.5.2v-4z" fill="#fe9700"/><g fill="#fff" opacity=".8"><circle cx="20.5" cy="13.5" r="1.5"/><circle cx="11.5" cy="13.5" r="1.5"/></g><g fill="#a375af"><path id="c" d="m30 28c-7.7 0-14 6.2-14 14v2h26s2 0 2-2c0-7.8-6.3-14-14-14z"/></g><path d="m16 4c-6.7 0-12 5.4-12 12v1c0-6.6 5.3-12 12-12s12 5.4 12 12v-1c0-6.6-5.3-12-12-12zm14 24c-7.7 0-14 6.2-14 14v1c0-7.8 6.3-14 14-14 7.5 0 13.6 5.9 14 13.3v-.3c0-7.8-6.3-14-14-14z" fill="#fff" opacity=".2"/></svg>