<svg viewBox="0 0 48 48"><use opacity=".2" xlink:href="#a" y="1"/><g fill="#2196f3"><path id="a" d="m4 24v12s4 0 4 4h32s0-4 4-4v-12z"/></g><path d="m8 8s0 4-4 4v12h40v-12s-4 0-4-4z" fill="#1976d2"/><path d="m8 8s0 4-4 4v1c4 0 4-4 4-4h32c0 4 4 4 4 4v-1s-4 0-4-4z" fill="#fff" opacity=".2"/><g opacity=".2"><use xlink:href="#b" y="1"/><use xlink:href="#c" y="1"/><use xlink:href="#d" y="1"/></g><g fill="#ffedd3"><g id="b"><path d="m11 14v16h26v-16z"/><circle cx="12.5" cy="21.2" r="4.5"/><circle cx="13" cy="14.5" r="4.5"/><circle cx="28" cy="15.2" r="11.2"/><circle cx="36.3" cy="22" r="3.7"/></g></g><g opacity=".05"><use xlink:href="#c" y="-1"/><use xlink:href="#d" y="-1"/></g><g fill="#f9f9f9"><path id="c" d="m10.6 25c-2 .2-1.8 1.8-1.8 1.8l2.4 14.7s0 1.4 1.5 1.5h2.2l-1.9-16.2s-.4-1.7-2.4-1.8zm26.8.2c-2.2.1-2.4 1.6-2.4 1.6l-1.9 16.2h2.2s1.4-.1 1.6-1.5l2.3-14.7s.3-1.5-1.8-1.6zm-17.9 1.6c-2.2.1-2 2.2-2 2.2l1 14h3.7l-.4-14.1s.1-2-2.3-2.1zm9 0c-2.4.1-2.3 2.1-2.3 2.1l-.4 14.1h3.7l1-14s .2-2.1-2-2.2z"/></g><g fill="#f44336"><path id="d" d="m15.1 26.1c-2.3.1-2 2.2-2 2.2l1.8 14.7h3.6l-1-14.8s0-2-2.4-2.1zm17.8 0c-2.3 0-2.4 2.1-2.4 2.1l-1 14.8h3.6l1.8-14.7s.3-2.1-2-2.2zm-8.9 1.1c-2.3 0-2.2 2.1-2.2 2.1l.4 13.7h3.6l.4-13.6s.1-2.1-2.2-2.2z"/></g><g id="e"><circle cx="17" cy="19" fill="#333" r="2"/><circle cx="17.7" cy="18.3" fill="#fff" r=".7"/></g><use x="14" xlink:href="#e"/><path d="m20.7 21s0 3 3.3 3 3.3-3 3.3-3z" fill="#bd1b1b"/><path d="m28 4c-9.3.4-10.9 8.6-10.9 8.6s-1.1-2.6-4.1-2.6c-2.5 0-4.5 2-4.5 4.5v.5c.5-2.4 2.2-4 4.5-4 3.1 0 4.1 2.6 4.1 2.6s1.7-8.3 10.9-8.6c10.8.6 11.2 10.7 11.2 10.7v-.5s.1-10.4-11.2-11.2zm-18.7 14.1s-1.3 1-1.3 3.1v.4c.3-2 1.8-3 1.8-3zm29.5 1.2-.3.7s1.1.7 1.5 2.5v-.5c0-1.7-1.2-2.7-1.2-2.7z" fill="#fff" opacity=".5"/></svg>