<svg height="48" width="48" xmlns="http://www.w3.org/2000/svg"><rect height="36" opacity=".2" rx="3" width="40" x="4" y="7"/><rect fill="#4527a0" height="36" rx="3" width="40" x="4" y="6"/><path d="m7 6s-3 0-3 3v1s0-3 3-3h34s3 0 3 3v-1s0-3-3-3z" fill="#fff" opacity=".2"/><path d="m11 11-.6 1.4-1.4.6 1.4.6.6 1.4.6-1.4 1.4-.6-1.4-.6zm16 0-.9 2.1-2.1.9 2.1.9.9 2.1.9-2.1 2.1-.9-2.1-.9zm7 8-1.1 2.9-2.9 1.1 2.9 1.1 1.1 2.9 1.1-2.9 2.9-1.1-2.9-1.2zm3 12-.6 1.4-1.4.6 1.4.6.6 1.4.6-1.4 1.4-.6-1.4-.6zm-26 2-.6 1.4-1.4.6 1.4.6.6 1.4.6-1.4 1.4-.6-1.4-.6z" fill="#9575cd"/><path d="m20.8 17s-7.8 0-8.5 8.5c0 4.7 3.7 9 8.7 9 4.5 0 6.6-2.9 6.6-2.9s-1.6.4-2.6.4c-3.9 0-8-3.2-8-8 0-5 3.8-7 3.8-7z" opacity=".2"/><path d="m20.8 16s-7.8 0-8.5 8.5c0 4.7 3.7 9 8.7 9 4.5 0 6.6-2.9 6.6-2.9s-1.6.4-2.6.4c-3.9 0-8-3.2-8-8 0-5 3.8-7 3.8-7z" fill="#eceff1"/></svg>