<svg viewBox="0 0 48 48"><rect height="30" opacity=".2" rx="2" width="42" x="3" y="10"/><rect fill="#78909c" height="30" rx="2" width="42" x="3" y="9"/><path d="m7 17v1h4v-1zm6 0v1h4v-1zm6 0v1h4v-1zm6 0v1h4v-1zm6 0v1h4v-1zm6 0v1h4v-1zm-30 6v1h4v-1zm6 0v1h4v-1zm6 0v1h4v-1zm6 0v1h4v-1zm6 0v1h4v-1zm6 0v1h4v-1zm-30 6v1h4v-1zm6 0v1h4v-1zm6 0v1h4v-1zm6 0v1h4v-1zm-12 6v1h22v-1z" opacity=".2"/><path d="m7 13v4h4v-4zm6 0v4h4v-4zm6 0v4h4v-4zm6 0v4h4v-4zm6 0v4h4v-4zm6 0v4h4v-4zm-30 6v4h4v-4zm6 0v4h4v-4zm6 0v4h4v-4zm6 0v4h4v-4zm6 0v4h4v-4zm6 0v4h4v-4zm-30 6v4h4v-4zm6 0v4h4v-4zm6 0v4h4v-4zm6 0v4h4v-4zm-12 6v4h22v-4z" fill="#fff"/><path d="m5 9s-2 0-2 2v1s0-2 2-2h38s2 0 2 2v-1s0-2-2-2z" fill="#fff" opacity=".1"/><path d="m5 39c-2 0-2-2-2-2v-1c0 2 2 2 2 2h21v1z" opacity=".1"/><circle cx="36" cy="35" opacity=".2" r="12"/><circle cx="36" cy="34" fill="#5f7c8a" r="12"/><path d="m34.3 27-.2 2-1.6.7-1.7-.7-1.8 3 1.5 1.1v1.8l-1.5 1.1 1.8 3 1.7-.7 1.6.7.2 2h3.4l.2-2 1.6-.7 1.7.7 1.8-3-1.5-1.1v-1.8l1.5-1.1-1.8-3-1.7.7-1.6-.7-.2-2z" fill="#fff"/><circle cx="36" cy="34" fill="#5f7c8a" r="2.3"/></svg>