<svg viewBox="0 0 48 48"><circle cx="24" cy="25" opacity=".2" r="20"/><circle cx="24" cy="24" fill="#455a64" r="20"/><circle cx="24" cy="25" opacity=".2" r="16"/><circle cx="24" cy="24" fill="#ebebeb" r="16"/><path d="m35.3 12.6-11.3 11.3v16c8.9 0 16-7.1 16-16 0-4.4-1.8-8.4-4.7-11.3z" fill="#c4c4c4"/><path d="m35 12.2-11.7 11 1.4 1.4 11-11.7z" fill="#666"/><path d="m24 24v16" stroke="#f34235"/><path d="m16.4 15.6-.7.7 7.6 8.4 1.4-1.4z" fill="#1a1a1a"/><circle cx="24" cy="24" fill="#1a1a1a" r="1"/><path d="m24 4c-11.1 0-20 8.9-20 20v .5c.3-10.8 9.1-19.5 20-19.5s19.7 8.7 20 19.5c0-.2 0-.3 0-.5 0-11.1-8.9-20-20-20z" fill="#fff" opacity=".1"/></svg>