<svg height="48" width="48" xmlns="http://www.w3.org/2000/svg"><path d="m18.7 9-14.7 14.7v15.3s0 2 2 2h36s2 0 2-2v-28s0-2-2-2z" opacity=".2"/><path d="m19.7 8-15.7 15.7v14.3s0 2 2 2h36s2 0 2-2v-28s0-2-2-2z" fill="#78909c"/><g fill="#fff"><path d="m19.7 8-1 1h23.3s2 0 2 2v-1s0-2-2-2z" opacity=".1"/><path d="m16.7 11-9.7 9.7v16.3h34v-26z" opacity=".2"/></g><path d="m18 25s2 0 2-2v-14.3l-16.3 16.3z" opacity=".2"/><path d="m18 24s2 0 2-2v-14.3l-16.3 16.3z" fill="#cfd8dc"/><path d="m20 7.7-16.3 16.3h1l15.3-15.3z" fill="#fff" opacity=".2"/></svg>