<svg viewBox="0 0 48 48"><g opacity=".2"><rect height="28" rx="2" width="32" x="12" y="5"/><rect height="28" rx="2" width="32" x="4" y="17"/></g><rect fill="#cfd8dc" height="28" rx="2" width="32" x="12" y="4"/><rect fill="#eceff1" height="28" rx="2" width="32" x="4" y="16"/><path d="m14 4s-2 0-2 2v2h32v-2s0-2-2-2z" fill="#455a64"/><path d="m6 16s-2 0-2 2v2h32v-2s0-2-2-2z" fill="#607d8b"/><g fill="#fff" opacity=".1"><path d="m44 7v-1s0-2-2-2h-28s-2 0-2 2v1s0-2 2-2h28s2 0 2 2z"/><path d="m36 19v-1s0-2-2-2h-28s-2 0-2 2v1s0-2 2-2h28s2 0 2 2z"/></g></svg>