<svg viewBox="0 0 48 48"><use opacity=".2" xlink:href="#a" y="1"/><g fill="#5c6bc0"><path id="a" d="m19.7 4-.7.7-.8 4.2-4.2 2.5-4.5-1.4-.8.3-4.2 7.3.1.9 3.5 3v5l-3.5 3-.1.9 4.2 7.3.8.3 4.5-1.4 4.2 2.5.8 4.2.7.7h8.6l.7-.7.8-4.2 4.2-2.5 4.5 1.4.8-.3 4.2-7.3-.1-.9-3.5-3v-5l3.5-3 .1-.9-4.2-7.3-.8-.3-4.5 1.4-4.2-2.5-.8-4.2-.7-.7z"/></g><path d="m19.7 4-.7.7-.8 4.2-4.2 2.5-4.5-1.4-.8.3-4.2 7.3.1.8 4.1-7.1.8-.3 4.5 1.4 4.2-2.5.8-4.2.7-.7h8.6l.7.7.8 4.2 4.2 2.5 4.5-1.4.8.3 4.1 7.1.1-.8-4.2-7.3-.8-.3-4.5 1.4-4.2-2.5-.8-4.2-.7-.7zm-11.6 22.5-3.5 3-.1.9.1.1 3.5-3zm31.8 0v1l3.5 3 .1-.1-.1-.9z" fill="#fff" opacity=".1"/><path d="m38 17-15 6-13 10 15-6z" opacity=".2"/><path d="m10 32 15-6-2-4z" fill="#f2f2f2"/><path d="m38 16-13 10-2-4z" fill="#f44336"/></svg>