<svg height="48" width="48" xmlns="http://www.w3.org/2000/svg"><g transform="translate(0-1004.4)"><g transform="matrix(0-1-1 0 0 0)"><rect height="40" opacity=".2" rx="20" width="40" x="-1049.4" y="-44"/><rect fill="#455a64" height="40" rx="20" width="40" x="-1048.4" y="-44"/><rect height="32" opacity=".2" rx="16" width="32" x="-1045.4" y="-40"/></g><path d="m24 1012.4c-4.4 0-8.4 1.8-11.3 4.7s-4.7 6.9-4.7 11.3c0 8.9 7.1 16 16 16v-16l11.3-11.3c-2.9-2.9-6.9-4.7-11.3-4.7z" fill="#ebebeb"/><path d="m35.3 1017-11.3 11.3v16c8.9 0 16-7.1 16-16 0-4.4-1.8-8.4-4.7-11.3z" fill="#c4c4c4"/><path d="m35 1016.6-11.7 11 1.4 1.4 11-11.7z" fill="#666"/><path d="m24 1028.4v16" stroke="#f34235"/><path d="m16.4 1020-.7.7 7.6 8.4 1.4-1.4z" fill="#1a1a1a"/><circle cx="24" cy="1028.4" fill="#1a1a1a" r="1"/><path d="m24 1008.4c-11.1 0-20 8.9-20 20v .5c.3-10.8 9.1-19.5 20-19.5s19.7 8.7 20 19.5c0-.2 0-.3 0-.5 0-11.1-8.9-20-20-20z" fill="#fff" opacity=".1"/></g></svg>
