<svg viewBox="0 0 48 48"><rect height="36" opacity=".2" rx="3" width="40" x="4" y="7"/><rect fill="#3949ab" height="36" rx="3" width="40" x="4" y="6"/><path d="m7 6s-3 0-3 3v1s0-3 3-3h34s3 0 3 3v-1s0-3-3-3z" fill="#fff" opacity=".2"/><path d="m19.5 11.5-.9 2.1-2.1.9 2.1.9.9 2.1.9-2.1 2.1-.9-2.1-.9zm9 0-1.1 2.9-2.9 1.1 2.9 1.1 1.1 2.9 1.1-2.9 2.9-1.1-2.9-1.1zm-16 5-.6 1.4-1.4.6 1.4.6.6 1.4.6-1.4 1.4-.6-1.4-.6zm23 3-.9 2.1-2.1.9 2.1.9.9 2.1.9-2.1 2.1-.9-2.1-.9zm2 10-.6 1.4-1.4.6 1.4.6.6 1.4.6-1.4 1.4-.6-1.4-.6z" fill="#f9ce1d"/><g fill="none" stroke-width="4"><path d="m20 29 14 14" stroke="#333"/><path d="m14 23 6 6" stroke="#fff"/></g></svg>