<svg height="48" width="48" xmlns="http://www.w3.org/2000/svg" xmlns:xlink="http://www.w3.org/1999/xlink"><g opacity=".2"><use xlink:href="#a" y="1"/><use xlink:href="#b" y="1"/></g><g fill="#78909c"><rect id="a" height="32" rx="2" width="40" x="4" y="8"/></g><path d="m6 8s-2 0-2 2v1s0-2 2-2h36s2 0 2 2v-1s0-2-2-2z" fill="#fff" opacity=".1"/><path d="m7 11h34v26h-34z" fill="#fff" opacity=".2"/><g fill="#e6e6e6"><path id="b" d="m45 21.9v17.8c0 1.3-1.3 1.3-1.3 1.3h-22.1zm-4 8.4-8.2 6.7h8.2z"/></g><path d="m45 21.9v1l-22.2 18.1h-1.2zm-4 15.1v1h-8.2l1.2-1z" fill="#fff" opacity=".5"/></svg>