<svg height="48" width="48" xmlns="http://www.w3.org/2000/svg"><g opacity=".2"><rect height="32" rx="2" width="28" x="14" y="5"/><rect height="32" rx="2" width="28" x="6" y="13"/></g><rect fill="#d8d8d8" height="32" rx="2" width="28" x="14" y="4"/><rect fill="#ebebeb" height="32" rx="2" width="28" x="6" y="12"/><path d="m34 18.2v.7c1.2.2 1.2.8 1.2 2.3l-1.2.2v.7l1.2-.2c0 2.1 0 2.1-1.2 3.1v.8c.8-.3 1.3-1 1.3-1s .2 1.1 1.4 1.1 1.5-.9 1.5-.9l-.2-.2s-.2.2-.6.2-.6-.3-.6-1.1v-3.4c0-1.5-.8-2.3-2.8-2.3zm-18.7 3.8-4.5 12h1.4l1.5-4h4.6l1.5 4h1.4l-4.5-12zm .7 1.6 1.9 5.4h-3.8zm10.1 1.4c-2.1 0-3 .8-3 .8l.4 1s1.2-.7 2.5-.7c1.6 0 1.9.9 1.9 2.5h-1.5c-2.6 0-4.3.9-4.3 2.8 0 2.1 1.5 2.6 2.8 2.6 2.1 0 3-1.4 3-1.4l.3 1.3h1v-6c0-1.9-1.1-2.9-3.1-2.9zm.5 4.6h1.3v.8c0 1.8-1.1 2.6-2.7 2.6-1 0-1.6-.5-1.6-1.5 0-1.7 1.8-1.9 3-1.9z" opacity=".5"/><path d="m16 4s-2 0-2 2v1s0-2 2-2h24s2 0 2 2v-1s0-2-2-2zm-8 8s-2 0-2 2v1s0-2 2-2h24s2 0 2 2v-1s0-2-2-2z" fill="#fff" opacity=".4"/></svg>