<svg viewBox="0 0 48 48"><rect height="36" opacity=".2" rx="3" width="40" x="4" y="7"/><rect fill="#607d8b" height="36" rx="3" width="40" x="4" y="6"/><path d="m7 6s-3 0-3 3v1s0-3 3-3h34s3 0 3 3v-1s0-3-3-3z" fill="#fff" opacity=".2"/><path d="m4 34v5s0 3 3 3h34s3 0 3-3v-5z" fill="#eceff1"/><g fill="none" stroke-linecap="round" stroke-width="2"><path d="m8 38h19" stroke="#607d8b"/><path d="m29 38h11" stroke="#999"/></g><circle cx="28" cy="39" opacity=".2" r="2"/><circle cx="28" cy="38" fill="#fff" r="2"/><path d="m4 34h40v1h-40z" fill="#fff" opacity=".2"/><g stroke-linejoin="round"><path d="m18.5 28.5v-14l13 7z" opacity=".2" stroke="#000"/><path d="m18.5 27.5v-14l13 7z" fill="#eceff1" stroke="#eceff1"/></g></svg>