<svg height="48" width="48" xmlns="http://www.w3.org/2000/svg"><path d="m4 41s0 4 4 4h36v-8h-21.1l18.3-10.6-4-6.9-18.3 10.5 10.5-18.2-6.9-4-10.5 18.2v-21h-8z" opacity=".1"/><path d="m12 40-4 4h4z" fill="#03a9f4"/><path d="m20 36v8h-8v-8z" fill="#29b6f6"/><path d="m28 36v8h-8v-8z" fill="#4fc3f7"/><path d="m36 36v8h-8v-8z" fill="#81d4fa"/><path d="m44 36v8h-8v-8z" fill="#b3e5fc"/><path d="m11.9 38.3-2 5.2 3.7-2.2z" fill="#9c27b0"/><path d="m16.6 30.4 4 6.9-7.1 4.1-3.9-6.9z" fill="#ab47bc"/><path d="m23.5 26.4 4 6.9-7 4.1-4-6.9z" fill="#ba68c8"/><path d="m30.4 22.4 4 6.9-7 4.1-4-6.9z" fill="#ce93d8"/><path d="m37.2 18.5 4 6.9-6.9 4-4-6.9z" fill="#e1bee7"/><path d="m12 37.5-.5 4.4 2-3.6z" fill="#d50000"/><path d="m10.6 27.4 6.9 4-4.1 7-6.9-4z" fill="#ff1744"/><path d="m14.6 20.5 6.9 4-4.1 7-6.9-4z" fill="#ff5252"/><path d="m18.6 13.6 6.9 4-4.1 7-6.9-4z" fill="#ff8a80"/><path d="m22.5 6.8 6.9 4-4 6.9-6.9-4z" fill="#ffc9c4"/><path d="m4 36v4s0 4 4 4c0 0 4 0 4-4v-4z" fill="#ff9800"/><path d="m4 28h8v8h-8z" fill="#ffa726"/><path d="m4 20h8v8h-8z" fill="#ffb74d"/><path d="m4 12h8v8h-8z" fill="#ffcc80"/><path d="m4 4h8v8h-8z" fill="#ffe0b2"/><circle cx="8" cy="41" opacity=".2" r="2"/><circle cx="8" cy="40" fill="#fff" r="2"/><path d="m4 4v1h8v-1zm18.5 2.8-10.5 18.1v1l10.5-18.1 6.4 3.8.5-.8zm14.7 11.7-17.4 10.1-.9 1.4 18.3-10.5 3.5 6.1.5-.2zm-12.6 17.5-1.7 1h21.1v-1z" fill="#fff" opacity=".1"/></svg>