<svg height="48" width="48" xmlns="http://www.w3.org/2000/svg" xmlns:xlink="http://www.w3.org/1999/xlink"><use height="100%" opacity=".2" width="100%" xlink:href="#a" y="1"/><g fill="#5c6bc0"><path id="a" d="m19.7 4-.7.7-.8 4.2-4.2 2.5-4.5-1.4-.8.3-4.2 7.3.1.9 3.5 3v5l-3.5 3-.1.9 4.2 7.3.8.3 4.5-1.4 4.2 2.5.8 4.2.7.7h8.6l.7-.7.8-4.2 4.2-2.5 4.5 1.4.8-.3 4.2-7.3-.1-.9-3.5-3v-5l3.5-3 .1-.9-4.2-7.3-.8-.3-4.5 1.4-4.2-2.5-.8-4.2-.7-.7z"/></g><path d="m19.7 4-.7.7-.8 4.2-4.2 2.5-4.5-1.4-.8.3-4.2 7.3.1.8 4.1-7.1.8-.3 4.5 1.4 4.2-2.5.8-4.2.7-.7h8.6l.7.7.8 4.2 4.2 2.5 4.5-1.4.8.3 4.1 7.1.1-.8-4.2-7.3-.8-.3-4.5 1.4-4.2-2.5-.8-4.2-.7-.7zm-11.6 22.5-3.5 3-.1.9.1.1 3.5-3zm31.8 0v1l3.5 3 .1-.1-.1-.9z" fill="#fff" opacity=".1"/><path d="m38 17-15 6-13 10 15-6z" opacity=".2"/><path d="m10 32 15-6-2-4z" fill="#f2f2f2"/><path d="m38 16-13 10-2-4z" fill="#f44336"/><circle cx="34" cy="35" opacity=".2" r="12"/><circle cx="34" cy="34" fill="#fbc02d" r="12"/><path d="m35 27.5 6.5 4.5-6.5 4.5v-2.5h-2c-1.4 0-2.6.9-2.9 2-.4 1.3 1.4 4 1.4 4s-4-1.5-4-4.8c0-3.1 2-5.1 5-5.2h2.5z" fill="#fff"/></svg>