<svg height="48" width="48" xmlns="http://www.w3.org/2000/svg"><circle cx="24" cy="25" opacity=".2" r="20"/><circle cx="24" cy="24" fill="#607d8b" r="20"/><circle cx="24" cy="25" opacity=".3" r="16"/><circle cx="24" cy="24" fill="#90a4ae" r="16"/><circle cx="24" cy="25" opacity=".3" r="8"/><g fill="#eceff1"><path d="m24 13-3 3.6h6z"/><circle cx="24" cy="24" r="8"/></g><path d="m24 4c-11 0-20 9-20 19.5 0-9.5 9-18.5 20-18.5s20 9 20 18.5c0-10.5-9-19.5-20-19.5zm0 4c-9 0-16 7-16 16v .3c0-8.3 7-15.3 16-15.3s16 7 16 15.3v-.3c0-9-7-16-16-16zm0 5-3 3.6s-5 1.8-5 7.4v.3c0-4.9 5-6.7 5-6.7l3-3.6 3 3.6s5 1.8 5 6.8v-.3c0-5.7-5-7.5-5-7.5z" fill="#fff" opacity=".2"/></svg>