<svg viewBox="0 0 48 48"><rect height="30" opacity=".2" rx="2" width="42" x="3" y="10"/><rect fill="#78909c" height="30" rx="2" width="42" x="3" y="9"/><path d="m7 17v1h4v-1zm6 0v1h4v-1zm6 0v1h4v-1zm6 0v1h4v-1zm6 0v1h4v-1zm6 0v1h4v-1zm-30 6v1h4v-1zm6 0v1h4v-1zm6 0v1h4v-1zm6 0v1h4v-1zm6 0v1h4v-1zm6 0v1h4v-1zm-30 6v1h4v-1zm6 0v1h4v-1zm6 0v1h4v-1zm6 0v1h4v-1zm6 0v1h4v-1z" opacity=".2"/><path d="m7 13v4h4v-4zm6 0v4h4v-4zm6 0v4h4v-4zm6 0v4h4v-4zm6 0v4h4v-4zm6 0v4h4v-4zm-30 6v4h4v-4zm6 0v4h4v-4zm6 0v4h4v-4zm6 0v4h4v-4zm6 0v4h4v-4zm6 0v4h4v-4zm-30 6v4h4v-4zm6 0v4h4v-4zm6 0v4h4v-4zm6 0v4h4v-4zm6 0v4h4v-4zm6 0v4h4v-4zm-24 6v4h22v-4z" fill="#fff"/><path d="m5 9s-2 0-2 2v1s0-2 2-2h38s2 0 2 2v-1s0-2-2-2z" fill="#fff" opacity=".1"/><path d="m5 39c-2 0-2-2-2-2v-1c0 2 2 2 2 2h38c2 0 2-2 2-2v1c0 2-2 2-2 2z" opacity=".1"/><path d="m37.5 24s-1.5 0-1.5 1.5v3s0 1.5 1.5 1.5h1.5v2s0 1-1 1h-2v-1.5s0-1.5-1.5-1.5h-21s-1.5 0-1.5 1.5v3s0 1.5 1.5 1.5h21s1.5 0 1.5-1.5v-.5h2s2 0 2-2v-2h .5s1.5 0 1.5-1.5v-3s0-1.5-1.5-1.5zm3.5 1v4h-4v-4zm-6 6v4h-22v-4z" fill="#e91e63"/></svg>