<svg viewBox="0 0 48 48"><use opacity=".2" xlink:href="#a" y="1"/><g fill="#40dc80"><path id="a" d="m31.3 32.8-15.3 3.2s6.4 8 20.1 8c3.4.3 7.9-1.6 7.9-5.4 0-3.3-2.7-5.1-5-5.1-4.3 0-7.7-.7-7.7-.7z"/></g><path d="m31.3 32.8-.7.6s4.1.8 8.4.8c2.6-.1 4.8 2 5 4.7v-.3c0-3.3-2.7-5.1-5-5.1-4.3 0-7.7-.7-7.7-.7z" fill="#fff" opacity=".2"/><use opacity=".2" xlink:href="#b" y="1"/><g fill="#f4873c"><g id="b"><circle cx="20.5" cy="20.5" r="16.5"/><path d="m4 20.5v23.5h11v-23.5z"/></g></g><path d="m20.5 4c-9.1 0-16.5 7.4-16.5 16.5v.6c.3-8.9 7.6-16.1 16.5-16.1s16.2 7.2 16.5 16.1v-.6c0-9.1-7.4-16.5-16.5-16.5zm-6.5 17.1v.9c0 3.3 2.7 6 6 6s6-2.7 6-6v-1c-.2 3.7-2.9 6-6 6s-5.8-2.3-6-5.9z" fill="#fff" opacity=".2"/><path d="m36 5h-1c-14.6 0-20.3 12.3-21 16h12c .9-4.6 6.2-6.2 12.8-5.4 3.4-.1 4.7-2.9 4.7-2.9s-3.8 2-7.2-1.3c4.3 1.2 7.7-.6 7.7-.6v-.4c-.7-4.8-4.2-5.4-8-5.4z" opacity=".2"/><path d="m35 4c-16.5 0-21.6 15.7-21 17 0 3.3 2.7 6 6 6s6-2.7 6-6c .3-5.3 5.7-7.3 12.8-6.4 3.4-.1 4.7-2.9 4.7-2.9s-3.8 2-7.2-1.3c4.3 1.2 7.7-.6 7.7-.6v-.4c-.7-4.8-4.2-5.4-8-5.4z" fill="#40dc80"/><path d="m35 4c-16.5 0-21.6 15.7-21 17v .6c2.8-10.4 11-16.6 21-16.6h1c3.8 0 6.9.6 7.9 4.8h.1v-.4c-.7-4.8-4.2-5.4-8-5.4zm1.3 7.4c2.8 2.7 6.2 1.7 6.2 1.7l1-1.4s-2.3 1.3-5.1.1z" fill="#fff" opacity=".2"/><circle cx="38.1" cy="6.9" fill="#fff" r="1.3"/><path d="m14 20.5v.5s0 5.6 6 6c6-.4 6-6 6-6v-.5s-1 5.5-6 5.5-6-5.5-6-5.5z" opacity=".2"/></svg>