<svg height="48" width="48" xmlns="http://www.w3.org/2000/svg"><path d="m22.5 4c-5.5 0-9.5 3-9.5 7v3h-3c-4 0-7 4-7 9.5v3c0 5.5 3 9.5 7 9.5h3v3c0 4 4 7 9.5 7h3c5.5 0 9.5-3 9.5-7v-3h3c4 0 7-4 7-9.5v-3c0-5.5-3-9.5-7-9.5h-3v-3c0-4-4-7-9.5-7z" opacity=".2"/><path d="m22.5 3c-5.5 0-9.5 3-9.5 7v3h-3c-4 0-7 4-7 9.5v3c0 5.5 3 9.5 7 9.5h25v-25c0-4-4-7-9.5-7z" fill="#3776ab"/><path d="m25.5 45c5.5 0 9.5-3 9.5-7v-3h3c4 0 7-4 7-9.5v-3c0-5.5-3-9.5-7-9.5h-3v5.5c0 5.5-5.5 5.5-5.5 5.5h-11s-5.5 0-5.5 5.5v8.5c0 4 4 7 9.5 7z" fill="#ffd343"/><g opacity=".2"><circle cx="20" cy="10" r="2"/><circle cx="28" cy="41" r="2"/></g><g fill="#fff"><circle cx="20" cy="9" r="2"/><circle cx="28" cy="40" r="2"/></g><path d="m22.5 3c-5.5 0-9.5 3-9.5 7v1c0-4 4-7 9.5-7h3c5.5 0 9.5 3 9.5 7v-1c0-4-4-7-9.5-7zm-12.5 10c-4 0-7 4-7 9.5v1c0-5.5 3-9.5 7-9.5h7v-1zm25 0v1h3c4 0 7 4 7 9.5v-1c0-5.5-3-9.5-7-9.5zm0 5.5c0 5.5-5.5 5.5-5.5 5.5h-11s-5.5 0-5.5 5.5v1c0-5.5 5.5-5.5 5.5-5.5h11s5.5 0 5.5-5.5zm-4 17.5v1h4v-1z" fill="#fff" opacity=".2"/><path d="m13 12v1h4v-1zm22 5.5c0 5.5-5.5 5.5-5.5 5.5h-11s-5.5 0-5.5 5.5v1c0-5.5 5.5-5.5 5.5-5.5h11s5.5 0 5.5-5.5zm-32 7v1c0 5.5 3 9.5 7 9.5h3v-1h-3c-4 0-7-4-7-9.5zm28 10.5v1h4v-1z" opacity=".1"/></svg>