<svg height="48" width="48" xmlns="http://www.w3.org/2000/svg"><circle cx="24" cy="25" opacity=".2" r="22"/><circle cx="24" cy="24" fill="#0277bd" r="22"/><path d="m24 2c-12.2 0-22 9.9-22 22v .6c.3-11.9 10-21.6 22-21.6s21.7 9.7 22 21.6v-.6c0-12.1-9.8-22-22-22z" fill="#fff" opacity=".2"/><path d="m19 16v19h-2.3l3.8 6 3.8-6h-2.3v-19z" fill="#81d4fa"/><path d="m29 32v-19h2.3l-3.8-6-3.8 6h2.3v19z" fill="#b3e5fc"/><g fill="none" stroke-width="3"><ellipse cx="15.2" cy="24" rx="5.3" ry="6.5" stroke="#81d4fa"/><ellipse cx="32.8" cy="24" rx="5.3" ry="6.5" stroke="#b3e5fc"/></g></svg>