<svg viewBox="0 0 48 48"><path d="m8 7h38v30l-6 6h-38v-30z" opacity=".2"/><path d="m8 6h38v30l-6 6h-38v-30z" fill="#26d03a"/><g fill="#fff"><path d="m18 14c-5.6 0-7.2 3.4-7.2 9.3 0 6 1.7 9.1 7.2 9.1.9 0 1.6-.2 1.6-.2l2.3 3.8 2.7-1.2-2.2-3.5s3-1.4 2.9-8c0-5.9-1.7-9.3-7.3-9.3zm11 1.2v3.7h-1.6v2.5h1.6v4.6h2.8v-4.6h3.6v-2.5h-3.6v-3.7zm-11 1.3c3.4 0 4.3 2.4 4.3 6.8 0 4.5-.8 6.6-4.3 6.6s-4.2-2.1-4.2-6.6c0-4.4.8-6.8 4.2-6.8z"/><path d="m8 6-6 6v1l6-6h38v-1z" opacity=".2"/></g><circle cx="36" cy="36" opacity=".2" r="12"/><circle cx="36" cy="35" fill="#435ece" r="12"/><path d="m37 42h-2v-2h2zm0-4h-2v-.5c0-3.1 3-3.5 3-5.5 0-1.1-.9-2-2-2s-2 .9-2 2h-2c0-2.2 1.8-4 4-4s4 1.8 4 4c0 2.9-3 2.6-3 6z" fill="#fff"/></svg>