<svg height="48" width="48" xmlns="http://www.w3.org/2000/svg" xmlns:xlink="http://www.w3.org/1999/xlink"><use opacity=".2" xlink:href="#a" y="1"/><g fill="#ff9800"><g id="a"><rect height="24" rx="2" width="32" x="8" y="20"/><circle cx="24" cy="16" r="12"/><path d="m12 16h24v5h-24z"/></g></g><use opacity=".2" xlink:href="#b" y="1"/><g fill="#fff"><g id="b"><circle cx="24" cy="16" r="8"/><path d="m24 20v7c5.2-2 8-5.4 8-11"/></g></g><g opacity=".4"><circle cx="24" cy="32" r="2"/><path d="m24 36c-5 0-5 3.3-5 3.3v.7h10v-.7s0-3.3-5-3.3z"/></g><path d="m24 4c-6.6 0-12 5.3-12 12v1c0-6.7 5.4-12 12-12s12 5.3 12 12v-1c0-6.7-5.4-12-12-12zm-14 16s-2 0-2 2v1s0-2 2-2h2v-1zm26 0v1h2s2 0 2 2v-1s0-2-2-2z" fill="#fff" opacity=".2"/></svg>