<svg viewBox="0 0 48 48"><g fill="none" stroke-width="6"><circle cx="24" cy="25" opacity=".2" r="19" stroke="#000"/><circle cx="24" cy="24" r="19" stroke="#158fe2"/></g><path d="m24 2c-12.1 0-22 9.8-22 22v .5c.2-12 10.1-21.5 22-21.5s21.8 9.5 22 21.5v-.5c0-12.2-9.9-22-22-22zm16 22.5c-.3 8.6-7.3 15.5-16 15.5s-15.7-6.9-16-15.5v.5c0 8.9 7.1 16 16 16s16-7.1 16-16z" fill="#fff" opacity=".2"/><circle cx="29" cy="29" opacity=".5" r="10"/><circle cx="29" cy="28" fill="#2469b2" r="10"/><path d="m19 28v .5c.3-5.3 4.7-9.5 10-9.5s9.7 4.2 10 9.5v-.5c0-5.5-4.5-10-10-10s-10 4.5-10 10z" fill="#f9f9f9" opacity=".2"/></svg>