<svg viewBox="0 0 48 48"><rect height="40" opacity=".2" rx="2" width="32" x="8" y="5"/><rect fill="#c2352a" height="40" rx="2" width="32" x="8" y="4"/><path d="m10 4s-2 0-2 2v36s0 2 2 2h4v-40z" opacity=".2"/><g opacity=".2"><path d="m10 4s-2 0-2 2v1s0-2 2-2h28s2 0 2 2v-1s0-2-2-2z" fill="#fff"/><circle cx="32" cy="36" r="12"/></g><circle cx="32" cy="35" fill="#fec006" r="12"/><path d="m26 38.3v2.7h2.7l6.7-6.8-2.6-2.6zm11.8-6.4c.5-.5 0-1 0-1l-1.7-1.7s-.5-.5-1 0l-1.4 1.4 2.7 2.7z" fill="#fff"/></svg>