<svg height="48" width="48" xmlns="http://www.w3.org/2000/svg" xmlns:xlink="http://www.w3.org/1999/xlink"><g opacity=".2"><use xlink:href="#a" y="1"/><use xlink:href="#b" y="1"/><use xlink:href="#c" y="1"/></g><g fill="#808080"><path id="a" d="m18 40c0 3.3 2.7 6 6 6s6-2.7 6-6z"/></g><g fill="#ffccbc"><path id="b" d="m30.5 4.3 9.2 22.2-22.2 9.2-9.2-22.2zm-6.5-1.3 17 17-17 17-17-17zm-6.5 1.3 22.2 9.2-9.2 22.2-22.2-9.2zm-5.5 3.7h24v24h-24z"/></g><g fill="#ff8a65"><g id="c"><circle cx="24" cy="20" r="12"/><path d="m18 30v8h12v-8z"/></g></g><path d="m24 8v30h6v-7.6s6-3.2 6-10.4c0-6.6-5.4-12-12-12z" fill="#f34235" opacity=".5"/><g fill="#fff"><path d="m24 3 2.8 2.8 3.7-1.5 1.5 3.7h4v1h-4l-1.5-3.7-3.7 1.5-2.8-2.8-2.8 2.8-3.7-1.5-1.5 3.7h-4v-1h4l1.5-3.7 3.7 1.5zm12 9 3.7 1.5-.4.9-3.3-1.4zm-24 0v1l-3.3 1.4-.4-.9zm26.5 5.5 2.5 2.5-.5.5-2.3-2.3zm-29 0 .3.7-2.3 2.3-.5-.5zm29 6.1 1.2 2.9-.4.1-1.1-2.8zm-29 0 .3.2-1.1 2.9-.4-.2z" opacity=".5"/><path d="m18 40 .1 1h11.8l.1-1z" opacity=".2"/></g></svg>