<svg viewBox="0 0 48 48"><rect height="32" opacity=".2" rx="2" width="40" x="4" y="9"/><rect fill="#78909c" height="32" rx="2" width="40" x="4" y="8"/><g fill="#fff"><path d="m6 8s-2 0-2 2v1s0-2 2-2h36s2 0 2 2v-1s0-2-2-2z" opacity=".1"/><path d="m7 11h34v26h-34z" opacity=".2"/></g><path d="m4 24c8.8 0 16 7.2 16 16m-16-10c5.5 0 10 4.5 10 10m-10-4c2.2 0 4 1.8 4 4" fill="none" stroke="#cfd8dc" stroke-width="4"/><circle cx="6" cy="38" fill="#cfd8dc" r="2"/><path d="m4 23c9.6 0 17.5 7.6 17.9 17h .1c0-9.9-8.1-18-18-18zm0 6c6.3 0 11.6 5 11.9 11h .1c0-6.6-5.4-12-12-12zm0 6c3 0 5.5 2.2 5.9 5h .1c0-3.3-2.7-6-6-6z" fill="#fff" opacity=".2"/></svg>