<svg height="48" width="48" xmlns="http://www.w3.org/2000/svg"><rect height="40" opacity=".2" rx="3" width="40" x="4" y="5"/><rect fill="#f2f2f2" height="40" rx="3" width="40" x="4" y="4"/><path d="m7 4s-3 0-3 3v1s0-3 3-3h34s3 0 3 3v-1s0-3-3-3z" fill="#fff" opacity=".2"/><path d="m14 10h13s7 0 7 7-7 7-7 7h-5-8 8c10 0 9 14 14 14" fill="none" stroke="#000" stroke-linecap="square" stroke-width="2"/><path d="m12 8h4v28h-4z" fill="#f44336"/><path d="m14 40-2-4 .5-.5.5.5.5-.5.5.5.5-.5.5.5.5-.5.5.5z" fill="#fffde7"/><path d="m13 38 1 2 1-2z"/></svg>