<svg viewBox="0 0 48 48"><circle cx="24" cy="25" opacity=".2" r="22"/><circle cx="24" cy="24" fill="#3f51b5" r="22"/><path d="m24 2c-12.2 0-22 9.9-22 22v .6c.3-11.9 10-21.6 22-21.6s21.7 9.7 22 21.6v-.6c0-12.1-9.8-22-22-22z" fill="#fff" opacity=".2"/><use opacity=".2" xlink:href="#a" y="1"/><g fill="#ececec"><path id="a" d="m16 2v12l-4 12 11 14v-19.2s-2-.6-2-2.8c0-1.7 1.3-3 3-3s3 1.3 3 3c0 2.2-2 2.8-2 2.8v19.2l11-14-4-12v-12z"/></g><path d="m16 2v12l-4 12 11 14v-19.2s-2-.6-2-2.8c0-1.7 1.3-3 3-3v-13z" fill="#fff" opacity=".5"/></svg>