<svg viewBox="0 0 48 48"><rect height="40" opacity=".2" rx="3" width="40" x="4" y="5"/><rect fill="#ff9800" height="40" rx="3" width="40" x="4" y="4"/><g fill="#fff"><path d="m7 4s-3 0-3 3v1s0-3 3-3h34s3 0 3 3v-1s0-3-3-3z" opacity=".2"/><path d="m14 18.1c-2.2-.5-4.1 1.4-3.9 3.3-1.3-.6-2.9.8-2.4 1.6h5.7c1.2-2.4 4.5-4.1 7.8-2.3 0 0 .7-1.8 2.4-3-1.3-6.3-9.5-4.9-9.6.4zm7.8 4.6c-4-3.8-9.2.6-7.6 4.5-3.9 1.6-2 6.7 1 6.8h1.7c2.8 0 4.8-7.5 8.7-8.9 4.4-1.9 7.9 2.8 5.5 5.3-2.3 1.1-4.1-.8-2.3-3.4-3.2.6-3.7 7-.7 7h7.1c5.2 0 7.2-9.7-.6-9.5.2-8.6-11.1-9.7-12.8-1.8z"/></g></svg>