<svg viewBox="0 0 48 48"><rect height="36" opacity=".2" rx="2" width="40" x="4" y="7"/><rect fill="#2196f3" height="36" rx="2" width="40" x="4" y="6"/><rect height="20" opacity=".2" rx="1" width="28" x="10" y="15"/><rect fill="#ececec" height="20" rx="1" width="28" x="10" y="14"/><path d="m24 16s-2 0-2 2 2 2 2 2 2 0 2-2-2-2-2-2zm0 5c-4 0-4 2.7-4 2.7v1.3h8v-1.3s0-2.7-4-2.7z" fill="#4d4d4d"/><g fill="#fff"><path d="m13 27h22v4h-22z"/><path d="m11 14s-1 0-1 1v1s0-1 1-1h26s1 0 1 1v-1s0-1-1-1z" opacity=".5"/><path d="m6 6s-2 0-2 2v1s0-2 2-2h36s2 0 2 2v-1s0-2-2-2z" opacity=".2"/></g></svg>