<svg height="48" width="48" xmlns="http://www.w3.org/2000/svg" xmlns:xlink="http://www.w3.org/1999/xlink"><g opacity=".2"><circle cx="24" cy="25" r="16"/><use stroke="#000" xlink:href="#a" y="1"/></g><circle cx="24" cy="24" fill="#3f3f3f" r="16"/><g fill="#3f3f3f" stroke="#3f3f3f"><path id="a" d="m20 43-3-15-11.5-10 4-7 14.5 5 14.5-5 4 7-11.5 10-3 15zm0-38-3 15-11.5 10 4 7 14.5-5 14.5 5 4-7-11.5-10-3-15z" stroke-linejoin="round" stroke-width="2"/></g><path d="m18 14v2h3v2h-5v5h-2v-3h-2v8h2v-3h2v3l4 4h9l2-2h2v1h2l1-1v-8l-1-1h-2v1h-.7l-4-4h-5.3v-2h3v-2zm0 6h9l4 4h3v4h-4l-2 2h-6.7l-3.3-3.3z" fill="#fe9700"/></svg>