<svg viewBox="0 0 48 48"><g opacity=".2"><use xlink:href="#a" y="1"/><use xlink:href="#b" y="1"/></g><g fill="#ccc"><path id="a" d="m28.3 4.5s-8.9-2.6-16.9 4l7.3 12.7zm-19 6s-7 6.6-4.9 17.5h15z"/></g><g fill="#3f51b5"><path id="b" d="m43.1 18s-2.4-9-12-12.7l-7.3 12.7zm.5 2h-15l10.1 17.5s7.1-6.8 4.9-17.5zm-38.7 10s2.4 9 12 12.7l7.3-12.7zm14.8 13.5s8.8 2.6 16.9-4l-7.3-12.7z"/></g><path d="m11.4 8.5.4.7c7.9-6.1 16-3.8 16-3.8l.5-.9s-9-2.6-16.9 4zm19.7-3.2-7.3 12.7h.5l6.8-11.7c9.1 3.5 11.6 11.7 11.6 11.7h.4s-2.3-8.9-12-12.7zm-21.8 5.2s-5.3 5-5.3 13.5v.7c.1-8.2 5.3-13.2 5.3-13.2l9.5 16.5h.6zm19.3 9.5.6 1h14.4c.3 1.4.4 3.3.4 3.3v-.3s.1-1.6-.4-4zm .7 6.8-9.6 16.7.5.1 9.1-15.8 6.9 12 .4-.3zm-24.4 3.2.4 1h18.4l.5-1z" fill="#fff" opacity=".1"/></svg>