<svg viewBox="0 0 48 48"><use opacity=".2" xlink:href="#a" y="1"/><g fill="#00aff0"><g id="a"><circle cx="14" cy="14" r="11"/><circle cx="34" cy="34" r="11"/><circle cx="24" cy="24" r="20"/></g></g><g fill="#fff"><path d="m23.6 10.7c6.5 0 10 3.5 10 5.5 0 1.9-1 2.4-2.6 2.4-3.1 0-1.9-3.8-7.8-3.8-1.9 0-4.3.9-4.3 3.1 0 4.7 15.9 2.1 15.9 11.7 0 5.1-4.1 7.7-10.7 7.7-6.5 0-10.8-4-10.8-6 0-1.9.9-2.6 2.4-2.6 3.1 0 2.7 4.3 8.6 4.3 2 0 4.8-.9 4.8-3.1.9-5.9-15.2-1.5-15.9-11.2 0-5.1 3.8-8 10.4-8z"/><path d="m14 3c-6.1 0-11 4.9-11 11v .4c.3-5.8 5.2-10.4 11-10.4 3.1 0 5.6 1.5 5.6 1.5s2.1-.5 4.4-.5c10.9 0 19.7 8.7 20 19.6v-.6c0-11-8.9-20-20-20-2.3 0-4.4.5-4.4.5s-2.5-1.5-5.6-1.5zm-9.6 17.2s-.4 1.4-.4 3.8v.4c0-1.6.5-3.8.5-3.8zm39.2 8.5-.1.7s1.5 2.8 1.5 5.2v-.6c0-3.2-1.4-5.3-1.4-5.3z" opacity=".2"/></g></svg>