<svg height="48" width="48" xmlns="http://www.w3.org/2000/svg" xmlns:xlink="http://www.w3.org/1999/xlink"><g opacity=".2"><use xlink:href="#a" y="1"/><use xlink:href="#b" y="1"/></g><g fill="#009688"><g id="a"><rect height="24" rx="2" width="32" x="12" y="4"/><path d="m44 32-4-4 4-2z"/></g></g><g fill="#80cbc4"><g id="b"><rect height="24" rx="2" width="32" x="4" y="16"/><path d="m4 44 4-4-4-2z"/></g></g><g fill="#fff"><path d="m14 4s-2 0-2 2v1s0-2 2-2h28s2 0 2 2v-1s0-2-2-2zm-8 12s-2 0-2 2v1s0-2 2-2h28s2 0 2 2v-1s0-2-2-2z" opacity=".2"/><path d="m16 20v4h-3v2h3v4h-3v2h3v4h2v-4h4v4h2v-4h3v-2h-3v-4h3v-2h-3v-4h-2v4h-4v-4zm2 6h4v4h-4z"/></g></svg>