<svg height="48" width="48" xmlns="http://www.w3.org/2000/svg" xmlns:xlink="http://www.w3.org/1999/xlink"><use opacity=".2" xlink:href="#a" y="1"/><g fill="#ececec"><path id="a" d="m19 4s-3 0-3 3v3h-12v30s0 2 2 2h36s2 0 2-2v-30h-12v-3s0-3-3-3zm1.5 3h7s1.5 0 1.5 1.5c0 0 0 1.5-1.5 1.5h-7s-1.5 0-1.5-1.5c0 0 0-1.5 1.5-1.5z"/></g><circle cx="35" cy="35" opacity=".2" r="12"/><circle cx="35" cy="34" fill="#03a9f4" r="12"/><g fill="#fff"><path d="m30.4 32h2.6v-5h4v5.1h2.6l-4.6 6.9zm9.6 7v2h-10v-2z"/><path d="m19 4c-3 0-3 3-3 3v1s0-3 3-3h10c3 0 3 3 3 3v-1s0-3-3-3zm .1 5-.1.5c0 1.5 1.5 1.5 1.5 1.5h7s1.5 0 1.5-1.5l-.1-.5s-.2 1-1.4 1h-7c-1.2 0-1.4-1-1.4-1zm-15.1 1v1h12v-1zm28 0v1h12v-1z" opacity=".5"/></g></svg>