<svg viewBox="0 0 48 48"><circle cx="24" cy="25" opacity=".2" r="22"/><circle cx="24" cy="24" fill="#00897b" r="22"/><path d="m24 2c-12.2 0-22 9.9-22 22v .6c.3-11.9 10-21.6 22-21.6s21.7 9.7 22 21.6v-.6c0-12.1-9.8-22-22-22z" fill="#fff" opacity=".2"/><g opacity=".2"><path d="m43 12.9-7 11.1h10c0-6.5-3-11.1-3-11.1zm-41 11.1c0 6.5 3 11.1 3 11.1l7-11.1z"/><path d="m24 43.5c10.8 0 19.5-8.7 19.5-19.5m-19.5-19.5c-10.8 0-19.5 8.7-19.5 19.5" fill="none" stroke="#000" stroke-width="5"/></g><g fill="#fff"><circle cx="18" cy="30" r="4"/><circle cx="29" cy="30" r="4"/><path d="m20 15v15h2v-10h9v10h2v-15z"/></g></svg>