<svg viewBox="0 0 48 48"><rect height="32" opacity=".2" rx="2" width="40" x="4" y="11"/><path d="m4 16v-8c0-2 2-2 2-2h16l4 4v6z" fill="#f57c00"/><path d="m44 40v-28s0-2-2-2h-16l-4 4h-16s-2 0-2 1.9v24.1s0 2 2 2h36s2 0 2-2z" fill="#ff9800"/><g fill="#fff"><path d="m6 6s-2 0-2 2v1s0-2 2-2h16l4 4v-1l-4-4z" opacity=".2"/><path d="m26 10-4 4h-16s-2 0-2 2v1s0-2 2-2h16l4-4h16s2 0 2 2v-1s0-2-2-2z" opacity=".2"/></g><path d="m25 10-3 3h-16s-2 0-2 2v1s0-2 2-2h16l3.5-3.5z" opacity=".05"/><path d="m4 39v1s0 2 2 2h36s2 0 2-2v-1s0 2-2 2h-36s-2 0-2-2z" opacity=".1"/><use opacity=".2" stroke="#000" xlink:href="#a" y="1"/><g stroke="#fff"><path id="a" d="m31.8 23.7-1.4 4.1h-4.2c-.8 0-1.1 1-.5 1.4l3.5 2.5-1.3 4.1c-.3.8.7 1.3 1.2.9l3.4-2.6 3.4 2.6c.5.4 1.5-.1 1.2-.9l-1.3-4.1 3.5-2.5c.6-.4.3-1.4-.5-1.4h-4.2l-1.4-4.1c-.3-.8-1.1-.8-1.4 0z" fill="none" stroke-linecap="round" stroke-linejoin="round" stroke-width="1.5"/></g></svg>