<svg viewBox="0 0 48 48"><rect height="40" opacity=".2" rx="3" width="40" x="4" y="5"/><rect fill="#b71c1c" height="40" rx="3" width="40" x="4" y="4"/><g fill="#fff"><path d="m7 4s-3 0-3 3v1s0-3 3-3h34s3 0 3 3v-1s0-3-3-3z" opacity=".2"/><path d="m26 9.5-4.8.1-1.2.9-10.7-.5-.2 1.3.7 1-.8 3.8 1.3 8.4-.9.4.2 3.5.7.5-.4 3.1-.4.2-.3 6h11.8l.7.7 3.5.3.9-.5 5.6-.1 1.8.2 5.6-.7-.1-11.5-1.1.1.7-1.1v-2.2l-1-2.3 1.3-1.6.1-8.8-1.7-.6-8.4-.4-.1.9-1.4.2zm-10.7 4.9 20.3 13.8-1.6 5.8-3.8.1-17.8-18.9zm16.1.3 2.3 1.2-.7 4.7-6.3-4.8zm-16.7 12.4 6.1 6.1-3.7 1.3-1.9-.1-2.3-2z"/></g></svg>