<svg viewBox="0 0 48 48"><circle cx="24" cy="25" opacity=".2" r="20"/><circle cx="24" cy="24" fill="#1a237e" r="20"/><path d="m24 4c-11 0-20 8.9-20 20v .5c.3-10.8 9.2-19.5 20-19.5s19.7 8.7 20 19.5v-.5c0-11.1-9-20-20-20z" fill="#fff" opacity=".1"/><g fill="#e8eaf6"><path d="m17.9 26.8 5.6-7.5 7.2 7.2-6.8 5.1z"/><circle cx="30.7" cy="19.3" r="7.4"/><circle cx="30.7" cy="19.3" fill="none" r="4" stroke="#1a237e" stroke-width="1.3"/><circle cx="18.7" cy="32" r="5.3"/><circle cx="18.7" cy="32" fill="none" r="3.7" stroke="#1a237e" stroke-width=".8"/><path d="m4.1 22.1 16.2 7-2.8 6-12.7-5.4c-.9-2.9-.9-5.5-.7-7.6z"/></g></svg>