<svg viewBox="0 0 48 48"><rect height="40" opacity=".2" rx="3" width="40" x="4" y="5"/><rect fill="#4a148c" height="40" rx="3" width="40" x="4" y="4"/><path d="m7 4s-3 0-3 3v1s0-3 3-3h34s3 0 3 3v-1s0-3-3-3z" fill="#fff" opacity=".2"/><path d="m44 30v11c0 3-3 3-3 3h-34c-3 0-3-3-3-3v-1s16-10 40-10z" fill="#4a1d59"/><path d="m44 30v1c-24 0-40 10-40 10v-1s16-10 40-10z" fill="#fff" opacity=".2"/><path d="m4 30v11s0 3 3 3h34s3 0 3-3v-1s-16-10-40-10z" fill="#1a1a1a"/><path d="m4 30v1c24 0 40 10 40 10v-1s-16-10-40-10z" fill="#fff" opacity=".2"/><path d="m18.5 25.5 2-.8 2 .8-2 .8zm2-2 .8 2-.8 2-.8-2zm0-6-2 .8-2-.8 2-.8zm-2 2-.8-2 .8-2 .8 2zm-8 6 2-.8 2 .8-2 .8zm2-2 .8 2-.8 2-.8-2zm26 2 2-.8 2 .8-2 .8zm2-2 .8 2-.8 2-.8-2zm-32-11 4-1.6 4 1.6-4 1.6zm4-4 1.6 4-1.6 4-1.6-4z" fill="#fff" opacity=".8"/><circle cx="32" cy="17" opacity=".2" r="8"/><circle cx="32" cy="16" fill="#fffde7" r="8"/></svg>