<svg viewBox="0 0 48 48"><rect height="40" opacity=".2" rx="2" width="40" x="4" y="5"/><rect fill="#cecece" height="40" rx="2" width="40" x="4" y="4"/><rect fill="#555" height="33" rx="2" width="32" x="8" y="7"/><path d="m18.8 28.4s1.8 2.9 5.6 2.9c4.6 0 4.8-3.9 4.8-3.9s.5-3.4-5.1-4.6c-5.2-1.3-4.9-4.4-4.9-4.4s.3-3.7 4.4-3.7c3.2 0 4.9 2.3 4.9 2.3" fill="none" stroke="#ffab36" stroke-linecap="round" stroke-width="3.4"/><path d="m8 36v2s0 2 2 2h28s2 0 2-2v-2s0 2-2 2h-28s-2 0-2-2z" opacity=".2"/><path d="m38 7c2 0 2 2 2 2v1c0-2-2-2-2-2h-28c-2 0-2 2-2 2v-1c0-2 2-2 2-2z" fill="#fff" opacity=".2"/><path d="m4 41v1s0 2 2 2h36s2 0 2-2v-1s0 2-2 2h-36s-2 0-2-2z" opacity=".1"/></svg>