<svg viewBox="0 0 48 48"><rect height="40" opacity=".2" rx="2" width="40" x="4" y="5"/><rect fill="#4d4d4d" height="40" rx="2" width="40" x="4" y="4"/><path d="m4 7v-1s0-2 2-2h36s2 0 2 2v1s0-2-2-2h-36s-2 0-2 2z" fill="#fff" opacity=".1"/><g stroke-linejoin="round" stroke-width="1.2"><path d="m33.4 24.3v6l-18.8 6v-6z" fill="#f48e00" stroke="#f48e00"/><path d="m33.4 12.7-18.8 6v6.3l18.8 6v-6l-9.9-3.2 9.9-3.1z" opacity=".2" stroke="#000"/><path d="m33.4 11.7-18.8 6v6.3l18.8 6v-6l-9.9-3.2 9.9-3.1z" fill="#ff9800" stroke="#ff9800"/></g></svg>