<svg height="48" width="48" xmlns="http://www.w3.org/2000/svg" xmlns:xlink="http://www.w3.org/1999/xlink"><circle cx="24" cy="25" opacity=".2" r="22"/><circle cx="24" cy="24" fill="#0891d1" r="22"/><path d="m24 2c-12.2 0-22 9.9-22 22v .6c.3-11.9 10-21.6 22-21.6s21.7 9.7 22 21.6v-.6c0-12.1-9.8-22-22-22z" fill="#fff" opacity=".2"/><use opacity=".1" stroke="#000" xlink:href="#a" y="-1"/><g stroke="#ebebeb"><g id="a" fill="none" stroke-width="2"><circle cx="24" cy="24" r="15"/><path d="m31.5 11-7.5 13m0 0 7.5 13m-22.5-13h15"/></g></g><use opacity=".2" xlink:href="#b" y="1"/><g fill="#fff"><g id="b"><circle cx="9" cy="24" r="4"/><circle cx="24" cy="24" r="4"/><circle cx="31.5" cy="37" r="4"/><circle cx="31.5" cy="11" r="4"/></g></g></svg>