<svg height="48" width="48" xmlns="http://www.w3.org/2000/svg"><circle cx="24" cy="25" opacity=".2" r="22"/><path d="m24 2a22 22 0 0 1 22 22h-22z" fill="#009688"/><path d="m42 20-4 4h-14v22a22 22 0 0 0 22-22z" fill="#00bcd4"/><path d="m2 24a22 22 0 0 0 22 22l4-4-4-4v-14z" fill="#cddc39"/><path d="m24 2a22 22 0 0 0 -22 22l4 4 4-4h14z" fill="#2196f3"/><path d="m24 2-4 4 4 4z" fill="#009688"/><path d="m24 2c-12.2 0-22 9.9-22 22v .6c.3-11.9 10-21.6 22-21.6s21.7 9.7 22 21.6v-.6c0-12.1-9.8-22-22-22z" fill="#fff" opacity=".2"/><circle cx="24" cy="25" opacity=".2" r="14"/><circle cx="24" cy="24" fill="#f9f9f9" r="14"/></svg>