<svg viewBox="0 0 48 48"><rect height="40" opacity=".2" rx="3" width="40" x="4" y="5"/><rect fill="#ececec" height="40" rx="3" width="40" x="4" y="4"/><g fill="#fff"><path d="m7 4s-3 0-3 3v1s0-3 3-3h34s3 0 3 3v-1s0-3-3-3z" opacity=".2"/><path d="m22 15-14 7.1v1.8l14 7.1v-2.4l-11.3-5.6 11.3-5.6zm4 4v2.4l11.2 5.6-11.2 5.6v2.4l14-7.1v-1.8z"/></g><path d="m22 16.4-11.3 5.6 11.3 5.6v2.4l-14-7.1v-1.8l14-7.1z" fill="#3f51b5"/><path d="m26 20.4v-2.4l14 7.1v1.8l-14 7.1v-2.4l11.2-5.6z" fill="#673ab7"/></svg>