<svg viewBox="0 0 48 48"><path d="m6 14v-6c0-2 2-2 2-2h12l4 4v4z" fill="#546e7a"/><path d="m8 6s-2 0-2 2v1s0-2 2-2h12l4 4v-1l-4-4z" fill="#fff" opacity=".1"/><path d="m23.5 9.5-3.5 3.5h-14v1h14l4-4z" opacity=".1"/><path d="m42 14v-2s0-2-2-2h-16l-4 4z" fill="#78909c"/><path d="m24 10-4 4v1l4-4h16s2 0 2 2v-1s0-2-2-2z" fill="#fff" opacity=".1"/><rect height="5" opacity=".2" rx="2" width="40" x="4" y="40"/><rect fill="#cfd8dc" height="30" rx="2" width="40" x="4" y="14"/><path d="m6 14s-2 0-2 2v1s0-2 2-2h36s2 0 2 2v-1s0-2-2-2z" fill="#fff" opacity=".2"/><rect height="2" opacity=".2" rx=".5" width="12" x="18" y="21"/><rect fill="#fff" height="2" rx=".5" width="12" x="18" y="20"/></svg>