<svg viewBox="0 0 48 48"><rect height="5" opacity=".2" rx="2" width="40" x="4" y="40"/><rect fill="#866e52" height="8" rx="2" width="40" x="4" y="4"/><rect fill="#ab8c69" height="8" rx="2" width="40" x="4" y="8"/><rect fill="#c6ae91" height="32" rx="2" width="40" x="4" y="12"/><g opacity=".1"><path d="m6 4s-2 0-2 2v1s0-2 2-2h36s2 0 2 2v-1s0-2-2-2zm0 4s-2 0-2 2v1s0-2 2-2h36s2 0 2 2v-1s0-2-2-2zm0 4s-2 0-2 2v1s0-2 2-2h36s2 0 2 2v-1s0-2-2-2z" fill="#fff"/><path d="m4 41v1s0 2 2 2h36s2 0 2-2v-1s0 2-2 2h-36s-2 0-2-2z"/></g></svg>