<svg viewBox="0 0 48 48"><g opacity=".2"><circle cx="24" cy="25" r="16"/><use stroke="#000" xlink:href="#a" y="1"/></g><circle cx="24" cy="24" fill="#d32f2f" r="16"/><g fill="#d32f2f" stroke="#d32f2f"><path id="a" d="m20 43-3-15-11.5-10 4-7 14.5 5 14.5-5 4 7-11.5 10-3 15zm0-38-3 15-11.5 10 4 7 14.5-5 14.5 5 4-7-11.5-10-3-15z" stroke-linejoin="round" stroke-width="2"/></g><use opacity=".2" xlink:href="#b" y="1"/><g fill="#fff"><path d="m19.7 4-.6.5-.9 4.6s-2.5 1-4.2 2.4l-4.4-1.5-.8.3-4.2 7.3v.9l4.2-7.2.8-.3 4.4 1.5c1.7-1.4 4.2-2.4 4.2-2.4l.9-4.6.6-.5h8.6l.6.5.9 4.6s2.4.9 4.2 2.4l4.5-1.5.7.3 4.2 7.1v-.8l-4.2-7.3-.7-.3-4.5 1.5c-1.8-1.5-4.2-2.4-4.2-2.4l-.9-4.6-.6-.5zm-11.5 22.4-3.6 3.1-.1.5.1.5 3.6-3.1zm31.6 0v1l3.6 3.1.1-.5-.1-.5z" opacity=".1"/><path id="b" d="m23.7 31c-1.8 0-3.2-1.4-3.2-3.1 0-1.6 1-2.8 2.8-3.1 1.8-.4 3.6-1.2 4.6-2.6.4 1.3.6 2.7.6 4 0 2.6-2.1 4.8-4.8 4.8m1.8-18.3s.7 2.6.7 4.8c0 2.1-1.4 3.7-3.4 3.7-2.1 0-3.6-1.7-3.6-3.7v-.4c-2 2.4-3.2 5.5-3.2 8.9 0 4.4 3.6 8 8 8s8-3.6 8-8c0-5.4-2.6-10.2-6.5-13.3z"/></g></svg>