<svg viewBox="0 0 48 48"><rect height="40" opacity=".2" rx="2" width="32" x="8" y="5"/><rect fill="#ebebeb" height="40" rx="2" width="32" x="8" y="4"/><path d="m37 7.5h-26m26 4h-26m26 4h-26m26 4h-26m26 4h-26m26 4h-26m26 4h-26m26 4h-26m26 4h-26" opacity=".1" stroke="#000"/><path d="m10 4s-2 0-2 2v1s0-2 2-2h28s2 0 2 2v-1s0-2-2-2z" fill="#fff" opacity=".1"/><circle cx="32" cy="35" opacity=".2" r="12"/><circle cx="32" cy="34" fill="#673ab7" r="12"/><path d="m32 29c-6 0-8 5-8 5s2 5 8 5 8-5 8-5-2-5-8-5z" fill="#fff"/><circle cx="32" cy="34" fill="none" r="2" stroke="#673ab7" stroke-width="2"/></svg>