<svg viewBox="0 0 48 48"><rect fill="#3f3f3f" height="36" opacity=".9" rx="2" width="40" x="4" y="6"/><path d="m4 39v1s0 2 2 2h36s2 0 2-2v-1s0 2-2 2h-36s-2 0-2-2z" opacity=".2"/><path d="m6 6s-2 0-2 2v32s0 2 2 2h18v-36z" opacity=".1"/><path id="a" d="m8.1 9.5v.5s-1.3.2-1.3 1.3 1.3 1.4 1.3 1.4v1.5c-.4 0-.9-.7-.9-.7l-.5.8s.8.7 1.4.7v.5h.8v-.5s1.4-.2 1.4-1.5c0-1.1-1.4-1.4-1.4-1.4v-1.3c.4 0 .7.6.7.6l.6-.6s-.7-.8-1.3-.8v-.5zm0 1.3v1s-.4-.1-.4-.5.4-.5.4-.5zm.8 2.2s.5.1.5.6-.5.6-.5.6zm3.1 2v1h4v-1z" fill="#fff" opacity=".8"/><use x="19" xlink:href="#a"/></svg>