<svg height="48" width="48" xmlns="http://www.w3.org/2000/svg"><rect height="40" opacity=".2" rx="2" width="36" x="6" y="5"/><rect fill="#c2352a" height="40" rx="2" width="36" x="6" y="4"/><path d="m6 41v1s0 2 2 2h32s2 0 2-2v-1s0 2-2 2h-32s-2 0-2-2z" opacity=".2"/><rect height="31" opacity=".1" rx="1" width="28" x="10" y="9"/><rect fill="#ebebeb" height="31" rx="1" width="28" x="10" y="8"/><g fill="#fff"><path d="m8 4s-2 0-2 2v1s0-2 2-2h32s2 0 2 2v-1s0-2-2-2z" opacity=".1"/><path d="m10 10v-1c0-1 1-1 1-1h26c1 0 1 1 1 1v1c0-1-1-1-1-1h-26c-1 0-1 1-1 1z" opacity=".2"/></g><path d="m24 34-6-7h3v-7h-3l6-7 6 7h-3v7h3z" fill="#3f3f3f"/></svg>