<svg height="48" width="48" xmlns="http://www.w3.org/2000/svg"><path d="m3 5v26c20 0 22 14 42 14v-40z" opacity=".2"/><path d="m3 4c20 0 22 14 42 14v26c-20 0-22-14-42-14z" fill="#1a237e"/><path d="m15 28.1v2l2 .9v-2zm4 1.9v2l2 1.1v-2zm4 2.4v2l2 1.2v-2zm4 2.5v2l2 1.1v-2zm4 2.1v2l2 .9v-2zm4 1.6v2l2 .5v-2zm4 .9v2l2 .3v-2zm4 .4v2l2 .1v-2z" fill="#fff" opacity=".5"/><path d="m17 13v14c5.1 2.4 8.9 5.6 14 8v-14c-5.1-2.4-8.9-5.6-14-8zm16 8.9v14c3.3 1.3 7.1 2.1 12 2.1v-14c-4.9 0-8.7-.8-12-2.1z" opacity=".1"/><path d="m3 5h42v26h-42z" opacity=".2"/><path d="m3 4h42v26h-42z" fill="#3949ab"/><path d="m3 6v2h2v-2zm4 0v2h2v-2zm4 0v2h2v-2zm4 0v2h2v-2zm4 0v2h2v-2zm4 0v2h2v-2zm4 0v2h2v-2zm4 0v2h2v-2zm4 0v2h2v-2zm4 0v2h2v-2zm4 0v2h2v-2zm-40 20v2h2v-2zm4 0v2h2v-2zm4 0v2h2v-2zm4 0v2h2v-2zm4 0v2h2v-2zm4 0v2h2v-2zm4 0v2h2v-2zm4 0v2h2v-2zm4 0v2h2v-2zm4 0v2h2v-2zm4 0v2h2v-2z" fill="#fff"/><path d="m3 4h42v1h-42z" fill="#fff" opacity=".2"/><path d="m3 9v16h12v-16zm14 0v16h14v-16zm16 0v16h12v-16z" opacity=".1"/></svg>