<svg viewBox="0 0 48 48"><use opacity=".2" xlink:href="#a" y="1"/><g fill="#e6e6e6"><g id="a"><circle cx="14" cy="28" r="10"/><circle cx="24" cy="23" r="12.5"/><circle cx="35.3" cy="29.3" r="8.7"/><path d="m14 34h21.3v4h-21.3z"/></g></g><path d="m20 18h7c3 0 3 3 3 3v12h-3v-5h-7v5h-3v-12c0-3 3-3 3-3zm0 3v4h7v-4z" fill="#666"/><path d="m24 10.5c-5.2 0-9.6 3.1-11.5 7.6-4.8.7-8.5 4.9-8.5 9.9v.5c.3-4.8 3.8-8.7 8.5-9.4 1.9-4.5 6.3-7.6 11.5-7.6 6.1 0 11.2 4.4 12.3 10.1 4.2.5 7.4 3.9 7.7 8.1v-.4c0-4.5-3.4-8.2-7.7-8.7-1.1-5.7-6.2-10.1-12.3-10.1z" fill="#fff" opacity=".5"/></svg>