<svg height="48" width="48" xmlns="http://www.w3.org/2000/svg"><path d="m4 27v16s0 2 2 2h22l16-16v-2z" opacity=".2"/><path d="m6 4s-2 0-2 2v36s0 2 2 2h22l16-16v-22s0-2-2-2z" fill="#4672c4"/><path d="m44 28h-14s-2 0-2 2v14z" fill="#bbd4ff"/><g fill="#fff"><path d="m6 4s-2 0-2 2v1s0-2 2-2h36s2 0 2 2v-1s0-2-2-2z" opacity=".1"/><path d="m17 11c4.6 0 6.3 4 6.3 4h14.7v6h-14.7s-1.7 4-6.3 4c-4.7 0-6.3-4-6.3-4h6.3v-6h-6.3s1.6-4 6.3-4z"/><path d="m30 28s-2 0-2 2v1s0-2 2-2h13l1-1z" opacity=".2"/></g></svg>