<svg viewBox="0 0 48 48"><circle cx="24" cy="25" opacity=".2" r="20"/><circle cx="24" cy="24" fill="#009688" r="20"/><g fill="#fff"><circle cx="24" cy="20" r="7"/><path d="m26.3 29.6c5.7 0 8.1 4.9 8.1 4.9s-3.7 4.5-10.4 4.5-10.4-4.5-10.4-4.5 2.4-4.9 8.1-4.9z"/><path d="m24 5c-11 0-20 9-20 19.5v-.5c0-11 9-20 20-20s20 9 20 20v .5c0-10.5-9-19.5-20-19.5z" opacity=".2"/></g><circle cx="36" cy="36" opacity=".2" r="12"/><circle cx="36" cy="35" fill="#02a8f3" r="12"/><path d="m35 29v2h2v-2zm0 4v8h2v-8z" fill="#fff"/></svg>