<svg height="48" width="48" xmlns="http://www.w3.org/2000/svg"><rect height="36" opacity=".2" rx="2" width="40" x="4" y="7"/><rect fill="#455a64" height="36" rx="2" width="40" x="4" y="6"/><path d="m10 10v1h-.5s-1.5 0-1.5 1.5c0 0 0 1.5 1.5 1.5h.5v1h-1.9s.2 1 1.4 1h .5v1h1v-1h .5s1.5 0 1.5-1.5c0 0 0-1.5-1.5-1.5h-.5v-1h1.9s-.2-1-1.4-1h-.5v-1zm-.5 2h .5v1h-.5s-.5 0-.5-.5c0 0 0-.5.5-.5zm1.5 2h .5s.5 0 .5.5c0 0 0 .5-.5.5h-.5zm4 2v1h6v-1z" fill="#d4e9ee"/><path d="m4 9v-1c0-2 2-2 2-2h36c2 0 2 2 2 2v1c0-2-2-2-2-2h-36c-2 0-2 2-2 2z" fill="#fff" opacity=".1"/></svg>