<svg height="48" width="48" xmlns="http://www.w3.org/2000/svg"><rect height="40" opacity=".2" rx="2" width="40" x="4" y="5"/><rect fill="#ebebeb" height="40" rx="2" width="40" x="4" y="4"/><rect fill="#fff" height="10" opacity=".2" rx="5" width="28" x="10" y="27"/><rect fill="#a5a5a5" height="10" rx="5" width="28" x="10" y="11"/><rect fill="#347d9f" height="10" rx="5" width="28" x="10" y="26"/><g opacity=".2"><circle cx="15" cy="17" r="4"/><circle cx="33" cy="32" r="4"/></g><g fill="#fff"><circle cx="15" cy="16" r="4"/><circle cx="33" cy="31" r="4"/><path d="m6 4s-2 0-2 2v1s0-2 2-2h36s2 0 2 2v-1s0-2-2-2z" opacity=".1"/></g></svg>