<svg height="48" width="48" xmlns="http://www.w3.org/2000/svg"><rect height="9" opacity=".2" rx="1.5" width="16" x="16" y="33"/><rect fill="#4d4d4d" height="9" rx="1.5" width="16" x="16" y="32"/><path d="m16 35h16v3h-16z" opacity=".05"/><rect height="32" opacity=".2" rx="2" width="40" x="4" y="5"/><rect fill="#666" height="32" rx="2" width="40" x="4" y="4"/><path d="m6 4s-2 0-2 2v1s0-2 2-2h36s2 0 2 2v-1s0-2-2-2z" fill="#fff" opacity=".1"/><path d="m6 6h36v24h-36z" fill="#c0ca33"/><g opacity=".5"><circle cx="31" cy="13" r="3"/><path d="m16 18c-4 0-8 4-8 9v1h32s-2.7-8-6.7-8-3.9 4-6.6 4-6.7-6-10.7-6z"/></g><circle cx="36" cy="36" opacity=".2" r="12"/><circle cx="36" cy="35" fill="#f44336" r="12"/><path d="m31 29v12l11-6z" fill="#fff"/></svg>