<svg height="48" width="48" xmlns="http://www.w3.org/2000/svg"><rect height="36" opacity=".2" rx="2" width="40" x="4" y="7"/><rect fill="#3f3f3f" height="36" rx="2" width="40" x="4" y="6"/><path d="m6 6s-2 0-2 2v6h40v-6s0-2-2-2z" opacity=".2"/><path d="m6 6s-2 0-2 2v2h40v-2s0-2-2-2z" opacity=".2"/><g fill="#fff"><path d="m6 6s-2 0-2 2v6h9v-4l-4-4zm9 0 4 4-4 4h5l4-4-4-4zm10 0 4 4-4 4h5l4-4-4-4zm10 0 4 4-4 4h5l4-4-4-4z" opacity=".2"/><path d="m6 6c-1.1 0-2 .9-2 2v1c0-1.1.9-2 2-2h36c1.1 0 2 .9 2 2v-1c0-1.1-.9-2-2-2z" opacity=".2"/><path d="m4 26v14c0 1.1.9 2 2 2h36c1.1 0 2-.9 2-2v-14z" opacity=".05"/></g><path d="m4 39v1c0 1.1.9 2 2 2h36c1.1 0 2-.9 2-2v-1c0 1.1-.9 2-2 2h-36c-1.1 0-2-.9-2-2z" opacity=".1"/><g opacity=".2"><rect height="14" rx="1" width="16" x="14" y="19"/><path d="m36 20v12l-6-6z"/></g></svg>