<svg viewBox="0 0 48 48"><path d="m36 3-18.1 17.6-10.9-8.6-5 2v22l5 2 10.9-8.6 18.1 17.6 10-4.4v-35.2zm0 12.2v19.6l-12.4-9.8zm-29 3.7 6.3 6.1-6.3 6.1z" opacity=".2"/><path d="m2 35v-22l5-2v26z" fill="#1976d2"/><path d="m36 2-34 33 5 2 39-30.6z" fill="#1565c0"/><path d="m36 2-34 33 .7.3 33.3-32.3z" fill="#fff" opacity=".2"/><path d="m36 46-34-33 5-2 39 30.6z" fill="#1e88e5"/><path d="m7 11-5 2 .7.7 4.3-1.7 38.1 30 .9-.4z" fill="#fff" opacity=".2"/><path d="m46 41.6v-35.2l-10-4.4v44z" fill="#2196f3"/><path d="m36 2v1l10 4.4v-1z" fill="#fff" opacity=".2"/></svg>