<svg height="48" width="48" xmlns="http://www.w3.org/2000/svg"><rect height="40" opacity=".2" rx="3" width="40" x="4" y="5"/><rect fill="#ef3938" height="40" rx="3" width="40" x="4" y="4"/><g fill="#fff"><path d="m7 4s-3 0-3 3v1s0-3 3-3h34s3 0 3 3v-1s0-3-3-3z" opacity=".2"/><path d="m26.8 35.3 5.7-9.8s5.9-9.8 5.5-10.4c.1-2.3-1.5-3.7-3.4-3.7-1.4 0-3.5 1.1-3.5 3.3 0 1.7.9 2.6.9 4.4 0 2.7-2 5.5-5.6 5.5s-5.1-3.2-5.1-3.2-3.3-5.9-5.3-9c0 0-1.5-1.7-4-.7-2.3 1-2 3.6-2 3.6-.3.6 10.6 19 10.6 19s1.1 2.5 3.3 2.3c2 .1 2.9-1.3 2.9-1.3z"/></g></svg>