<svg height="48" width="48" xmlns="http://www.w3.org/2000/svg" xmlns:xlink="http://www.w3.org/1999/xlink"><use opacity=".2" xlink:href="#a" y="1"/><g fill="#f80"><path id="a" d="m11 28c-1.4 0-1.8 1.2-1.8 1.2l-5 12s-1 2.4 1.8 2.8h36c2.8-.4 1.8-2.8 1.8-2.8l-5-12s-.4-1.2-1.8-1.2z"/></g><path d="m11 28s-1.3 0-1.8 1.2l-5 12s-.4.7-.1 1.3l5.1-12.3c.5-1.2 1.8-1.2 1.8-1.2h26s1.4 0 1.8 1.2l5.1 12.3c.2-.6-.1-1.3-.1-1.3l-5-12c-.4-1.2-1.8-1.2-1.8-1.2z" fill="#fff" opacity=".2"/><path d="m18.7 29-6.7 5 9 10h21c2-.3 1.9-1.5 1.9-1.5l-5.1-12.3c-.4-1.2-1.8-1.2-1.8-1.2z" opacity=".1"/><path d="m27.9 5.8s0-1.8-3.9-1.8-3.9 1.8-3.9 1.8l-7.2 24.2h22.2z" fill="#f80"/><ellipse cx="24" cy="5.6" fill="#fff" opacity=".1" rx="3.8" ry="1.7"/><path d="m18.2 12-2.3 8c6.1 2.5 10.1 2.5 16.2 0l-2.3-8c-2.8 2-8.8 2-11.6 0zm-6.1 20.8c-.4 1.6.8 2.2.8 2.2s4.1 3 11.1 3 11.1-3 11.1-3 1.2-.6.8-2.2l-1.6-5.4c-6.3 3.5-14.3 3.5-20.6 0z" fill="#fff"/><path d="m23.5 7.3-7.9 29.1s3.4 1.6 8.4 1.6c7 0 11.1-3 11.1-3s1.2-.6.8-2.2l-8.1-27.3s.3 1.9-4.3 1.8z" opacity=".1"/><path d="m24 4c-3.6 0-3.8 1.5-3.8 1.5l.1.6s.7-1.1 3.7-1.1 3.7 1.1 3.7 1.1l.1-.6s-.2-1.5-3.8-1.5z" fill="#fff" opacity=".2"/></svg>