<svg viewBox="0 0 48 48"><path d="m20 12h16v1h-16z" opacity=".2"/><path d="m33 44s3 0 3-3v-26s0-3-3-3h-26s-3 0-3 3v26s0 3 3 3zm-5-8h-16v-16h16z" fill="#ff8f15"/><path d="m12 36h16v1h-16z" fill="#fff" opacity=".2"/><path d="m41 36s3 0 3-3v-26s0-3-3-3h-26s-3 0-3 3v5h24v16h-16v-8h-8v13s0 3 3 3z" fill="#7fb5f3"/><path d="m12 20v1h16v-1zm0 13v1s0 3 3 3h26s3 0 3-3v-1s0 3-3 3h-26s-3 0-3-3zm-8 8v1c0 1.7 1.3 3 3 3h26c1.7 0 3-1.3 3-3v-1c0 1.7-1.3 3-3 3h-26c-1.7 0-3-1.3-3-3z" opacity=".2"/><path d="m15 4s-3 0-3 3v1s0-3 3-3h26s3 0 3 3v-1s0-3-3-3zm-8 8s-3 0-3 3v1s0-3 3-3h26s3 0 3 3v-1s0-3-3-3zm13 16v1h16v-1z" fill="#fff" opacity=".2"/></svg>