<svg height="48" width="48" xmlns="http://www.w3.org/2000/svg" xmlns:xlink="http://www.w3.org/1999/xlink"><use opacity=".2" stroke="#000" xlink:href="#a" y="1"/><g stroke="#ffeb3b"><g id="a" fill="none" stroke-width="6"><g stroke-linejoin="round"><path d="m6 6 10 10m26-10-10 10m10 26-10-10m-26-12.5v-13.5h13.5m9 0h13.5v13.5m0 9v13.5h-13.5" stroke-linecap="round"/><path d="m26 16h6v6m0 4v6h-6m-4 0h-6v-6m0-4v-6h6"/></g><path d="m16 20.5c0-2.5 2-4.5 4.5-4.5m11.5 4.5c0-2.5-2-4.5-4.5-4.5m4.5 11.5c0 2.5-2 4.5-4.5 4.5m-11.5-4.5c0 2.5 2 4.5 4.5 4.5"/></g></g><path d="m6 3s-3 0-3 3v1s0-3 3-3h13.5s2.3 0 3 2.5v-.5s.1-2.8-3-3zm22.5 0s-2.8 0-3 3v .5c.7-2.5 3-2.5 3-2.5h13.5s3 0 3 3v-1s0-3-3-3zm-15.3 7 4 4h4.8v-1h-4.8l-3-3zm20.6 0-3 3h-4.8v1h4.8l4-4zm8.2 15.5c-3 .2-3 3-3 3v1s0-2.8 3-3c3 .2 3 3 3 3v-1s0-2.8-3-3zm-29 .5v1h6v-1zm16 0v1h6v-1zm-10 1.5v1s0 1.5 1.5 1.5h1.5v-1h-1.5s-1.5 0-1.5-1.5zm10 0s0 1.5-1.5 1.5h-1.5v1h1.5s1.5 0 1.5-1.5zm6 3.3v1l4 4v-1zm-6.5 8.2s-2.8 0-3 3v .5s.5-2.5 3-2.5h6.3l-1-1z" fill="#fff" opacity=".4"/></svg>