<svg height="48" width="48" xmlns="http://www.w3.org/2000/svg"><circle cx="24" cy="25" opacity=".2" r="22"/><circle cx="24" cy="24" fill="#9c27b0" r="22"/><path d="m24 2c-12.2 0-22 9.9-22 22v .6c.3-11.9 10-21.6 22-21.6s21.7 9.7 22 21.6v-.6c0-12.1-9.8-22-22-22z" fill="#fff" opacity=".2"/><circle cx="24" cy="25" opacity=".2" r="14"/><circle cx="24" cy="24" fill="#ba68c8" r="14"/><path d="m24 10c-7.7 0-14 6.3-14 14v .6c.3-7.5 6.4-13.6 14-13.6 7.5 0 13.7 6.1 14 13.6v-.6c0-7.7-6.3-14-14-14z" fill="#fff" opacity=".2"/><path d="m24 33v-3m-5-6v1c0 2.8 2.2 5 5 5s5-2.2 5-5v-1" fill="none" stroke="#fff" stroke-width="2"/><rect fill="#fff" height="12" rx="3" width="6" x="21" y="16"/><path d="m22.5 23.5h-2m2.1-2h-2.1m2-2h-2m5 4h2m-2-2h2.1m-2.1-2h2" fill="none" stroke="#ba68c8" stroke-linecap="round"/></svg>