<svg viewBox="0 0 48 48"><rect height="40" opacity=".2" rx="3" width="40" x="4" y="5"/><rect fill="#992b2b" height="40" rx="3" width="40" x="4" y="4"/><g fill="#fff"><path d="m7 4s-3 0-3 3v1s0-3 3-3h34s3 0 3 3v-1s0-3-3-3z" opacity=".2"/><path d="m24 9.5 14.5 14.5-14.5 14.5-14.5-14.5z"/></g><path d="m16 16 16 16m-16 0 16-16" fill="none" stroke="#992b2b" stroke-width="1.2"/><circle cx="36" cy="36" opacity=".2" r="12"/><circle cx="36" cy="35" fill="#5f7c8a" r="12"/><path d="m34.3 28-.3 3.5-3.2-1.5-1.7 3 2.8 2-2.8 2 1.7 3 3.2-1.5.3 3.5h3.4l.3-3.5 3.2 1.5 1.7-3-2.8-2 2.8-2-1.7-3-3.2 1.5-.3-3.5z" fill="#fff"/><circle cx="36" cy="35" fill="#5f7c8a" r="3.9" stroke="#fff" stroke-width="3.2"/></svg>