<svg height="48" width="48" xmlns="http://www.w3.org/2000/svg"><rect height="40" opacity=".2" rx="3" width="40" x="4" y="5"/><rect fill="#992b2b" height="40" rx="3" width="40" x="4" y="4"/><g fill="#fff"><path d="m7 4s-3 0-3 3v1s0-3 3-3h34s3 0 3 3v-1s0-3-3-3z" opacity=".2"/><path d="m24 9.5 14.5 14.5-14.5 14.5-14.5-14.5z"/></g><path d="m16 16 16 16m-16 0 16-16" fill="none" stroke="#992b2b" stroke-width="1.2"/><circle cx="36" cy="36" opacity=".2" r="12"/><circle cx="36" cy="35" fill="#435ece" r="12"/><path d="m37 42h-2v-2h2zm0-4h-2v-.5c0-3.2 3-3.4 3-5.5 0 0 0-2-2-2s-2 2-2 2h-2s0-4 4-4 4 4 4 4c0 2.9-3 2.7-3 6z" fill="#fff"/></svg>