<svg viewBox="0 0 48 48"><g opacity=".2"><rect height="24" rx="2" width="24" x="16" y="7"/><rect height="24" rx="2" width="24" x="8" y="19"/><path d="m38 7 2 4 4-4zm-34 12 4 4 2-4z"/></g><g fill="#ffeb3b"><rect height="24" rx="2" width="24" x="16" y="6"/><path d="m44 6-4 4-2-4z"/></g><g fill="#ff9800"><rect height="24" rx="2" width="24" x="8" y="18"/><path d="m4 18 4 4 2-4z"/></g><path d="m18 6s-2 0-2 2v1s0-2 2-2h25l1-1zm-14 12 1 1h25s2 0 2 2v-1s0-2-2-2z" fill="#fff" opacity=".1"/><path d="m13 33h14m-14-6h14m-4 11v-16m-6 16v-16" fill="none" stroke="#fff" stroke-width="2"/></svg>