<svg height="48" width="48" xmlns="http://www.w3.org/2000/svg"><rect height="40" opacity=".2" rx="3" width="40" x="4" y="5"/><rect fill="#e53935" height="40" rx="3" width="40" x="4" y="4"/><g fill="#fff"><path d="m7 4s-3 0-3 3v1s0-3 3-3h34s3 0 3 3v-1s0-3-3-3z" opacity=".2"/><path d="m17.7 15.4-6.8 1.2c-.4.1-.8.3-.9.6-.1.4.3 1.6.9 2.5 1 1.5 2.3 2.4 5.3 3.5 1.5.6 2 .8 2.2 1.1s-.1.4-2.1 1.3c-3.4 1.4-4.9 2.7-5.5 4.4-.2.5-.4 2.4 0 2.5.2.4 7-.9 7-1.2.2-.1.2-.3.3-1.2.1-1.4.6-2.6 1.5-3.2 2-1.4 5.9-.6 7.9 1.4.7.7 1.2 1.6 1.6 2.8.2.6.4 1 .8 1.1.2.2 1.8-.1 7.8-1.3.4-.2.4-.8.1-1.7-.5-1.5-1.3-2.5-2.9-3.7-1.8-1.4-5.5-2.6-5.5-3.1 0-.2.3-.3 1.5-.6 2.8-.8 3.9-2 3.9-4 0-.8-.2-1.7-.5-1.9-.3-.3-.6-.3-2.1-.1-4.7.8-5.1.9-5.3 1.2s.2 1.3.4 2.3c-.2 1.5-1.9 1.7-3.2 1.7-2.5.2-4.4-1.9-5.2-4.3-.3-.7-.4-1.5-1.2-1.3z"/></g></svg>