<svg viewBox="0 0 48 48"><filter id="a" color-interpolation-filters="sRGB" height="1.2" width="1.2" x="-.1" y="-.1"><feGaussianBlur stdDeviation=".8"/></filter><use opacity=".2" xlink:href="#b" y="1"/><g fill="#4caf50"><g id="b"><path d="m19 4.8-1.5 7.9-7.7-2.6s-.8-.2-1.1.4l-4 7c-.4.7.2 1.2.2 1.2l6 5.3-6 5.3s-.6.5-.2 1.2l4 7c .4.6 1.1.4 1.1.4l7.7-2.6 1.5 7.9s.2.8 1 .8h8c .8 0 1-.8 1-.8l1.5-7.9 7.7 2.6s.7.2 1.1-.4l4-7c .4-.7-.2-1.2-.2-1.2l-6-5.3 6-5.3s.6-.5.2-1.2l-4-7c-.3-.6-1.1-.4-1.1-.4l-7.7 2.6-1.5-7.9s-.2-.8-1-.8h-8c-.8 0-1 .8-1 .8z"/><circle cx="24" cy="24" r="16"/></g></g><circle cx="24" cy="25" filter="url(#a)" opacity=".5" r="8"/><g fill="#fff"><circle cx="24" cy="24" r="8"/><path d="m20 4c-.8 0-1 .8-1 .8l-.8 4.3c-1.5.6-3 1.4-4.2 2.4l-4.2-1.4s-.8-.2-1.1.4l-4 7s-.3.4 0 1l4-7c .3-.6 1.1-.4 1.1-.4l4.2 1.4c1.2-1 2.7-1.8 4.2-2.4l.8-4.3s.2-.8 1-.8h8c .8 0 1 .8 1 .8l.8 4.3c1.5.6 3 1.4 4.2 2.4l4.2-1.4s.8-.2 1.1.4l4 7c .3-.5 0-1 0-1l-4-7c-.3-.6-1.1-.4-1.1-.4l-4.2 1.4c-1.2-1-2.7-1.8-4.2-2.4l-.8-4.3s-.2-.8-1-.8zm19.9 18.5-.1.1c.1.6.2 2 .2 2s0-1.7-.1-2.1zm-31.8 0c-.1.7-.1 1.9-.1 1.9s.1-1.2.2-1.8zm31.8 4-.1.9 3.3 2.9s.2.2.2.2c.4-.7-.2-1.2-.2-1.2zm-31.8 0-3.2 2.8s-.6.5-.2 1.2l.2-.2 3.3-2.9z" opacity=".1"/></g></svg>