<svg height="48" width="48" xmlns="http://www.w3.org/2000/svg" xmlns:xlink="http://www.w3.org/1999/xlink"><use opacity=".2" xlink:href="#a" y="1"/><g fill="#e53935"><path id="a" d="m45.5 14.7s-.4-3.1-1.7-4.4c-1.7-1.9-4.8-1.9-4.8-1.9s-7-.4-15-.4-15 .4-15 .4-3.1 0-4.8 1.9c-1.3 1.3-1.7 4.4-1.7 4.4s-.5 3.5-.5 7.1v4.4c0 3.6.5 7.1.5 7.1s.4 3.1 1.7 4.4c1.7 1.9 4.8 1.9 4.8 1.9s7 .4 15 .4 15-.6 15-.6 3.1 0 4.8-1.7c1.3-1.3 1.7-4.4 1.7-4.4s.5-3.5.5-7.1v-4.4c0-3.6-.5-7.1-.5-7.1z"/></g><path d="m18 30.8v-13.6l13 6.8z" fill="#fff"/><path d="m29.4 24.9-11.4-7.7 13 6.8z" fill="#e3e2e0"/><g opacity=".2"><path d="m24 8c-8 0-15 .4-15 .4s-3.1 0-4.8 1.9c-1.3 1.3-1.7 4.4-1.7 4.4s-.5 3.5-.5 7.1v1c0-3.6.5-7.1.5-7.1s.4-3.1 1.7-4.4c1.7-1.9 4.8-1.9 4.8-1.9s7-.4 15-.4 15 .4 15 .4 3.1 0 4.8 1.9c1.3 1.3 1.7 4.4 1.7 4.4s.5 3.5.5 7.1v-1c0-3.6-.5-7.1-.5-7.1s-.4-3.1-1.7-4.4c-1.7-1.9-4.8-1.9-4.8-1.9s-7-.4-15-.4z" fill="#fff"/><circle cx="35" cy="35" r="12"/></g><circle cx="35" cy="34" fill="#03a9f4" r="12"/><path d="m33 27h4v5h2.6l-4.6 7h5v2h-10v-2h5l-4.6-7h2.6z" fill="#fff"/></svg>