<svg height="48" width="48" xmlns="http://www.w3.org/2000/svg" xmlns:xlink="http://www.w3.org/1999/xlink"><use opacity=".2" stroke="#000" xlink:href="#a" y="1"/><g fill="#ececec" stroke="#ececec"><path id="a" d="m24 3.2 18 10.4v20.8l-18 10.4-18-10.4v-20.8z" stroke-linejoin="round" stroke-width="4"/></g><path d="m22.8 1.6-17.7 10.2s-1.2.6-1.1 2v1c-.1-1.4 1.1-2 1.1-2l17.7-10.2c.8-.5 1.6-.5 2.4 0l17.7 10.2s1.2.6 1.1 2v-1c .1-1.4-1.1-2-1.1-2l-17.7-10.2c-.8-.5-1.6-.5-2.4 0z" fill="#fff" opacity=".5"/><path d="m14 12v6h11.3l-11.3 12.7v5.3h20v-6h-11.3l11.3-12.7v-5.3z" fill="#dd2c00"/></svg>