<svg height="48" width="48" xmlns="http://www.w3.org/2000/svg" xmlns:xlink="http://www.w3.org/1999/xlink"><filter id="a" color-interpolation-filters="sRGB" height="1.3" width="1.3" x="-.1" y="-.1"><feGaussianBlur stdDeviation=".4375"/></filter><circle cx="24" cy="25" opacity=".2" r="22"/><circle cx="24" cy="24" fill="#b4b5bb" r="22"/><path d="m13 24 11-8m0 16 11-8" fill="none" stroke="#d3d4d6" stroke-linecap="round" stroke-width="10"/><path d="m24 2c-12.2 0-22 9.9-22 22v .6c.3-11.9 10-21.6 22-21.6s21.7 9.7 22 21.6v-.6c0-12.1-9.8-22-22-22z" fill="#fff" opacity=".2"/><g filter="url(#a)"><g opacity=".2"><circle cx="13" cy="25" r="4"/><circle cx="24" cy="17" r="4"/></g><g opacity=".4"><circle cx="24" cy="33" r="4"/><circle cx="35" cy="25" r="4"/></g></g><g fill="#b9b7e4"><circle cx="13" cy="24" r="4"/><circle cx="24" cy="16" r="4"/></g><g fill="#5c45ae"><circle cx="24" cy="32" r="4"/><circle cx="35" cy="24" r="4"/></g></svg>