<svg height="48" width="48" xmlns="http://www.w3.org/2000/svg"><circle cx="24" cy="25" opacity=".2" r="22"/><circle cx="24" cy="24" fill="#0079c1" r="22"/><path d="m24 2c-12.1 0-22 9.8-22 22v .6c.2-12 10.1-21.6 22-21.6s21.8 9.6 22 21.6v-.6c0-12.2-9.9-22-22-22z" fill="#fff" opacity=".2" stroke-width="2"/><path d="m22.7 9.3-3 .8 1.2 5.6s1.2-.5 2.8-.5c4.4 0 8.1 3.2 8.8 7.5l5.6-1.2-.8-3.1h-4.5l-1.3-1.9 1.4-4.1-2.6-1.6-3 3-2.7-.5zm-8.6 3.9-2.2 2.2 2.3 3.8-.9 2.2-4.3.9v3.1l4.1 1 1 2.5-2.4 3.6 2.2 2.3 3.9-4.3s-2.9-2.3-2.9-6.5c0-4.5 3.5-6.9 3.5-6.9zm18.3 12.7c-.9 4-4.5 7-8.7 7-1.2 0-3.1-.6-3.1-.6l-1.5 5.5 3 .8 2.2-3.9 2.4-.2 2.8 3.2 2.7-1.5-1.1-4.1 1.6-2.1 4.4.2.8-3z" fill="#fff"/></svg>