<svg viewBox="0 0 48 48"><rect height="40" opacity=".2" rx="3" width="40" x="4" y="5"/><rect fill="#f2f2f2" height="40" rx="3" width="40" x="4" y="4"/><path d="m7 4s-3 0-3 3v1s0-3 3-3h34s3 0 3 3v-1s0-3-3-3z" fill="#fff" opacity=".2"/><path d="m24.1 11c-3.8 0-9.4 1.9-9.4 6.4 0 4.4 5.4 5.9 8.8 5.9 3.8 0 7 .9 7 3.7 0 2.6-3.2 4-6.9 4-5.7 0-6.3-4.3-6.3-4.3s-.1-1-1.7-1c-1.4 0-1.4 1-1.4 1v4.6s-.1 2.1 2 2.1c1.7 0 1.5-1.5 1.5-1.5s2.8 1.5 6.5 1.5c5.6 0 9.6-2.8 9.6-6.4 0-5.7-6.8-6.4-10.2-6.4s-5.4-1.7-5.4-3.2c0-1.7 1.6-3.9 5.7-3.9 5.4 0 5.9 3.2 5.9 3.2s.1 1 1.6 1c1.4 0 1.4-1 1.4-1v-4.3s-.1-1.2-1.7-1.2-1.6 1-1.6 1-1.7-1.2-5.4-1.2zm-16.1 20v7h36v-2h-34v-5z"/></svg>