<svg height="48" width="48" xmlns="http://www.w3.org/2000/svg"><circle cx="24" cy="25" opacity=".2" r="22"/><circle cx="24" cy="24" fill="#0087ed" r="22"/><g fill="#fff"><path d="m24 2c-12.1 0-22 9.9-22 22v .6c.2-12 10.1-21.6 22-21.6s21.8 9.6 22 21.6v-.6c0-12.1-9.9-22-22-22z" opacity=".2"/><path d="m22.8 9.8s-3.2 1.8-5.7 4.4c0 0-5.8 4.8.7 10.9l7 7.1 2.3-2.3-6.6-6.5s-5-4.1-1.1-7.5c0 0 1.4-1.5 2.7-2.2l14.5 14.4 2.2-2.2zm-.7 7.2-2.3 2.2 10.6 10.6s-.5 1-2.2 2.7c0 0-2.9 4.1-7.5-1.1l-6.5-6.5-2.3 2.2 7.1 7.1s5.5 6.4 10.9.6c0 0 2.4-2.3 4.4-5.6z"/></g></svg>