<svg viewBox="0 0 48 48"><circle cx="24" cy="25" opacity=".2" r="22"/><circle cx="24" cy="24" fill="#3d91e7" r="22"/><g fill="#fff"><path d="m24 2c-12.1 0-22 9.9-22 22v .6c.2-12 10.1-21.6 22-21.6s21.8 9.6 22 21.6v-.6c0-12.1-9.9-22-22-22z" opacity=".2"/><path d="m39.9 19.5s-3.9 8.5-11.6 12.2c0 0-5 2.5-9.4-.1 0 0 9.8-5 12-13.1 0 0 1.1-3.8-1.6-6.8 0 0-3-3.4-8.4-1.3 0 0-8 3.2-8.6 12.9 0 0-.2 4.6 3 8.1 0 0-3 1-5.4 1.3l1.4 1.8s2.8-.6 5.4-1.8c0 0 4 3.6 10.7 1.4 0 0 7.4-2.2 13-12.3zm-12.5-7.6s2.5 1.7 2.1 5.6c0 0-.7 7.5-12.1 13.1 0 0-3.2-2.4-3-7.2 0 0 0-6.6 5.6-11.2 0 0 3.8-2.8 7.4-.3z"/></g><circle cx="24" cy="24" fill="none" r="17.2" stroke="#fff" stroke-width="1.6"/></svg>