<svg viewBox="0 0 48 48"><g stroke-width="3"><path d="m3.5 7.5h26.5c7.5 0 13.5 6 13.5 13.5v21.5h-21.5c-7.5 0-13.5-6-13.5-13.5v-11c0-.8-.7-1.5-1.5-1.5h-3.5z" opacity=".2" stroke="#000"/><path d="m3.5 6.5h26.5c7.5 0 13.5 6 13.5 13.5v21.5h-21.5c-7.5 0-13.5-6-13.5-13.5v-11c0-.8-.7-1.5-1.5-1.5h-3.5z" fill="#4caf50" stroke="#fff"/><g fill="none"><path d="m22 34.5h9c3.2 0 5.5-2.3 5.5-5.5" opacity=".2" stroke="#000"/><path d="m15.5 13v17c0 3.3 2.2 5.5 5.5 5.5h3m-1.5-5.5v-9s0-3.5 3.5-3.5 3.5 3.5 3.5 3.5v9m0-9s0-3.5 3.5-3.5 3.5 3.5 3.5 3.5v9" opacity=".2" stroke="#000"/><path d="m15.5 12v17c0 3.3 2.2 5.5 5.5 5.5h3m-1.5-5.5v-9s0-3.5 3.5-3.5 3.5 3.5 3.5 3.5v9m0-9s0-3.5 3.5-3.5 3.5 3.5 3.5 3.5v9" stroke="#fff"/></g></g></svg>