<svg viewBox="0 0 48 48"><g opacity=".2"><circle cx="30" cy="19" r="14"/><circle cx="18" cy="31" r="14"/><rect height="16" rx="2" width="16" x="28" y="5"/><rect height="16" rx="2" width="16" x="4" y="29"/></g><g fill="#666"><circle cx="30" cy="18" r="14"/><rect height="16" rx="2" width="16" x="28" y="4"/></g><g opacity=".2"><circle cx="30" cy="19" r="10"/><path d="m30 9h10v10h-10z"/></g><g fill="#ececec"><circle cx="30" cy="18" r="10"/><path d="m30 8h10v10h-10z"/></g><path d="m30 4c-7.7 0-14 6.3-14 14v .4c.3-7.5 6.5-13.4 14-13.4h12s2 0 2 2v-1s0-2-2-2z" fill="#fff" opacity=".2"/><g fill="#808080"><circle cx="18" cy="30" r="14"/><rect height="16" rx="2" width="16" x="4" y="28"/></g><g opacity=".2"><circle cx="18" cy="31" r="10"/><path d="m8 31h10v10h-10z"/></g><g fill="#fff"><circle cx="18" cy="30" r="10"/><path d="m8 30h10v10h-10z"/><path d="m18 16c-7.7 0-14 6.3-14 14v1c0-7.7 6.4-14 14-14s14 6.3 14 14v-1c0-7.7-6.3-14-14-14z" opacity=".2"/></g></svg>