<svg height="48" width="48" xmlns="http://www.w3.org/2000/svg"><circle cx="24" cy="25" opacity=".2" r="22"/><circle cx="24" cy="24" fill="#0068c8" r="22"/><path d="m24 2c-12.1 0-22 9.9-22 22v .6c.3-11.9 10.1-21.6 22-21.6s21.7 9.7 22 21.6v-.6c0-12.1-9.9-22-22-22z" fill="#fff" opacity=".2"/><path d="m29 9.3s-3.1.3-5 2.2c0 0-2.6-.5-22 13.3l.1 1.6s7.8-3.1 9.1-2.4c0 0 .8.5-2.9 5.5l-3.5 5.2.6 1.1s8.1-10.4 9.4-10.1c0 0-.3 1.3-7.5 12.6l1.3 1.4 9.2-12.7s3.7-5.3 5.2-5.1c0 0 5.5-1.7 12.7 20.7l1.1-.7s-2.7-22.9-10.3-27.7c0 0 .6-.4.7-2.7z" fill="#fff"/></svg>