<svg height="48" width="48" xmlns="http://www.w3.org/2000/svg"><circle cx="24" cy="25" opacity=".2" r="22"/><circle cx="24" cy="24" fill="#8bc34a" r="22"/><path d="m24 2c-12.1 0-22 9.9-22 22v .6c.3-11.9 10.1-21.6 22-21.6s21.7 9.7 22 21.6v-.6c0-12.1-9.9-22-22-22z" fill="#fff" opacity=".2"/><circle cx="24" cy="24" fill="none" r="16.8" stroke="#fff" stroke-width="2.4"/><path d="m21.8 34.2s8 .3 13.7-3.5c0 0 .7-.6 1-2.9 0 0-3 2-6.9 2.3 0 0-3.6-.1-10.4-3.6l-1.4-3.3s6.4 4.6 11.5 5.1c0 0 3.6.5 7.5-2.7 0 0-1.5-6.1-3.2-8 0 0-.5-.7-1.3-1.2 0 0-4.3-2.7-16.5-4.4v2.7l-4.8-1.7-4 11 4 11c3.1-2.7 7.6-.8 10.8-.8zm7.1-14.4c1.5 0 1.5 1 1.5 1s0 .9-1.5.9-1.5-.9-1.5-.9 0-1 1.5-1z" fill="#fff"/><circle cx="28.3" cy="21.4" fill="none" r="4" stroke="#8bc34a" stroke-width="1.4"/></svg>