<svg height="48" width="48" xmlns="http://www.w3.org/2000/svg"><path d="m24 3c-12.1 0-22 9.9-22 22v18.6s0 3.4 3.4 3.4h18.6c12.1 0 22-9.9 22-22s-9.9-22-22-22z" opacity=".2"/><path d="m24 2c-12.1 0-22 9.9-22 22v18.6s0 3.4 3.4 3.4h18.6c12.1 0 22-9.9 22-22s-9.9-22-22-22z" fill="#294172"/><g fill="none" stroke-linecap="round" stroke-width="5"><path d="m22.5 16.5c0-4.4 3.6-8 8-8s8 3.6 8 8-3.6 8-8 8h-16c-4.4 0-8 3.6-8 8s3.6 8 8 8 8-3.6 8-8z" stroke="#5484c6"/><path d="m29.5 24.5h-14m-3 15.7s1 .3 2 .3c4.4 0 8-3.6 8-8v-16c0-4.4 3.6-8 8-8 1 0 2 .3 2 .3" stroke="#fff"/></g></svg>