<svg height="48" width="48" xmlns="http://www.w3.org/2000/svg"><g opacity=".2"><path d="m10 31v1c0 7.7 6.3 14 14 14s14-6.3 14-14v-1z"/><circle cx="23" cy="5.5" r="1.5"/><circle cx="27" cy="8.2" r="1.8"/><circle cx="23" cy="11" r="2"/><circle cx="28" cy="15.7" r="2.3"/><circle cx="21.5" cy="17.5" r="2.5"/></g><g fill="#03a9f4"><circle cx="23" cy="4.5" r="1.5"/><circle cx="27" cy="7.2" r="1.8"/><circle cx="23" cy="10" r="2"/><circle cx="28" cy="14.7" r="2.3"/><circle cx="21.5" cy="16.5" r="2.5"/></g><path d="m15.4 20s-5.4 3.7-5.4 11c0 7.7 6.3 14 14 14s14-6.3 14-14c0-7.3-5.4-11-5.4-11s-3.3 3-8.6 3-8.6-3-8.6-3z" fill="#0d47a1"/><path d="m23 3c-1.5 0-1.5 1.5-1.5 1.5l.1.5s.3-1 1.4-1 1.4 1 1.4 1l .1-.5s0-1.5-1.5-1.5zm4 2.4c-1.8 0-1.8 1.9-1.8 1.9l.1.5s.4-1.4 1.7-1.4 1.7 1.4 1.7 1.4l.1-.5s0-1.9-1.8-1.9zm-4 2.6c-2 0-2 2-2 2l .1.5s.3-1.5 1.9-1.5 1.9 1.5 1.9 1.5l.1-.5s0-2-2-2zm5 4.4c-2.3 0-2.3 2.4-2.3 2.4l.1.4s.5-1.8 2.2-1.8 2.2 1.8 2.2 1.8l.1-.4s0-2.4-2.3-2.4zm-6.5 1.6c-2.5 0-2.5 2.5-2.5 2.5l.1.5s.3-2 2.4-2 2.4 2 2.4 2l .1-.5s0-2.5-2.5-2.5zm-6.1 6s-5.4 3.7-5.4 11v .6c0-6.6 5.4-10.6 5.4-10.6s3.3 3 8.6 3 8.6-3 8.6-3 5.4 4 5.4 10.6v-.6c0-7.3-5.4-11-5.4-11s-3.3 3-8.6 3-8.6-3-8.6-3z" fill="#fff" opacity=".2"/></svg>