<svg viewBox="0 0 48 48"><circle cx="24" cy="25" opacity=".2" r="22"/><circle cx="24" cy="24" fill="#4c5263" r="22"/><path d="m45.5 28.5c-7.5 9.4-25 8.9-39.7 7.8l1.1 1.6c14.4.9 25.9 2 37.7-6.1z" fill="#fff"/><path d="m6.9 37.9c12.1 13.9 32 8.8 37.7-6.1-11 7.7-25.1 6.8-37.7 6.1z" fill="#5294e2"/><path d="m15.1 1.5s-1.6 9.5-14 30.4c0 0 9.4 2.3 23.2 3.1l-1.6-21.3zm9.5 13s5.5 9.5 1.6 20.5c.1 0 7.8.6 13.3-2.3 0 0-3.6-9-14.9-18.2zm7.1 4.5s10.2 4.5 9.3 12.9c0 0 3.6-1.5 6.1-6 0 0-3.8-4-15.4-6.9z" opacity=".2"/><g fill="#fff"><path d="m15.1.5s-1.6 9.5-14 30.4c0 0 9.4 2.3 23.2 3.1l-1.6-21.3zm9.5 13s5.5 9.5 1.6 20.5c.1 0 7.8.6 13.3-2.3 0 0-3.6-9-14.9-18.2zm7.1 4.5s10.2 4.5 9.3 12.9c0 0 3.6-1.5 6.1-6 0 0-3.8-4-15.4-6.9z"/><path d="m24 2c-12.1 0-22 9.9-22 22v .6c.2-12 10.1-21.6 22-21.6s21.8 9.6 22 21.6v-.6c0-12.1-9.9-22-22-22z" opacity=".2"/></g></svg>