<svg height="48" width="48" xmlns="http://www.w3.org/2000/svg"><rect height="40" opacity=".2" rx="3" width="40" x="4" y="5"/><rect fill="#c70036" height="40" rx="3" width="40" x="4" y="4"/><g fill="#fff"><path d="m7 4s-3 0-3 3v1s0-3 3-3h34s3 0 3 3v-1s0-3-3-3z" opacity=".2"/><path d="m32.6 22s .1.6-.4 1.8l-.4.2c-.4.6 0 .4-.2.9l-1.9 1.5.1-.3s-1 .9-1.5.9v-.1c-2.6 1.2-6.2-1-6.2-4.5l-.2.3s-.2-2.9 2.4-4.2c0 0 2.3-1.1 4.4.6 0 0-1.2-1.7-3.2-1.5 0 0-2.1-.1-3.1 1.8 0 0-.6.3-1.1 2-.5 3.1.8 4.5 2.9 6v .3s-.9-.4-1.8-1.4l.8 1.1-1.6-1.6c1.1 2 4.4 3.5 6.2 2.7-1.5.1-3.2-.1-3.5-1 2.4 1 5.5.8 8.1-2.1l-.1.5c.6-.7-.3-.3.5-1.4l.3.4c.3-1.4.8-1.6 1-3.2l.2.6s-.2-.7.4-1.8c0 0-.5.2-.4-.6l.1-.4s-.3-.3-.4-1l .4.5s-.2-.8-.2-1.3c-.4-.8-.2.1-.5-.4-.4-1.2.4-.3.4-.9 0 0 .8 1.3 1.1 2.8 0 0-.2-1.3-.5-2.1 0 0-.2-1.1.2-.3 0 0-.7-3.1-4.3-5.1 0 0 .5.4.4.5 0 0-.8-.5-.8-.8 0 0-.3-.3-1.3 0 0 0-1.4-.8-2.9-1.1l.1.3c-.7-.4-1.4.1-2-.1l.5-.1s-1.1-.2-1.6 0l .6-.4s-1.5.4-1.3.1c0 0-3.2 1.1-4.4 2.3l-.1-.2s-2.2 1.9-2.4 2.7h-.2s-.8 2.3-1.1 1.8c0 0-1.2 2.5-1.3 3.7v4.1s.1 9.7 9.7 13.2c0 0 .8.3 3.1.3 0 0-2.1-.4-2.5-.6 0 0-.6-.2-1.5-1.3l.2.4-1.6-.8.3-.3s-.7-.1-1.2-1l-.4.1s-.7-.9-.7-1.4l-.1.2s-1.8-2.1-1-1.7l-.6-.7.2-.2s-.7-.9-.7-1.4l.5.4c-1-2.5-1.1-.2-1.9-2.6h.2l-.3-.6.1-.7s-.8-.2-.1-5.5l1-2-.2-.1s1.8-2.8 3.8-3.3c-.2-.2-.2-.1-.2-.1s.4-.9 2.2-1l-.3-.2c1.4-.4 1.1-.8 2.8-1l-.6.3s2.1-.9 5.3.3c1.9.9 4.1 3.6 4.2 6.1h.1s.1 1.5-.2 3.2z"/></g></svg>