<svg height="48" width="48" xmlns="http://www.w3.org/2000/svg"><path d="m3.5 32.7c-1.3 10.2 14.4 12.3 20.5 12.3s21.8-2.1 20.5-12.3z" opacity=".2"/><path d="m24 4c-10.3 0-19.5 19.5-20.5 27.7-1.3 10.2 14.4 12.3 20.5 12.3s21.8-2.1 20.5-12.3c-1-8.2-10.2-27.7-20.5-27.7z" fill="#7986cb"/><g fill="#fff"><path d="m27.7 14.2c-.8.4-1.2 6.8-5.2 14.4-2.1 4.4-4.3 6.1-4.6 7.5.9 1.3 4.1 1.8 8.3 1.8 3.1-5.9 4.4-17.8 1.5-23.7zm3.6 1.9c1.9 5 3.1 10.4 3.4 15.5 3.2-5.5.9-13-3.4-15.5zm-6.4-2.9c-1.4.7-2.7 1.9-5.1 3.4-2.7 1.8-5.8 3-6.6 3.9-1.3 1.4-2 8.1-.6 8 8.5-5 14.2-15.3 12.3-15.3z"/><path d="m24 4c-10.3 0-19.5 19.5-20.5 27.7-.2 1.5 0 1.7 0 1.7v-.7c1-8.2 10.2-27.7 20.5-27.7s19.5 19.5 20.5 27.7v.7s.2-.2 0-1.7c-1-8.2-10.2-27.7-20.5-27.7z" opacity=".2"/></g></svg>