<svg viewBox="0 0 48 48"><circle cx="24" cy="25" opacity=".2" r="22"/><circle cx="24" cy="24" fill="#04a" r="22"/><path d="m24 2c-12.1 0-22 9.9-22 22v .6c.2-12 10.1-21.6 22-21.6s21.8 9.6 22 21.6v-.6c0-12.1-9.9-22-22-22z" fill="#fff" opacity=".2" stroke-width="2"/><path d="m30 19.9c1 .1 1.9-6.8 1.7-9.2l-.4-.5c-.7-.1-2.5 9.5-1.3 9.7zm7.3-8.4c-1.4.3-6.4 8.9-4.6 9.3 1 .3 4.6-7.4 4.9-8.7 0 0 .3-.5-.3-.6zm-17.8.9s-3.6 0-1.1 7.4c0 0 0 .7-.9.1 0 0-2.1-6-4.2-5.4 0 0-3.2.6-1.1 6.7 0 0-7.5 18 7 16.5 0 0 17.5-4.7 18.3-10.6 0 0-.2-2.3-2.8-3.8 0 0-3.4-2.4-12-3.4 0 0 .5-8.3-3.2-7.5z" fill="#fff"/></svg>