<svg height="48" width="48" xmlns="http://www.w3.org/2000/svg"><path d="m44 40v-1h-40v1s0 3 3 3h34s3 0 3-3z" opacity=".1"/><path d="m4 17v-8c0-3 3-3 3-3h15l4 4v7z" fill="#789"/><path d="m44 39v-26s0-3-3-3h-15l-4 4h-15s-3 0-3 3v22s0 3 3 3h34s3 0 3-3z" fill="#89a"/><path d="m26 10-4 4h-15s-3 0-3 3v1s0-3 3-3h15l4-4h15s3 0 3 3v-1s0-3-3-3z" fill="#fff" opacity=".1"/><path d="m36 36v1c0 1-1 1-1 1h-11c-1 0-1-1-1-1v-1zm5-8v8l-5-4z" opacity=".2"/><path d="m24 25h11c1 0 1 1 1 1v10c0 1-1 1-1 1h-11c-1 0-1-1-1-1v-10c0-1 1-1 1-1zm17 2v8l-5-4z" fill="#fff"/></svg>