<svg viewBox="0 0 48 48"><path d="m4 16v-8c0-2 2-2 2-2h16l4 4h16.1c1.9 0 1.9 2 1.9 2v4z" fill="#78909c"/><path d="m44 40v-28s0-2-2-2h-16l-4 4h-16s-2 0-2 2v24s0 2 2 2h36s2 0 2-2z" fill="#90a4ae"/><g fill="#fff" opacity=".2"><path d="m6 6s-2 0-2 2v1s0-2 2-2h16l4 4v-1l-4-4z"/><path d="m26 10-4 4h-16s-2 0-2 2v1s0-2 2-2h16l4-4h16s2 0 2 2v-1s0-2-2-2z"/></g><path d="m25 10-3 3h-16s-2 0-2 2v1s0-2 2-2h16l3.5-3.5z" opacity=".05"/><path d="m4 39v1s0 2 2 2h36s2 0 2-2v-1s0 2-2 2h-36s-2 0-2-2z" opacity=".1"/><path d="m27 22-5 3 4 3 5-3zm4 3 5 3 4-3-5-3zm5 3-5 3-5-3-4 3 4 2.4v1.6l5 3 5-3v-1.6l4-2.4z" opacity=".2"/><path d="m27 21-5 3 4 3-4 3 5 3 4-3-5-3 5-3 5 3-5 3 4 3 5-3-4-3 4-3-5-3-4 3zm4 10-4 3-1-.6v.6l5 3 5-3v-.6l-1 .6z" fill="#fff"/></svg>