<svg height="48" width="48" xmlns="http://www.w3.org/2000/svg"><path d="m4 16v-8c0-2 2-2 2-2h16l4 4v6z" fill="#78909c"/><path d="m44 40v-28s0-2-2-2h-16l-4 4h-16s-2 0-2 2v24s0 2 2 2h36s2 0 2-2z" fill="#90a4ae"/><g fill="#fff" opacity=".2"><path d="m6 6s-2 0-2 2v1s0-2 2-2h16l4 4v-1l-4-4z"/><path d="m26 10-4 4h-16s-2 0-2 2v1s0-2 2-2h16l4-4h16s2 0 2 2v-1s0-2-2-2z"/></g><path d="m25 10-3 3h-16s-2 0-2 2v1s0-2 2-2h16l3.5-3.5z" opacity=".05"/><path d="m4 39v1s0 2 2 2h36s2 0 2-2v-1s0 2-2 2h-36s-2 0-2-2z" opacity=".1"/><g opacity=".2"><circle cx="31" cy="36" r="3"/><circle cx="31" cy="26" r="3"/><circle cx="37" cy="31" r="3"/><path d="m37 31-6-5" fill="none" stroke="#000" stroke-width="2"/></g><g fill="#fff"><circle cx="31" cy="35" r="3"/><circle cx="31" cy="25" r="3"/><circle cx="37" cy="30" r="3"/><path d="m37 30-6-5v10" fill="none" stroke="#fff" stroke-width="2"/></g></svg>