<svg height="48" width="48" xmlns="http://www.w3.org/2000/svg"><path d="m4 16v-8c0-2 2-2 2-2h16l4 4v6z" fill="#78909c"/><path d="m44 40v-28s0-2-2-2h-16l-4 4h-16s-2 0-2 2v24s0 2 2 2h36s2 0 2-2z" fill="#90a4ae"/><g fill="#fff" opacity=".2"><path d="m6 6s-2 0-2 2v1s0-2 2-2h16l4 4v-1l-4-4z"/><path d="m26 10-4 4h-16s-2 0-2 2v1s0-2 2-2h16l4-4h16s2 0 2 2v-1s0-2-2-2z"/></g><path d="m25 10-3 3h-16s-2 0-2 2v1s0-2 2-2h16l3.5-3.5z" opacity=".05"/><path d="m4 39v1s0 2 2 2h36s2 0 2-2v-1s0 2-2 2h-36s-2 0-2-2z" opacity=".1"/><path d="m31 25v3s0-2 2-2 2 2 2 2v-3zm-4 11v1s0 1 1 1h10s1 0 1-1v-1z" opacity=".2"/><path d="m33 23s-4 0-4 4v2h-1s-1 0-1 1v6s0 1 1 1h10s1 0 1-1v-6s0-1-1-1h-1v-2s0-4-4-4zm0 2s2 0 2 2v2h-4v-2s0-2 2-2z" fill="#fff"/></svg>