<svg height="48" width="48" xmlns="http://www.w3.org/2000/svg"><path d="m4 17v-9c0-2 2-2 2-2h16l4 4h16c2 0 2 2 2 2v5z" fill="#00acc1"/><path d="m44 40v-28s0-2-2-2h-16l-4 4h-16s-2 0-2 2v24s0 2 2 2h36s2 0 2-2z" fill="#00bcd4"/><g fill="#fff" opacity=".2"><path d="m6 6s-2 0-2 2v1s0-2 2-2h16l4 4v-1l-4-4z"/><path d="m26 10-4 4h-16s-2 0-2 2v1s0-2 2-2h16l4-4h16s2 0 2 2v-1s0-2-2-2z"/></g><path d="m25 10-3 3h-16s-2 0-2 2v1s0-2 2-2h16l3.5-3.5z" opacity=".05"/><path d="m4 39v1s0 2 2 2h36s2 0 2-2v-1s0 2-2 2h-36s-2 0-2-2z" opacity=".1"/></svg>