<svg viewBox="0 0 48 48"><path d="m44 40v-1h-40v1s0 3 3 3h34s3 0 3-3z" opacity=".1"/><path d="m4 17v-8c0-3 3-3 3-3h15l4 4v7z" fill="#789"/><path d="m44 39v-26s0-3-3-3h-15l-4 4h-15s-3 0-3 3v22s0 3 3 3h34s3 0 3-3z" fill="#89a"/><path d="m26 10-4 4h-15s-3 0-3 3v1s0-3 3-3h15l4-4h15s3 0 3 3v-1s0-3-3-3z" fill="#fff" opacity=".1"/><path d="m33 24c-3.9 0-7 3.1-7 7h-2l3 4 3-4h-2c0-2.8 2.2-5 5-5s5 2.2 5 5-2.2 5-5 5v2c3.9 0 7-3.1 7-7s-3.1-7-7-7zm-1 3.5v4.3l3.2 2.1.6-.8-2.8-1.9v-3.7z" opacity=".2"/><path d="m33 23c-3.9 0-7 3.1-7 7h-2l3 4 3-4h-2c0-2.8 2.2-5 5-5s5 2.2 5 5-2.2 5-5 5v2c3.9 0 7-3.1 7-7s-3.1-7-7-7zm-1 3.5v4.3l3.2 2.1.6-.8-2.8-1.9v-3.7z" fill="#fff"/></svg>