<svg viewBox="0 0 48 48"><path d="m44 40v-1h-40v1s0 3 3 3h34s3 0 3-3z" opacity=".1"/><path d="m4 17v-8c0-3 3-3 3-3h15l4 4v7z" fill="#789"/><path d="m44 39v-26s0-3-3-3h-15l-4 4h-15s-3 0-3 3v22s0 3 3 3h34s3 0 3-3z" fill="#89a"/><path d="m26 10-4 4h-15s-3 0-3 3v1s0-3 3-3h15l4-4h15s3 0 3 3v-1s0-3-3-3z" fill="#fff" opacity=".1"/><path d="m27 29v4.5l2.5-2.9 3.3 3.7 2.2-2.1 2 2.1v-5.3zm-2 7v1s0 1 1 1h12s1 0 1-1v-1z" opacity=".2"/><path d="m26 25s-1 0-1 1v10s0 1 1 1h12s1 0 1-1v-10s0-1-1-1zm3.5 4.5 3.3 3.8 2.2-2.1 2 2.1v1.7h-10v-2.5z" fill="#fff"/></svg>