<svg height="48" width="48" xmlns="http://www.w3.org/2000/svg"><path d="m44 40v-1h-40v1s0 3 3 3h34s3 0 3-3z" opacity=".1"/><path d="m4 17v-8c0-3 3-3 3-3h15l4 4v7z" fill="#789"/><path d="m44 39v-26s0-3-3-3h-15l-4 4h-15s-3 0-3 3v22s0 3 3 3h34s3 0 3-3z" fill="#89a"/><path d="m26 10-4 4h-15s-3 0-3 3v1s0-3 3-3h15l4-4h15s3 0 3 3v-1s0-3-3-3z" fill="#fff" opacity=".1"/><g opacity=".2"><circle cx="27" cy="34" r="3"/><circle cx="35" cy="34" r="3"/><path d="m30 26h6v1h-6z"/></g><g fill="#fff"><circle cx="27" cy="33" r="3"/><circle cx="35" cy="33" r="3"/><path d="m28 33v-11h10v11h-2v-7h-6v7z"/></g></svg>