<svg viewBox="0 0 48 48"><path d="m4 16v-8c0-2 2-2 2-2h16l4 4v6z" fill="#78909c"/><path d="m44 40v-28s0-2-2-2h-16l-4 4h-16s-2 0-2 2v24s0 2 2 2h36s2 0 2-2z" fill="#90a4ae"/><g fill="#fff" opacity=".2"><path d="m6 6s-2 0-2 2v1s0-2 2-2h16l4 4v-1l-4-4z"/><path d="m26 10-4 4h-16s-2 0-2 2v1s0-2 2-2h16l4-4h16s2 0 2 2v-1s0-2-2-2z"/></g><path d="m25 10-3 3h-16s-2 0-2 2v1s0-2 2-2h16l3.5-3.5z" opacity=".05"/><path d="m4 39v1s0 2 2 2h36s2 0 2-2v-1s0 2-2 2h-36s-2 0-2-2z" opacity=".1"/><path d="m23 33s0 4 4 4h8.5s3.5 0 3.5-3.5v-1l-16-.5z" opacity=".2"/><path d="m31 25s-3 0-4.5 3c0 0-3.5.5-3.5 4 0 0 0 4 4 4h8.5s3.5 0 3.5-3.5c0 0 0-3-3-3.5 0 0-1-4-5-4z" fill="#fff"/></svg>