<svg height="48" width="48" xmlns="http://www.w3.org/2000/svg"><path d="m44 40v-1h-40v1s0 3 3 3h34s3 0 3-3z" opacity=".1"/><path d="m4 17v-8c0-3 3-3 3-3h15l4 4v7z" fill="#789"/><path d="m44 39v-26s0-3-3-3h-15l-4 4h-15s-3 0-3 3v22s0 3 3 3h34s3 0 3-3z" fill="#89a"/><path d="m26 10-4 4h-15s-3 0-3 3v1s0-3 3-3h15l4-4h15s3 0 3 3v-1s0-3-3-3z" fill="#fff" opacity=".1"/><path d="m29 26v4l .5.5-3.4 6-.1 2.5 1.9-1.5.7-1.3c1.1.5 2.2.8 3.4.8s2.3-.3 3.4-.8l.7 1.3 1.9 1.5-.1-2.5-.8-1.3c1.8-1.5 2.9-3.8 2.9-6.2h-2c0 1.7-.7 3.3-1.9 4.4l-1.6-2.9.5-.5v-4zm3 1c1 0 1 1 1 1h-2s0-1 1-1zm-1 5c .6.3 1.3.5 2 0l1.4 2.5h-4.8z" opacity=".2"/><path d="m31 22v2h-1s-1 0-1 1v4l .5.5-3.4 6-.1 2.5 1.9-1.5.7-1.3c1.1.5 2.2.8 3.4.8s2.3-.3 3.4-.8l.7 1.3 1.9 1.5-.1-2.5-.8-1.3c1.8-1.5 2.9-3.8 2.9-6.2h-2c0 1.7-.7 3.3-1.9 4.4l-1.6-2.9.5-.5v-4s0-1-1-1h-1v-2zm1 4c1 0 1 1 1 1s0 1-1 1-1-1-1-1 0-1 1-1zm-1 5c .6.3 1.3.5 2 0l1.4 2.5c-.8.3-1.6.5-2.4.5s-1.7-.2-2.4-.5z" fill="#fff"/></svg>