<svg viewBox="0 0 48 48"><rect height="42" opacity=".2" rx="2" width="40" x="4" y="4"/><g id="a"><rect fill="#78909c" height="14" rx="2" width="40" x="4" y="3"/><g fill="none" stroke-linecap="round" stroke-linejoin="round" stroke-width="2"><path d="m12 9-3 4zm4 0-3 4zm4 0-3 4zm4 0-3 4z" opacity=".2" stroke="#fff"/><path d="m12 8-3 4zm4 0-3 4zm4 0-3 4zm4 0-3 4z" stroke="#455a64"/></g><path d="m6 3s-2 0-2 2v1s0-2 2-2h36s2 0 2 2v-1s0-2-2-2z" fill="#fff" opacity=".2"/><path d="m4 14v1s0 2 2 2h36s2 0 2-2v-1s0 2-2 2h-36s-2 0-2-2z" opacity=".2" stroke-width=".5"/><circle cx="32" cy="9" fill="#76ff03" r="1"/><circle cx="36" cy="9" fill="#ff0" r="1"/><circle cx="40" cy="9" fill="#ffcd40" r="1"/></g><use transform="translate(0 14)" xlink:href="#a"/><use transform="translate(0 28)" xlink:href="#a"/></svg>