<svg viewBox="0 0 48 48"><circle cx="24" cy="25" opacity=".2" r="20"/><circle cx="24" cy="24" fill="#3f51b5" r="20"/><g fill="none" stroke="#fff" stroke-width="2"><circle cx="24" cy="24" r="13"/><path d="m11 24h26"/><path d="m33.8 32.4s-3.8-2.4-9.8-2.4-9.8 2.4-9.8 2.4"/><path d="m14.2 15.6s3.8 2.4 9.8 2.4 9.8-2.4 9.8-2.4"/><path d="m24 11v26"/><ellipse cx="24" cy="24" rx="7.2" ry="13"/></g><path d="m24 4c-11.1 0-20 9-20 20v .5c0-10.5 9.1-19.5 20-19.5s20 9 20 19.5v-.5c0-11-8.9-20-20-20z" fill="#fff" opacity=".2"/><path d="m24 44c-11.1 0-20-9-20-20v-.5c0 10.5 9.1 19.5 20 19.5s20-9 20-19.5v.5c0 11-8.9 20-20 20z" opacity=".1"/></svg>