<svg height="24" width="24" xmlns="http://www.w3.org/2000/svg"><path d="m7.999771 4.00163-5 3 4 2.98438-4.009766 3.00781 5.009766 3.00781 4-3-5-3 5-3 5 3.01562-5 2.98438 1.777344 1.33398a5 5 0 0 1 4.222656-2.33398 5 5 0 0 1 2.980469.99414l.0293-.0176-4.009769-2.97654 4-3-5-3-4 2.98438zm10 9a4 4 0 0 0 -4 4 4 4 0 0 0 4 4 4 4 0 0 0 4-4 4 4 0 0 0 -4-4zm0 .49219a3.5 3.5 0 0 1  .542969.0469c-.198324-.0312-.398588-.0485-.59961-.0449a3.5 3.5 0 0 1  .05664-.002zm-.06836.002c-.160633.003-.320731.019-.480469.0449a3.5 3.5 0 0 1  .480469-.0449zm-.50586.0488c-.164776.028-.328994.0669-.490234.11914a3.5 3.5 0 0 1  .490234-.11914zm1.271485.0254a3.5 3.5 0 0 1  .402343.10742c-.131491-.0438-.266616-.0797-.402343-.10742zm-1.769532.0957c-.153257.0501-.303347.11327-.451172.18555a3.5 3.5 0 0 1  .451172-.18555zm2.324219.0664a3.5 3.5 0 0 1  .369141.16992c-.120337-.0636-.242905-.12114-.369141-.16992zm-2.818359.14062c-.150541.0762-.297086.16204-.439453.26172-.198278.13884-.378942.29598-.539063.46485-.153299.16167-.286993.33612-.404297.51953a3.5 3.5 0 0 1  .404297-.51953 3.5 3.5 0 0 1  .978516-.72657zm3.341797.11524a3.5 3.5 0 0 1  .421875.28906c-.13348-.10894-.276124-.20219-.421875-.28906zm-7.77539.0136-4 3-1-.59961v.59961l5 3 1.476562-.88477a5 5 0 0 1 -.476562-2.11523 5 5 0 0 1  .396484-1.95312zm8.199219.27539a3.5 3.5 0 0 1  .433593.42188 3.5 3.5 0 0 1  .002.002 3.5 3.5 0 0 1  .71289 1.29492 3.5 3.5 0 0 1  .105469.4375 3.5 3.5 0 0 1  .04297.46094c-.0046-.15384-.01786-.30773-.04297-.46094-.0246-.15046-.06076-.29598-.105469-.4375-.04471-.14152-.09751-.27852-.158203-.41406l-3.181641 3.63476-.34375.40625-.392578-.375-1.501953-1.50195c-.18852-.1885-.18851-.53218 0-.7207.18852-.1885.532193-.18852.720703 0l1.126954 1.12695 3.015624-3.45312c-.134525-.15508-.278881-.2955-.433593-.42188zm-5.181641.89453c-.108393.1764-.198673.36018-.273437.55078a3.5 3.5 0 0 1  .273437-.55078zm-.291016.59766c-.07179.19107-.126665.38795-.164062.58789a3.5 3.5 0 0 1  .164062-.58789zm-.175781.6543c-.03385.20256-.05101.40916-.04883.61523a3.5 3.5 0 0 1 -.002-.0449 3.5 3.5 0 0 1  .05078-.57031zm6.947266.50781a3.5 3.5 0 0 1  .002.0625 3.5 3.5 0 0 1 -.02148.38086c.01581-.14709.02244-.29484.01953-.44336zm-6.992188.17578c.0056.18648.02661.37164.0625.55664a3.5 3.5 0 0 1 -.0625-.55664zm.0918.68945c.04184.17791.09713.35505.167969.52735a3.5 3.5 0 0 1 -.167969-.52735zm.22461.6543c.08065.17586.174768.34829.287109.51367a3.5 3.5 0 0 1 -.287109-.51362zm6.324218.0644c-.0034.007-.0063.0144-.0098.0215a3.5 3.5 0 0 1 -.07422.15039c-.0036.007-.008.0129-.01172.0195.03491-.0624.06482-.12721.0957-.19141zm-.193359.34961c-.007.0108-.01254.0224-.01953.0332a3.5 3.5 0 0 1 -.101563.14649c.04257-.0589.08253-.11867.121094-.17969zm-5.771484.19727c.109682.15001.229835.28675.357421.41406a3.5 3.5 0 0 1 -.357421-.41406zm5.515625.16015c-.0041.005-.0075.0106-.01172.0156a3.5 3.5 0 0 1 -.167969.18164c.06199-.0643.123416-.1292.179688-.19727zm-5.03711.3711c.125296.11345.258604.21405.396485.30664a3.5 3.5 0 0 1 -.396485-.30664zm4.28125.31054a3.5 3.5 0 0 1 -.46289.25977c-.0072.003-.01432.006-.02148.01.165742-.0765.327904-.16483.484375-.26954zm-3.703125.11133c.12543.0734.256161.13663.388672.19336a3.5 3.5 0 0 1 -.388672-.19336zm3.082031.21875c-.0046.002-.0091.004-.01367.006a3.5 3.5 0 0 1 -.457032.14649c.158631-.0401.316683-.0891.470703-.15235zm-2.423828.0762c.134742.0449.26931.0871.408204.11524a3.5 3.5 0 0 1 -.408204-.11524zm1.710938.12696a3.5 3.5 0 0 1 -.431641.0508c-.0046.00023-.0091-.00021-.01367 0 .149192-.007.297067-.0245.445313-.0508zm-1.09375.0215c.137486.0193.276893.0284.416016.0312-.0059-.00013-.0117.00015-.01758 0a3.5 3.5 0 0 1 -.382812-.0293c-.0052-.00071-.01041-.001-.01563-.002z" fill="#555"/></svg>