<svg height="24" width="24" xmlns="http://www.w3.org/2000/svg"><path d="m5.9998 3.99968s-2 0-2 2.0625v11.9375c0 2 2 2 2 2h12c2 0 2-2 2-2v-12s0-2-2-2zm .68164 4.32422h4.26172v.87304h-1.60938v5.92969h1.60938v.87305h-4.26172v-.87305h1.60938v-5.92969h-1.60938zm8.95508 1.77929c.58612 0 1.02458.19276 1.3125.58008.29134.38389.43555.96655.43555 1.74805v3.56836h-.95118v-3.56836c0-.51757-.0898-.89727-.27148-1.14063-.18166-.24336-.4662-.36523-.85352-.36523-.44216 0-.7835.15731-1.02343.47265-.23651.31192-.35547.76155-.35547 1.34766v3.25391h-.94532v-5.75782h.94532v.86329c.16795-.32905.39763-.57814.68554-.7461.28792-.17138.62732-.25586 1.02149-.25586z" fill="#555"/></svg>