<svg height="24" width="24" xmlns="http://www.w3.org/2000/svg"><path d="m5.9998 3.99968s-2 0-2 2.0625v11.9375c0 2 2 2 2 2h12c2 0 2-2 2-2v-12s0-2-2-2zm2.81445 4.18554c.86718 0 1.512.32823 1.9336.98633.42502.6581.63672 1.65786.63672 2.99805 0 1.33676-.2117 2.33409-.63672 2.99219-.4216.65809-1.06642.98632-1.9336.98632s-1.512-.3258-1.93359-.98046c-.4216-.65468-.63086-1.65444-.63086-2.99805 0-1.34019.20926-2.33995.63086-2.99805.42502-.6581 1.06984-.98633 1.93359-.98633zm0 .84375c-.52442 0-.90364.24132-1.13672.72461-.22964.48329-.34375 1.28834-.34375 2.41602 0 1.12425.11411 1.92881.34375 2.41211.23308.48329.6123.72461 1.13672.72461.52785 0 .90707-.24084 1.13672-.72071.23308-.48328.34961-1.28833.34961-2.41601s-.11653-1.93273-.34961-2.41602c-.22965-.48329-.60887-.72461-1.13672-.72461zm7.8711 1.07422c.23307 0 .45207.0296.65429.0879.20223.0583.39499.14809.58008.27149v.96679c-.20223-.15766-.4081-.27177-.61719-.34375-.20908-.072-.43728-.10937-.6875-.10937-.58954 0-1.0416.18646-1.35351.55664s-.4668.90429-.4668 1.60352v2.86328h-.95117v-5.75782h.95117v1.125c.15767-.40788.39899-.7196.72461-.93554.32905-.21937.717-.32813 1.16602-.32813z" fill="#555"/></svg>