<svg height="24" width="24" xmlns="http://www.w3.org/2000/svg"><path d="m5.9998 3.99968s-2 0-2 2.0625v11.9375c0 2 2 2 2 2h12c2 0 2-2 2-2v-12s0-2-2-2zm .38281 4.32422h2.13867c.84319 0 1.49044.18984 1.93946.57031.44901.38046.67187.9306.67187 1.65039 0 .50729-.13838.92195-.41601 1.24414-.27421.31877-.66168.51396-1.16211.58594.26735.0685.49507.19868.68359.39062.18852.18852.42402.56774.70508 1.13672l1.04297 2.09766h-1.11524l-.91406-1.9375c-.26392-.55184-.50233-.90678-.71484-1.06446-.20908-.16109-.48294-.24218-.82227-.24218h-.99414v3.24414h-1.04297zm1.04297.85351v2.72461h1.13672c.497 0 .86797-.11119 1.11133-.33398.24336-.2228.36523-.56414.36523-1.02344 0-.44216-.13013-.77865-.39062-1.01172-.25707-.23651-.63338-.35547-1.12696-.35547zm5.5586 1.07422h.94531v3.56836c0 .51756.0918.89726.27344 1.14062.18508.24336.46962.36524.85351.36524.44559 0 .78693-.15489 1.02344-.4668.2365-.31534.35351-.76739.35351-1.35351v-3.25391h.95118v5.74805h-.95118v-.86328c-.16795.33248-.39615.58448-.6875.75585-.28791.17138-.62635.25586-1.01367.25586-.58954 0-1.02849-.19033-1.3164-.57421-.28792-.38732-.43164-.97242-.43164-1.75391z" fill="#555"/></svg>