<svg height="24" width="24" xmlns="http://www.w3.org/2000/svg"><path d="m5.9998 3.99968s-2 0-2 2.0625v11.9375c0 2 2 2 2 2h12c2 0 2-2 2-2v-12s0-2-2-2zm .50195 4.32422h2.27149c.78492 0 1.38943.17043 1.81445.50976s.63867.81906.63867 1.43945c0 .46958-.11362.8386-.33984 1.10938-.22279.27078-.5588.44122-1.00781.50976.50385.0754.8991.29198 1.18359.64844.28792.35304.43164.80315.43164 1.35156 0 .69581-.22772 1.22166-.68359 1.57813-.45587.35304-1.13566.5293-2.03711.5293h-2.27149zm1.04297.85351v2.31445h1.20899c.50042 0 .86119-.0971 1.08398-.28906.22622-.19195.33984-.50124.33984-.92969 0-.38732-.11119-.66651-.33398-.83789-.21937-.17138-.58256-.25781-1.08984-.25781zm9.14063.92578c.23307 0 .45207.0296.65429.0879.20223.0583.39499.14809.58008.27149v.96679c-.20223-.15766-.4081-.27177-.61719-.34375-.20908-.072-.43728-.10937-.6875-.10937-.58954 0-1.0416.18646-1.35351.55664s-.4668.90429-.4668 1.60351v2.86329h-.95117v-5.75782h.95117v1.125c.15767-.40788.39899-.71961.72461-.93554.32905-.21937.717-.32813 1.16602-.32813zm-9.14063 2.23047v2.8125h1.22852c.60325 0 1.03394-.10342 1.29101-.3125.25707-.21251.38477-.56163.38477-1.04492 0-.50043-.13547-.86654-.40625-1.09961-.27078-.23651-.6937-.35547-1.26953-.35547z" fill="#555"/></svg>