<svg height="24" width="24" xmlns="http://www.w3.org/2000/svg"><path d="m5.9998 3.99968s-2 0-2 2.0625v11.9375c0 2 2 2 2 2h12c2 0 2-2 2-2v-12s0-2-2-2zm .50195 4.32422h2.27149c.78492 0 1.38943.17043 1.81445.50976s.63867.81906.63867 1.43945c0 .46958-.11362.8386-.33984 1.10938-.22279.27078-.5588.44122-1.00781.50976.50385.0754.8991.29198 1.18359.64844.28792.35304.43164.80315.43164 1.35156 0 .69581-.22772 1.22166-.68359 1.57813-.45587.35304-1.13566.5293-2.03711.5293h-2.27149zm1.04297.85351v2.31445h1.20899c.50042 0 .86119-.0971 1.08398-.28906.22622-.19195.33984-.50124.33984-.92969 0-.38732-.11119-.66651-.33398-.83789-.21937-.17138-.58256-.25781-1.08984-.25781zm6.85938.92578c.26049 0 .4751.0597.64648.17969.17481.11997.31028.30156.40625.54492.11654-.24679.26513-.42838.44336-.54492.18166-.11997.3987-.17969.65234-.17969.46273 0 .78805.17916.97657.53906.19194.35647.28906 1.03092.28906 2.02149v3.33594h-.86524v-3.29493c.00001-.81234-.0461-1.31635-.13867-1.51171-.0891-.1988-.25225-.29883-.49218-.29883-.27421 0-.46358.10585-.56641.31836-.0994.20908-.14844.70727-.14844 1.49218v3.29493h-.86523v-3.29493c0-.82262-.049-1.32953-.14844-1.52148-.096-.19194-.2698-.28906-.52344-.28906-.25021 0-.42599.10585-.52539.31836-.096.20908-.14453.70727-.14453 1.49218v3.29493h-.85742v-5.75782h.85742v.49414c.11311-.20565.25392-.36249.42188-.46875.17138-.10968.36609-.16406.58203-.16406zm-6.85938 2.23047v2.8125h1.22852c.60325 0 1.03394-.10342 1.29101-.3125.25707-.21251.38477-.56163.38477-1.04492 0-.50043-.13547-.86654-.40625-1.09961-.27078-.23651-.6937-.35547-1.26953-.35547z" fill="#555"/></svg>