<svg height="24" width="24" xmlns="http://www.w3.org/2000/svg"><path d="m5.9998 3.99968s-2 0-2 2.0625v11.9375c0 2 2 2 2 2h12c2 0 2-2 2-2v-12s0-2-2-2zm .35156 4.32422h1.5586c1.17223 0 2.03652.31172 2.59179.93554.55527.62383.83203 1.59396.83203 2.91016 0 1.30934-.27676 2.27657-.83203 2.90039-.55527.62039-1.41956.92969-2.59179.92969h-1.5586zm1.04492.85351v5.96875h.49219c.87404 0 1.48585-.21413 1.83203-.64258.34619-.43188.51758-1.20974.51758-2.33398 0-1.13454-.17139-1.91531-.51758-2.34375-.34276-.43188-.95456-.64844-1.83203-.64844zm7.93164.92578c.73352 0 1.31279.24714 1.73438.74414.42502.497.63672 1.17679.63672 2.03711v.46289h-4.09766v.0312c0 .62725.16266 1.11232.48828 1.45508.32905.34276.79227.51367 1.38868.51367.30162 0 .61626-.0486.94531-.14453.32905-.096.68108-.24213 1.05469-.4375v.94141c-.3599.14738-.70902.2581-1.04493.33008-.33247.0754-.65293.11132-.96484.11132-.8946 0-1.5938-.26608-2.09766-.80078-.50385-.53813-.75586-1.27811-.75586-2.2207 0-.91859.24667-1.65275.74024-2.20117s1.15003-.82227 1.97265-.82227zm-.041.80078c-.45587 0-.83023.1515-1.125.45313s-.47055.7192-.52539 1.2539l3.11719-.004c-.0137-.55527-.14627-.97771-.39649-1.26562-.24678-.29135-.60416-.4375-1.07031-.4375z" fill="#555"/></svg>