<svg height="24" width="24" xmlns="http://www.w3.org/2000/svg"><path d="m11.99982 4.00364c-1.24595 0-2.31105.75151-2.76562 1.82813v.002l5.76562 5.76362v-4.59375c0-1.66208-1.33792-3-3-3zm-5.65625.9375-1.40625 1.40625 4.0625 4.0625v1.59375c0 1.66208 1.33791 3 3 3 .46529 0 .89908-.11546 1.28906-.30468l.73047.73046c-.59118.35212-1.27011.57422-2.01953.57422-2.23342 0-4-1.76659-4-4v-1h-2v1c0 2.96947 2.16237 5.43216 5 5.90625v2.09375h2v-2.09375c.91042-.1521 1.7375-.52752 2.45898-1.04101l2.19727 2.19726 1.40625-1.40625-12.71875-12.71875zm9.65625 6.0625v1c0 .18587-.029.36236-.0527.54102l1.63671 1.63672c.26444-.6756.41599-1.40831.41599-2.17774v-1h-2z" fill="#555"/><path d="m3.99904 4.00263h16.000792v16.000792h-16.000792z" fill="none"/></svg>