<svg height="24" width="24" xmlns="http://www.w3.org/2000/svg"><path d="m11.99977 4.00163c-.55228 0-1 .44772-1 1 0 .0333.002.0665.006.0996-.64334.12889-1.2324.39135-1.75977.74023l7.75377 7.75392v-1.59375-2c .00017-2.42916-1.71554-4.44156-4.00586-4.90039.004-.0331.006-.0663.006-.0996 0-.55228-.44772-1-1-1zm-5.65625.9375-1.40625 1.40625 2.26953 2.26953c-.13062.4396-.20702.9025-.20703 1.38672v4.5l-2 2v .5h2 8.59375l2.0625 2.0625 1.40625-1.40625-12.71875-12.71875zm3.92578 13.0625c.35698.61831 1.0165.99944 1.73047 1 .71327-.001 1.37189-.38229 1.72852-1h-3.45899z" fill="#555" opacity=".4"/></svg>