<svg viewBox="0 0 16 16"><path d="m8.6.2-6.6 6.6v6.2h4v-6l3.3-3.3 1.7 1.7 1.4-1.4z" fill="#636e73"/><g opacity=".2"><circle cx="9" cy="3" r="2"/><circle cx="4" cy="8" r="3"/></g><g fill="#828b8f"><path d="m6 13h-4s-1 0-1 1h6c0-1-1-1-1-1z"/><circle cx="4" cy="7" r="3"/><circle cx="9" cy="2" r="2"/></g><g fill="#3b4245"><path d="m7 14c1 0 1 1 1 1v1h-8v-1c0-1 1-1 1-1z"/><circle cx="4" cy="7" r="2"/><circle cx="9" cy="2" r="1"/></g><circle cx="4" cy="7" fill="#fff" opacity=".1" r="1"/><path d="m12.5 7.5h-2v-2l2-2h2v2" fill="none" stroke="#3f3f3f" stroke-linecap="round" stroke-linejoin="round"/></svg>