<svg height="16" width="16" xmlns="http://www.w3.org/2000/svg"><path d="m6.5 0c-1.5 0-1.5 1.5-1.5 1.5v1.5h-4s-1 0-1 1v4h1.5s1.5 0 1.5 1.5-1.5 1.5-1.5 1.5h-1.5v4s0 1 1 1h4v-1s0-1.5 1.5-1.5 1.5 1.5 1.5 1.5v1h4s1 0 1-1v-4h1.5s1.5 0 1.5-1.5-1.5-1.5-1.5-1.5h-1.5v-4s0-1-1-1h-4v-1.5s0-1.5-1.5-1.5z" fill="#8bc34a"/><path d="m6.5 0c-1.5 0-1.5 1.5-1.5 1.5v1s0-1.5 1.5-1.5 1.5 1.5 1.5 1.5v-1s0-1.5-1.5-1.5zm-5.5 3s-1 0-1 1v1s0-1 1-1h4v-1zm7 0v1h4s1 0 1 1v-1s0-1-1-1zm5 5v1h1.5s1.4 0 1.4 1c0 0 .1-.2.1-.5 0-1.5-1.5-1.5-1.5-1.5zm-10.1 2c0 .9-1.4 1-1.4 1h-1.5v1h1.5s1.5 0 1.5-1.5c0-.3-.1-.5-.1-.5z" fill="#fff" opacity=".1"/></svg>