<svg viewBox="0 0 16 16"><path d="m6.3 0-.3.3-.3 1.7-1.7 1-1.7-.6-.4.1-1.7 2.9.1.5 1.3 1.2v1.8l-1.3 1.2-.1.5 1.7 2.9.4.1 1.7-.6 1.7 1 .3 1.7.3.3h3.4l.3-.3.3-1.7 1.7-1 1.7.6.4-.1 1.7-2.9-.1-.5-1.3-1.1v-1.9l1.3-1.2.1-.5-1.7-2.9-.4-.1-1.7.6-1.7-1-.3-1.7-.3-.3z" fill="#757575"/><g fill="#fff"><path d="m6.3 0-.3.3-.3 1.7-1.7 1-1.7-.6-.4.1-1.7 2.9.1.5.1.1 1.5-2.5.4-.1 1.7.6 1.7-1 .3-1.7.3-.3h3.4l.3.3.3 1.7 1.7 1 1.7-.6.4.1 1.5 2.5.1-.1.1-.5-1.7-2.9-.4-.1-1.7.6-1.7-1-.3-1.7-.3-.3zm-4.7 8.9-1.3 1.2-.1.5.3.4 1.1-1.1zm12.8.1v1l1.1 1 .3-.4-.1-.5z" opacity=".1"/><circle cx="8" cy="8" r="3"/></g></svg>