<svg height="16" width="16" xmlns="http://www.w3.org/2000/svg"><path d="m8 8h8v7c0 1-1 1-1 1h-7z" fill="#00bfa5"/><path d="m0 8v7s0 1 1 1h7v-8z" fill="#808080"/><path d="m1 0s-1 0-1 1v7h8v-8z" fill="#b3b3b3"/><path d="m15 0c1 0 1 1 1 1v7h-8v-8z" fill="#4d4d4d"/><path d="m10 11v1h4v-1zm0 2v1h4v-1z" fill="#fff"/><path d="m4 2v2h-2v1h2v2h1v-2h2v-1h-2v-2zm6 2v1h4v-1zm-7.6 5.6-.8.8 1.7 1.6-1.7 1.6.8.8 1.6-1.7 1.6 1.7.8-.8-1.7-1.6 1.7-1.6-.8-.8-1.6 1.7z" fill="#ebebeb"/><path d="m1 0s-1 0-1 1v1s0-1 1-1h14s1 0 1 1v-1s0-1-1-1z" fill="#fff" opacity=".1"/></svg>