<svg height="16" width="16" xmlns="http://www.w3.org/2000/svg"><circle cx="8" cy="8" fill="#3f51b5" r="8" stroke-width="2"/><g fill="none" stroke="#fff"><circle cx="8" cy="8" r="4.5"/><ellipse cx="8.1" cy="8" rx="1.6" ry="4.5"/><path d="m4 6.5h8m0 3h-8"/></g><circle cx="11.5" cy="11.5" fill="#5f7c8a" r="4.5"/><path d="m10.9 9-.1.7-.6.3-.6-.3-.6 1.1.5.4v.6l-.5.4.6 1.1.6-.3.6.3.1.7h1.2l.1-.7.6-.3.6.3.6-1.1-.5-.4v-.6l.5-.4-.6-1.1-.6.3-.6-.3-.1-.7zm.6 1.7c.5 0 .8.3.8.8s-.3.8-.8.8-.8-.3-.8-.8.3-.8.8-.8z" fill="#fff"/></svg>