<svg height="16" width="16" xmlns="http://www.w3.org/2000/svg"><path d="m6 .2-.3 1.8-1.7 1-1.8-.6-.3.1-1.7 2.9v.4l1.4 1.3v1.8l-1.4 1.3v.5l1.7 2.8.3.1 1.8-.6 1.7 1 .3 1.8.3.2h3.4l.3-.2.3-1.8 1.7-1 1.8.6.3-.1 1.7-2.8v-.5l-1.4-1.3v-1.8l1.4-1.3v-.4l-1.7-2.9-.3-.1-1.8.6-1.7-1-.3-1.8-.3-.2h-3.4z" fill="#607d8b"/><path d="m6.3 0-.3.2-.3 1.8-1.7 1-1.8-.6-.3.1-1.7 2.9v.4l.2.2 1.5-2.5.3-.1 1.8.6 1.7-1 .3-1.8.3-.2h3.4l.3.2.3 1.8 1.7 1 1.8-.6.3.1 1.5 2.5.2-.2v-.4l-1.7-2.9-.3-.1-1.8.6-1.7-1-.3-1.8-.3-.2zm-4.7 8.9-1.4 1.3v.5l.2.3 1.2-1.1zm12.8 0v1l1.2 1.1.2-.3v-.5z" fill="#fff" opacity=".1"/><circle cx="8" cy="8" fill="#fff" r="3"/></svg>