<svg height="22" width="22" xmlns="http://www.w3.org/2000/svg"><g transform="translate(-128.99999 -373.3639)"><path d="m373.36389 128.99998h22v22h-22z" fill="none" transform="matrix(0 1 1 0 0 0)"/><path class="error" d="m141.99997 377.3639v1h3.00003s-.00003.446-.00003 1v11c0 .554-.446 1-1 1h-8c-.554 0-1-.446-1-1v-11c0-.554.00003-1 .00003-1h2.99997v-1z" fill="#e74c3c" opacity=".35"/><path class="error" d="m144.99997 388.3639v2c0 .554-.446 1-1 1h-8c-.554 0-1-.446-1-1v-2z" fill="#e74c3c"/></g></svg>