<svg height="22" width="22" xmlns="http://www.w3.org/2000/svg"><path d="m6.999771 3.00163-5 3 4 2.98438-4.009766 3.00781 5.009766 3.00781 4-3-5-3 5-3 5 3.01562-5 2.98438 1.777344 1.33398c.91425-1.45056 2.50802-2.33148 4.222656-2.33398 1.074502.003 2.11961.35112 2.98047.99414l.0293-.0176-4.00977-2.97654 4-3-5-3-4 2.98438zm10 9c-2.209139 0-4 1.79086-4 4s1.790861 4 4 4c2.20914 0 4-1.79086 4-4s-1.79086-4-4-4zm-6 1-4 3-1-.59961v.59961l5 3 1.476562-.88477c-.31166-.66173-.474339-1.38378-.476562-2.11523-.000242-.67105.134598-1.33529.396484-1.95312zm4.353516.64648 1.646484 1.64649 1.646484-1.64649.707036.70704-1.646489 1.64648 1.646489 1.64648-.707036.70704-1.646484-1.64649-1.646484 1.64649-.707032-.70704 1.646485-1.64648-1.646485-1.64648z" fill="#dbdee0"/></svg>