<svg height="22" width="22" xmlns="http://www.w3.org/2000/svg"><path d="m13.5 5.99839a1.5 1.5 0 0 0 -1.5 1.5 1.5 1.5 0 0 0 1.5 1.5 1.5 1.5 0 0 0 1.5-1.5 1.5 1.5 0 0 0 -1.5-1.5zm-4.27539 6.03711c-.68002-.0174-1.41146.12078-2.25586.46484-.91093.37116-1.96256 1.02591-3.16406 1.98047 1.33406 2.76099 4.12892 4.5165 7.19531 4.51953 2.32571-.001 4.53583-1.01415 6.05469-2.77539-2.40443-1.34582-4.15065-2.97447-5.88672-3.72461-.63477-.27427-1.26335-.4474-1.94336-.46484z" fill="#dbdee0"/><path d="m11 3.00034c-4.41828 0-8 3.58172-8 8 .003.84917.14173 1.69241.41016 2.49805 1.16644-.90522 2.21184-1.52947 3.17968-1.92383.95209-.38794 1.83393-.54198 2.65821-.52148.82427.0205 1.59235.21643 2.3164.52929 2.01626.87121 3.77277 2.51846 6.10743 3.82422.86472-1.30696 1.32654-2.83912 1.32812-4.40625 0-4.41828-3.58172-8-8-8zm2.5 1.99805a2.5 2.5 0 0 1 2.5 2.5 2.5 2.5 0 0 1 -2.5 2.5 2.5 2.5 0 0 1 -2.5-2.5 2.5 2.5 0 0 1 2.5-2.5z" fill="#dbdee0" opacity=".35"/></svg>