<svg height="22" width="22" xmlns="http://www.w3.org/2000/svg"><path d="m5 3s-2 0-2 2v12s0 2 2 2h12s2 0 2-2v-12s0-2-2-2zm10 4h .9v8h-.9v-.7s-.5.8-1.6.8c-1.7 0-2.4-1.5-2.4-3 0-1.7.9-3 2.4-3 1.1 0 1.6.9 1.6.9zm-7.4.2c1 0 2 .4 2 .4v1s-1.1-.6-2-.6c-1 0-1.6.6-1.6 1.3 0 1 .9 1.1 1.8 1.3 1.3.3 2.2.9 2.2 2.3 0 1.8-1.3 2.2-2.7 2.2-1.3 0-2.1-.4-2.1-.4v-1.1s1 .7 2.1.7 1.7-.5 1.7-1.3c0-1.2-1.1-1.3-2-1.5-1.4-.3-2-.9-2-2 0-1.6 1.2-2.3 2.6-2.3zm5.9 2.7c-1.2 0-1.5 1.3-1.5 2.2 0 1.2.4 2.2 1.5 2.2s1.5-1.1 1.5-2.2c0-1.3-.5-2.2-1.5-2.2z" fill="#dbdee0"/></svg>