<svg height="22" width="22" xmlns="http://www.w3.org/2000/svg"><path d="m4.9998 2.99968s-2 0-2 2.0625v11.9375c0 2 2 2 2 2h12c2 0 2-2 2-2v-12s0-2-2-2zm .38281 4.32422h2.13867c.84319 0 1.49044.18984 1.93946.57031.44901.38046.67187.9306.67187 1.65039 0 .50729-.13838.92195-.41601 1.24414-.27421.31877-.66168.51396-1.16211.58594.26735.0685.49507.19868.68359.39062.18852.18852.42402.56774.70508 1.13672l1.04297 2.09766h-1.11524l-.91406-1.9375c-.26392-.55184-.50233-.90678-.71484-1.06446-.20909-.16109-.48294-.24218-.82227-.24218h-.99414v3.24414h-1.04297zm1.04297.85351v2.72461h1.13672c.497 0 .86797-.11119 1.11133-.33398.24336-.2228.36523-.56414.36523-1.02344 0-.44216-.13013-.77865-.39062-1.01172-.25707-.23651-.63338-.35547-1.12696-.35547zm7.72266.92578c.79863 0 1.40848.25783 1.83008.77539.42502.51757.63867 1.26776.63867 2.24805 0 .98372-.21122 1.73439-.63281 2.25195-.4216.51414-1.03389.76953-1.83594.76953-.79863 0-1.40849-.25539-1.83008-.76953-.42159-.51756-.63281-1.26823-.63281-2.25195 0-.98029.21122-1.73048.63281-2.24805.42159-.51756 1.03145-.77539 1.83008-.77539zm0 .80078c-.47987 0-.84306.18694-1.08985.56055-.24678.37361-.36914.9286-.36914 1.66211 0 .73007.12236 1.28312.36914 1.66016.24679.3736.60998.56054 1.08985.56054.48329 0 .84891-.18694 1.0957-.56054.24679-.37704.37109-.93009.37109-1.66016 0-.73351-.1243-1.2885-.37109-1.66211s-.61241-.56055-1.0957-.56055z" fill="#dbdee0"/></svg>