<svg height="22" width="22" xmlns="http://www.w3.org/2000/svg"><g><path d="m4.9998 2.99968s-2 0-2 2.0625v11.9375c0 2 2 2 2 2h12c2 0 2-2 2-2v-12s0-2-2-2zm .66016 4.32422h2.24218c.8569 0 1.50706.19519 1.94922.58593.44216.38732.66211.95639.66211 1.70703 0 .7575-.21995 1.32949-.66211 1.7168-.43873.38732-1.08889.58203-1.94922.58203h-1.20312v3.08399h-1.03906zm7.5332.2832h.94531v1.63476h2.14844v.73438h-2.14844v3.12695c0 .42502.0811.72072.24219.88867.1611.16796.44272.25196.84375.25196h1.0625v.75586h-1.15625c-.70951 0-1.21061-.1413-1.50195-.42578-.29135-.2845-.43555-.77491-.43555-1.47071v-3.12695h-1.53711v-.73438h1.53711zm-6.49414.57031v2.88477h1.20312c.47987 0 .85375-.12722 1.1211-.38086.27078-.25365.40625-.60859.40625-1.06446 0-.45586-.13499-.80837-.40235-1.05859-.26735-.25364-.64171-.38086-1.125-.38086z" fill="#dbdee0"/><path d="m0-.00001h22v22h-22z" fill="none"/></g></svg>