<svg height="22" width="22" xmlns="http://www.w3.org/2000/svg"><g><path d="m4.9998 2.99968s-2 0-2 2.0625v11.9375c0 2 2 2 2 2h12c2 0 2-2 2-2v-12s0-2-2-2zm6.98438 4h .94531v3.10547c.16795-.32905.39763-.57814.68554-.7461.28792-.17138.62732-.25586 1.02149-.25586.58612 0 1.02458.19276 1.3125.58008.29134.38389.43555.96655.43555 1.74805v3.56836h-.95118v-3.56836c0-.51757-.0898-.89727-.27148-1.14063-.18166-.24336-.4662-.36523-.85352-.36523-.44216 0-.7835.15731-1.02343.47265-.23651.31192-.35547.76155-.35547 1.34766v3.25391h-.94531zm-6.42188.32422h4.98242v.79101l-4.00976 6.01172h4.12304v.87305h-5.20898v-.79102l3.90234-6.01172h-3.78906z" fill="#dbdee0"/><path d="m0-.00001h22v22h-22z" fill="none"/></g></svg>