<svg height="22" width="22" xmlns="http://www.w3.org/2000/svg"><g><path d="m4.9998 2.99968s-2 0-2 2.0625v11.9375c0 2 2 2 2 2h12c2 0 2-2 2-2v-12s0-2-2-2zm3.46875 4.18554c.31191 0 .60518.0354.88281.10743.27764.0686.54858.17391.8125.31445v1.06445c-.25364-.20908-.52506-.36883-.8164-.47851-.29135-.10969-.58414-.16407-.87891-.16407-.67524 0-1.18167.26026-1.51758.78125-.3359.521-.5039 1.3071-.5039 2.35938 0 1.04884.168 1.83447.5039 2.35547.33591.52099.84234.78125 1.51758.78125.30163 0 .59489-.0544.88281-.16407.29135-.10968.56229-.26942.8125-.47851v1.06445c-.26392.14054-.53486.24396-.8125.3125-.27763.072-.5709.10742-.88281.10742-.98372 0-1.74798-.34716-2.29297-1.04296-.54156-.6958-.8125-1.6742-.8125-2.93555 0-1.2545.27142-2.23046.81641-2.92969.54841-.70266 1.3122-1.05469 2.28906-1.05469zm5.78906 1.91797c.30849 0 .60418.0296.88867.0879.28449.0549.56369.13887.8379.25195v.92383c-.27079-.15766-.5422-.27468-.81641-.35351-.27421-.0788-.55535-.11914-.83985-.11914-.42844 0-.74842.0704-.96093.21093-.20909.13711-.3125.34833-.3125.63282 0 .25707.0787.44935.23633.57617.15766.12682.55048.24917 1.17773.36914l.37891.0723c.46958.0891.82452.2678 1.06445.53516.24336.26735.36523.61452.36523 1.04297 0 .56897-.20101 1.01569-.60546 1.33789-.40447.31876-.96771.47656-1.6875.47656-.28449 0-.58262-.0301-.89454-.0918-.31191-.0583-.65034-.14761-1.01367-.26758v-.97656c.35304.18166.69148.31957 1.01367.41211.3222.0891.6281.13281.91602.13281.41817 0 .74105-.084.9707-.25195.22965-.17138.34571-.4098.34571-.71485 0-.43873-.42001-.7422-1.25977-.91015l-.041-.01-.35546-.0723c-.54499-.10626-.94315-.28495-1.19336-.53516-.25022-.25365-.375-.5979-.375-1.0332 0-.55185.18694-.97719.56054-1.27539.37361-.30163.90724-.45118 1.59961-.45118z" fill="#dbdee0"/><path d="m0 .00001h22v22h-22z" fill="none"/></g></svg>