<svg height="22" width="22" xmlns="http://www.w3.org/2000/svg"><g><path d="m4.9998 2.99968s-2 0-2 2.0625v11.9375c0 2 2 2 2 2h12c2 0 2-2 2-2v-12s0-2-2-2zm .75391 4.32422h1.04297v6.80273h3.70703v.87305h-4.75zm7.43945.2832h.94531v1.63476h2.14844v.73438h-2.14844v3.12695c0 .42502.0811.72072.24219.88867.1611.16796.44272.25196.84375.25196h1.0625v.75586h-1.15625c-.70951 0-1.21061-.1413-1.50195-.42578-.29135-.2845-.43555-.77491-.43555-1.47071v-3.12695h-1.53711v-.73438h1.53711z" fill="#dbdee0"/><path d="m0-.00001h22v22h-22z" fill="none"/></g></svg>