<svg height="22" width="22" xmlns="http://www.w3.org/2000/svg"><path d="m4.9998 2.99968s-2 0-2 2.0625v11.9375c0 2 2 2 2 2h12c2 0 2-2 2-2v-12s0-2-2-2zm10.39258 4h .94726v8h-.94726v-.72461c-.15767.28448-.36694.50153-.63086.65234-.2605.14739-.56349.2207-.90625.2207-.6958 0-1.24351-.26851-1.64453-.80664-.3976-.54156-.59571-1.28688-.59571-2.23632 0-.93574.20054-1.6699.60157-2.20118.40103-.5347.94629-.80078 1.63867-.80078.34618 0 .65209.0757.91601.22656.26393.1474.47028.362.6211.64649zm-7.5.18554c.29477 0 .60406.035.92969.10352.32562.0651.66939.16321 1.02929.29687v1.05469c-.31534-.20223-.6324-.3542-.95117-.45703-.31534-.10283-.63484-.1543-.95703-.1543-.49015 0-.87762.11411-1.16211.34375-.28449.22623-.42578.53261-.42578.91993 0 .33933.0922.59911.27734.77734.18852.17823.53812.3273 1.04883.44726l.54492.12305c.7198.16795 1.24322.43112 1.57227.79102s.49414.85031.49414 1.4707c0 .73007-.22529 1.28798-.67774 1.67188-.45244.38388-1.11085.57421-1.97461.57421-.35989 0-.72261-.0383-1.08593-.11718-.36333-.0754-.727-.18951-1.09375-.34375v-1.10547c.39417.25021.76562.43229 1.11523.54883.35304.11654.70798.17578 1.06445.17578.52443 0 .93132-.11653 1.22266-.34961.29135-.2365.4375-.56669.4375-.98828 0-.3839-.10051-.67668-.30273-.87891-.1988-.20223-.54792-.35711-1.04493-.4668l-.55468-.1289c-.71294-.1611-1.23054-.40485-1.55274-.73047-.32219-.32562-.48242-.76213-.48242-1.31055 0-.68552.2282-1.23517.6875-1.64648.46273-.41474 1.07744-.6211 1.8418-.6211zm6.10156 2.71875c-.45587 0-.80013.18694-1.0332.56055-.23308.37361-.34961.9286-.34961 1.66211 0 .7335.11653 1.28654.34961 1.66016.23307.3736.57733.56054 1.0332.56054s.80256-.18936 1.03906-.5664c.23993-.37704.35938-.92765.35938-1.6543 0-.73008-.11945-1.28264-.35938-1.65625-.2365-.37703-.58319-.56641-1.03906-.56641z" fill="#dbdee0"/></svg>