<svg height="22" width="22" xmlns="http://www.w3.org/2000/svg"><g><path d="m4.9998 2.99968s-2 0-2 2.0625v11.9375c0 2 2 2 2 2h12c2 0 2-2 2-2v-12s0-2-2-2zm7.19531 4h .97657v4.63281l2.48437-2.39063h1.15039l-2.26758 2.16993 2.62305 3.58789h-1.15625l-2.12891-2.97071-.70507.66211v2.3086h-.97657zm-7.10547.32422h1.38868l1.32617 3.9082 1.33593-3.9082h1.39454v7.67578h-.96094v-6.78125l-1.36914 4.04687h-.78516l-1.37304-4.04687v6.78125h-.95704z" fill="#dbdee0"/><path d="m0-.00001h22v22h-22z" fill="none"/></g></svg>