<svg height="22" width="22" xmlns="http://www.w3.org/2000/svg"><g><path d="m4.9998 2.99968s-2 0-2 2.0625v11.9375c0 2 2 2 2 2h12c2 0 2-2 2-2v-12s0-2-2-2zm .35156 4.32422h1.04492v3.14648h2.8418v-3.14648h1.04492v7.67578h-1.04492v-3.6543h-2.8418v3.6543h-1.04492zm6.63282 1.92773h.94531v3.56836c0 .51756.0918.89726.27343 1.14062.1851.24336.46963.36524.85352.36524.44559 0 .78693-.15489 1.02344-.4668.2365-.31534.35351-.76739.35351-1.35351v-3.25391h.95118v5.74805h-.95118v-.86328c-.16795.33248-.39615.58448-.6875.75585-.28791.17138-.62635.25586-1.01367.25586-.58954 0-1.02849-.19033-1.3164-.57421-.28792-.38732-.43164-.97242-.43164-1.75391z" fill="#dbdee0"/><path d="m0-.00001h22v22h-22z" fill="none"/></g></svg>