<svg height="22" width="22" xmlns="http://www.w3.org/2000/svg"><g><path d="m4.9998 2.99968s-2 0-2 2.0625v11.9375c0 2 2 2 2 2h12c2 0 2-2 2-2v-12s0-2-2-2zm .66016 4.32422h4.55664v.87304h-3.51758v2.27344h3.36328v.875h-3.36328v2.78125h3.61523v.87305h-4.65429zm8.66796 1.77929c.73351 0 1.31279.24714 1.73438.74414.42502.497.63672 1.17679.63672 2.03711v.46289h-4.09766v.0312c0 .62725.16266 1.11232.48828 1.45508.32905.34276.79227.51367 1.38868.51367.30162 0 .61626-.0485.94531-.14453.32905-.096.68108-.24212 1.05469-.4375v.94141c-.3599.14738-.70902.2581-1.04493.33008-.33247.0754-.65293.11132-.96484.11132-.8946 0-1.5938-.26608-2.09766-.80078-.50385-.53813-.75586-1.27811-.75586-2.2207 0-.91859.24666-1.65275.74024-2.20117.49357-.54842 1.15003-.82227 1.97265-.82227zm-.041.80078c-.45587 0-.83022.1515-1.125.45313-.29477.30163-.47054.71919-.52539 1.25391l3.11719-.004c-.0137-.55527-.14627-.97771-.39648-1.26563-.24679-.29134-.60416-.4375-1.07032-.4375z" fill="#dbdee0"/><path d="m0 .00001h22v22h-22z" fill="none"/></g></svg>