<svg height="22" width="22" xmlns="http://www.w3.org/2000/svg"><path d="m4.9998 2.99968s-2 0-2 2.0625v11.9375c0 2 2 2 2 2h12c2 0 2-2 2-2v-12s0-2-2-2zm2.1875 4.32422h1.25977l2.3496 7.67578h-1.07421l-.56641-2h-2.6875l-.55664 2h-1.07422zm.62695.91601-1.09375 3.92774h2.18946zm7.8711.86328c.23307 0 .45207.0296.65429.0879.20223.0583.39499.14809.58008.27149v.96679c-.20223-.15766-.4081-.27177-.61719-.34375-.20908-.072-.43728-.10937-.6875-.10937-.58954 0-1.0416.18646-1.35351.55664s-.4668.90429-.4668 1.60351v2.86329h-.95117v-5.75782h.95117v1.125c.15767-.40788.39899-.71961.72461-.93554.32905-.21937.717-.32813 1.16602-.32813z" fill="#dbdee0"/></svg>