<svg height="22" width="22" xmlns="http://www.w3.org/2000/svg"><path d="m4.9998 2.99968s-2 0-2 2.0625v11.9375c0 2 2 2 2 2h12c2 0 2-2 2-2v-12s0-2-2-2zm .50195 4.32422h2.27149c.78492 0 1.38943.17043 1.81445.50976s.63867.81906.63867 1.43945c0 .46958-.11362.8386-.33984 1.10938-.22279.27078-.5588.44122-1.00781.50976.50385.0754.8991.29198 1.18359.64844.28792.35304.43164.80315.43164 1.35156 0 .69581-.22772 1.22166-.68359 1.57813-.45587.35304-1.13566.5293-2.03711.5293h-2.27149zm1.04297.85351v2.31445h1.20899c.50042 0 .86119-.0971 1.08398-.28906.22622-.19195.33984-.50124.33984-.92969 0-.38732-.11119-.66651-.33398-.83789-.21937-.17138-.58256-.25781-1.08984-.25781zm7.2793.92578c.37018 0 .68434.0733.9414.22071.25708.14738.46586.3751.62696.68359v-.74609h.94726v5.36914c0 .86375-.20539 1.5173-.61328 1.96289-.40788.44558-1.00705.66797-1.79883.66797-.26049 0-.53191-.0223-.8164-.0703s-.56903-.11842-.85352-.21094v-.93555c.33591.15767.63986.2742.91407.34961.2742.0754.52621.11133.75585.11133.51072 0 .88216-.13838 1.11524-.41602.23307-.27763.34961-.71705.34961-1.32031v-.041-.64258c-.15082.3222-.35669.56109-.61719.71875-.2605.15767-.57756.23633-.95117.23633-.67181 0-1.20639-.26851-1.60742-.80664s-.60157-1.2587-.60157-2.16016c0-.90488.20054-1.62593.60157-2.16406s.93561-.80664 1.60742-.80664zm.21094.80078c-.46273 0-.81524.18646-1.0586.55664-.24336.36676-.36523.90378-.36523 1.61329s.12187 1.25139.36523 1.625c.24679.37018.60416.55468 1.07032.55468.4353 0 .76644-.18498.99609-.55859.23307-.37361.34961-.91501.34961-1.62109 0-.70951-.11654-1.24653-.34961-1.61329-.22965-.37018-.56565-.55664-1.00781-.55664zm-7.49024 1.42969v2.8125h1.22852c.60325 0 1.03394-.10342 1.29101-.3125.25707-.21251.38477-.56163.38477-1.04492 0-.50043-.13547-.86654-.40625-1.09961-.27078-.23651-.6937-.35547-1.26953-.35547z" fill="#dbdee0"/></svg>