<svg height="22" width="22" xmlns="http://www.w3.org/2000/svg"><g><path d="m4.9998 2.99968s-2 0-2 2.0625v11.9375c0 2 2 2 2 2h12c2 0 2-2 2-2v-12s0-2-2-2zm .0898 4.32422h1.38867l1.32617 3.9082 1.33594-3.9082h1.39453v7.67578h-.96094v-6.78125l-1.36914 4.04687h-.78515l-1.37305-4.04687v6.78125h-.95703zm9.54687 1.77929c.58612 0 1.02459.19276 1.3125.58008.29135.38389.43555.96655.43555 1.74805v3.56836h-.95117v-3.56836c0-.51757-.0898-.89727-.27149-1.14063-.18166-.24336-.46619-.36523-.85351-.36523-.44216 0-.78351.15731-1.02344.47265-.2365.31192-.35547.76155-.35547 1.34766v3.25391h-.94531v-5.75782h.94531v.86329c.16796-.32905.39763-.57814.68555-.7461.28792-.17138.62731-.25586 1.02148-.25586z" fill="#dbdee0"/><path d="m0-.00001h22v22h-22z" fill="none"/></g></svg>