<svg height="22" width="22" xmlns="http://www.w3.org/2000/svg"><path d="m5 3s-2 0-2 2v12s0 2 2 2h12s2 0 2-2v-12s0-2-2-2zm0 4.3h2.6s2.1 0 2.1 2c0 1.5-1.3 1.6-1.3 1.6s1.6.1 1.6 2c0 2.1-2.3 2.1-2.3 2.1h-2.7zm1 .9v2.3h1.4s1.3 0 1.3-1.2c0-1.1-1.1-1.1-1.1-1.1zm7.1.9c.9 0 1.2.7 1.2.7s.3-.7 1.4-.7 1.1 1.6 1.1 2.6v3.3h-.8v-3.3c0-.7 0-1.8-.7-1.8-.8 0-.8 1.1-.8 1.8v3.3h-.9v-3.3c0-1.3-.2-1.8-.8-1.8s-.8.5-.8 1.8v3.3h-.9v-5.8h.9v.5s.5-.6 1.1-.6zm-7.1 2.2v2.8h1.8s1.1 0 1.1-1.3c0-1.5-1.5-1.5-1.5-1.5z" fill="#dbdee0"/></svg>