<svg height="22" width="22" xmlns="http://www.w3.org/2000/svg"><g transform="translate(-33 -861.36218)"><path d="m861.36218 33h22v22h-22z" fill="none" transform="matrix(0 1 1 0 0 0)"/><path d="m37.00391 867.36216s-1 0-1 1v8s0 1 1 1h9.99609c1 0 1-1 1-1v-3.19922l4 3.19922v-8l-4 3.19922v-3.19922c0-1-1-1-1-1h-9.99609zm1.99609 4a1 1 0 0 1 1 1 1 1 0 0 1 -1 1 1 1 0 0 1 -1-1 1 1 0 0 1 1-1zm3 0a1 1 0 0 1 1 1 1 1 0 0 1 -1 1 1 1 0 0 1 -1-1 1 1 0 0 1 1-1zm3 0a1 1 0 0 1 1 1 1 1 0 0 1 -1 1 1 1 0 0 1 -1-1 1 1 0 0 1 1-1z" fill="#dbdee0"/></g></svg>