<svg height="22" width="22" xmlns="http://www.w3.org/2000/svg"><g transform="translate(-104.99997 -421.36389)"><path d="m421.36389-126.99997h22v22h-22z" fill="none" transform="rotate(90)"/><g fill="#dbdee0"><path d="m108.49999 424.36389c-.27701 0-.5.22301-.5.50001v.5l-1.99999-.002v-.00026l-.00001 14.50174c0 .277.22299.5.5.5h6c .27699 0 .5-.223.5-.5l.00001-14.50122-.50001.002h-1.5v-.5c0-.277-.22301-.50001-.5-.50001z" opacity=".35"/><path d="m106 434.36216-.00001 5.50174c-.00001.277.22299.5.5.5h6c .27699 0 .5-.223.5-.5l.00001-5.50174z"/><path d="m116 425.36216c-.554 0-1 .446-1 1v13c0 .554.446 1 1 1h5c .554 0 1-.446 1-1v-13c0-.554-.446-1-1-1zm0 3h1v1h-1zm2 0h1v1h-1zm2 1h1v7h-1zm-4 1h1v1h-1zm2 0h1v1h-1zm-2 2h1v1h-1zm2 0h1v1h-1zm-2 2h1v1h-1zm2 0h1v1h-1zm-2 2h1v1h-1zm2 0h1v1h-1z" fill-rule="evenodd"/></g></g></svg>