<svg height="22" width="22" xmlns="http://www.w3.org/2000/svg"><g transform="translate(-152.99998 -421.36389)"><path d="m421.36389-174.99998h22v22h-22z" fill="none" transform="rotate(90)"/><path d="m156.49998 424.36389c-.277 0-.5.22301-.5.50001v.5l-1.99998-.002v-.00026l-.00002 14.50174c0 .277.223.5.5.5h6c .277 0 .5-.223.5-.5l.00002-14.50122-.50002.002h-1.5v-.5c0-.277-.223-.50001-.5-.50001z" fill="#e74c3c" opacity=".35"/><path d="m164 425.36216c-.554 0-1 .446-1 1v13c0 .554.446 1 1 1h5c .554 0 1-.446 1-1v-13c0-.554-.446-1-1-1zm0 3h1v1h-1zm2 0h1v1h-1zm2 1h1v7h-1zm-4 1h1v1h-1zm2 0h1v1h-1zm-2 2h1v1h-1zm2 0h1v1h-1zm-2 2h1v1h-1zm2 0h1v1h-1zm-2 2h1v1h-1zm2 0h1v1h-1z" fill="#dbdee0" fill-rule="evenodd"/></g></svg>