<svg height="22" width="22" xmlns="http://www.w3.org/2000/svg"><path d="m3.5 3c-.277 0-.5.22301-.5.50001v.5l-1.99998-.002v-.00026l-.00002 14.50174c0 .277.223.5.5.5h6c .277 0 .5-.223.5-.5l.00002-14.50122-.50002.002h-1.5v-.5c0-.277-.223-.50001-.5-.50001z" fill="#e74c3c" opacity=".35"/><path d="m1 16.00001v2.5c0 .277.223.5.5.5h6c .277 0 .5-.223.5-.5v-2.5z" fill="#e74c3c"/><path d="m15.00002 2.99827c-2.77 0-5 2.676-5 6h5zm1 0v6h5c0-3.324-2.23-6-5-6zm-6 7v3c0 3.324 2.23 6 5 6h1c2.77 0 5-2.676 5-6v-3h-5z" fill="#dbdee0"/></svg>