<svg height="22" width="22" xmlns="http://www.w3.org/2000/svg"><g transform="translate(-153.0002 -205.36047)"><path d="m164 211.36216c-3.03435 0-5.76588 1.07815-8.03125 2.75l.23242.25391h15.50977l.25781-.28516c-2.25661-1.65329-4.9577-2.71875-7.96875-2.71875zm-2.29102 9.00391 2.29102 2.49609 2.26562-2.49609h-4.55664z" fill="#dbdee0" opacity=".35"/><path d="m-227.36047 153.0002h22v22h-22z" fill="none" transform="rotate(-90)"/><path d="m158.99742 215.36271c-1.108 0-2 .892-2 2s .892 2 2 2 2-.892 2-2-.892-2-2-2zm5 0c-1.108 0-2 .892-2 2s .892 2 2 2 2-.892 2-2-.892-2-2-2zm5 0c-1.108 0-2 .892-2 2s .892 2 2 2 2-.892 2-2-.892-2-2-2z" fill="#dbdee0"/></g></svg>