<svg height="22" width="22" xmlns="http://www.w3.org/2000/svg"><g><path d="m0 0h22v22h-22z" fill="none"/><g fill="#dbdee0"><path d="m18.000004 4.00389-14 14h8v-.004-2-2h1.013672c.01965-1.63493 1.342515-3 2.986328-3 .774415 0 1.470818.30948 2 .80078z" opacity=".35"/><path d="m15.000004 7.00389-11 11h8v-.004-2-2h1.013672c.01543-1.28412.838925-2.392 1.986328-2.8125v-4.18359z"/><path d="m16.000004 11.99998c-1.108 0-2 .91085-2 2.03125v.96875h-1v1 2 1h1 4 1v-1-2-1h-1v-.96875c0-1.1199-.892-2.03125-2-2.03125zm0 1c .554 0 1 .4424 1 1v1h-2v-1c0-.5576.446-1 1-1z"/></g></g></svg>