<svg height="22" width="22" xmlns="http://www.w3.org/2000/svg"><g transform="translate(-153.0002 -253.36047)"><path d="m158 258.3622s-1 0-1 1v9c0 1 1 1 1 1h2l1 1h6l1-1h2s1 .12994 1-1v-9c0-1-1-1-1-1zm6 2c1.10457 0 2 .89543 2 2s-.89543 2-2 2v1h-1v-2h1c .55229 0 1-.44772 1-1s-.44771-1-1-1c-.55228 0-1 .44772-1 1h-1c0-1.10457.89543-2 2-2zm-.5 5.75c.41421 0 .75.33579.75.75s-.33579.75-.75.75-.75-.33579-.75-.75.33579-.75.75-.75z" fill="#dbdee0"/><path d="m-275.36047 153.0002h22v22h-22z" fill="none" transform="rotate(-90)"/></g></svg>