<svg height="22" width="22" xmlns="http://www.w3.org/2000/svg"><g transform="translate(-57.000202 -277.36047)"><path d="m64.5 284.3639c-1.06313 0-2.02683.38353-2.79688 1h5.59961c-.77946-.62546-1.7558-.99853-2.80273-1zm-3.73828 7c .8074 1.20511 2.17874 2 3.73828 2 1.52116-.002 2.89978-.77661 3.7207-2zm11.23828 0v .99609h3v-.99609z" fill="#dbdee0" opacity=".35"/><path d="m63 286.3639c-1.108 0-2 .892-2 2s .892 2 2 2 2-.892 2-2-.892-2-2-2zm5 0c-1.108 0-2 .892-2 2s .892 2 2 2 2-.892 2-2-.892-2-2-2zm5 0c-1.108 0-2 .892-2 2s .892 2 2 2 2-.892 2-2-.892-2-2-2z" fill="#dbdee0"/><path d="m-299.36047 57.000202h22v22h-22z" fill="none" transform="rotate(-90)"/></g></svg>