<svg height="22" width="22" xmlns="http://www.w3.org/2000/svg"><g transform="translate(-33.000202 -277.36047)"><path d="m40.5002 284.3639c-2.48528 0-4.5 2.01472-4.5 4.5s2.01472 4.5 4.5 4.5c1.90471-.003 3.60143-1.20422 4.23633-3l3.26367-.004v2h3v-2.00391l1 .004v-3l-7.26367.004c-.6349-1.79578-2.33162-2.99733-4.23633-3zm0 3c .82843 0 1.5.67157 1.5 1.5s-.67157 1.5-1.5 1.5-1.5-.67157-1.5-1.5.67157-1.5 1.5-1.5z" fill="#dbdee0"/><path d="m-299.36047 33.000202h22v22h-22z" fill="none" transform="rotate(-90)"/></g></svg>