<svg height="22" width="22" xmlns="http://www.w3.org/2000/svg"><g fill="#dbdee0"><path d="m11.00001 3c-1 0-1 1.00001-1 1.00001v14s0 1 1 1h8c1 0 1-1 1-1v-14s0-1.00001-1-1.00001zm.9998 2.00336h6v11h-6z"/><path d="m3.50001 3c-.27701 0-.5.22301-.5.50001v.5l-1.99999-.002v-.00026l-.00001 14.50174c0 .277.22299.5.5.5h6c .27699 0 .5-.223.5-.5l.00001-14.50122-.50001.002h-1.5v-.5c0-.277-.22301-.50001-.5-.50001z" opacity=".35"/><path d="m1.00002 12.99827-.00001 5.50174c-.00001.277.22299.5.5.5h6c .27699 0 .5-.223.5-.5l.00001-5.50174z"/></g></svg>