<svg height="22" width="22" xmlns="http://www.w3.org/2000/svg"><g><path d="m-.00001-.00002h22v22h-22z" fill="none"/><path d="m5.97852 14.99405a.50005.50005 0 0 0 -.42579.2832l-1 2a .50006083.50006083 0 1 0  .89454.44727l1-2a .50005.50005 0 0 0 -.46875-.73047zm2.5 0a .50005.50005 0 0 0 -.42579.2832l-1 2a .50006083.50006083 0 1 0  .89454.44727l1-2a .50005.50005 0 0 0 -.46875-.73047zm2.5 0a .50005.50005 0 0 0 -.42579.2832l-1 2a .50006083.50006083 0 1 0  .89454.44727l1-2a .50005.50005 0 0 0 -.46875-.73047zm2.5 0a .50005.50005 0 0 0 -.42579.2832l-1 2a .50006083.50006083 0 1 0  .89454.44727l1-2a .50005.50005 0 0 0 -.46875-.73047zm2.5 0a .50005.50005 0 0 0 -.42579.2832l-1 2a .50006083.50006083 0 1 0  .89454.44727l1-2a .50005.50005 0 0 0 -.46875-.73047z" fill="#dbdee0"/><path d="m10.9998 3.00336c-2.07107 0-3.83471 1.26792-4.59375 3.0625-1.92783.2866-3.40625 1.92992-3.40625 3.9375 0 2.20914 1.79086 4 4 4h8.5c1.933 0 3.5-1.567 3.5-3.5 0-1.79654-1.35079-3.2687-3.09375-3.46875-.45457-2.29339-2.47938-4.03125-4.90625-4.03125z" fill="#dbdee0"/></g></svg>