<svg height="22" width="22" xmlns="http://www.w3.org/2000/svg"><g transform="translate(-105.00001 -681.28997)"><path d="m105.00001 681.28998h22v22h-22z" fill="none"/><circle cx="345.78403" cy="610.86658" fill="#8c5f5f" opacity="0" r="7" transform="matrix(.93969262 .34202014 -.34202014 .93969262 0 0)"/><path d="m115.75014 685.32217c-2.76278.10144-5.3087 1.80458-6.3125 4.5625-.52422 1.44028-.54381 2.94194-.1582 4.31641.4037-1.31803 1.48444-2.33365 2.83789-2.68359.17005-.29023.37154-.55965.58984-.8125.0105-.71024.13038-1.42853.38672-2.13282.51416-1.41265 1.47444-2.50836 2.65625-3.25zm-2.54297 7.98047-.40625.0605c-.96948.14412-1.70117.94816-1.70117 1.96289 0 1.11642.88358 2 2 2h6.375c.18615 0 .35995-.0382.52539-.0937-.99274.13004-2.02723.049-3.03125-.31641-1.77569-.64629-3.08858-1.99401-3.76172-3.61328z" fill="#dbdee0"/><path d="m116.09891 690.07608c-1.55331 0-2.87604.95094-3.44532 2.29688-1.44587.21495-2.55468 1.44744-2.55468 2.95312 0 1.65686 1.34314 3 3 3h6.375c1.44975 0 2.625-1.17525 2.625-2.625 0-1.3474-1.0131-2.45152-2.32032-2.60156-.34092-1.72004-1.85953-3.02344-3.67968-3.02344z" fill="#dbdee0"/></g></svg>