<svg height="22" width="22" xmlns="http://www.w3.org/2000/svg"><g><path d="m-.00001-.00002h22v22h-22z" fill="none"/><path d="m9.99977 3.00336-.5 1.03125c.16191-.0133.3348-.0312.5-.0312h.5l-.5-1zm0 2c-2.76142 0-5 2.23859-5 5 0 2.254 1.51261 4.12577 3.5625 4.75.46885-.67743 1.17975-1.20533 1.96875-1.4375.61973-1.32203 1.97474-2.3383 3.46875-2.3125.30449-.005.58708.056.875.125.0845-.36435.125-.73495.125-1.125 0-2.76141-2.23858-5-5-5zm-4.9375.0625.34375 1.0625c.21905-.25922.45953-.4997.71875-.71875l-1.0625-.34375zm9.875 0-1.09375.375h-.0625c.13917.11095.27498.22511.40625.34375s.25799.24175.375.375l.375-1.09375zm-10.9375 4.4375-1 .5 1.03125.5c-.0148-.16931-.0312-.3264-.0312-.5 0-.0275-.002-.0836 0-.15625.006-.11583.0223-.23224.0312-.34375h-.0312zm11.96875 0c .0148.16931.0312.3264.0312.5 0 .0275.002.0836 0 .15625-.006.11583-.0223.23224-.0312.34375h.0312l1-.5-1.03125-.5zm-10.53125 4.34375-.375 1.09375 1.09375-.375h.0625c-.13917-.11095-.27498-.22511-.40625-.34375s-.25799-.24175-.375-.375z" fill="#dbdee0"/><path d="m13.99977 12.00336c-1.31168 0-2.40482.85843-2.8125 2.03125-1.23083.15597-2.1875 1.19557-2.1875 2.46875 0 1.38071 1.11929 2.5 2.5 2.5h5.5c1.10457 0 2-.89543 2-2s-.89543-2-2-2c0-1.65685-1.34315-3-3-3z" fill="#dbdee0"/></g></svg>