<svg height="22" width="22" xmlns="http://www.w3.org/2000/svg"><g><path d="m-.000004-.00002h22v22h-22z" fill="none"/><path d="m10.999986 4c-2.07107 0-3.83471 1.26792-4.59375 3.0625-1.92783.2866-3.40625 1.92992-3.40625 3.9375 0 2.20914 1.79086 4 4 4h .40625c.45387-.80125 1.24093-1.42735 2.125-1.6875.61973-1.32203 1.97474-2.3383 3.46875-2.3125 1.90766-.0307 3.58166 1.48472 3.875 3.34375.14292.0452.26925.0908.40625.15625 1.03029-.60915 1.71875-1.7164 1.71875-3 0-1.79654-1.35079-3.2687-3.09375-3.46875-.45457-2.29339-2.47938-4.03125-4.90625-4.03125zm2 9c-.33987-.00076-.67579.0775-.96875.25-.58776.31859-.89071.94681-1.0625 1.5625-.0228.2123-.28964.1241-.4375.1875h4.46875c.0209-1.06592-.92424-2.03672-2-2z" fill="#dbdee0"/><path d="m12.999986 12c-1.31168 0-2.40482.85843-2.8125 2.03125-1.23083.15597-2.1875 1.19557-2.1875 2.46875 0 1.38071 1.11929 2.5 2.5 2.5h5.5c1.10457 0 2-.89543 2-2s-.89543-2-2-2c0-1.65685-1.34315-3-3-3z" fill="#dbdee0"/></g></svg>