<svg height="22" width="22" xmlns="http://www.w3.org/2000/svg"><g><path d="m10.000042 3.00285-.5 1.03125c.16191-.0133.3348-.0312.5-.0312h.5l-.5-1zm0 2c-2.76142 0-5 2.23859-5 5 0 .46958.07869.91712.201172 1.3457.514915-.53202 1.171105-.93095 1.914062-1.12304.82344-1.40536 2.240216-2.44141 3.982422-2.44141 1.642432 0 3.059043.86234 3.898438 2.14648-.03919-2.72762-2.259146-4.92773-4.996094-4.92773zm-4.9375.0625.34375 1.0625c.21905-.25922.45953-.4997.71875-.71875l-1.0625-.34375zm9.875 0-1.09375.375h-.0625c.13917.11095.27498.22511.40625.34375s.25799.24175.375.375l.375-1.09375zm-10.9375 4.4375-1 .5 1.03125.5c-.0148-.16931-.03125-.3264-.03125-.5 0-.0275-.002-.0836 0-.15625.006-.11583.02235-.23224.03125-.34375h-.03125zm11.96875 0c .0148.16931.03125.3264.03125.5 0 .0275.002.0836 0 .15625-.006.11583-.02235.23224-.03125.34375h.03125l1-.5-1.03125-.5zm-4.871094.28125c-1.145166 0-2.106772.69777-2.52539 1.6875l-.21875.51758-.554688.082c-.704444.10472-1.279099.56023-1.542969 1.18945.61174.68793 1.401213 1.21647 2.306641 1.49219.46885-.67743 1.17975-1.20533 1.96875-1.4375.536031-1.14348 1.622696-2.05414 2.873047-2.26367-.487856-.75882-1.331897-1.26755-2.306641-1.26755zm-4.935547 4.73438c.0039.0162.0113.0309.01563.0469h.04102c-.01923-.0153-.03755-.0314-.05664-.0469z" fill="#dbdee0"/><path d="m11.096855 8.7841c-1.553303 0-2.876033.95094-3.445313 2.29688-1.445872.21495-2.554687 1.44744-2.554687 2.95312 0 1.65686 1.343145 3 3 3h6.375c1.44975 0 2.625-1.17525 2.625-2.625 0-1.3474-1.013093-2.45152-2.320313-2.60156-.340927-1.72004-1.859535-3.02344-3.679687-3.02344z" fill="#dbdee0"/><path d="m .000001.00001h22v22h-22z" fill="none"/></g></svg>