<svg height="22" width="22" xmlns="http://www.w3.org/2000/svg"><g transform="translate(-177 -681.28999)"><path d="m187.75182 685.32655c-2.76278.10144-5.3087 1.80458-6.3125 4.5625-1.26383 3.47234.36867 7.32457 3.6875 8.8125-.0932-.33746-.14688-.70692-.125-1.0625.0277-1.00125.58397-1.88737 1.375-2.46875-1.56688-1.73319-2.13559-4.24646-1.28125-6.59375.51416-1.41265 1.47444-2.50836 2.65625-3.25zm.1875 11.125c-.41706.17181-.75796.48646-.875.9375-.26517.82497.3356 1.75454 1.1875 1.875 1.79602-.074 3.49951-.81062 4.75-2.09375v-.15625c-1.28091.37459-2.6817.39743-4.03125-.0937-.362-.13176-.70874-.28264-1.03125-.46875z" fill="#dbdee0"/><path d="m177 681.28998h22v22h-22z" fill="none"/><circle cx="413.44189" cy="586.24115" fill="#8c5f5f" opacity="0" r="7" transform="matrix(.93969262 .34202014 -.34202014 .93969262 0 0)"/><path d="m191.00182 693.2953c-1.31168 0-2.40482.85843-2.8125 2.03125-1.23083.15597-2.1875 1.19557-2.1875 2.46875 0 1.38071 1.11929 2.5 2.5 2.5h5.5c1.10457 0 2-.89543 2-2s-.89543-2-2-2c0-1.65685-1.34315-3-3-3z" fill="#dbdee0"/></g></svg>