<svg height="48" width="48" xmlns="http://www.w3.org/2000/svg"><path d="m4 38v1s0 2 2 2h2v4h32v-4h2s2 0 2-2v-1z" opacity=".2"/><rect fill="#4bae4f" height="36" rx="2" width="40" x="4" y="4"/><path d="m6 4s-2 0-2 2v1s0-2 2-2h36s2 0 2 2v-1s0-2-2-2z" fill="#fff" opacity=".2"/><path d="m6 40c-2 0-2-2-2-2v-1c0 2 2 2 2 2h36c2 0 2-2 2-2v1c0 2-2 2-2 2z" opacity=".2"/><path d="m8 39h32v5h-32z" fill="#feea3a"/><g fill="#388e3c"><circle cx="18" cy="27" r="4"/><circle cx="29" cy="27" r="4"/><path d="m20 27v-15h13v15h-2v-10h-9v10z"/></g></svg>