<svg height="48" width="48" xmlns="http://www.w3.org/2000/svg"><g opacity=".2"><circle cx="24" cy="25" r="20"/><rect height="32" rx="2" width="32" x="8" y="9"/></g><g fill="#666"><circle cx="24" cy="24" r="20"/><rect height="32" rx="2" width="32" x="8" y="8"/></g><g opacity=".2"><circle cx="11" cy="12" r="1"/><circle cx="37" cy="12" r="1"/><circle cx="37" cy="38" r="1"/><circle cx="11" cy="38" r="1"/></g><g fill="#fff"><circle cx="11" cy="11" r="1"/><circle cx="37" cy="11" r="1"/><circle cx="37" cy="37" r="1"/><circle cx="11" cy="37" r="1"/></g><circle cx="24" cy="25" opacity=".2" r="15"/><circle cx="24" cy="24" fill="#333" r="15"/><circle cx="24" cy="24" fill="#f9ce1d" r="13"/><circle cx="24" cy="25" opacity=".2" r="6"/><circle cx="24" cy="24" fill="#333" r="6"/><g fill="#fff"><circle cx="24" cy="22" opacity=".2" r="4"/><g opacity=".1"><path d="m24 4c-7.3 0-12 4-12 4h-2s-2 0-2 2v1s0-2 2-2h2s4.7-4 12-4 12 4 12 4h2s2 0 2 2v-1s0-2-2-2h-2s-4.7-4-12-4zm-16 8s-4 4.7-4 12v .5c0-6.3 4-11.5 4-11.5zm32 0v1s4 5.2 4 11.5v-.5c0-7.3-4-12-4-12z"/><path d="m24 8c-8.4 0-15 6.7-15 15v .5c0-7.5 6.6-14.5 15-14.5s15 7 15 14.5v-.5c0-8.3-6.6-15-15-15z"/></g></g></svg>