<svg height="48" width="48" xmlns="http://www.w3.org/2000/svg"><rect height="5" opacity=".2" rx="2" width="40" x="4" y="36"/><rect fill="#fff" height="2" rx="1" width="7" x="7" y="7"/><rect fill="#ccc" height="32" rx="2" width="40" x="4" y="8"/><path d="m6 8s-2 0-2 2v1s0-2 2-2h36s2 0 2 2v-1s0-2-2-2z" fill="#fff" opacity=".1"/><path d="m4 11h40v26h-40z" fill="#333"/><circle cx="10" cy="16" fill="#f9f9f9" r="2"/><circle cx="28" cy="24" fill="#009688" r="9" stroke="#fff" stroke-width="2"/><g fill="#fff"><path d="m24.5 20.5 3.5 3.5 3.5-3.5s-1.2-1.5-3.5-1.5-3.5 1.5-3.5 1.5z" opacity=".2"/><path d="m24.5 20.5s-1.5 1.2-1.5 3.5 1.5 3.5 1.5 3.5l3.5-3.5zm3.5 3.5 3.5 3.5s1.5-1.2 1.5-3.5-1.5-3.5-1.5-3.5z" opacity=".4"/><path d="m28 24-3.5 3.5s1.2 1.5 3.5 1.5 3.5-1.5 3.5-1.5z" opacity=".6"/></g></svg>