<svg height="48" width="48" xmlns="http://www.w3.org/2000/svg"><rect height="40" opacity=".2" rx="2" width="32" x="8" y="5"/><rect fill="#78909c" height="40" rx="2" width="32" x="8" y="4"/><path d="m10 4s-2 0-2 2v1s0-2 2-2h28s2 0 2 2v-1s0-2-2-2z" fill="#fff" opacity=".1"/><g fill="none" opacity=".2" stroke="#fff" stroke-width="2"><circle cx="24" cy="24" r="4"/><path d="m16.2 20.4 4.2-4.2m-7 1.4 4.2-4.2m3.4 22.6h6m-6-4h6"/><path d="m28.2 16.9 2.8-2.8 2.8 2.8-2.8 2.8z" fill="#fff"/></g><g fill="none" stroke="#455a64" stroke-width="2"><circle cx="24" cy="23" r="4"/><path d="m16.2 19.4 4.2-4.2m-7 1.4 4.2-4.2m3.4 22.6h6m-6-4h6"/><path d="m28.2 15.9 2.8-2.8 2.8 2.8-2.8 2.8z" fill="#455a64"/></g></svg>