<svg height="48" width="48" xmlns="http://www.w3.org/2000/svg" xmlns:xlink="http://www.w3.org/1999/xlink"><rect height="40" opacity=".2" rx="2" width="32" x="8" y="5"/><rect fill="#78909c" height="40" rx="2" width="32" x="8" y="4"/><path d="m10 4s-2 0-2 2v1s0-2 2-2h28s2 0 2 2v-1s0-2-2-2z" fill="#fff" opacity=".1"/><use fill="#fff" opacity=".2" xlink:href="#a" y="1"/><g id="a" fill="#455a64"><circle cx="18" cy="18" r="2"/><circle cx="24" cy="28" r="2"/><rect height="4" rx="1" width="4" x="28" y="16"/><path d="m24 10-2.5 4h1.5v8h-4v-3h-2v3s0 2 2 2h4v3h2v-3h4s2 0 2-2v-3h-2v3h-4v-8h1.5z"/></g></svg>