<svg viewBox="0 0 48 48"><g fill="none" stroke-linejoin="round" stroke-width="6"><path d="m40 21 1 19-7-10h-20l-7 10 1-19" opacity=".2" stroke="#000"/><path d="m40 20 1 19-7-10h-19m23 0 2-9" stroke="#455a64"/><path d="m8 20-1 19 10-15-7 5" stroke="#607d8b"/></g><rect fill="#607d8b" height="18" rx="9" width="38" x="5" y="10"/><g opacity=".2"><path d="m10 21v1h3v3h3v-3h3v-1z"/><circle cx="30.5" cy="20.5" r="1.5"/><circle cx="36.5" cy="20.5" r="1.5"/><circle cx="33.5" cy="17.5" r="1.5"/><circle cx="33.5" cy="23.5" r="1.5"/></g><g fill="#fff"><path d="m14 10s-8.5 0-9 9v1s0-8.5 9-9h20s8.5 0 9 9v-1s0-8.5-9-9z" opacity=".1"/><path d="m13 15v3h-3v3h3v3h3v-3h3v-3h-3v-3z"/><circle cx="30.5" cy="19.5" r="1.5"/><circle cx="36.5" cy="19.5" r="1.5"/><circle cx="33.5" cy="16.5" r="1.5"/><circle cx="33.5" cy="22.5" r="1.5"/></g></svg>