<svg height="48" width="48" xmlns="http://www.w3.org/2000/svg" xmlns:xlink="http://www.w3.org/1999/xlink"><rect height="30" opacity=".2" rx="2" width="42" x="3" y="10"/><rect fill="#78909c" height="30" rx="2" width="42" x="3" y="9"/><use opacity=".2" xlink:href="#a" y="1"/><g fill="#fff"><path id="a" d="m7 13v4h4v-4zm6 0v4h4v-4zm6 0v4h4v-4zm6 0v4h4v-4zm6 0v4h4v-4zm6 0v4h4v-4zm-30 6v4h4v-4zm6 0v4h4v-4zm6 0v4h4v-4zm6 0v4h4v-4zm6 0v4h4v-4zm6 0v4h4v-4zm-30 6v4h4v-4zm6 0v4h4v-4zm6 0v4h4v-4zm6 0v4h4v-4zm6 0v4h4v-4zm6 0v4h4v-4zm-24 6v4h22v-4z"/></g><g opacity=".1"><path d="m5 9s-2 0-2 2v1s0-2 2-2h38s2 0 2 2v-1s0-2-2-2z" fill="#fff"/><path d="m5 39c-2 0-2-2-2-2v-1c0 2 2 2 2 2h38c2 0 2-2 2-2v1c0 2-2 2-2 2z"/></g></svg>