<svg height="48" width="48" xmlns="http://www.w3.org/2000/svg"><rect height="4" opacity=".2" rx="2" width="40" x="4" y="37"/><rect fill="#333" height="32" rx="2" width="40" x="4" y="8"/><g fill="#fff"><path d="m6 8s-2 0-2 2v1s0-2 2-2h36s2 0 2 2v-1s0-2-2-2z" opacity=".1"/><rect height="16" opacity=".05" rx="2" width="40" x="4" y="24"/><path d="m6 8s-2 0-2 2v28s0 2 2 2h5v-32z" opacity=".1"/></g><circle cx="36" cy="35" opacity=".2" r="12"/><circle cx="36" cy="34" fill="#009688" r="12"/><path d="m30 37.3v2.7h2.7l6.8-6.8-2.7-2.7zm11.8-6.4c.3-.3.3-.7 0-1l-1.7-1.7c-.3-.3-.7-.3-1 0l-1.4 1.4 2.7 2.7z" fill="#fff"/></svg>