<svg viewBox="0 0 48 48"><g fill="none"><circle cx="24" cy="25" opacity=".2" r="12" stroke="#000" stroke-width="16"/><circle cx="24" cy="24" opacity=".8" r="7" stroke="#e0e2e3" stroke-width="6"/><circle cx="24" cy="24" r="14" stroke="#e0e2e3" stroke-width="12"/></g><g fill="#fff"><path d="m5.7 16 14.7 6.3c.4-1 1.2-1.7 2.2-2.1l-6.6-14.5c-5 2.3-8 5.3-10.3 10.3zm19.8 11.7 6.5 14.6c5-2.3 8-5.3 10.3-10.3l-14.7-6.3c-.4 1-1.1 1.6-2.1 2z" opacity=".2"/><path d="m4.3 20.4 15.7 3c .2-1 .7-1.9 1.5-2.5l-9.3-13c-4.2 3.1-6.8 7.1-7.9 12.5zm22 6.9 9.3 13c4.4-3 7.4-8.3 8.1-12.6l-15.7-3c-.3 1.1-.9 2-1.7 2.6z" opacity=".2"/><path d="m24 4c11 0 20 8.9 20 20v .5c-.3-10.8-9-19.5-20-19.5s-19.7 8.7-20 19.5v-.5c0-11.1 9-20 20-20zm3.9 20.5.1.5c0 2.2-1.8 4-4 4s-4-1.8-4-4l .1-.5c.2 2 1.9 3.5 3.9 3.5s3.7-1.5 3.9-3.5z" opacity=".1"/></g></svg>