<svg viewBox="0 0 48 48"><rect height="32" opacity=".2" rx="2" width="40" x="4" y="9"/><rect fill="#828b8f" height="32" rx="2" width="40" x="4" y="8"/><path d="m6 8s-2 0-2 2v1s0-2 2-2h36s2 0 2 2v-1s0-2-2-2z" fill="#fff" opacity=".1"/><circle cx="24" cy="25" opacity=".1" r="17"/><circle cx="24" cy="24" fill="#512da8" r="17"/><circle cx="24" cy="25" opacity=".2" r="12"/><circle cx="24" cy="24" fill="#9575cd" r="12"/><g fill="#fff"><path d="m21 20v8l7.5-4z" opacity=".8" stroke="#fff" stroke-linejoin="round" stroke-width="2"/><g opacity=".2"><path d="m24 7c-9.4 0-17 7.6-17 17v .5c0-8.5 7.8-16.5 17-16.5s17 8 17 16.5v-.5c0-9.4-7.6-17-17-17z"/><path d="m24 12c-6.6 0-12 5.4-12 12v .5c.3-6.4 5.5-11.5 12-11.5s11.7 5.1 12 11.5c0-.2 0-.3 0-.5 0-6.6-5.4-12-12-12z"/></g></g></svg>