<svg viewBox="0 0 48 48"><circle cx="24" cy="25" opacity=".2" r="20"/><circle cx="24" cy="24" fill="#3f51b5" r="20"/><g fill="none" stroke="#fff" stroke-width="2"><circle cx="24" cy="24" r="13"/><path d="m14 16s4 2 10 2 10-2 10-2"/><path d="m11 24h26"/><path d="m34 32s-4-2-10-2-10 2-10 2"/><path d="m24 11v26"/><ellipse cx="24" cy="24" rx="7" ry="13"/></g><path d="m24 4c-11.1 0-20 8.9-20 20v .5c.3-10.8 9.1-19.5 20-19.5s19.7 8.7 20 19.5c0-.2 0-.3 0-.5 0-11.1-8.9-20-20-20z" fill="#fff" opacity=".2"/><path d="m24 44c-11.1 0-20-8.9-20-20 0-.2 0-.3 0-.5.3 10.8 9.1 19.5 20 19.5s19.7-8.7 20-19.5v.5c0 11.1-8.9 20-20 20z" opacity=".1"/><g opacity=".2"><rect height="12" rx="1" width="16" x="29" y="34"/><path d="m32 34v-2s0-5 5-5 5 5 5 5v2" fill="none" stroke="#000" stroke-width="2"/></g><path d="m32 33v-2s0-5 5-5 5 5 5 5v2" fill="none" stroke="#f2f2f2" stroke-width="2"/><rect fill="#f9ce1d" height="12" rx="1" width="16" x="29" y="33"/><path d="m29 35h16v8h-16z" fill="#fadd60"/></svg>