<svg viewBox="0 0 48 48"><path d="m24 10c-11.5 0-21 7-21 7l21.1 23 20.9-23s-9.5-7-21-7z" opacity=".2"/><path d="m24 9c-11.5 0-21 7-21 7l21.1 23 20.9-23s-9.5-7-21-7z" fill="#607d8b"/><path d="m24 15c-10 0-16.8 5.6-16.8 5.6l16.8 18.4 16.8-18.4s-6.8-5.6-16.8-5.6z" fill="#90a4ae"/><path d="m24 21c-7.5 0-12.6 4.2-12.6 4.2l12.7 13.8 12.5-13.8s-5.1-4.2-12.6-4.2z" fill="#eceff1"/><path d="m24 9c-11.5 0-21 7-21 7l .6.6s9.4-6.6 20.4-6.6 20.4 6.6 20.4 6.6l.6-.6s-9.5-7-21-7zm0 6c-10 0-16.8 5.6-16.8 5.6l.6.6s7.2-5.2 16.2-5.2 16.2 5.2 16.2 5.2l.6-.6s-6.8-5.6-16.8-5.6zm0 6c-7.5 0-12.6 4.2-12.6 4.2l.6.6s5-3.8 12-3.8 12 3.8 12 3.8l.6-.6s-5.1-4.2-12.6-4.2z" fill="#fff" opacity=".1"/></svg>