<svg height="22" width="22" xmlns="http://www.w3.org/2000/svg"><g><path d="m11 2.00162c-1.00004-.00029-2 .89543-2 2v1 2s-1 0-1 1h6c0-1-1-1-1-1 0-.42279 0-2 0-2v-1c0-.13807-.005-.27605-.0312-.40625-.18654-.91137-.96884-1.59347-1.9688-1.59375zm0 1c .41421 0 .75444.26608.90625.625.0506.11964.0937.23693.0937.375 0 .55228-.44771 1-1 1s-1-.44772-1-1 .44771-1 1-1zm-3 1-3 .002c-1 0-1 1-1 1v13s0 1 1 1h12c1 0 1-1 1-1v-13c0-1-1-1-1-1l-3-.002v1h3v13h-12v-13h3z" fill="#555"/><path d="m0 .00002h22v22h-22z" fill="none"/><path d="m6 6.00162v11h10v-11h-2v .2793c.475.2667 1 .91819 1 1.7207v1h-8v-1c0-.80251.525-1.454 1-1.7207v-.2793zm4 0v1h2v-1h-1z" fill="#555" opacity=".35"/><path d="m11 2.00162c-1.00004-.00029-2 .89543-2 2v1 2s-1 0-1 1h6c0-1-1-1-1-1v-2-1c0-.13807-.005-.27605-.0312-.40625-.18654-.91137-.96884-1.59347-1.9688-1.59375zm0 1c .41421 0 .75444.26608.90625.625.0506.11964.0937.23693.0937.375 0 .55228-.44771 1-1 1s-1-.44772-1-1 .44771-1 1-1z" fill="#555"/></g></svg>