<svg height="22" width="22" xmlns="http://www.w3.org/2000/svg"><path d="m7.5 2.99968a4.5 4.5 0 0 0 -4.5 4.5 4.5 4.5 0 0 0  .61328 2.25586 7.4999995 7.4999995 0 0 0 -.11328 1.24414 7.4999995 7.4999995 0 0 0 7.5 7.5 7.4999995 7.4999995 0 0 0 1.25-.10547 4.5 4.5 0 0 0 2.25.60547 4.5 4.5 0 0 0 4.5-4.5 4.5 4.5 0 0 0 -.61328-2.25586 7.4999995 7.4999995 0 0 0  .11328-1.24414 7.4999995 7.4999995 0 0 0 -7.5-7.5 7.4999995 7.4999995 0 0 0 -1.25.10546 4.5 4.5 0 0 0 -2.25-.60546zm3.35156 3.01757c2.4635 0 3.73242 1.29976 3.73242 2.06055 0 .7608-.36798.88477-.97265.88477-1.17371 0-.69186-1.41016-2.89453-1.41016-.72954 0-1.63086.32657-1.63086 1.17578 0 .68136.79661.9319 2.2207 1.27735 2.14097.57317 3.75586 1.15328 3.75586 3.11132 0 1.90198-1.56775 2.85352-4.03125 2.85352s-4.03125-1.47358-4.03125-2.23438c0-.76075.29767-.95507.90234-.95507 1.17372 0 1.00436 1.59765 3.20704 1.59765.72954 0 1.80468-.3266 1.80468-1.17578 0-.68136-.0463-.92187-1.60742-1.33984-1.66789-.22723-4.36914-.76696-4.36914-2.83594 0-1.90198 1.45056-3.00977 3.91406-3.00977z" fill="#555"/></svg>