<svg height="22" width="22" xmlns="http://www.w3.org/2000/svg"><g><path d="m4.9998 2.99968s-2 0-2 2.0625v11.9375c0 2 2 2 2 2h12c2 0 2-2 2-2v-12s0-2-2-2zm .35156 4.32422h1.5586c1.17223 0 2.03652.31172 2.59179.93554.55527.62383.83203 1.59396.83203 2.91016 0 1.30934-.27676 2.27657-.83203 2.90039-.55527.62039-1.41956.92969-2.59179.92969h-1.5586zm1.04492.85351v5.96875h.49219c.87404 0 1.48585-.21413 1.83203-.64258.34619-.43188.51758-1.20974.51758-2.33398 0-1.13454-.17139-1.91531-.51758-2.34375-.34276-.43188-.95456-.64844-1.83203-.64844zm5.75196 1.05469h4.17968v.86328l-3.30468 4.13281h3.30468v.77149h-4.30273v-.87305l3.30664-4.13867h-3.18359z" fill="#555"/><path d="m0 .00001h22v22h-22z" fill="none"/></g></svg>