<svg height="22" width="22" xmlns="http://www.w3.org/2000/svg"><path d="m4.9998 2.99968s-2 0-2 2.0625v11.9375c0 2 2 2 2 2h12c2 0 2-2 2-2v-12s0-2-2-2zm .50195 4.32422h2.27149c.78491 0 1.38943.17043 1.81445.50976s.63867.81906.63867 1.43945c0 .46958-.11362.8386-.33984 1.10938-.2228.27078-.5588.44122-1.00781.50976.50385.0754.8991.29198 1.18359.64844.28792.35304.43164.80315.43164 1.35156 0 .69581-.22772 1.22166-.68359 1.57813-.45587.35304-1.13566.5293-2.03711.5293h-2.27149zm1.04297.85351v2.31445h1.20899c.50043 0 .86119-.0971 1.08398-.28906.22622-.19195.33984-.50124.33984-.92969 0-.38732-.11119-.66651-.33398-.83789-.21937-.17138-.58256-.25781-1.08984-.25781zm4.97266 1.06445h1.00195l1.70703 4.50391 1.68164-4.50391h1.00196l-1.51758 3.90625c-.15767.40104-.35821.92932-.60156 1.58399-.33934.90488-.56706 1.45745-.6836 1.65625-.15767.26735-.35334.46789-.58984.60156-.23651.13367-.51279.20117-.82813.20117h-.76172v-.79297h.56055c.27764 0 .49468-.0811.65234-.24218.15767-.1611.35821-.57624.60157-1.24805zm-4.97266 2.0918v2.8125h1.22852c.60325 0 1.03394-.10342 1.29101-.3125.25707-.21251.38477-.56163.38477-1.04492 0-.50043-.13547-.86654-.40625-1.09961-.27078-.23651-.6937-.35547-1.26953-.35547z" fill="#555"/></svg>