<svg height="22" width="22" xmlns="http://www.w3.org/2000/svg"><g><path d="m4.9998 2.99968s-2 0-2 2.0625v11.9375c0 2 2 2 2 2h12c2 0 2-2 2-2v-12s0-2-2-2zm .66016 4.32422h2.24218c.8569 0 1.50706.19519 1.94922.58593.44216.38732.66211.95639.66211 1.70703 0 .7575-.21995 1.32949-.66211 1.7168-.43873.38732-1.08889.58203-1.94922.58203h-1.20312v3.08399h-1.03906zm1.03906.85351v2.88477h1.20312c.47987 0 .85375-.12722 1.1211-.38086.27078-.25365.40625-.60859.40625-1.06446 0-.45586-.13499-.80837-.40235-1.05859-.26735-.25364-.64171-.38086-1.125-.38086zm7.32617.92578c.47644 0 .88285.0704 1.21875.21094.33933.14053.61318.3498.82227.63086.13024.17138.2225.38503.27734.63867.0548.25021.082.627.082 1.13086v3.28516h-.95117v-.85352c-.20223.34276-.45714.59719-.76563.76172-.30505.16109-.6765.24023-1.11523.24023-.58612 0-1.05468-.16314-1.4043-.49218-.34961-.33248-.52343-.77676-.52343-1.33203 0-.64096.21413-1.12847.64257-1.46094.43188-.33248 1.06358-.49805 1.89649-.49805h1.26953v-.14844c-.003-.45929-.11993-.79238-.34961-.99804-.22965-.20908-.59575-.31446-1.09961-.31446-.32219 0-.64751.0481-.97656.14063-.32905.0925-.64903.22606-.96094.4043v-.94532c.34961-.13367.68319-.2337 1.00195-.29883.3222-.0686.63392-.10156.93555-.10156zm.25195 3.00196c-.55184 0-.96893.0976-1.25.29296-.27763.19195-.41601.4794-.41601.86329 0 .34618.10537.61664.31445.80859s.49896.28711.86914.28711c.521 0 .93032-.17916 1.22852-.53906.2982-.36332.44774-.86442.45117-1.50196v-.21093h-.88281z" fill="#555"/><path d="m0-.00001h22v22h-22z" fill="none"/></g></svg>