<svg height="22" width="22" xmlns="http://www.w3.org/2000/svg"><g><path d="m4.9998 2.99968s-2 0-2 2.0625v11.9375c0 2 2 2 2 2h12c2 0 2-2 2-2v-12s0-2-2-2zm2.1875 4.32422h1.25977l2.3496 7.67578h-1.07421l-.56641-2h-2.6875l-.55664 2h-1.07422zm.62695.91601-1.09375 3.92774h2.18946zm5.58985.86328c.26049 0 .4751.0597.64648.17969.17481.11997.31028.30156.40625.54492.11654-.24679.26513-.42838.44336-.54492.18166-.11997.3987-.17969.65234-.17969.46273 0 .78805.17916.97657.53906.19194.35647.28906 1.03092.28906 2.02149v3.33594h-.86524v-3.29493c0-.81234-.0461-1.31635-.13867-1.51171-.0891-.1988-.25225-.29883-.49218-.29883-.27421 0-.46358.10585-.56641.31836-.0994.20908-.14844.70727-.14844 1.49218v3.29493h-.86523v-3.29493c0-.82262-.049-1.32953-.14844-1.52148-.096-.19194-.2698-.28906-.52344-.28906-.25021 0-.42599.10585-.52539.31836-.096.20908-.14453.70727-.14453 1.49218v3.29493h-.85742v-5.75782h.85742v.49414c.11311-.20565.25392-.36249.42188-.46875.17138-.10968.36609-.16406.58203-.16406z" fill="#555"/><path d="m0 .00001h22v22h-22z" fill="none"/></g></svg>