<svg viewBox="1 1 22 22"><path d="m6 4s-2 0-2 2v12s0 2 2 2h12s2 0 2-2v-12s0-2-2-2zm1 4.3h2.6s2.1 0 2.1 2c0 1.5-1.3 1.6-1.3 1.6s1.6.1 1.6 2c0 2.1-2.3 2.1-2.3 2.1h-2.7zm1 .9v2.3h1.4s1.3 0 1.3-1.2c0-1.1-1.1-1.1-1.1-1.1zm8.1.9c.8 0 1.7.3 1.7.3v1s-.7-.5-1.7-.5c-1.3 0-1.2.8-1.2.8s-.3.8 1.4 1c1.9.2 1.8 1.6 1.8 1.6s.1 1.8-2.3 1.8c-1 0-1.9-.3-1.9-.3v-1s1 .5 1.9.5c1.4 0 1.3-.9 1.3-.9s.1-.7-1.2-.9c-2.3-.3-2-1.7-2-1.7s-.1-1.7 2.2-1.7zm-8.1 2.2v2.8h1.8s1.1 0 1.1-1.3c0-1.5-1.5-1.5-1.5-1.5z" fill="#555"/></svg>