<svg height="22" width="22" xmlns="http://www.w3.org/2000/svg"><g><path d="m4.9998 2.99968s-2 0-2 2.0625v11.9375c0 2 2 2 2 2h12c2 0 2-2 2-2v-12s0-2-2-2zm7.19531 4h .97657v4.63281l2.48437-2.39063h1.15039l-2.26758 2.16993 2.62305 3.58789h-1.15625l-2.12891-2.97071-.70507.66211v2.3086h-.97657zm-6.79101.32422h1.04297v5.20312c0 .37361.0107.64164.0312.80273.0206.15768.056.27955.10742.36524.10968.20223.267.3542.47265.45703.20909.10283.46109.1543.75586.1543.2982 0 .55021-.0515.75586-.1543.20566-.10283.36541-.2548.47852-.45703.0514-.0857.0868-.20756.10742-.36524.0206-.15765.0312-.42278.0312-.79296v-5.21289h1.03906v4.73046c0 .78492-.051 1.34331-.15039 1.67579-.096.32904-.26202.60046-.50195.8164-.22622.20223-.486.35373-.77734.45313-.29135.0994-.6191.14843-.98243.14843-.35989 0-.68521-.049-.97656-.14843-.29134-.0994-.5516-.2509-.78125-.45313-.2365-.2125-.40451-.48636-.50391-.82226-.0994-.33934-.14843-.89529-.14843-1.66993v-4.73046z" fill="#555"/><path d="m0-.00001h22v22h-22z" fill="none"/></g></svg>