<svg height="22" width="22" xmlns="http://www.w3.org/2000/svg"><g><path d="m4.9998 2.99968s-2 0-2 2.0625v11.9375c0 2 2 2 2 2h12c2 0 2-2 2-2v-12s0-2-2-2zm2.89258 4.18554c.29477 0 .60406.035.92969.10352.32562.0651.66939.16321 1.02929.29687v1.05469c-.31534-.20223-.6324-.3542-.95117-.45703-.31534-.10283-.63484-.1543-.95703-.1543-.49015 0-.87762.11411-1.16211.34375-.28449.22623-.42578.53261-.42578.91993 0 .33933.0922.59911.27734.77734.18852.17823.53812.3273 1.04883.44726l.54492.12305c.7198.16795 1.24322.43112 1.57227.79102s.49414.85031.49414 1.4707c0 .73007-.22529 1.28798-.67774 1.67188-.45244.38388-1.11085.57421-1.97461.57421-.35989 0-.72261-.0383-1.08593-.11718-.36333-.0754-.727-.18951-1.09375-.34375v-1.10547c.39417.25021.76562.43229 1.11523.54883.35304.11654.70798.17578 1.06445.17578.52443 0 .93132-.11653 1.22266-.34961.29135-.2365.4375-.56669.4375-.98828 0-.3839-.10051-.67668-.30273-.87891-.1988-.20223-.54792-.35711-1.04493-.4668l-.55468-.1289c-.71294-.1611-1.23054-.40485-1.55274-.73047-.32219-.32562-.48242-.76213-.48242-1.31055 0-.68552.2282-1.23517.6875-1.64648.46273-.41474 1.07744-.6211 1.8418-.6211zm6.13281 1.91797c.47644 0 .88285.0704 1.21875.21094.33933.14053.61318.3498.82227.63086.13025.17138.2225.38503.27734.63867.0548.25021.082.627.082 1.13086v3.28516h-.95117v-.85352c-.20223.34276-.45714.59719-.76563.76172-.30505.16109-.6765.24023-1.11523.24023-.58612 0-1.05468-.16314-1.4043-.49218-.34961-.33248-.52344-.77676-.52344-1.33203 0-.64096.21413-1.12847.64258-1.46094.43188-.33248 1.06358-.49805 1.89649-.49805h1.26953v-.14844c-.003-.45929-.11994-.79238-.34961-.99804-.22965-.20908-.59575-.31446-1.09961-.31446-.32219 0-.64751.0481-.97656.14063-.32905.0925-.64903.22606-.96094.4043v-.94532c.34961-.13367.68319-.2337 1.00195-.29883.3222-.0686.63392-.10156.93555-.10156zm.25195 3.00196c-.55184 0-.96893.0976-1.25.29296-.27763.19195-.41601.4794-.41601.86329 0 .34618.10537.61664.31445.80859s.49896.28711.86914.28711c.521 0 .93032-.17916 1.22852-.53906.2982-.36332.44774-.86442.45117-1.50196v-.21093h-.88281z" fill="#555"/><path d="m0-.00001h22v22h-22z" fill="none"/></g></svg>