<svg height="22" width="22" xmlns="http://www.w3.org/2000/svg"><path d="m4.9998 2.99968s-2 0-2 2.0625v11.9375c0 2 2 2 2 2h12c2 0 2-2 2-2v-12s0-2-2-2zm .0898 4.32422h1.38868l1.32617 3.9082 1.33593-3.9082h1.39454v7.67578h-.96094v-6.78125l-1.36914 4.04687h-.78516l-1.37304-4.04687v6.78125h-.95704zm6.42774 1.91796h1.00195l1.70703 4.50391 1.68164-4.50391h1.00196l-1.51758 3.90625c-.15767.40104-.35821.92932-.60156 1.58399-.33934.90489-.56706 1.45745-.6836 1.65625-.15767.26735-.35334.46789-.58984.60156-.23651.13367-.51279.20117-.82813.20117h-.76172v-.79297h.56055c.27764 0 .49468-.0811.65234-.24218.15767-.1611.35821-.57624.60157-1.24805z" fill="#555"/></svg>