<svg height="22" width="22" xmlns="http://www.w3.org/2000/svg"><path d="m4.9998 2.99968s-2 0-2 2.0625v11.9375c0 2 2 2 2 2h12c2 0 2-2 2-2v-12s0-2-2-2zm .50195 4.32422h2.27149c.78492 0 1.38943.17043 1.81445.50976s.63867.81906.63867 1.43945c0 .46958-.11362.8386-.33984 1.10938-.2228.27078-.5588.44122-1.00781.50976.50385.0754.8991.29198 1.18359.64844.28792.35304.43164.80315.43164 1.35156 0 .69581-.22772 1.22166-.68359 1.57813-.45587.35304-1.13566.5293-2.03711.5293h-2.27149zm1.04297.85351v2.31445h1.20899c.50043 0 .86119-.0971 1.08398-.28906.22622-.19195.33984-.50124.33984-.92969 0-.38732-.11119-.66651-.33398-.83789-.21937-.17138-.58256-.25781-1.08984-.25781zm7.71289.92578c.30849 0 .60418.0296.88867.0879.28449.0549.56369.13887.83789.25195v.92383c-.27078-.15766-.54219-.27468-.8164-.35351-.27421-.0788-.55536-.11914-.83985-.11914-.42844 0-.74842.0704-.96093.21093-.20909.13711-.3125.34833-.3125.63282 0 .25707.0787.44935.23633.57617.15766.12682.55048.24917 1.17773.36914l.37891.0723c.46958.0891.82452.2678 1.06445.53516.24336.26735.36523.61452.36523 1.04297 0 .56897-.20101 1.01569-.60547 1.33789-.40445.31876-.9677.47656-1.6875.47656-.28449 0-.58262-.0301-.89453-.0918-.31191-.0583-.65034-.14761-1.01367-.26758v-.97656c.35304.18166.69148.31957 1.01367.41211.3222.0891.6281.13281.91602.13281.41817 0 .74105-.084.9707-.25195.22965-.17138.34571-.4098.34571-.71485 0-.43873-.42001-.7422-1.25977-.91015l-.041-.01-.35547-.0723c-.54499-.10626-.94314-.28495-1.19336-.53516-.25021-.25365-.375-.5979-.375-1.0332 0-.55185.18694-.97719.56055-1.27539.37361-.30163.90723-.45118 1.59961-.45118zm-7.71289 2.23047v2.8125h1.22852c.60325 0 1.03394-.10342 1.29101-.3125.25707-.21251.38477-.56163.38477-1.04492 0-.50043-.13547-.86654-.40625-1.09961-.27078-.23651-.6937-.35547-1.26953-.35547z" fill="#555"/></svg>