<svg height="22" width="22" xmlns="http://www.w3.org/2000/svg"><g><path d="m4.9998 2.99968s-2 0-2 2.0625v11.9375c0 2 2 2 2 2h12c2 0 2-2 2-2v-12s0-2-2-2zm6.98438 4h .94531v3.10547c.16795-.32905.39763-.57814.68554-.7461.28792-.17138.62732-.25586 1.02149-.25586.58612 0 1.02458.19276 1.3125.58008.29134.38389.43555.96655.43555 1.74805v3.56836h-.95118v-3.56836c0-.51757-.0898-.89727-.27148-1.14063-.18166-.24336-.4662-.36523-.85352-.36523-.44216 0-.7835.15731-1.02343.47265-.23651.31192-.35547.76155-.35547 1.34766v3.25391h-.94531zm-7.09571.32422h5.85742v.87304h-2.40234v6.80274h-1.04297v-6.80274h-2.41211z" fill="#555"/><path d="m0-.00001h22v22h-22z" fill="none"/></g></svg>