<svg height="22" width="22" xmlns="http://www.w3.org/2000/svg"><g><path d="m4.9998 2.99968s-2 0-2 2.0625v11.9375c0 2 2 2 2 2h12c2 0 2-2 2-2v-12s0-2-2-2zm .0898 4.32422h1.11524l1.6875 2.89453 1.7168-2.89453h1.11523l-2.29883 3.60937 2.46289 4.06641h-1.11523l-1.88086-3.30469-2.03125 3.30469h-1.1211l2.57032-4.06641zm9.16797 1.77929c.30849 0 .60418.0296.88867.0879.28449.0549.56369.13888.8379.25196v.92382c-.27079-.15766-.5422-.27468-.81641-.35351-.27421-.0788-.55535-.11914-.83985-.11914-.42843 0-.74842.0704-.96093.21094-.20909.1371-.3125.34832-.3125.63281 0 .25707.0787.44935.23633.57617.15766.12682.55048.24917 1.17773.36914l.37891.0723c.46958.0891.82452.2678 1.06445.53515.24336.26736.36523.61452.36523 1.04297 0 .56898-.20102 1.0157-.60546 1.33789-.40447.31877-.96771.47656-1.6875.47656-.2845 0-.58262-.0301-.89454-.0918-.31191-.0583-.65034-.14761-1.01367-.26758v-.97656c.35304.18166.69148.31957 1.01367.41211.3222.0891.6281.13281.91602.13281.41817 0 .74105-.084.9707-.25195.22965-.17138.34571-.40979.34571-.71485 0-.43873-.42001-.7422-1.25977-.91015l-.041-.01-.35546-.0723c-.54499-.10625-.94315-.28494-1.19336-.53515-.25022-.25365-.375-.59791-.375-1.03321 0-.55183.18694-.97719.56054-1.27539.37361-.30162.90724-.45117 1.59961-.45117z" fill="#555"/><path d="m0-.00001h22v22h-22z" fill="none"/></g></svg>