<svg height="22" width="22" xmlns="http://www.w3.org/2000/svg"><g><path d="m4.9998 2.99968s-2 0-2 2.0625v11.9375c0 2 2 2 2 2h12c2 0 2-2 2-2v-12s0-2-2-2zm2.89258 4.18554c.29477 0 .60406.035.92969.10352.32562.0651.6694.16321 1.02929.29687v1.05469c-.31534-.20223-.6324-.3542-.95117-.45703-.31534-.10283-.63484-.1543-.95703-.1543-.49015 0-.87762.11411-1.16211.34375-.28449.22623-.42578.53261-.42578.91993 0 .33933.0923.59911.27734.77734.18852.17823.53812.3273 1.04883.44726l.54492.12305c.7198.16795 1.24322.43112 1.57227.79102s.49414.85031.49414 1.4707c0 .73007-.22529 1.28798-.67774 1.67188-.45244.38388-1.11085.57421-1.97461.57421-.35989 0-.72261-.0383-1.08593-.11718-.36333-.0754-.727-.18951-1.09375-.34375v-1.10547c.39417.25021.76562.43229 1.11523.54883.35304.11654.70798.17578 1.06445.17578.52444 0 .93132-.11653 1.22266-.34961.29135-.2365.4375-.56669.4375-.98828 0-.3839-.10051-.67668-.30273-.87891-.1988-.20223-.54792-.35711-1.04493-.4668l-.55468-.1289c-.71294-.1611-1.23054-.40485-1.55274-.73047-.32219-.32562-.48242-.76213-.48242-1.31055 0-.68552.2282-1.23517.6875-1.64648.46273-.41474 1.07744-.6211 1.8418-.6211zm7.79297 1.91797c.23307 0 .45207.0296.65429.0879.20223.0583.39499.14809.58008.27149v.96679c-.20223-.15766-.4081-.27177-.61719-.34375-.20908-.072-.43728-.10937-.6875-.10937-.58954 0-1.0416.18646-1.35351.55664s-.4668.90429-.4668 1.60352v2.86328h-.95117v-5.75782h.95117v1.125c.15767-.40788.39899-.7196.72461-.93554.32905-.21937.717-.32813 1.16602-.32813z" fill="#555"/><path d="m0-.00001h22v22h-22z" fill="none"/></g></svg>