<svg height="22" width="22" xmlns="http://www.w3.org/2000/svg"><path d="m4.9998 2.99968s-2 0-2 2.0625v11.9375c0 2 2 2 2 2h12c2 0 2-2 2-2v-12s0-2-2-2zm3.2832 4.18554c.3222 0 .63101.0461.92578.13868.29478.0891.57931.22702.85352.41211v1.0625c-.27763-.26394-.56217-.45669-.85352-.58008-.29134-.12682-.60016-.18946-.92578-.18946-.67523 0-1.18215.26074-1.52148.78516-.33591.52099-.50391 1.30662-.50391 2.35547 0 1.06598.16266 1.85695.48828 2.37109.32905.51072.83306.76563 1.51172.76563.22965 0 .43018-.0267.60156-.0781.17481-.0549.33213-.13886.47266-.25195v-2.06055h-1.11523v-.85351h2.10742v3.30468c-.27764.25708-.59179.45227-.94141.58594-.34618.13025-.72054.19531-1.125.19531-.97343 0-1.73188-.34716-2.27344-1.04296-.54156-.69923-.8125-1.67762-.8125-2.93555 0-1.2545.27385-2.23046.82227-2.92969.54841-.70266 1.3122-1.05469 2.28906-1.05469zm3.70117 2.06641h.94532v3.56836c0 .51756.0918.89726.27343 1.14062.18509.24336.46963.36524.85352.36524.44559 0 .78693-.15489 1.02344-.4668.2365-.31534.35351-.76739.35351-1.35351v-3.25391h.95118v5.74805h-.95118v-.86328c-.16795.33248-.39615.58448-.6875.75585-.28791.17138-.62635.25586-1.01367.25586-.58954 0-1.02849-.19033-1.3164-.57421-.28792-.38732-.43165-.97242-.43165-1.75391z" fill="#555"/></svg>