<svg height="22" width="22" xmlns="http://www.w3.org/2000/svg"><g><path d="m4.9998 2.99968s-2 0-2 2.0625v11.9375c0 2 2 2 2 2h12c2 0 2-2 2-2v-12s0-2-2-2zm3.2832 4.18554c.3222 0 .63101.0461.92578.13868.29478.0891.57931.22702.85352.41211v1.0625c-.27763-.26394-.56217-.45669-.85352-.58008-.29134-.12682-.60016-.18946-.92578-.18946-.67523 0-1.18215.26074-1.52148.78516-.33591.52099-.50391 1.30662-.50391 2.35547 0 1.06598.16266 1.85695.48828 2.37109.32905.51072.83306.76563 1.51172.76563.22965 0 .43018-.0267.60156-.0781.17481-.0549.33213-.13886.47266-.25195v-2.06055h-1.11523v-.85351h2.10742v3.30468c-.27764.25708-.59179.45227-.94141.58594-.34618.13025-.72054.19531-1.125.19531-.97343 0-1.73188-.34716-2.27344-1.04296-.54156-.69923-.8125-1.67762-.8125-2.93555 0-1.2545.27385-2.23046.82227-2.92969.54841-.70266 1.3122-1.05469 2.28906-1.05469zm5.74219 1.91797c.47644 0 .88285.0704 1.21875.21094.33933.14053.61318.3498.82227.63086.13025.17138.2225.38503.27734.63867.0548.25021.082.627.082 1.13086v3.28516h-.95117v-.85352c-.20223.34276-.45714.59719-.76563.76172-.30505.16109-.6765.24023-1.11523.24023-.58612 0-1.05468-.16314-1.4043-.49218-.34961-.33248-.52344-.77676-.52344-1.33203 0-.64096.21413-1.12847.64258-1.46094.43188-.33248 1.06358-.49805 1.89649-.49805h1.26953v-.14844c-.003-.45929-.11994-.79238-.34961-.99804-.22965-.20908-.59575-.31446-1.09961-.31446-.32219 0-.64751.0481-.97656.14063-.32905.0925-.64903.22606-.96094.4043v-.94532c.34961-.13367.68319-.2337 1.00195-.29883.3222-.0686.63392-.10156.93555-.10156zm.25195 3.00196c-.55184 0-.96893.0976-1.25.29296-.27763.19195-.41601.4794-.41601.86329 0 .34618.10537.61664.31445.80859s.49896.28711.86914.28711c.521 0 .93032-.17916 1.22852-.53906.2982-.36332.44774-.86442.45117-1.50196v-.21093h-.88281z" fill="#555"/><path d="m0-.00001h22v22h-22z" fill="none"/></g></svg>