<svg height="22" width="22" xmlns="http://www.w3.org/2000/svg"><g><path d="m4.9998 2.99968s-2 0-2 2.0625v11.9375c0 2 2 2 2 2h12c2 0 2-2 2-2v-12s0-2-2-2zm2.89258 4.18554c.29477 0 .60406.035.92969.10352.32562.0651.6694.16321 1.02929.29687v1.05469c-.31534-.20223-.6324-.3542-.95117-.45703-.31534-.10283-.63484-.1543-.95703-.1543-.49015 0-.87762.11411-1.16211.34375-.28449.22623-.42578.53261-.42578.91993 0 .33933.0923.59911.27734.77734.18852.17823.53812.32731 1.04883.44726l.54492.12305c.7198.16795 1.24322.43112 1.57227.79102s.49414.85031.49414 1.4707c0 .73007-.22529 1.28798-.67774 1.67188-.45244.38388-1.11085.57421-1.9746.57421-.3599 0-.72262-.0383-1.08594-.11718-.36333-.0754-.727-.18951-1.09375-.34375v-1.10547c.39417.25021.76562.43229 1.11523.54883.35304.11654.70798.17578 1.06446.17578.52442 0 .93131-.11653 1.22265-.34961.29135-.2365.4375-.56669.4375-.98828 0-.3839-.1005-.67668-.30273-.87891-.1988-.20223-.54792-.35711-1.04492-.4668l-.55469-.1289c-.71294-.1611-1.23054-.40485-1.55274-.73047-.32219-.32562-.48242-.76213-.48242-1.31055 0-.68552.2282-1.23517.6875-1.64648.46273-.41474 1.07745-.6211 1.8418-.6211zm3.625 2.05664h1.00195l1.70703 4.50391 1.68164-4.50391h1.00196l-1.51758 3.90625c-.15767.40104-.35821.92932-.60156 1.58399-.33934.90489-.56706 1.45745-.6836 1.65625-.15767.26735-.35334.46789-.58984.60156-.23651.13367-.51279.20117-.82813.20117h-.76172v-.79297h.56055c.27764 0 .49468-.0811.65235-.24218.15766-.1611.3582-.57624.60156-1.24805z" fill="#555"/><path d="m-.00002 0h22v22h-22z" fill="none"/></g></svg>