<svg height="22" width="22" xmlns="http://www.w3.org/2000/svg"><path d="m4.9998 2.99968s-2 0-2 2.0625v11.9375c0 2 2 2 2 2h12c2 0 2-2 2-2v-12s0-2-2-2zm6.98438 4h .94531v3.10547c.16795-.32905.39763-.57814.68554-.7461.28792-.17138.62732-.25586 1.02149-.25586.58612 0 1.02458.19276 1.3125.58008.29134.38389.43555.96655.43555 1.74805v3.56836h-.95118v-3.56836c0-.51757-.0898-.89727-.27148-1.14063-.18166-.24336-.4662-.36523-.85352-.36523-.44216 0-.7835.15731-1.02343.47265-.23651.31192-.35547.76155-.35547 1.34766v3.25391h-.94531zm-6.32422.32422h2.24218c.8569 0 1.50706.19519 1.94922.58593.44216.38732.66211.95639.66211 1.70703 0 .7575-.21995 1.32949-.66211 1.7168-.43873.38732-1.08889.58203-1.94922.58203h-1.20312v3.08399h-1.03906zm1.03906.85351v2.88477h1.20312c.47987 0 .85375-.12722 1.1211-.38086.27078-.25365.40625-.60859.40625-1.06446 0-.45586-.13499-.80837-.40235-1.05859-.26735-.25364-.64171-.38086-1.125-.38086z" fill="#555"/></svg>