<svg height="22" width="22" xmlns="http://www.w3.org/2000/svg"><path d="m4.9998 2.99968s-2 0-2 2.0625v11.9375c0 2 2 2 2 2h12c2 0 2-2 2-2v-12s0-2-2-2zm3.46875 4.18554c.31191 0 .60518.0354.88281.10743.27764.0686.54858.17391.8125.31445v1.06445c-.25364-.20908-.52506-.36883-.8164-.47851-.29135-.10969-.58414-.16407-.87891-.16407-.67524 0-1.18167.26026-1.51758.78125-.3359.521-.5039 1.3071-.5039 2.35938 0 1.04884.168 1.83447.5039 2.35547.33591.52099.84234.78125 1.51758.78125.30163 0 .59489-.0544.88281-.16407.29135-.10968.56229-.26942.8125-.47851v1.06445c-.26392.14054-.53486.24396-.8125.3125-.27763.072-.5709.10742-.88281.10742-.98372 0-1.74798-.34716-2.29297-1.04296-.54156-.6958-.8125-1.6742-.8125-2.93555 0-1.2545.27142-2.23046.81641-2.92969.54841-.70266 1.3122-1.05469 2.28906-1.05469zm4.93555 1.91797c.26049 0 .4751.0597.64648.17969.17481.11997.31028.30156.40625.54492.11654-.24679.26513-.42838.44336-.54492.18166-.11997.3987-.17969.65234-.17969.46273 0 .78805.17916.97657.53906.19194.35647.28906 1.03092.28906 2.02149v3.33594h-.86524v-3.29493c.00001-.81234-.0461-1.31635-.13867-1.51171-.0891-.1988-.25225-.29883-.49218-.29883-.27421 0-.46358.10585-.56641.31836-.0994.20908-.14844.70727-.14844 1.49218v3.29493h-.86523v-3.29493c0-.82262-.049-1.32953-.14844-1.52148-.096-.19194-.2698-.28906-.52344-.28906-.25021 0-.42599.10585-.52539.31836-.096.20908-.14453.70727-.14453 1.49218v3.29493h-.85742v-5.75782h.85742v.49414c.11311-.20565.25392-.36249.42188-.46875.17138-.10968.36609-.16406.58203-.16406z" fill="#555"/></svg>