<svg height="22" width="22" xmlns="http://www.w3.org/2000/svg"><g><path d="m4.9998 2.99968s-2 0-2 2.0625v11.9375c0 2 2 2 2 2h12c2 0 2-2 2-2v-12s0-2-2-2zm2.89258 4.18554c.29477 0 .60406.035.92969.10352.32562.0651.6694.16321 1.02929.29687v1.05469c-.31534-.20223-.6324-.3542-.95117-.45703-.31534-.10283-.63484-.1543-.95703-.1543-.49015 0-.87762.11411-1.16211.34375-.28449.22623-.42578.53261-.42578.91993 0 .33933.0923.59911.27734.77734.18852.17823.53812.3273 1.04883.44726l.54492.12305c.7198.16795 1.24322.43112 1.57227.79102s.49414.85031.49414 1.4707c0 .73007-.22529 1.28798-.67774 1.67188-.45244.38388-1.11085.57421-1.97461.57421-.35989 0-.72261-.0383-1.08593-.11718-.36333-.0754-.727-.18951-1.09375-.34375v-1.10547c.39417.25021.76562.43229 1.11523.54883.35304.11654.70798.17578 1.06445.17578.52444 0 .93132-.11653 1.22266-.34961.29135-.2365.4375-.56669.4375-.98828 0-.3839-.10051-.67668-.30273-.87891-.1988-.20223-.54792-.35711-1.04493-.4668l-.55468-.1289c-.71294-.1611-1.23054-.40485-1.55274-.73047-.32219-.32562-.48242-.76213-.48242-1.31055 0-.68552.2282-1.23517.6875-1.64648.46273-.41474 1.07744-.6211 1.8418-.6211zm6.02539 1.9375c.34276 0 .6438.0757.9043.22657.26392.14738.47514.36395.63281.64843v-.73632h.95117v7.94921h-.95117v-2.92578c-.15424.2845-.36303.50397-.62696.65821-.26048.15081-.56396.22656-.91015.22656-.68895 0-1.23374-.2656-1.63477-.79688-.3976-.5347-.59765-1.26934-.59765-2.20507 0-.95288.20005-1.6982.59765-2.23633s.94239-.8086 1.63477-.8086zm.14844.80274c-.45587 0-.80013.18694-1.03321.56055-.22965.37361-.34375.92665-.34375 1.66015 0 .73351.1141 1.28655.34375 1.66016.23308.3736.57734.56054 1.03321.56054s.80012-.18694 1.0332-.56054c.2365-.37704.35547-.93008.35547-1.66016 0-.73007-.11897-1.28069-.35547-1.6543-.23308-.37704-.57733-.5664-1.0332-.5664z" fill="#555"/><path d="m0-.00001h22v22h-22z" fill="none"/></g></svg>