<svg height="22" width="22" xmlns="http://www.w3.org/2000/svg"><g fill="#555"><path d="m3.5 3c-.277 0-.5.22301-.5.50001v.5l-1.999985-.002v-.00026l-.000015 14.50174c0 .277.223.5.5.5h6c .277 0 .5-.223.5-.5l.000015-14.50122-.500015.002h-1.5v-.5c0-.277-.223-.50001-.5-.50001z" opacity=".35"/><path d="m1.000015 7.99827-.000015 10.50174c0 .277.223.5.5.5h6c .277 0 .5-.223.5-.5l.000015-10.50174z"/><path d="m11.000015 3.99827c-.554 0-1 .446-1 1v13c0 .554.446 1 1 1h5c .554 0 1-.446 1-1v-13c0-.554-.446-1-1-1zm0 3h1v1h-1zm2 0h1v1h-1zm2 1h1v7h-1zm-4 1h1v1h-1zm2 0h1v1h-1zm-2 2h1v1h-1zm2 0h1v1h-1zm-2 2h1v1h-1zm2 0h1v1h-1zm-2 2h1v1h-1zm2 0h1v1h-1z" fill-rule="evenodd"/></g></svg>