<svg height="22" width="22" xmlns="http://www.w3.org/2000/svg"><g><path d="m5.3446 3.9375 12.71875 12.71875-1.40625 1.40625-12.71875-12.71875z" fill="#555"/><path d="m0-.00001h22v22h-22z" fill="none"/><path d="m11.00078 3c-1.24595 0-2.31105.7515-2.76562 1.82812-.00023.00054.00022.001 0 .002l5.76562 5.76363v-4.59375c0-1.66208-1.33792-3-3-3zm-3 4.40625v3.59375c0 1.66208 1.33791 3 3 3 .98363 0 1.84418-.47608 2.39062-1.20313zm-3 2.59375v1c0 2.96947 2.16237 5.43216 5 5.90625v2.09375h2v-2.09375c1.39887-.23371 2.63093-.95383 3.52344-1.97656l-1.41797-1.41797c-.72909.90441-1.8347 1.48828-3.10547 1.48828-2.23342 0-4-1.76659-4-4v-1zm10 0v1c0 .18587-.029.36236-.0527.54102l1.63671 1.63671c.26447-.6756.41599-1.4083.41599-2.17773v-1z" fill="#555"/></g></svg>