<svg height="22" width="22" xmlns="http://www.w3.org/2000/svg"><g transform="translate(-32.999985 -469.36389)"><path d="m469.36389-54.999985h22v22h-22z" fill="none" transform="rotate(90)"/><path d="m36.499985 472.36389c-.277 0-.5.22301-.5.50001v.5l-1.999985-.002v-.00026l-.000015 14.50174c0 .277.223.5.5.5h6c .277 0 .5-.223.5-.5l.000015-14.50122-.500015.002h-1.5v-.5c0-.277-.223-.50001-.5-.50001z" fill="#555"/><path d="m48 472.36216c-2.77 0-5 2.676-5 6h5zm1 0v6h5c0-3.324-2.23-6-5-6zm-6 7v3c0 3.324 2.23 6 5 6h1c2.77 0 5-2.676 5-6v-3h-5z" fill="#555"/></g></svg>