<svg height="22" width="22" xmlns="http://www.w3.org/2000/svg"><g transform="translate(-57.000202 -229.36047)"><path d="m-251.36047 57.000202h22v22h-22z" fill="none" transform="rotate(-90)"/><g fill="#555"><path d="m68 235.36216c-3.03435 0-5.76588 1.07815-8.03125 2.75l8.03125 8.75 1-1.10156v-1.39844h1.013672c.01961-1.63157 1.33745-2.99245 2.976562-2.99805l2.978516-3.2832c-2.25661-1.65329-4.9577-2.71875-7.96875-2.71875z" opacity=".35"/><path d="m73 242.36216c-1.108 0-2 .91085-2 2.03125v.96875h-1v1 2 1h1 4 1v-1-2-1h-1v-.96875c0-1.1199-.892-2.03125-2-2.03125zm0 1c .554 0 1 .4424 1 1v1h-2v-1c0-.5576.446-1 1-1z"/><path d="m68 238.36216c-2.242781 0-4.261144.79748-5.935547 2.0332l5.935547 6.4668.994141-1.0957v-1.36719h.0059l-.000041-.0371h.996094c.0099-.40425.101649-.79042.257812-1.14258.453058-1.07903 1.503233-1.85411 2.738282-1.85742l.898437-.99023c-1.66793-1.222-3.665068-2.00978-5.890625-2.00978z"/></g></g></svg>