<svg height="22" width="22" xmlns="http://www.w3.org/2000/svg"><g transform="translate(-129.0002 -229.36047)"><path d="m-251.36047 129.0002h22v22h-22z" fill="none" transform="rotate(-90)"/><path d="m140 235.36216c-3.03435 0-5.76588 1.07815-8.03125 2.75l8.03125 8.75 1-1.10156v-1.39844h1.01367c.0196-1.63157 1.33746-2.99245 2.97656-2.99805l2.97852-3.2832c-2.25661-1.65329-4.9577-2.71875-7.96875-2.71875z" fill="#555" opacity=".35"/><path d="m145 242.36216c-1.108 0-2 .91085-2 2.03125v.96875h-1v1 2 1h1 4 1v-1-2-1h-1v-.96875c0-1.1199-.892-2.03125-2-2.03125zm0 1c .554 0 1 .4424 1 1v1h-2v-1c0-.5576.446-1 1-1z" fill="#555"/></g></svg>