<svg height="22" width="22" xmlns="http://www.w3.org/2000/svg"><g><path d="m0-.00001h22v22h-22z" fill="none"/><path d="m17.99959 4.00333-14 14h9v-5h5z" fill="#555" opacity=".35"/><path d="m13.99959 14.00333v1c0 .27614.10029.53779.28125.71875l.78125.78125-.78125.78125c-.18096.18096-.28125.44261-.28125.71875v1h1c .27614 0 .53779-.10029.71875-.28125l.78125-.78125.78125.78125c.18096.18096.44261.28125.71875.28125h1v-1c0-.27614-.10029-.53779-.28125-.71875l-.78125-.78125.78125-.78125c.18096-.18096.28125-.44261.28125-.71875v-1h-1c-.27614 0-.53779.10029-.71875.28125l-.78125.78125-.78125-.78125c-.18096-.18096-.44261-.28125-.71875-.28125z" fill="#555"/></g></svg>