<svg height="22" width="22" xmlns="http://www.w3.org/2000/svg"><g fill="#555"><path d="m10.9998 6.00169c-3.03435 0-5.76588 1.07815-8.03125 2.75l8.03125 8.75 1-1.10156v-1.39844h1.01367c.0196-1.63157 1.33746-2.99245 2.97656-2.99805l2.97852-3.2832c-2.25661-1.65329-4.9577-2.71875-7.96875-2.71875z" opacity=".35"/><path d="m10.9998 12.00169c-.32467 0-.63865.0344-.94727.084-.1026.0162-.20194.0393-.30273.0606-.19589.0419-.3876.0924-.57617.15234-.11854.0372-.23798.0695-.35352.11329-.17317.0663-.33966.14634-.50586.22656-.40526.19418-.7972.41275-1.15625.67773l3.8418 4.18555 1-1.08984v-1.41016h1.01367c.0104-.86484.39201-1.64751.98633-2.19922-.10463-.055-.20762-.11287-.31445-.16406-.1662-.0802-.33269-.1602-.50586-.22656-.11554-.0438-.23498-.0761-.35352-.11328-.18857-.0599-.38028-.11046-.57617-.15235-.10079-.0212-.20013-.0443-.30273-.0606-.30862-.0496-.6226-.084-.94727-.084z"/><path d="m15.9998 13.00169c-1.108 0-2 .91085-2 2.03125v.96875h-1v1 2 1h1 4 1v-1-2-1h-1v-.96875c0-1.1199-.892-2.03125-2-2.03125zm0 1c .554 0 1 .4424 1 1v1h-2v-1c0-.5576.446-1 1-1z"/></g></svg>