<svg height="22" width="22" xmlns="http://www.w3.org/2000/svg"><g transform="translate(-177.0002 -205.36047)"><path d="m190.9373 220.36552v1c0 .27614.10029.53779.28125.71875l.78125.78125-.78125.78125c-.18096.18096-.28125.44261-.28125.71875v1h1c .27614 0 .53779-.10029.71875-.28125l.78125-.78125.78125.78125c.18096.18096.44261.28125.71875.28125h1v-1c0-.27614-.10029-.53779-.28125-.71875l-.78125-.78125.78125-.78125c.18096-.18096.28125-.44261.28125-.71875v-1h-1c-.27614 0-.53779.10029-.71875.28125l-.78125.78125-.78125-.78125c-.18096-.18096-.44261-.28125-.71875-.28125z" fill="#555"/><path d="m-227.36047 177.0002h22v22h-22z" fill="none" transform="rotate(-90)"/><path d="m188 211.36216c-3.03435 0-5.76588 1.07815-8.03125 2.75l8.03125 8.75 7.96875-8.78125c-2.25661-1.65329-4.9577-2.71875-7.96875-2.71875z" fill="#555" opacity=".35"/></g></svg>