<svg height="22" width="22" xmlns="http://www.w3.org/2000/svg"><g transform="translate(-80.999985 -445.36389)"><path d="m445.36389-102.99998h22v22h-22z" fill="none" transform="rotate(90)"/><g fill="#555"><path d="m91.999985 448.36389c-1 0-1 1.00001-1 1.00001v14s0 1 1 1h8c1.000005 0 1.000005-1 1.000005-1v-14s0-1.00001-1.000005-1.00001zm.9998 2.00336h6v11h-6z"/><path d="m84.499985 448.36389c-.277 0-.5.22301-.5.50001v.5l-1.999985-.002v-.00026l-.000015 14.50174c0 .277.223.5.5.5h6c .277 0 .5-.223.5-.5l.000015-14.50122-.500015.002h-1.5v-.5c0-.277-.223-.50001-.5-.50001z" opacity=".35"/><path d="m82 456.36216-.000015 7.50174c-.000001.277.223.5.5.5h6c .277 0 .5-.223.5-.5l.000015-7.50174z"/></g></g></svg>