<svg height="22" width="22" xmlns="http://www.w3.org/2000/svg"><g><path d="m7.5 2.99968c-2.48528 0-4.5 2.01472-4.5 4.5.002.79285.21369 1.57106.61328 2.25586-.0723.41084-.11019.827-.11328 1.24414 0 4.14214 3.35786 7.5 7.5 7.5.41888-.00019.83701-.0355 1.25-.10547.68384.39586 1.45985.60468 2.25.60547 2.48528 0 4.5-2.01472 4.5-4.5-.002-.79285-.21369-1.57106-.61328-2.25586.0723-.41084.11019-.827.11328-1.24414 0-4.14214-3.35786-7.5-7.5-7.5-.41888.00018-.83701.0355-1.25.10546-.68384-.39585-1.45985-.60468-2.25-.60546zm-.5 7.08984h8v2h-8z" fill="#03a9f4"/><path d="m0 0h22v22h-22z" fill="none"/></g></svg>