<svg viewBox="1 1 22 22"><path d="m12 3c-5 0-9 4-9 9v .7l4.6 1.4s.8-.6 1.4-.6l2-3.7c-.1-2.6 1.7-4.1 3.8-4.1 1.9 0 3.5 1.8 3.5 3.8s-1.8 3.5-3.2 3.5l-2.9 2.9c.1 1.5-.8 2.8-2.3 3.1-1.4.2-2.6-.6-3.1-1.8l-2.7-.9c1.6 2.9 4.6 4.7 7.9 4.7 5 0 9-4 9-9s-4-9-9-9zm .2 6.4c0 1.4 1.1 2.5 2.5 2.5s2.4-1.1 2.4-2.5-1-2.5-2.4-2.5-2.5 1.1-2.5 2.5zm2.5-1.9c1 0 1.8 1 1.8 1.9 0 1-.8 1.9-1.8 1.9s-1.9-.9-1.9-1.9.9-1.9 1.9-1.9zm-5.3 6.5c-.5 0-1 .3-1 .3l1.4.4c.8.2 1.3 1.1 1.1 2-.3.8-1.1 1.3-1.9 1.1l-1.5-.4s.5 1 1.9 1 2.2-1 2.2-2.2c0-1-.9-2.2-2.2-2.2z" fill="#555"/></svg>