<svg height="16" width="16" xmlns="http://www.w3.org/2000/svg"><path d="m7.9 0c-1.6 1-1 2.1-1 2.1-3.4.5-4.1 3.2-4.1 3.2s-.4-.3-.9-.3c-1 0-1.9 1.1-1.9 2.4s.8 2.3 1.9 2.3c.5 0 .9-.2 1.2-.6 2.7-1.5 7.1-1.5 9.9 0 0 0 .5.6 1.1.6 0 0 1.9 0 1.9-2.3 0 0 0-2.5-1.9-2.5-.5 0-.9.5-.9.5s-.7-2.7-3.9-3.3c0 0-.7-1.9 1.6-1.8-2.2-.8-2.7 1.6-2.7 1.6s-1.1-.4-.3-1.9zm-1.9 5s1 0 1 1-1 1-1 1-1 0-1-1 1-1 1-1zm4 0s1 0 1 1-1 1-1 1-1 0-1-1 1-1 1-1zm-8.1 1c .5 0 .7.3.7.3l.1 1.8s-.2.5-.8.5c-1 0-1-1.3-1-1.3s0-1.3 1-1.3zm12.2 0c1 0 1 1.3 1 1.3s0 1.3-1 1.3c-.6 0-.8-.5-.8-.5l.1-1.8s.2-.3.7-.3zm-6.1 3c-6 0-6 3-6 3s0 3 6 3 6-3 6-3 0-3-6-3zm-2.8 1.8s.9 1.2 2.8 1.2 2.8-1.2 2.8-1.2l.7.7s-1.2 1.5-3.5 1.5-3.5-1.5-3.5-1.5z"/></svg>