<svg viewBox="0 0 16 16"><path d="m8 1s-3.2 0-5.1 2.3c0 0 .4-.3 1.1-.3 0 0 2.3 0 2.9 2.3 0 0 .4-.3 1.1-.3s1.1.3 1.1.3.6-2.3 2.9-2.3c0 0 .7 0 1.1.3 0 0-1.9-2.3-5.1-2.3zm-4 3s-2 0-2 2c0 0 0 2 2 2s2-2 2-2 0 1-1 1-1-1-1-1 0-1 1-1 1 1 1 1 0-2-2-2zm8 0s-2 0-2 2c0 0 0-1 1-1s1 1 1 1 0 1-1 1-1-1-1-1 0 2 2 2 2-2 2-2 0-2-2-2zm-4 2s-.7 0-1 .3c0 0-.2 2.7-3 2.7 0 0-2.3 0-2.9-2.2 0 0-.1.3-.1 1.2 0 3.9 3.1 7 7 7s7-3.1 7-7c0 0 0-.9-.1-1.2 0 0-.6 2.2-2.9 2.2 0 0-2.8 0-3-2.7 0 0-.3-.3-1-.3zm-2.8 3.8s.9 1.2 2.8 1.2 2.8-1.2 2.8-1.2l.7.7s-1.3 1.5-3.5 1.5-3.5-1.5-3.5-1.5z"/></svg>