<svg viewBox="0 0 16 16"><path d="m8 1c-3.9 0-7 3.1-7 7s3.1 7 7 7 7-3.1 7-7-3.1-7-7-7zm-3 4s1 0 1 1-1 1-1 1-1 0-1-1 1-1 1-1zm6 0s1 0 1 1-1 1-1 1-1 0-1-1 1-1 1-1zm-7 2.5s1.5 0 1.5 1.5-1.5 1.5-1.5 1.5-1.5 0-1.5-1.5 1.5-1.5 1.5-1.5zm8 0s1.5 0 1.5 1.5-1.5 1.5-1.5 1.5-1.5 0-1.5-1.5 1.5-1.5 1.5-1.5zm-5.5 4.5h3s .5 0 .5.5-.5.5-.5.5h-3s-.5 0-.5-.5.5-.5.5-.5z"/><path d="m4 7.5s-1.5 0-1.5 1.5 1.5 1.5 1.5 1.5 1.5 0 1.5-1.5-1.5-1.5-1.5-1.5zm8 0s-1.5 0-1.5 1.5 1.5 1.5 1.5 1.5 1.5 0 1.5-1.5-1.5-1.5-1.5-1.5z" opacity=".35"/></svg>