<svg viewBox="1 1 22 22"><linearGradient id="a"><stop offset="0" stop-color="#555"/><stop offset="1" stop-color="#555" stop-opacity="0"/></linearGradient><linearGradient id="b" gradientUnits="userSpaceOnUse" x1="31" x2="4" xlink:href="#a" y1="6" y2="4"/><linearGradient id="c" gradientUnits="userSpaceOnUse" x1="6" x2="10" xlink:href="#a" y1="12" y2="1"/><path d="m4 12c0-4.4 3.6-8 8-8s8 3.6 8 8h-2c0-3.3-2.7-6-6-6s-6 2.7-6 6z" fill="url(#b)"/><path d="m4 12c0 4.4 3.6 8 8 8s8-3.6 8-8h-2c0 3.3-2.7 6-6 6s-6-2.7-6-6c0 0 0-1-1-1s-1 1-1 1z" fill="url(#c)"/></svg>