<svg viewBox="1 1 22 22"><linearGradient id="a"><stop offset="0" stop-color="#555"/><stop offset="1" stop-color="#555" stop-opacity="0"/></linearGradient><linearGradient id="b" gradientUnits="userSpaceOnUse" x1="-7" x2="20" xlink:href="#a" y1="18" y2="20"/><linearGradient id="c" gradientUnits="userSpaceOnUse" x1="18" x2="14" xlink:href="#a" y1="12" y2="23"/><path d="m20 12c0 4.4-3.6 8-8 8s-8-3.6-8-8h2c0 3.3 2.7 6 6 6s6-2.7 6-6z" fill="url(#b)"/><path d="m20 12c0-4.4-3.6-8-8-8s-8 3.6-8 8h2c0-3.3 2.7-6 6-6s6 2.7 6 6c0 0 0 1 1 1s1-1 1-1z" fill="url(#c)"/></svg>