<svg viewBox="1 1 22 22"><linearGradient id="a"><stop offset="0" stop-color="#555"/><stop offset="1" stop-color="#555" stop-opacity="0"/></linearGradient><linearGradient id="b" gradientUnits="userSpaceOnUse" x1="26.7" x2="14.9" xlink:href="#a" y1="25.5" y2="1.1"/><linearGradient id="c" gradientUnits="userSpaceOnUse" x1="9" x2="20.5" xlink:href="#a" y1="6.8" y2="4.8"/><path d="m8 5.1c3.8-2.2 8.7-.9 10.9 2.9s.9 8.7-2.9 10.9l-1-1.7c2.9-1.7 3.9-5.3 2.2-8.2s-5.3-3.9-8.2-2.2z" fill="url(#b)"/><path d="m8 5.1c-3.8 2.2-5.1 7.1-2.9 10.9s7.1 5.1 10.9 2.9l-1-1.7c-2.9 1.7-6.5.7-8.2-2.2s-.7-6.5 2.2-8.2c0 0 .8-.5.4-1.4-.6-.8-1.4-.3-1.4-.3z" fill="url(#c)"/></svg>