<svg viewBox="1 1 22 22"><linearGradient id="a"><stop offset="0" stop-color="#555"/><stop offset="1" stop-color="#555" stop-opacity="0"/></linearGradient><linearGradient id="b" gradientUnits="userSpaceOnUse" x1="-1.5" x2="22.9" xlink:href="#a" y1="26.7" y2="14.9"/><linearGradient id="c" gradientUnits="userSpaceOnUse" x1="17.2" x2="19.2" xlink:href="#a" y1="9" y2="20.5"/><path d="m18.9 8c2.2 3.8.9 8.7-2.9 10.9s-8.7.9-10.9-2.9l1.7-1c1.7 2.9 5.3 3.9 8.2 2.2s3.9-5.3 2.2-8.2z" fill="url(#b)"/><path d="m18.9 8c-2.2-3.8-7.1-5.1-10.9-2.9s-5.1 7.1-2.9 10.9l1.7-1c-1.7-2.9-.7-6.5 2.2-8.2s6.5-.7 8.2 2.2c0 0 .5.8 1.4.4.8-.4.3-1.4.3-1.4z" fill="url(#c)"/></svg>