<svg viewBox="1 1 22 22"><linearGradient id="a"><stop offset="0" stop-color="#555"/><stop offset="1" stop-color="#555" stop-opacity="0"/></linearGradient><linearGradient id="b" gradientUnits="userSpaceOnUse" x1="31.5" x2="9.1" xlink:href="#a" y1="16.3" y2="1.1"/><linearGradient id="c" gradientUnits="userSpaceOnUse" x1="6.8" x2="15.8" xlink:href="#a" y1="9" y2="1.5"/><path d="m5.1 8c2.2-3.8 7.1-5.1 10.9-2.9s5.1 7.1 2.9 10.9l-1.7-1c1.7-2.9.7-6.5-2.2-8.2s-6.5-.7-8.2 2.2z" fill="url(#b)"/><path d="m5.1 8c-2.2 3.8-.9 8.7 2.9 10.9s8.7.9 10.9-2.9l-1.7-1c-1.7 2.9-5.3 3.9-8.2 2.2s-3.9-5.3-2.2-8.2c0 0 .5-.8-.4-1.4-1-.3-1.3.4-1.3.4z" fill="url(#c)"/></svg>