<svg height="48" width="48" xmlns="http://www.w3.org/2000/svg"><circle cx="24" cy="25" opacity=".2" r="20"/><circle cx="24" cy="24" fill="#3f51b5" r="20"/><g fill="#fff"><path d="m24 4c-11 0-20 9-20 20v .5c0-10.5 9-19.5 20-19.5s20 9 20 19.5v-.5c0-11-9-20-20-20z" opacity=".1"/><path d="m20.8 11-.3 3.4-3 1.7-3.2-1.5-3.2 5.6 2.8 2v3.6l-2.8 2 3.2 5.6 3.2-1.5 3 1.7.3 3.4h6.4l.3-3.4 3-1.7 3.2 1.5 3.2-5.6-2.8-2v-3.6l2.8-2-3.2-5.6-3.2 1.5-3-1.7-.3-3.4z"/></g><circle cx="24" cy="24" fill="#3f51b5" r="4.3"/></svg>