<svg height="48" width="48" xmlns="http://www.w3.org/2000/svg"><rect height="4" opacity=".2" rx="2" width="40" x="4" y="41"/><path d="m24 2-19.2 14.4s-.8.6-.8 1.6v3h40v-3c0-1-.8-1.6-.8-1.6z" fill="#90a4ae"/><path d="m24 2-19.2 14.4s-.8.6-.8 1.6v1c0-1 .8-1.6.8-1.6l19.2-14.4 19.2 14.4s.8.6.8 1.6v-1c0-1-.8-1.6-.8-1.6z" fill="#fff" opacity=".1"/><rect fill="#ececec" height="26" rx="2" width="32" x="8" y="6"/><path d="m4 18 38 26h-36c-2 0-2-2-2-2z" fill="#b0bec5"/><path d="m42 44s2 0 2-2v-24l-38 26z" fill="#cfd8dc"/><path d="m10 6s-2 0-2 2v1s0-2 2-2h28s2 0 2 2v-1s0-2-2-2zm-6 12v1l19.3 13.2-17.3 11.8h1.5l36.5-25v-1l-20 13.7z" fill="#fff" opacity=".1"/></svg>