<svg height="48" width="48" xmlns="http://www.w3.org/2000/svg"><path d="m1 24-1 1h12v12l11 11h1v-11h12l12-12h-24v-1z" opacity=".2"/><path d="m24 0v24l12-12zm0 24-12 12 12 12z" fill="#78909c"/><path d="m36 12-12 12h12zm-12 12h-12v12z" fill="#607d8b"/><path d="m12 12-12 12h24zm12 12 12 12 12-12z" fill="#b0bec5"/><path d="m12 12 12 12v-12zm12 12v12h12z" fill="#90a4ae"/><path d="m21.7 22.7-4.7 2.3 4.7 2.3 2.3 4.7 2.3-4.7 4.7-2.3-4.7-2.3z" opacity=".2"/><path d="m24 17-2.3 4.7-4.7 2.3 7 .1 7-.1-4.7-2.3z" fill="#fff"/><path d="m17 24 4.7 2.3 2.3 4.7 2.3-4.7 4.7-2.3-7 .1z" fill="#eceff1"/><path d="m24 0v1l11.5 11.5.5-.5zm-12 12-12 12h1l11-11h12v-1zm12 12 .5 1h22.5l1-1z" fill="#fff" opacity=".1"/></svg>