<svg height="48" width="48" xmlns="http://www.w3.org/2000/svg"><circle cx="24" cy="25" opacity=".2" r="20"/><circle cx="24" cy="24" fill="#4d4d4d" r="20"/><circle cx="24" cy="25" opacity=".2" r="16"/><circle cx="24" cy="24" fill="#ebebeb" r="16"/><path d="m24 24v16c8.9 0 16-7.1 16-16 0-7.2-4.7-11.3-4.7-11.3z" fill="#c4c4c4"/><path d="m24 24v16" fill="none" stroke="#f34235"/><path d="m24 4c-11.1 0-20 9-20 20v .5c0-10.5 9.1-19.5 20-19.5s20 9 20 19.5v-.5c0-11-8.9-20-20-20z" fill="#fff" opacity=".1"/><path d="m13 12.2 11.7 11-1.4 1.4-11-11.7z" fill="#333"/><path d="m31.6 15.6-8.3 7.7 1.4 1.4 7.6-8.4z"/><circle cx="24" cy="24" r="1"/></svg>