<svg viewBox="0 0 48 48"><rect height="37" opacity=".2" rx="3" width="36" x="6" y="8"/><path d="m9 7s-3 0-3 3v31s0 3 3 3h30s3 0 3-3v-31s0-3-3-3h-11l-4 2-4-2z" fill="#a1887f"/><path d="m9 7s-3 0-3 3v1s0-3 3-3h11v-1zm19 0v1h11s3 0 3 3v-1s0-3-3-3z" fill="#fff" opacity=".2"/><path d="m9 10h30v31h-30z" fill="#fff"/><path d="m24 2c-4 0-4 4-4 4v2h-2s-2 0-2 2v4h16v-4s0-2-2-2h-2v-2s0-4-4-4zm0 2c2 0 2 2 2 2s0 2-2 2-2-2-2-2 0-2 2-2zm-9 17v2h17v-2zm0 4v2h17v-2zm0 4v2h17v-2zm0 4v2h11v-2z" fill="#ccc"/><path d="m22 6v1s0 2 2 2 2-2 2-2v-1s0 2-2 2-2-2-2-2zm-13 35v1h30v-1z" opacity=".2"/><path d="m24 2c-4 0-4 4-4 4v1s0-4 4-4 4 4 4 4v-1s0-4-4-4zm-6 6s-2 0-2 2v1s0-2 2-2h2v-1zm10 0v1h2s2 0 2 2v-1s0-2-2-2z" fill="#fff" opacity=".2"/><path d="m16 12v2h16v-2z" fill="#b3b3b3"/></svg>