<svg height="48" width="48" xmlns="http://www.w3.org/2000/svg"><path d="m36 30v1h4l4 4v-5zm-32 10v1s0 2 2 2h26l4 4v-7z" opacity=".2"/><g fill="#3f51b5"><rect height="26" rx="2" width="32" x="12" y="4"/><path d="m44 34-4-4 4-2z"/></g><path d="m28 9c-4.7 0-4.7 4.5-4.7 4.5h2s0-2.5 2.7-2.5 2.8 2.8 2.8 2.8c0 1.4-1.1 2.2-1.1 2.2h2.4s.7-.8.7-2.2c0 0-.1-4.8-4.8-4.8z" fill="#9fa8da"/><g fill="#2196f3"><rect height="26" rx="2" width="32" x="4" y="16"/><path d="m36 46-4-4 4-2z"/></g><g fill="#fff"><path d="m14 4s-2 0-2 2v1s0-2 2-2h28s2 0 2 2v-1s0-2-2-2zm-8 12s-2 0-2 2v1s0-2 2-2h28s2 0 2 2v-1s0-2-2-2z" opacity=".2"/><path d="m20 21c-4.7 0-4.7 4.5-4.7 4.5h2s0-2.5 2.7-2.5 2.7 2.8 2.7 2.8c0 2.5-3.7 3.1-3.7 6.8v.4h2c0-3.5 3.7-4.3 3.7-7.2 0 0 0-4.8-4.7-4.8zm-1 15v2h2v-2z"/></g></svg>