<svg height="48" width="48" xmlns="http://www.w3.org/2000/svg"><rect height="3" opacity=".2" rx="1.5" width="16" x="16" y="39"/><rect fill="#b0bec5" height="6" rx="1.5" width="16" x="16" y="35"/><path d="m16 36h16v2h-16z" opacity=".05"/><path d="m6 37c-2 0-2-2-2-2v-1h40v1c0 2-2 2-2 2z" opacity=".2"/><rect fill="#cfd8dc" height="32" rx="2" width="40" x="4" y="4"/><path d="m6 4s-2 0-2 2v1s0-2 2-2h36s2 0 2 2v-1s0-2-2-2z" fill="#fff" opacity=".1"/><path d="m6 6h36v24h-36z" fill="#78909c"/><g fill="#37474f"><circle cx="24" cy="14" r="4"/><path d="m20 26 4-14 4 14z"/></g></svg>