<svg height="48" width="48" xmlns="http://www.w3.org/2000/svg"><path d="m7 41v1h1v2h2v-2h1v-1zm6 0v1h1v2h2v-2h1v-1zm6 0v1h1v2h2v-2h1v-1zm6 0v1h1v2h2v-2h1v-1zm6 0v1h1v2h2v-2h1v-1zm6 0v1h1v2h2v-2h1v-1z" opacity=".2"/><path d="m8 5v2h2v-2zm6 0v2h2v-2zm6 0v2h2v-2zm6 0v2h2v-2zm6 0v2h2v-2zm6 0v2h2v-2zm-30 36v2h2v-2zm6 0v2h2v-2zm6 0v2h2v-2zm6 0v2h2v-2zm6 0v2h2v-2zm6 0v2h2v-2z" fill="#ececec"/><path d="m7 7v1h4v-1zm6 0v1h4v-1zm6 0v1h4v-1zm6 0v1h4v-1zm6 0v1h4v-1zm6 0v1h4v-1zm-30 33v1h4v-1zm6 0v1h4v-1zm6 0v1h4v-1zm6 0v1h4v-1zm6 0v1h4v-1zm6 0v1h4v-1z" fill="#ccc"/><rect height="32" opacity=".2" rx="3" width="40" x="4" y="9"/><rect fill="#666" height="32" rx="3" width="40" x="4" y="8"/><path d="m7 8s-3 0-3 3v1s0-3 3-3h34s3 0 3 3v-1s0-3-3-3z" fill="#fff" opacity=".2"/><path d="m9 29v2h30v-2zm0 4v2h20v-2z" fill="#808080"/></svg>