<svg viewBox="0 0 48 48"><rect height="40" opacity=".2" rx="3" width="40" x="4" y="5"/><rect fill="#607d8b" height="40" rx="3" width="40" x="4" y="4"/><path d="m7 4s-3 0-3 3v1s0-3 3-3h34s3 0 3 3v-1s0-3-3-3z" fill="#fff" opacity=".2"/><path d="m20.5 11-.3 3.7-3.2 1.9-3.4-1.6-3.5 6.1 3 2.1.1 3.7-3 2.1 3.5 6.1 3.3-1.6 3.2 1.8.3 3.7h7l .3-3.7 3.2-1.9 3.4 1.6 3.5-6.1-3-2.1-.1-3.7 3-2.1-3.5-6.1-3.3 1.6-3.2-1.8-.3-3.7zm3.5 9.3c2.6 0 4.7 2.1 4.7 4.7s-2.1 4.7-4.7 4.7-4.7-2.1-4.7-4.7 2.1-4.7 4.7-4.7z" fill="#90a4ae"/><path d="m20.5 10-.3 3.7-3.2 1.9-3.4-1.6-3.5 6.1 3 2.1.1 3.7-3 2.1 3.5 6.1 3.3-1.6 3.2 1.8.3 3.7h7l .3-3.7 3.2-1.9 3.4 1.6 3.5-6.1-3-2.1-.1-3.7 3-2.1-3.5-6.1-3.3 1.6-3.2-1.8-.3-3.7zm3.5 9.3c2.6 0 4.7 2.1 4.7 4.7s-2.1 4.7-4.7 4.7-4.7-2.1-4.7-4.7 2.1-4.7 4.7-4.7z" fill="#455a64"/></svg>