<svg height="48" width="48" xmlns="http://www.w3.org/2000/svg"><rect height="36" opacity=".2" rx="3" width="40" x="4" y="7"/><rect fill="#bcaaa4" height="36" rx="3" width="40" x="4" y="6"/><path d="m7 6s-3 0-3 3v1s0-3 3-3h34s3 0 3 3v-1s0-3-3-3z" fill="#fff" opacity=".2"/><path d="m22 6v6s0 2 2 2c0 0 2 0 2-2v-6z" opacity=".2"/><path d="m23 12s0 1 1 1c0 0 1 0 1-1v-6h-2z" opacity=".1"/><path d="m23 6v1h1v-1zm0 2v1h1v-1zm0 2v1h1v-1zm0 2s0 1 1 1v-1z" fill="#ddd"/><path d="m24 7v1h1v-1zm0 2v1h1v-1zm0 2v1h1v-1z" fill="#b3b3b3"/><path d="m24 14c-2 0-2 2-2 2v4s0 2 2 2 2-2 2-2v-4s0-2-2-2zm0 1c1 0 1 1 1 1s0 1-1 1-1-1-1-1 0-1 1-1zm0 3c1 0 1 1 1 1v1s0 1-1 1-1-1-1-1v-1s0-1 1-1z" opacity=".2"/><path d="m24 13c-2 0-2 2-2 2v4s0 2 2 2 2-2 2-2v-4s0-2-2-2zm0 1c1 0 1 1 1 1s0 1-1 1-1-1-1-1 0-1 1-1zm0 3c1 0 1 1 1 1v1s0 1-1 1-1-1-1-1v-1s0-1 1-1z" fill="#f5f5f5"/><path d="m14.2 25-3.2 12h2l .5-2h3l .5 2h2l-3.2-12zm6.8 0v12h2v-3h1s4 0 4-4v-1c0-4-4-4-4-4zm9 0v12h2v-2.7l1-1.5 2.8 4.2h2.4l-4-6 4-6h-2.4l-3.8 5.7v-5.7zm-7 2h1s2 0 2 2v1c0 2-2 2-2 2h-1zm-8 3 .8 3h-1.6z" fill="#7d6964"/></svg>