<svg viewBox="0 0 48 48"><rect height="36" opacity=".2" rx="3" width="40" x="4" y="7"/><rect fill="#bcaaa4" height="36" rx="3" width="40" x="4" y="6"/><path d="m7 6s-3 0-3 3v1s0-3 3-3h34s3 0 3 3v-1s0-3-3-3z" fill="#fff" opacity=".2"/><path d="m22 6v6s0 2 2 2c0 0 2 0 2-2v-6z" opacity=".2"/><path d="m23 12s0 1 1 1c0 0 1 0 1-1v-6h-2z" opacity=".1"/><path d="m23 6v1h1v-1zm0 2v1h1v-1zm0 2v1h1v-1zm0 2s0 1 1 1v-1z" fill="#ddd"/><path d="m24 7v1h1v-1zm0 2v1h1v-1zm0 2v1h1v-1z" fill="#b3b3b3"/><path d="m24 14c-2 0-2 2-2 2v4s0 2 2 2 2-2 2-2v-4s0-2-2-2zm0 1c1 0 1 1 1 1s0 1-1 1-1-1-1-1 0-1 1-1zm0 3c1 0 1 1 1 1v1s0 1-1 1-1-1-1-1v-1s0-1 1-1z" opacity=".2"/><path d="m24 13c-2 0-2 2-2 2v4s0 2 2 2 2-2 2-2v-4s0-2-2-2zm0 1c1 0 1 1 1 1s0 1-1 1-1-1-1-1 0-1 1-1zm0 3c1 0 1 1 1 1v1s0 1-1 1-1-1-1-1v-1s0-1 1-1z" fill="#f5f5f5"/><path d="m12 24v12h3s4 0 4-4v-4c0-4-4-4-4-4zm9 0v12h6v-2h-4v-3h3v-2h-3v-3h4v-2zm8 0v12h3.5s3.5 0 3.5-3.5c0-1.7-1.1-2.5-1.1-2.5s1.1-.8 1.1-2.5c0-3.5-3.5-3.5-3.5-3.5zm-15 2h1s2 0 2 2v4c0 2-2 2-2 2h-1zm17 0h1.5s1.5 0 1.5 1.5-1.5 1.5-1.5 1.5h-1.5zm0 5h1.5s1.5 0 1.5 1.5-1.5 1.5-1.5 1.5h-1.5z" fill="#7d6964"/></svg>