<svg height="48" width="48" xmlns="http://www.w3.org/2000/svg"><rect height="36" opacity=".2" rx="3" width="40" x="4" y="7"/><rect fill="#bcaaa4" height="36" rx="3" width="40" x="4" y="6"/><path d="m7 6s-3 0-3 3v1s0-3 3-3h34s3 0 3 3v-1s0-3-3-3z" fill="#fff" opacity=".2"/><path d="m22 6v6s0 2 2 2c0 0 2 0 2-2v-6z" opacity=".2"/><path d="m23 12s0 1 1 1c0 0 1 0 1-1v-6h-2z" opacity=".1"/><path d="m23 6v1h1v-1zm0 2v1h1v-1zm0 2v1h1v-1zm0 2s0 1 1 1v-1z" fill="#ddd"/><path d="m24 7v1h1v-1zm0 2v1h1v-1zm0 2v1h1v-1z" fill="#b3b3b3"/><path d="m24 14c-2 0-2 2-2 2v4s0 2 2 2 2-2 2-2v-4s0-2-2-2zm0 1c1 0 1 1 1 1s0 1-1 1-1-1-1-1 0-1 1-1zm0 3c1 0 1 1 1 1v1s0 1-1 1-1-1-1-1v-1s0-1 1-1z" opacity=".2"/><path d="m24 13c-2 0-2 2-2 2v4s0 2 2 2 2-2 2-2v-4s0-2-2-2zm0 1c1 0 1 1 1 1s0 1-1 1-1-1-1-1 0-1 1-1zm0 3c1 0 1 1 1 1v1s0 1-1 1-1-1-1-1v-1s0-1 1-1z" fill="#f5f5f5"/><path d="m10 28v1h2v6h1v-6h2v-1zm7 0-2 7h1l .6-2h1.8l.6 2h1l-2-7zm4 0v7h1v-2h1s1 .2 1 2h1c0-1.6-.9-2.3-.9-2.3s.9-.7.9-1.7v-1c0-2-2-2-2-2zm9 0s-2 0-2 2v3c0 2 2 2 2 2s .6 0 1-.3v.3h1v-4h-2v1h1v1c0 1-1 1-1 1s-1 0-1-1v-3c0-1 1-1 1-1s1 0 1 1h1c0-2-2-2-2-2zm3 0v1h2.7l-2.7 5.4v.6h4v-1h-2.7l2.7-5.4v-.6zm-11 1h1s1 0 1 1v1c0 1-1 1-1 1h-1zm-4.5.8.6 2.2h-1.2zm8.5 4.2v1h1v-1z" fill="#7d6964"/></svg>