<svg height="48" width="48" xmlns="http://www.w3.org/2000/svg"><path d="m3 24v1h4.5s4.5 0 4.5 3.9v-4.9zm42 5h-9v5h4.5s4.5 0 4.5-4.5zm-30 7v5.5s0-4.5 4.5-4.5 4.5 4.5 4.5 4.5v-5.5zm-12 6v1s0 3 3 3h9v-4zm33 0h-12v4h9s3 0 3-3z" opacity=".2"/><path d="m19.5 3c-4.5 0-4.5 4.5-4.5 4.5v4.5h-9s-3 0-3 3v9h4.5s4.5 0 4.5 4.5-4.5 4.5-4.5 4.5h-4.5v9s0 3 3 3h9v-4.5s0-4.5 4.5-4.5 4.5 4.5 4.5 4.5v4.5h9s3 0 3-3v-9h4.5s4.5 0 4.5-4.5-4.5-4.5-4.5-4.5h-4.5v-9s0-3-3-3h-9v-4.5s0-4.5-4.5-4.5z" fill="#8bc34a"/><path d="m19.5 3c-4.5 0-4.5 4.5-4.5 4.5v1s0-4.5 4.5-4.5 4.5 4.5 4.5 4.5v-1s0-4.5-4.5-4.5zm-13.5 9s-3 0-3 3v1s0-3 3-3h9v-1zm18 0v1h9s3 0 3 3v-1s0-3-3-3zm12 12v1h4.5s4.5 0 4.5 4v-.5s0-4.5-4.5-4.5zm-24 5s0 4-4.5 4h-4.5v1h4.5s4.5 0 4.5-4.5z" fill="#fff" opacity=".1"/><path d="m3 23v1h4.5s4.5 0 4.5 4v-1s0-4-4.5-4zm42 5s0 4-4.5 4h-4.5v1h4.5s4.5 0 4.5-4.5zm-25.5 7c-4.5 0-4.5 4.5-4.5 4.5v1s0-4.5 4.5-4.5 4.5 4.5 4.5 4.5v-1s0-4.5-4.5-4.5zm-16.5 6v1s0 3 3 3h9v-1h-9s-3 0-3-3zm33 0s0 3-3 3h-9v1h9s3 0 3-3z" opacity=".2"/></svg>