<svg viewBox="0 0 48 48"><rect height="40" opacity=".2" rx="2" width="32" x="8" y="5"/><rect fill="#ebebeb" height="40" rx="2" width="32" x="8" y="4"/><g opacity=".1"><path d="m8 41v1s0 2 2 2h28s2 0 2-2v-1s0 2-2 2h-28s-2 0-2-2z"/><path d="m10 4s-2 0-2 2v1s0-2 2-2h28s2 0 2 2v-1s0-2-2-2z" fill="#fff"/></g><g fill="#999"><path id="a" d="m15 7c-2 0-2 2-2 2v3s0 2 2 2 2-2 2-2v-3s0-2-2-2zm0 1c1 0 1 1 1 1v3s0 1-1 1-1-1-1-1v-3s0-1 1-1z"/><path id="b" d="m20.5 7-.5 1h1v6h1v-7z"/><use x="12" xlink:href="#a"/><use x="18" xlink:href="#a"/><use y="9" xlink:href="#a"/><use y="9" xlink:href="#b"/><use x="6" y="9" xlink:href="#b"/><use x="18" y="9" xlink:href="#a"/><use x="-6" y="18" xlink:href="#b"/><use y="18" xlink:href="#b"/><use x="12" y="18" xlink:href="#a"/><use x="18" y="18" xlink:href="#a"/><use y="27" xlink:href="#a"/><use x="6" y="27" xlink:href="#a"/><use x="6" y="27" xlink:href="#b"/><use x="18" y="27" xlink:href="#a"/></g></svg>