<svg viewBox="0 0 48 48"><circle cx="24" cy="25" opacity=".2" r="20"/><path d="m30.1 18-6.1-14-6.1 14 6 6h .2z" fill="#ffeb3b"/><path d="m30 18 14 6-14 6.1-6-6v-.1z" fill="#4caf50"/><path d="m17.9 30 6.1 14 6-14-6-6h-.1z" fill="#673ab7"/><path d="m18 30-14-6 14-6 6 6z" fill="#f44336"/><path d="m38.3 9.9c-3.8-3.8-9.3-5.9-14.3-5.9 0 5 2.1 10.1 6.1 14.1z" fill="#cddc39"/><path d="m38.2 9.8-8.2 8.2c4 4 9 6 14 6 0-5-2-10.4-5.8-14.2z" fill="#8bc34a"/><path d="m44 24c-5 0-10.1 2.1-14.1 6.1l8.2 8.2c3.8-3.8 5.9-9.3 5.9-14.3z" fill="#009688"/><path d="m38.2 38.2-8.2-8.2c-4 4-6 9-6 14 5 0 10.4-2 14.2-5.8z" fill="#3f51b5"/><path d="m24 44c0-5-2.1-10.1-6.1-14.1l-8.2 8.2c3.8 3.8 9.3 5.9 14.3 5.9z" fill="#9c27b0"/><path d="m4 24c0 5 2 10.4 5.8 14.2l8.2-8.2c-4-4-9-6-14-6z" fill="#e91e63"/><path d="m9.9 9.7c-3.8 3.8-5.9 9.3-5.9 14.3 5 0 10.1-2.1 14.1-6.1z" fill="#ff5722"/><path d="m9.8 9.8 8.2 8.2c4-4 6-9 6-14-5 0-10.4 2-14.2 5.8z" fill="#f9ce1d"/><g fill="#fff"><circle cx="24" cy="24" opacity=".2" r="14"/><circle cx="24" cy="24" opacity=".2" r="8"/><path d="m24 4c-11 0-20 9-20 20v .5c0-10.5 9-19.5 20-19.5s20 9 20 19.5v-.5c0-11-9-20-20-20z" opacity=".2"/></g></svg>