<svg viewBox="0 0 48 48"><path d="m11 4s-3 0-3 3v34s0 3 3 3h26s3 0 3-3v-25l-12-12z" fill="#ececec"/><path d="m28 4v10s0 3 3 3h9v-1z" opacity=".1"/><path d="m28 4v9s0 3 3 3h9z" fill="#f2f2f2"/><path d="m11 4s-3 0-3 3v1s0-3 3-3h17v-1z" fill="#fff" opacity=".2"/><path d="m8 40v1s0 3 3 3h26s3 0 3-3v-1s0 3-3 3h-26s-3 0-3-3z" opacity=".05"/><path d="m26.4 16c1 4-3.5 5.2-5.2 7.6-1.1 1.7.5 3.5 2.8 5.5-.9-2-3.9-3.8 0-6.8 4.9-3.8 2.4-6.3 2.4-6.3zm3 4.9s-8.2 2.1-4.3 6.6c1.2 1.3-.3 2.5-.3 2.5s2.9-1.5 1.6-3.4c-1.3-1.8-2.2-2.7 3-5.7zm1.6 8.1c-.3 0-.7 0-1 .2-.3.1-.4.3-.4.3s.2-.1.5-.1c1.5-.3 3.4 2-1.1 4.4 5.3-1.4 4.2-4.7 2-4.8zm-10 .2c-.6 0-1.9.1-3.5.9-2.5 1.2 6.1 1.7 10.5.6.5-.3 1.1-.6 1.1-.6s-1.8.3-3.6.5c-2.2.2-4.6.2-5.8.1-2.8-.4 1.5-1.4 1.5-1.4zm-.7 2.7c-4.1 1.3 2.3 2.9 7.9 1.2-.6-.2-1-.6-1-.6-2.8.5-4.4.5-6.4.3-1.6-.2-.5-.9-.5-.9zm.6 2.6c-3.7 1 2.2 3.2 6.9 1.1-.8-.3-1.3-.6-1.3-.6-2.1.4-3.1.4-5 .2-1.6-.2-.6-.7-.6-.7zm-2.4 1.7c-1.6-.1-5.2 1.5-2.1 2 9.6 1.6 17.5-.7 15-1.8 0 0 .7.6-.7 1-2.7.8-11.3 1.1-13.7 0-.9-.4.8-.9 1.3-1s .8-.1.8-.1c-.1-.1-.6-.1-.6-.1zm14.4 1.4s-.3.8-3.6 1.4c-3.7.7-8.2.6-10.9.2 0 0 .6.5 3.4.6 4.3.3 11-.2 11.1-2.2z" fill="#dd4f37"/></svg>