<svg viewBox="0 0 48 48"><path d="m11 4s-3 0-3 3v34s0 3 3 3h26s3 0 3-3v-25l-12-12z" fill="#ececec"/><path d="m28 4v10s0 3 3 3h9v-1z" opacity=".1"/><path d="m28 4v9s0 3 3 3h9z" fill="#f2f2f2"/><path d="m11 4s-3 0-3 3v1s0-3 3-3h17v-1z" fill="#fff" opacity=".2"/><path d="m8 40v1s0 3 3 3h26s3 0 3-3v-1s0 3-3 3h-26s-3 0-3-3z" opacity=".05"/><g fill="#1e88e5"><circle cx="18" cy="28" r="3"/><circle cx="30" cy="28" r="3"/></g><g fill="#64b5f6"><path d="m16 33h16v11h-16z"/><circle cx="24" cy="33" r="8"/></g><g fill="#fefefe"><circle cx="20.5" cy="32.5" r="2.5"/><circle cx="27.5" cy="32.5" r="2.5"/></g><g fill="#333"><circle cx="20" cy="32" r="1"/><circle cx="27" cy="32" r="1"/></g><path d="m22 37h2v3h-2z" fill="#fff"/><path d="m24 37h2v3h-2z" fill="#f2f2f2"/><g fill="#1e88e5"><circle cx="25.5" cy="37.5" r="1.5"/><circle cx="22.5" cy="37.5" r="1.5"/><path d="m22.5 36h3v2h-3z"/></g><ellipse cx="24" cy="36" fill="#3e2723" rx="1.5" ry="1"/><path d="m16 43h16v1h-16z" opacity=".05"/></svg>