<svg height="48" width="48" xmlns="http://www.w3.org/2000/svg"><path d="m11 4s-3 0-3 3v34s0 3 3 3h26s3 0 3-3v-25l-12-12z" fill="#ececec"/><path d="m28 4v10s0 3 3 3h9v-1z" opacity=".1"/><path d="m28 4v9s .3 3 3 3h9z" fill="#f2f2f2"/><path d="m11 4s-3 0-3 3v1s0-3 3-3h17v-1z" fill="#fff" opacity=".2"/><path d="m8 40v1s0 3 3 3h26s3 0 3-3v-1s0 3-3 3h-26s-3 0-3-3z" opacity=".05"/><path d="m17 29v7h2v-4.2l2 2 2-2v4.2h2v-7h-2l-2 2-2-2zm11 0v4h-2l2.5 3h1l2.5-3h-2v-4z" fill="#455a64"/><rect fill="none" height="11" rx=".5" stroke="#455a64" stroke-linecap="round" stroke-width="2" width="19" x="15" y="27"/></svg>