<svg height="48" width="48" xmlns="http://www.w3.org/2000/svg"><path d="m11 4s-3 0-3 3v34s0 3 3 3h26s3 0 3-3v-25l-12-12z" fill="#ececec"/><path d="m28 4v10s0 3 3 3h9v-1z" opacity=".1"/><path d="m28 4v9s0 3 3 3h9z" fill="#f2f2f2"/><path d="m11 4s-3 0-3 3v1s0-3 3-3h17v-1z" fill="#fff" opacity=".2"/><path d="m8 40v1s0 3 3 3h26s3 0 3-3v-1s0 3-3 3h-26s-3 0-3-3z" opacity=".05"/><path d="m23 17c-5 0-5 3.5-5 3.5v1.5h-1.5s-3.5 0-3.5 5v2c0 5 3.5 5 3.5 5h13.5v-13.5s0-3.5-5-3.5z" fill="#3776ab"/><path d="m25 39c5 0 5-3.5 5-3.5v-1.5h1.5s3.5 0 3.5-5v-2c0-5-3.5-5-3.5-5h-1.5v3s0 3-3 3h-6s-3 0-3 3v4.5s0 3.5 5 3.5z" fill="#ffd343"/><g fill="#fff"><circle cx="21" cy="20" r="1"/><circle cx="27" cy="36" r="1"/></g></svg>