<svg height="48" width="48" xmlns="http://www.w3.org/2000/svg"><path d="m11 4s-3 0-3 3v34s0 3 3 3h26s3 0 3-3v-25l-12-12z" fill="#ececec"/><path d="m28 4v10s0 3 3 3h9v-1z" opacity=".1"/><path d="m28 4v9s0 3 3 3h9z" fill="#f2f2f2"/><path d="m11 4s-3 0-3 3v1s0-3 3-3h17v-1z" fill="#fff" opacity=".2"/><path d="m8 40v1s0 3 3 3h26s3 0 3-3v-1s0 3-3 3h-26s-3 0-3-3z" opacity=".05"/><path d="m15.2 20 1.6 18 7.2 2 7.2-2 1.6-18zm3.5 3.7h10.8l-.2 2.2h-8.4l.2 2.3h8l-.6 6.8-4.5 1.3-4.5-1.3-.3-3.5h2.2l.2 1.8 2.4.7 2.6-.7.3-2.9h-7.6z" fill="#e44d26"/><path d="m15.2 20 1.6 18 7.2 2v-3.7l-4.5-1.3-.3-3.5h2.2l.2 1.8 2.4.7v-3.6h-4.7l-.6-6.7h5.3v-3.7zm5.7 5.9.2 2.3h2.9v-2.3z" opacity=".1"/></svg>