<svg height="48" width="48" xmlns="http://www.w3.org/2000/svg"><path d="m11 4s-3 0-3 3v34s0 3 3 3h26c3 0 3-3 3-3v-25l-12-12z" fill="#ececec"/><path d="m28 4v10s0 3 3 3h9v-1z" opacity=".1"/><path d="m28 4v9s .3 3 3 3h9z" fill="#f2f2f2"/><path d="m11 4s-3 0-3 3v1c0-3 3-3 3-3h17v-1z" fill="#fff" opacity=".2"/><path d="m8 40v1s0 3 3 3h26c3 0 3-3 3-3v-1s0 3-3 3h-26c-3 0-3-3-3-3z" opacity=".05"/><path d="m23.8 19-.5.9h-.2l-.7-.7-.5.1-.3.9-.2.1-.8-.6-.5.2-.2 1-.2.1-.9-.4-.4.3v1l-.2.2-1-.2-.3.3.2 1-.2.2h-1l-.3.4.4.9-.1.2-1 .2-.2.5.6.8-.1.2-.9.3-.1.5.7.7v.2l-.8.5v.5l.8.5v.2l-.7.7.1.5.9.3.1.2-.6.8.2.5 1 .2.1.2-.4.9.3.4h1l .2.2-.2 1 .3.3 1-.2.2.2v1l .4.3.9-.4.2.1.2 1 .5.2.8-.6.2.1.3.9.5.1.7-.7h.2l.5.8h.5l.5-.8h.2l.7.7.5-.1.3-.9.2-.1.8.6.5-.2.2-1 .2-.1.9.4.4-.3v-1l .2-.2 1 .2.3-.3-.2-1 .2-.2h1l .3-.4-.4-.9.1-.2 1-.2.2-.5-.6-.8.1-.2.9-.3.1-.5-.7-.7v-.2l.8-.5v-.5l-.8-.5v-.2l.7-.7-.1-.5-.9-.3-.1-.2.6-.8-.2-.5-1-.2-.1-.2.4-.9-.3-.4h-1l-.2-.2.2-1-.3-.3-1 .2-.2-.2v-1l-.4-.3-.9.4-.2-.1-.2-1-.5-.2-.8.6-.2-.1-.3-.9-.5-.1-.7.7h-.2l-.6-.9zm.2 2.7c4 0 7.3 3.3 7.3 7.3s-3.3 7.3-7.3 7.3-7.3-3.3-7.3-7.3 3.3-7.3 7.3-7.3z" fill="#1976d2"/><path d="m16 24v2h2v6h-2v2h7v-2h-2v-2h1c2 0 2 4 4 4h4c2 0 2-4 2-4h-2.5s.5 2-1.5 2c-.9 0-2-2-2-2h .5s3 0 3-3-3-3-3-3zm5 2h4.5s1 0 1 1-1 1-1 1h-4.5z" fill="#1976d2"/></svg>