<svg viewBox="0 0 48 48"><path d="m11 4s-3 0-3 3v34s0 3 3 3h26s3 0 3-3v-25l-12-12z" fill="#ececec"/><path d="m28 4v10s0 3 3 3h9v-1z" opacity=".1"/><path d="m28 4v9s0 3 3 3h9z" fill="#f2f2f2"/><path d="m11 4s-3 0-3 3v1s0-3 3-3h17v-1z" fill="#fff" opacity=".2"/><path d="m8 40v1s0 3 3 3h26s3 0 3-3v-1s0 3-3 3h-26s-3 0-3-3z" opacity=".05"/><path d="m22 16v3h-1.5s-1.5 0-1.5 1.5v6l .8.8-5.1 8.9-.2 3.8 2.8-2.4 1.1-1.9c1.6.8 3.3 1.2 5.1 1.2s3.5-.4 5.1-1.2l1.1 1.9 2.8 2.4-.2-3.8-1.2-2c2.8-2.3 4.3-5.7 4.3-9.2h-3c0 2.5-1 4.9-2.9 6.6l-2.3-4.3.8-.8v-6s0-1.5-1.5-1.5h-1.5v-3zm1.5 6c .8 0 1.5.7 1.5 1.5s-.7 1.5-1.5 1.5-1.5-.7-1.5-1.5.7-1.5 1.5-1.5zm-1.5 7.5c.9.5 1.9.8 3 0l2.1 3.7c-1.1.5-2.4.8-3.6.8s-2.5-.3-3.6-.8z" fill="#b3b3b3"/></svg>