<svg height="48" width="48" xmlns="http://www.w3.org/2000/svg"><path d="m11 4s-3 0-3 3v34s0 3 3 3h26s3 0 3-3v-25l-12-12z" fill="#ececec"/><path d="m28 4v10s0 3 3 3h9v-1z" opacity=".1"/><path d="m28 4v9s0 3 3 3h9z" fill="#f2f2f2"/><path d="m11 4s-3 0-3 3v1s0-3 3-3h17v-1z" fill="#fff" opacity=".2"/><path d="m8 40v1s0 3 3 3h26s3 0 3-3v-1s0 3-3 3h-26s-3 0-3-3z" opacity=".05"/><path d="m14 9v1h-.5s-1.5 0-1.5 1.5c0 0 0 1.5 1.5 1.5h.5v1h-1.9s.4 1 1.4 1h .5v1h1v-1h .5s1.5 0 1.5-1.5c0 0 0-1.5-1.5-1.5h-.5v-1h1.9s-.4-1-1.4-1h-.5v-1zm-.5 2h .5v1h-.5s-.5 0-.5-.5c0 0 0-.5.5-.5zm1.5 2h .5s.5 0 .5.5c0 0 0 .5-.5.5h-.5zm4 2v1h6v-1z" fill="#b3b3b3"/></svg>