<svg height="48" width="48" xmlns="http://www.w3.org/2000/svg"><path d="m11 4s-3 0-3 3v34s0 3 3 3h26s3 0 3-3v-25l-12-12z" fill="#ececec"/><path d="m28 4v10s0 3 3 3h9v-1z" opacity=".1"/><path d="m28 4v9s0 3 3 3h9z" fill="#f2f2f2"/><path d="m11 4s-3 0-3 3v1s0-3 3-3h17v-1z" fill="#fff" opacity=".2"/><path d="m8 40v1s0 3 3 3h26s3 0 3-3v-1s0 3-3 3h-26s-3 0-3-3z" opacity=".05"/><path d="m29.4 31.7 3.1 5.3h-5.5l-2.4-4.3c-.7-1.3-1.4-1.3-1.4-1.3h-1.2v5.6h-5v-16h9s5 0 5 5c0 3.5-3.8 4.4-3.8 4.4 1.3 0 2.2 1.3 2.2 1.3zm-7.4-7.7v4h2.8s1.4 0 1.4-2-1.4-2-1.4-2z" fill="#3f51b5"/></svg>