<svg height="48" width="48" xmlns="http://www.w3.org/2000/svg"><g opacity=".2"><rect height="3" rx="1" width="3" x="39" y="38"/><rect height="40" rx="2" width="32" x="8" y="5"/></g><rect fill="#4bae4f" height="12" rx="1" width="3" x="39" y="8"/><rect fill="#f34235" height="12" rx="1" width="3" x="39" y="18"/><rect fill="#fec006" height="12" rx="1" width="3" x="39" y="28"/><rect fill="#435ece" height="40" rx="2" width="32" x="8" y="4"/><g fill="#fff"><path d="m10 4s-2 0-2 2v1s0-2 2-2h28s2 0 2 2v-1s0-2-2-2zm30 4v1h1s1 0 1 1v-1s0-1-1-1zm0 10v1h1s1 0 1 1v-1s0-1-1-1zm0 10v1h1s1 0 1 1v-1s0-1-1-1z" opacity=".2"/><circle cx="24" cy="19" r="5"/><path d="m24 26.5c-9 0-9 6-9 6v1.5h18v-1.5s0-6-9-6z"/></g></svg>