<svg height="16" width="16" xmlns="http://www.w3.org/2000/svg"><circle cx="8" cy="8" fill="#8bc34a" r="8"/><path d="m2 8c0 3 1.5 4 1.5 4 .8-.6 1.5-.1 3.7-.1 3.8 0 5.4-1.5 5.4-1.5l.3-1s-1.5.9-2.8.9c-1.5 0-4-1.3-4-1.3l-.5-1.3s2.9 2 4.7 2c1.5 0 2.7-1 2.7-1s-.7-2.8-1.5-3.4c-1.6-1.2-6.6-2-6.6-2v1l-1.4-.3s-1.5 1-1.5 4zm7.7-2.8c1 0 1.8.8 1.8 1.8s-.8 1.9-1.8 1.9-1.9-.9-1.9-1.9.9-1.8 1.9-1.8zm-.1.5c-.7 0-1.2.6-1.2 1.3s.5 1.3 1.2 1.3 1.3-.6 1.3-1.3-.6-1.3-1.3-1.3zm.3.6c.6 0 .6.4.6.4s0 .4-.6.4-.6-.4-.6-.4 0-.4.6-.4z" fill="#fff"/><circle cx="8" cy="8" fill="none" r="6.5" stroke="#fff"/></svg>