<svg height="16" width="16" xmlns="http://www.w3.org/2000/svg"><circle cx="9" cy="8" fill="#455a64" r="7"/><path d="m9 2c-1.7 0-3.2.7-4.2 1.8-1.1 1-1.8 2.5-1.8 4.2 0 3.3 2.7 6 6 6v-6l4.2-4.2c-1-1.2-2.5-1.8-4.2-1.8z" fill="#ebebeb"/><path d="m9 8v6c3.3 0 6-2.7 6-6 0-1.7-.7-3.2-1.8-4.2z" fill="#c4c4c4"/><path d="m9 8v6" fill="none" stroke="#f34235" stroke-width=".4"/><path d="m11.9 4.8.3.3-2.9 3.1-.5-.5z" fill="#4d4d4d"/><path d="m5.1 3.4 4.2 4.2-.7.7-4.2-4.2z" fill="#333"/><path d="m9 1c-3.9 0-7 3.1-7 7h-2l3 4 3-4h-2c0-2.8 2.2-5 5-5s5 2.2 5 5h2c0-3.9-3.1-7-7-7z" fill="#607d8b"/></svg>