<svg viewBox="0 0 16 16"><path d="m9.2 7 3.6 6.5.2 2.5-2-1.5-3.4-6.1z" fill="#90a4ae"/><path d="m4.8 7-3.6 6.5-.2 2.5 2-1.5.7-1.3c1.1.5 2.1.8 3.3.8 4.4 0 8-3.6 8-8h-2c0 3.3-2.7 6-6 6-.8 0-1.5-.2-2.3-.5l1.7-3.1z" fill="#b0bec5"/><path d="m6 0v2h-1s-1 0-1 1v4l2 2c .5.5 1.5.5 2 0l2-2v-4c0-1-1-1-1-1h-1v-2z" fill="#78909c"/><circle cx="7" cy="5" fill="#fff" r="1"/><path d="m6 0v1h2v-1zm-1 2s-1 0-1 1v1c0-1 1-1 1-1h1v-1zm3 0v1h1s1 0 1 1v-1c0-1-1-1-1-1zm5 4c0 1.7-.7 3.3-1.9 4.4l-1.3-2.2-.4.4 1.6 2.8c1.2-1.1 1.9-2.7 1.9-4.4h1.9c0-.3.1-.7.1-1zm-8.8 2.1-3 5.4-.2 2.5.2-1.5 3.4-6.1zm.9 3.6-.5.8c.8.3 1.6.5 2.4.5s1.7-.2 2.4-.5l-.5-.8c-.6.2-1.3.3-1.9.3-.7 0-1.3-.1-1.9-.3zm7.4 1.2-.4.3.7 1.3.2 1.5-.2-2.5z" fill="#fff" opacity=".1"/></svg>