<svg viewBox="0 0 16 16"><g id="a"><rect fill="#78909c" height="5" rx="1" width="15" y="1"/><path d="m3 2.5-1.5 2zm2 0-1.5 2zm2 0-1.5 2z" fill="none" stroke="#455a64" stroke-linecap="round" stroke-linejoin="round"/><g opacity=".2"><path d="m1 1s-1 0-1 1v1s0-1 1-1h13s1 0 1 1v-1s0-1-1-1z" fill="#fff"/><path d="m1 6c-1 0-1-1-1-1v-1c0 1 1 1 1 1h13c1 0 1-1 1-1v1c0 1-1 1-1 1z"/></g><path d="m8 3h1v1h-1z" fill="#76ff03"/><path d="m10 3h1v1h-1z" fill="#ff0"/><path d="m12 3h1v1h-1z" fill="#ffcd40"/></g><use xlink:href="#a" y="5"/><use xlink:href="#a" y="10"/></svg>