<svg viewBox="0 0 24 24"><linearGradient id="a"><stop offset="0" stop-color="#dbdee0"/><stop offset="1" stop-color="#dbdee0" stop-opacity="0"/></linearGradient><linearGradient id="b" gradientUnits="userSpaceOnUse" x1="16.3" x2="1.1" xlink:href="#a" y1="-7.5" y2="14.9"/><linearGradient id="c" gradientUnits="userSpaceOnUse" x1="9" x2="1.5" xlink:href="#a" y1="17.2" y2="8.2"/><path d="m8 18.9c-3.8-2.2-5.1-7.1-2.9-10.9s7.1-5.1 10.9-2.9l-1 1.7c-2.9-1.7-6.5-.7-8.2 2.2s-.7 6.5 2.2 8.2z" fill="url(#b)"/><path d="m8 18.9c3.8 2.2 8.7.9 10.9-2.9s.9-8.7-2.9-10.9l-1 1.7c2.9 1.7 3.9 5.3 2.2 8.2s-5.3 3.9-8.2 2.2c0 0-.8-.5-1.4.4-.4 1 .4 1.3.4 1.3z" fill="url(#c)"/></svg>