<svg height="24" width="24" xmlns="http://www.w3.org/2000/svg" xmlns:xlink="http://www.w3.org/1999/xlink">
	<linearGradient id="a">
		<stop offset="0" stop-color="#dbdee0"/>
		<stop offset="1" stop-color="#dbdee0" stop-opacity="0"/>
	</linearGradient>
	<linearGradient id="b" gradientUnits="userSpaceOnUse" x1="7.7" x2="22.9" xlink:href="#a" y1="31.5" y2="9.1"/>
	<linearGradient id="c" gradientUnits="userSpaceOnUse" x1="15" x2="22.5" xlink:href="#a" y1="6.8" y2="15.8"/>
	<path d="m16 5.1c3.8 2.2 5.1 7.1 2.9 10.9s-7.1 5.1-10.9 2.9l1-1.7c2.9 1.7 6.5.7 8.2-2.2s.7-6.5-2.2-8.2z" fill="url(#b)"/>
	<path d="m16 5.1c-3.8-2.2-8.7-1-10.9 2.9-2.2 3.8-.9 8.7 2.9 10.9l1-1.7c-2.9-1.7-3.9-5.3-2.2-8.2s5.3-3.9 8.2-2.2c0 0 .9.5 1.4-.4.4-.9-.4-1.3-.4-1.3z" fill="url(#c)"/>
</svg>
