<svg height="24" width="24" xmlns="http://www.w3.org/2000/svg" xmlns:xlink="http://www.w3.org/1999/xlink">
	<linearGradient id="a">
		<stop offset="0" stop-color="#dbdee0"/>
		<stop offset="1" stop-color="#dbdee0" stop-opacity="0"/>
	</linearGradient>
	<linearGradient id="b" gradientUnits="userSpaceOnUse" x1="18" x2="20" xlink:href="#a" y1="31" y2="4"/>
	<linearGradient id="c" gradientUnits="userSpaceOnUse" x1="12" x2="23" xlink:href="#a" y1="6" y2="10"/>
	<path d="m12 4c4.4 0 8 3.6 8 8s-3.6 8-8 8v-2c3.3 0 6-2.7 6-6s-2.7-6-6-6z" fill="url(#b)"/>
	<path d="m12 4c-4.4 0-8 3.7-8 8 0 4.4 3.6 8 8 8v-2c-3.3 0-6-2.7-6-6s2.7-6 6-6c0 0 1 0 1-1s-1-1-1-1z" fill="url(#c)"/>
</svg>
