<svg viewBox="0 0 16 16"><rect fill="#bcaaa4" height="16" rx="2" width="16"/><path d="m6 0v2s0 2 2 2c0 0 2 0 2-2v-2z" opacity=".1"/><path d="m8 0v1h1v-1zm0 1h-1v1h1zm0 1v1s1 0 1-1z" opacity=".2"/><path d="m7 0v1h1v-1zm0 2s0 1 1 1v-1z" fill="#ddd"/><path d="m8 1h1v1h-1z" fill="#b3b3b3"/><path d="m8 4c-2 0-2 2-2 2v1s0 2 2 2 2-2 2-2v-1s0-2-2-2zm0 2c1 0 1 1 1 1s0 1-1 1-1-1-1-1 0-1 1-1z" opacity=".2"/><path d="m8 3c-2 0-2 2-2 2v1s0 2 2 2 2-2 2-2v-1s0-2-2-2zm0 2c1 0 1 1 1 1s0 1-1 1-1-1-1-1 0-1 1-1z" fill="#f5f5f5"/><path d="m2 10v1h1v4h1v-4h1v-1zm4 0v5h1.5s1.5 0 1.5-1.5c0-.7-.4-1-.4-1s .4-.3.4-1c0-1.5-1.5-1.5-1.5-1.5zm4 0v1h1.7l-1.7 3.4v.6h3v-1h-1.7l1.7-3.4v-.6zm-3 1h .5s.5 0 .5.5-.5.5-.5.5h-.5zm0 2h .5s.5 0 .5.5-.5.5-.5.5h-.5z" fill="#7d6964"/></svg>