<svg viewBox="0 0 16 16"><rect fill="#bcaaa4" height="16" rx="2" width="16"/><path d="m6 0v2s0 2 2 2 2-2 2-2v-2z" opacity=".1"/><path d="m8 0v1h1v-1zm0 1h-1v1h1zm0 1v1s1 0 1-1z" opacity=".2"/><path d="m7 0v1h1v-1zm0 2s0 1 1 1v-1z" fill="#ddd"/><path d="m8 1h1v1h-1z" fill="#b3b3b3"/><path d="m8 4c-2 0-2 2-2 2v1s0 2 2 2 2-2 2-2v-1s0-2-2-2zm0 2c1 0 1 1 1 1s0 1-1 1-1-1-1-1 0-1 1-1z" opacity=".2"/><path d="m8 3c-2 0-2 2-2 2v1s0 2 2 2 2-2 2-2v-1s0-2-2-2zm0 2c1 0 1 1 1 1s0 1-1 1-1-1-1-1 0-1 1-1z" fill="#f5f5f5"/><path d="m2 10v1h1.8l-1.3 4h1.1l1.7-5zm4 0v1h1.7l-1.7 3.4v.6h3v-1h-1.7l1.7-3.4v-.6zm4 0v5h1v-5zm2 0v5h1v-1s2 0 2-2-2-2-2-2zm1 1s1 0 1 1-1 1-1 1z" fill="#7d6964"/></svg>