<svg viewBox="0 0 16 16"><rect fill="#bcaaa4" height="16" rx="2" width="16"/><path d="m6 0v2s0 2 2 2c0 0 2 0 2-2v-2z" opacity=".1"/><path d="m8 0v1h1v-1zm0 1h-1v1h1zm0 1v1s1 0 1-1z" opacity=".2"/><path d="m7 0v1h1v-1zm0 2s0 1 1 1v-1z" fill="#ddd"/><path d="m8 1h1v1h-1z" fill="#b3b3b3"/><path d="m8 4c-2 0-2 2-2 2v1s0 2 2 2 2-2 2-2v-1s0-2-2-2zm0 2c1 0 1 1 1 1s0 1-1 1-1-1-1-1 0-1 1-1z" opacity=".2"/><path d="m8 3c-2 0-2 2-2 2v1s0 2 2 2 2-2 2-2v-1s0-2-2-2zm0 2c1 0 1 1 1 1s0 1-1 1-1-1-1-1 0-1 1-1z" fill="#f5f5f5"/><path d="m2 9v5h1v-1s1 0 1 1h1c0-1.2-.6-1.5-.6-1.5s.6-.3.6-1.5c0-2-2-2-2-2zm5.3 0-1.3 5h1l .3-1h1.4l.3 1h1l-1.3-5zm3.7 0v5h1v-1s1 0 1 1h1c0-1.2-.6-1.5-.6-1.5s.6-.3.6-1.5c0-2-2-2-2-2zm-8 1s1 0 1 1-1 1-1 1zm9 0s1 0 1 1-1 1-1 1zm-4 .4.5 1.6h-1z" fill="#7d6964"/></svg>