<svg viewBox="0 0 16 16"><rect fill="#bcaaa4" height="16" rx="2" width="16"/><path d="m6 0v4s0 2 2 2c0 0 2 0 2-2v-4z" opacity=".1"/><path d="m8 0v1h1v-1zm0 1h-1v1h1zm0 1v1h1v-1zm0 1h-1v1h1zm0 1v1c .6 0 1-.5 1-1z" opacity=".2"/><path d="m7 0v1h1v-1zm0 2v1h1v-1zm0 2c0 .5.4 1 1 1v-1z" fill="#ddd"/><path d="m8 1h1v1h-1zm0 2h1v1h-1z" fill="#b3b3b3"/><path d="m8 6c-2 0-2 2-2 2v4s0 2 2 2 2-2 2-2v-4s0-2-2-2zm0 1c1 0 1 1 1 1s0 1-1 1-1-1-1-1 0-1 1-1zm0 3c1 0 1 1 1 1v1s0 1-1 1-1-1-1-1v-1s0-1 1-1z" opacity=".2"/><path d="m8 5c-2 0-2 2-2 2v4s0 2 2 2 2-2 2-2v-4s0-2-2-2zm0 1c1 0 1 1 1 1s0 1-1 1-1-1-1-1 0-1 1-1zm0 3c1 0 1 1 1 1v1s0 1-1 1-1-1-1-1v-1s0-1 1-1z" fill="#f5f5f5"/></svg>