<svg viewBox="0 0 16 16"><path d="m8 0c-4 0-7 3-7 7v7s0 2 2 2h10c2 0 2-2 2-2v-7c0-4-3-7-7-7z" fill="#64b5f6"/><g fill="#1e88e5"><circle cx="2.5" cy="2.5" r="2.5"/><circle cx="13.5" cy="2.5" r="2.5"/></g><path d="m7 8h1v2h-1z" fill="#fff"/><path d="m8 8h1v2h-1z" fill="#f2f2f2"/><path d="m7 7s-1 0-1 1 1 1 1 1c .5 0 1-.4 1-.4s.5.4 1 .4c0 0 1 0 1-1s-1-1-1-1z" fill="#1e88e5"/><ellipse cx="8" cy="7.5" fill="#3e2723" rx="1.1" ry=".8"/><g fill="#fefefe"><circle cx="5" cy="5" r="2"/><circle cx="11" cy="5" r="2"/></g><g fill="#333"><circle cx="10.5" cy="4.4" r=".7"/><circle cx="4.5" cy="4.4" r=".7"/></g></svg>