<svg viewBox="0 0 16 16"><rect fill="#1976d2" height="16" rx="2" width="16"/><path d="m4 5v1h1v3h-1v1h3v-1h-1v-1h1c1 0 1 2 2 2h2c1 0 1-2 1-2h-1s0 1-1 1c-.5 0-1-1-1-1h .5s1.5 0 1.5-1.5c0 0 0-1.5-1.5-1.5zm2 1h3s .5 0 .5.5-.5.5-.5.5h-3z" fill="#fff" stroke-linecap="round" stroke-width="4"/><path d="m7.9 2.1-.3.5h-.1l-.4-.4-.3.1-.2.5h-.1l-.4-.3-.2.1-.1.5-.1.1-.5-.2-.2.2v.5l-.1.1-.5-.1-.2.2.1.5-.1.1h-.5l-.2.2.2.5-.1.1-.5.1-.1.3.3.4v.1l-.5.2-.1.3.4.4v.1l-.5.3v.3l.5.3v.1l-.4.4.1.3.5.2v.1l-.3.4.1.3.5.1.1.1-.2.5.2.2h.5l.1.1-.1.5.2.2.5-.1.1.1v.5l.2.1.5-.2.1.1.1.5.2.1.4-.3h.1l.2.5.3.1.4-.4h.1l.3.5h.3l.3-.5h.1l.4.4.3-.1.2-.5h.1l.4.3.3-.1.1-.5.1-.1.5.2.2-.1v-.5l.1-.1.5.1.2-.2-.1-.5.1-.1h.5l.2-.2-.2-.5.1-.1.5-.1.1-.3-.3-.4v-.1l.5-.2.1-.3-.4-.4v-.1l.5-.3v-.3l-.5-.3v-.1l.4-.4-.1-.3-.5-.2v-.1l.3-.4-.1-.3-.5-.1-.1-.1.2-.5-.2-.2h-.5l-.1-.1.1-.5-.2-.2-.5.1-.1-.1v-.5l-.2-.2-.5.2-.1-.1-.1-.5-.3-.1-.4.3h-.1l-.2-.5-.3-.1-.4.4h-.1l-.4-.5zm.1 1.4c2.2 0 4 1.8 4 4s-1.8 4-4 4-4-1.8-4-4 1.8-4 4-4z" fill="#fff"/></svg>